<svg width="377" height="353" viewBox="0 0 377 353" fill="none" xmlns="http://www.w3.org/2000/svg">
<g clip-path="url(#clip0_675_191)">
<path fill-rule="evenodd" clip-rule="evenodd" d="M-0.414062 -0.414307C97.0815 -0.414307 194.576 -0.414307 292.072 -0.414307C283.897 6.89188 284.449 13.5204 293.729 19.4714C318.526 20.4309 343.383 20.569 368.3 19.8857C375.009 17.5935 377.219 13.0363 374.929 6.21426C372.865 3.03639 370.102 0.826866 366.643 -0.414307C369.957 -0.414307 373.272 -0.414307 376.586 -0.414307C376.586 117.243 376.586 234.9 376.586 352.557C285.167 352.557 193.748 352.557 102.329 352.557C103.366 351.033 103.366 349.515 102.329 348C89.7577 347.86 77.3289 347.446 65.0431 346.757C88.8115 327.68 112.563 308.623 136.3 289.586C130.431 306.226 124.631 322.936 118.9 339.714C119.179 340.568 119.731 340.982 120.557 340.957C120.557 342.062 120.557 343.167 120.557 344.271C119.585 345.112 119.033 346.216 118.9 347.586C116.759 348.04 115.931 349.421 116.415 351.729C196.786 351.729 277.157 351.729 357.529 351.729C357.999 348.902 356.894 347.245 354.215 346.757C355.681 345.421 356.647 343.763 357.115 341.786C357.667 251.747 357.667 161.71 357.115 71.6714C355.463 68.428 352.839 66.4947 349.243 65.8714C306.573 64.906 263.764 64.768 220.815 65.4571C219.444 65.9606 218.063 66.3749 216.672 66.7C211.7 66.7 206.729 66.7 201.757 66.7C202.029 57.9888 201.752 49.4269 200.929 41.0143C200.929 40.4619 200.653 40.1857 200.1 40.1857C199.638 39.1169 198.809 38.4265 197.615 38.1143C185.186 37.5619 172.757 37.5619 160.329 38.1143C159.51 47.5758 159.234 57.1044 159.5 66.7C122.766 66.5619 86.0325 66.7 49.3002 67.1143C41.8055 69.5365 38.6294 74.6461 39.7717 82.4428C40.9363 86.6462 43.5601 89.5462 47.6431 91.1428C54.16 91.0683 60.5124 91.7593 66.7002 93.2143C68.8804 92.2001 71.228 91.6474 73.7431 91.5571C82.3294 90.9382 87.4385 94.8051 89.0717 103.157C88.4767 108.916 85.4392 112.644 79.9574 114.343C74.9859 114.619 70.0145 114.895 65.0431 115.171C58.3234 118.539 55.9758 123.924 58.0002 131.329C58.7322 133.484 59.975 135.28 61.7288 136.714C64.0725 137.747 66.282 138.99 68.3574 140.443C75.7696 139.637 83.2269 139.361 90.7288 139.614C89.9176 146.046 92.1266 151.018 97.3574 154.529C97.1726 161.397 93.8583 165.955 87.4145 168.2C75.8145 168.476 64.2145 168.753 52.6145 169.029C33.0099 175.212 24.3099 188.608 26.5145 209.214C28.0648 216.468 31.5172 222.544 36.8717 227.443C36.7339 232.974 36.872 238.498 37.2859 244.014C37.7002 244.429 38.1145 244.843 38.5288 245.257C51.783 245.671 65.0402 245.81 78.3002 245.671C58.1746 262.199 38.0128 278.77 17.8145 295.386C15.9866 300.186 17.0914 304.053 21.1288 306.986C23.6145 310.3 26.1002 313.614 28.5859 316.929C37.0613 326.963 45.347 337.182 53.4431 347.586C47.0847 347.448 40.7323 347.586 34.3859 348C33.5275 349.472 33.5275 350.99 34.3859 352.557C22.7859 352.557 11.1859 352.557 -0.414062 352.557C-0.414062 234.9 -0.414062 117.243 -0.414062 -0.414307Z" fill="#FDFEFE"/>
<path fill-rule="evenodd" clip-rule="evenodd" d="M292.071 -0.414307C316.928 -0.414307 341.786 -0.414307 366.643 -0.414307C370.102 0.826866 372.864 3.03639 374.928 6.21427C374.451 9.30633 373.484 12.3444 372.028 15.3286C370.72 16.6055 369.201 17.5722 367.471 18.2286C342.75 18.3674 318.169 18.7817 293.728 19.4714C284.448 13.5204 283.897 6.89188 292.071 -0.414307Z" fill="#0A65FE"/>
<path fill-rule="evenodd" clip-rule="evenodd" d="M311.957 5.38568C313.91 5.25036 315.843 5.38845 317.757 5.79996C318.19 6.26504 318.465 6.81742 318.586 7.45711C318.209 9.46415 318.071 11.5356 318.171 13.6714C316.198 14.4461 314.127 14.7223 311.957 14.5C311.957 11.4618 311.957 8.4238 311.957 5.38568Z" fill="#F0F5FF"/>
<path fill-rule="evenodd" clip-rule="evenodd" d="M339.3 4.55713C340.822 4.67267 341.098 5.22506 340.129 6.21427C339.468 5.83571 339.192 5.28332 339.3 4.55713Z" fill="#C1D6FF"/>
<path fill-rule="evenodd" clip-rule="evenodd" d="M374.929 6.21423C377.219 13.0363 375.009 17.5934 368.3 19.8857C343.383 20.569 318.526 20.4309 293.729 19.4714C318.169 18.7817 342.75 18.3674 367.471 18.2285C369.201 17.5721 370.72 16.6055 372.029 15.3285C373.484 12.3443 374.451 9.3063 374.929 6.21423Z" fill="#073ACF"/>
<path fill-rule="evenodd" clip-rule="evenodd" d="M313.615 6.21423C314.72 6.21423 315.825 6.21423 316.93 6.21423C316.93 7.0428 316.93 7.87138 316.93 8.69995C315.825 8.69995 314.72 8.69995 313.615 8.69995C313.615 7.87138 313.615 7.0428 313.615 6.21423Z" fill="#3475FF"/>
<path fill-rule="evenodd" clip-rule="evenodd" d="M343.443 5.38574C344.751 5.85441 345.856 6.68298 346.758 7.87146C344.548 9.80476 344.548 11.7382 346.758 13.6715C345.804 14.6914 344.838 14.6914 343.858 13.6715C343.052 10.8433 342.915 8.08138 343.443 5.38574Z" fill="#DCE8FF"/>
<path fill-rule="evenodd" clip-rule="evenodd" d="M320.242 7.04285C321.77 8.51679 322.322 10.4501 321.899 12.8428C323.004 12.8428 324.109 12.8428 325.213 12.8428C324.958 10.8344 325.235 8.90108 326.042 7.04285C327.146 9.52856 327.146 12.0143 326.042 14.5C324.3 14.5171 322.506 14.241 320.656 13.6714C320.244 11.479 320.106 9.26947 320.242 7.04285Z" fill="#E5EEFF"/>
<path fill-rule="evenodd" clip-rule="evenodd" d="M339.299 7.04285C340.347 7.88342 340.899 9.12629 340.956 10.7714C340.68 12.0143 340.404 13.2571 340.128 14.5C339.312 12.0738 339.037 9.58814 339.299 7.04285Z" fill="#ECF3FF"/>
<path fill-rule="evenodd" clip-rule="evenodd" d="M313.615 10.3572C314.72 10.3572 315.825 10.3572 316.93 10.3572C316.93 11.1857 316.93 12.0143 316.93 12.8429C315.825 12.8429 314.72 12.8429 313.615 12.8429C313.615 12.0143 313.615 11.1857 313.615 10.3572Z" fill="#0E68FF"/>
<path fill-rule="evenodd" clip-rule="evenodd" d="M328.529 7.04285C330.2 7.85972 331.304 9.24072 331.844 11.1857C332.52 9.7048 333.348 8.3239 334.329 7.04285C334.585 10.9921 333.342 14.5825 330.601 17.8143C330.108 16.6552 330.246 15.5505 331.015 14.5C329.685 12.1686 328.857 9.68284 328.529 7.04285Z" fill="#D8E5FF"/>
<path fill-rule="evenodd" clip-rule="evenodd" d="M200.1 40.1857C199.542 52.395 198.989 64.6856 198.443 77.0571C186.018 77.4713 173.589 77.6094 161.157 77.4714C160.646 77.3797 160.232 77.1035 159.915 76.6428C159.501 73.34 159.363 70.0257 159.5 66.7C159.234 57.1044 159.51 47.5758 160.329 38.1143C172.757 37.5618 185.186 37.5618 197.615 38.1143C198.809 38.4265 199.638 39.1169 200.1 40.1857Z" fill="#0A65FE"/>
<path fill-rule="evenodd" clip-rule="evenodd" d="M200.099 40.1857C200.652 40.1857 200.928 40.4618 200.928 41.0142C201.196 53.9216 200.92 66.7645 200.099 79.5428C187.671 80.0952 175.242 80.0952 162.813 79.5428C162.083 78.9559 161.532 78.2655 161.156 77.4714C173.588 77.6094 186.017 77.4713 198.442 77.0571C198.988 64.6855 199.541 52.395 200.099 40.1857Z" fill="#1540D0"/>
<path fill-rule="evenodd" clip-rule="evenodd" d="M166.129 45.1572C169.806 44.2665 171.463 45.6474 171.1 49.3C178.005 49.3 184.91 49.3 191.814 49.3C191.353 53.4015 190.524 57.4062 189.329 61.3143C184.263 61.7393 179.291 62.5679 174.414 63.8C178.436 64.3135 182.441 64.1754 186.429 63.3857C187.396 63.6619 188.362 63.9381 189.329 64.2143C189.19 64.4905 189.053 64.7667 188.914 65.0429C183.39 66.1476 177.867 66.1476 172.343 65.0429C171.932 63.7711 172.069 62.5282 172.757 61.3143C171.325 57.101 170.219 52.82 169.443 48.4715C166.178 49.0796 165.074 47.9749 166.129 45.1572Z" fill="#E5EDFF"/>
<path fill-rule="evenodd" clip-rule="evenodd" d="M172.758 51.7858C174.415 51.7858 176.072 51.7858 177.729 51.7858C177.729 52.8905 177.729 53.9953 177.729 55.1001C174.63 55.847 172.972 54.7422 172.758 51.7858Z" fill="#1A6BFF"/>
<path fill-rule="evenodd" clip-rule="evenodd" d="M179.385 51.7858C180.489 51.7858 181.595 51.7858 182.699 51.7858C182.699 52.8905 182.699 53.9953 182.699 55.1001C181.595 55.1001 180.489 55.1001 179.385 55.1001C179.385 53.9953 179.385 52.8905 179.385 51.7858Z" fill="#0063FF"/>
<path fill-rule="evenodd" clip-rule="evenodd" d="M184.357 51.7858C185.739 51.7858 187.119 51.7858 188.5 51.7858C188.5 52.8905 188.5 53.9953 188.5 55.1001C187.119 55.1001 185.739 55.1001 184.357 55.1001C184.357 53.9953 184.357 52.8905 184.357 51.7858Z" fill="#196BFF"/>
<path fill-rule="evenodd" clip-rule="evenodd" d="M176.9 56.7572C177.214 59.2983 176.385 60.1269 174.414 59.2429C174.414 58.4143 174.414 57.5858 174.414 56.7572C175.243 56.7572 176.071 56.7572 176.9 56.7572Z" fill="#0164FF"/>
<path fill-rule="evenodd" clip-rule="evenodd" d="M178.557 56.7572C179.938 56.7572 181.318 56.7572 182.699 56.7572C182.699 57.8619 182.699 58.9668 182.699 60.0715C181.318 60.0715 179.938 60.0715 178.557 60.0715C178.557 58.9668 178.557 57.8619 178.557 56.7572Z" fill="#1D6DFF"/>
<path fill-rule="evenodd" clip-rule="evenodd" d="M184.357 56.7572C185.462 56.7572 186.567 56.7572 187.672 56.7572C187.672 57.5858 187.672 58.4143 187.672 59.2429C186.567 59.2429 185.462 59.2429 184.357 59.2429C184.357 58.4143 184.357 57.5858 184.357 56.7572Z" fill="#1C6CFF"/>
<path fill-rule="evenodd" clip-rule="evenodd" d="M176.9 56.7572C177.688 57.9327 177.964 59.3136 177.728 60.9001C176.085 61.1844 174.98 60.632 174.414 59.2429C176.385 60.1269 177.214 59.2983 176.9 56.7572Z" fill="#6FA3FF"/>
<path fill-rule="evenodd" clip-rule="evenodd" d="M349.243 65.8715C347.563 65.7372 345.906 65.8752 344.272 66.2858C346.896 67.8048 348.967 69.8762 350.486 72.5C351.038 161.986 351.038 251.471 350.486 340.957C349.681 344.53 347.61 347.153 344.272 348.829C345.343 349.235 346.448 349.373 347.586 349.243C326.873 349.796 306.021 350.072 285.029 350.072C262.763 350.192 240.529 349.777 218.329 348.829C215.654 347.534 213.859 345.462 212.943 342.614C212.529 319.416 212.39 296.216 212.529 273.014C248.157 273.014 283.786 273.014 319.414 273.014C327.424 273.014 335.433 273.014 343.443 273.014C343.414 260.522 342.585 248.231 340.957 236.143C342.606 206.36 343.158 176.393 342.614 146.243C324.383 146.381 306.155 146.243 287.929 145.829C287.55 145.486 287.273 145.071 287.1 144.586C276.522 142.414 265.75 141.586 254.786 142.1C254.786 142.929 254.786 143.757 254.786 144.586C243.502 145.783 232.178 146.335 220.814 146.243C220.114 155.061 219.838 163.9 219.986 172.757C216.478 172.725 213.164 172.173 210.043 171.1C210.872 171.1 211.7 171.1 212.529 171.1C212.529 160.053 212.529 149.005 212.529 137.957C218.209 138.662 222.075 136.453 224.129 131.329C226.5 137.859 230.919 139.654 237.386 136.714C239.313 135.219 240.693 133.423 241.529 131.329C242.562 135.674 245.324 137.883 249.814 137.957C253.677 137.965 256.439 136.308 258.1 132.986C259.908 133.649 261.289 134.891 262.243 136.714C268.311 139.406 272.869 137.886 275.914 132.157C276.232 132.618 276.646 132.894 277.157 132.986C278.445 135.842 280.655 137.499 283.786 137.957C284.132 138.555 284.684 138.97 285.443 139.2C304.498 139.614 323.556 139.753 342.614 139.614C342.614 136.024 342.614 132.433 342.614 128.843C342.614 128.567 342.614 128.29 342.614 128.014C343.44 115.179 343.716 102.198 343.443 89.0715C337.367 89.0715 331.29 89.0715 325.214 89.0715C319.414 89.0715 313.614 89.0715 307.814 89.0715C302.014 89.0715 296.214 89.0715 290.414 89.0715C284.338 89.0715 278.262 89.0715 272.186 89.0715C254.783 88.9331 237.383 89.0715 219.986 89.4858C217.612 92.5448 215.126 95.4448 212.529 98.1858C212.39 89.3432 212.529 80.5053 212.943 71.6715C214.047 69.8818 215.289 68.2246 216.672 66.7C218.063 66.375 219.444 65.9607 220.814 65.4572C263.763 64.7681 306.573 64.9061 349.243 65.8715Z" fill="#BABABA"/>
<path fill-rule="evenodd" clip-rule="evenodd" d="M349.243 65.8715C352.839 66.4948 355.463 68.4281 357.114 71.6715C357.667 161.71 357.667 251.747 357.114 341.786C356.647 343.764 355.681 345.421 354.214 346.757C352.285 348.23 350.075 349.059 347.586 349.243C346.448 349.373 345.343 349.235 344.271 348.829C347.61 347.153 349.681 344.53 350.486 340.957C351.038 251.471 351.038 161.986 350.486 72.5C348.967 69.8762 346.896 67.8048 344.271 66.2857C345.906 65.8752 347.563 65.7371 349.243 65.8715Z" fill="#8F8F8F"/>
<path fill-rule="evenodd" clip-rule="evenodd" d="M200.929 41.0143C201.752 49.4269 202.029 57.9888 201.757 66.7C206.729 66.7 211.7 66.7 216.672 66.7C215.289 68.2246 214.047 69.8817 212.943 71.6714C212.529 80.5052 212.39 89.3432 212.529 98.1857C211.49 100.334 210.109 102.268 208.386 103.986C174.137 103.847 139.889 103.986 105.643 104.4C104.953 105.09 104.262 105.781 103.572 106.471C103.158 111.159 103.02 115.854 103.157 120.557C103.157 123.871 103.157 127.186 103.157 130.5C97.3423 131.329 93.1995 134.367 90.7287 139.614C83.2268 139.361 75.7695 139.637 68.3572 140.443C66.2818 138.99 64.0724 137.748 61.7287 136.714C59.9749 135.28 58.7321 133.485 58.0001 131.329C55.9757 123.924 58.3233 118.539 65.043 115.171C70.0144 114.896 74.9858 114.619 79.9572 114.343C85.4391 112.644 88.4766 108.916 89.0715 103.157C87.4384 94.8051 82.3293 90.9382 73.743 91.5571C71.2279 91.6475 68.8803 92.2001 66.7001 93.2143C60.5122 91.7593 54.1598 91.0683 47.643 91.1429C43.56 89.5462 40.9362 86.6462 39.7715 82.4429C38.6293 74.6461 41.8054 69.5365 49.3001 67.1143C86.0323 66.7 122.765 66.5619 159.5 66.7C159.363 70.0257 159.501 73.34 159.914 76.6429C160.232 77.1035 160.646 77.3797 161.157 77.4714C161.533 78.2655 162.084 78.956 162.814 79.5429C175.243 80.0953 187.672 80.0953 200.1 79.5429C200.921 66.7645 201.197 53.9217 200.929 41.0143Z" fill="#EFEFF1"/>
<path fill-rule="evenodd" clip-rule="evenodd" d="M172.757 66.7C175.947 66.8662 176.776 68.3853 175.243 71.2571C171.959 71.3546 171.131 69.8355 172.757 66.7Z" fill="#EBF2FF"/>
<path fill-rule="evenodd" clip-rule="evenodd" d="M185.185 66.7C188.948 66.9611 189.776 68.4801 187.671 71.2571C184.387 71.3546 183.559 69.8355 185.185 66.7Z" fill="#E1EBFF"/>
<path fill-rule="evenodd" clip-rule="evenodd" d="M244.843 74.9857C269.149 74.8477 293.455 74.9857 317.758 75.4C319.967 77.0572 319.967 78.7143 317.758 80.3714C293.729 80.9238 269.7 80.9238 245.672 80.3714C243.862 78.7991 243.586 77.004 244.843 74.9857Z" fill="#E7E7E8"/>
<path fill-rule="evenodd" clip-rule="evenodd" d="M272.186 89.9C272.186 89.6241 272.186 89.3473 272.186 89.0714C278.261 89.0714 284.338 89.0714 290.414 89.0714C290.557 89.8934 290.28 90.4452 289.586 90.7286C283.94 89.9074 278.14 89.6307 272.186 89.9Z" fill="#6295E2"/>
<path fill-rule="evenodd" clip-rule="evenodd" d="M307.814 89.9C307.814 89.6241 307.814 89.3473 307.814 89.0714C313.614 89.0714 319.414 89.0714 325.214 89.0714C325.357 89.8934 325.08 90.4452 324.386 90.7286C319.018 89.9074 313.493 89.6315 307.814 89.9Z" fill="#5F92E2"/>
<path fill-rule="evenodd" clip-rule="evenodd" d="M272.185 89.0714C272.185 89.3473 272.185 89.6241 272.185 89.9C262.242 102.329 252.3 114.757 242.357 127.186C241.804 127.186 241.528 127.462 241.528 128.014C236.004 128.014 230.481 128.014 224.957 128.014C234.387 115.122 244.33 102.555 254.785 90.3143C248.985 89.7616 243.185 89.7616 237.385 90.3143C226.99 102.777 216.771 115.343 206.728 128.014C200.928 128.014 195.128 128.014 189.328 128.014C191.007 125.514 192.664 123.028 194.3 120.557C199.38 115.374 204.075 109.85 208.385 103.986C210.109 102.268 211.489 100.334 212.528 98.1857C215.126 95.4448 217.611 92.5448 219.985 89.4857C237.383 89.0714 254.783 88.9331 272.185 89.0714Z" fill="#B5D3FE"/>
<path fill-rule="evenodd" clip-rule="evenodd" d="M224.957 128.014C224.681 128.014 224.404 128.014 224.129 128.014C218.329 128.014 212.529 128.014 206.729 128.014C216.772 115.343 226.99 102.777 237.386 90.3143C243.186 89.7616 248.986 89.7616 254.786 90.3143C244.33 102.555 234.387 115.122 224.957 128.014Z" fill="#0565FE"/>
<path fill-rule="evenodd" clip-rule="evenodd" d="M272.186 89.9C278.141 89.6308 283.941 89.9075 289.586 90.7286C279.444 103.006 269.501 115.434 259.757 128.014C259.482 128.014 259.205 128.014 258.929 128.014C253.25 128.283 247.726 128.007 242.357 127.186C252.3 114.757 262.243 102.329 272.186 89.9Z" fill="#0665FE"/>
<path fill-rule="evenodd" clip-rule="evenodd" d="M290.415 89.0714C296.215 89.0714 302.015 89.0714 307.815 89.0714C307.815 89.3473 307.815 89.6241 307.815 89.9C296.972 102.121 286.753 114.826 277.158 128.014C276.882 128.014 276.605 128.014 276.329 128.014C270.805 128.014 265.282 128.014 259.758 128.014C269.502 115.434 279.445 103.005 289.586 90.7286C290.281 90.4452 290.557 89.8934 290.415 89.0714Z" fill="#B5D4FE"/>
<path fill-rule="evenodd" clip-rule="evenodd" d="M307.813 89.9001C313.492 89.6316 319.017 89.9075 324.385 90.7286C314.442 103.157 304.499 115.586 294.556 128.014C294.28 128.014 294.004 128.014 293.728 128.014C288.204 128.014 282.68 128.014 277.156 128.014C286.752 114.826 296.971 102.121 307.813 89.9001Z" fill="#0565FE"/>
<path fill-rule="evenodd" clip-rule="evenodd" d="M325.214 89.0714C331.29 89.0714 337.366 89.0714 343.442 89.0714C343.716 102.198 343.439 115.179 342.614 128.014C342.752 115.306 342.614 102.602 342.199 89.9C332.103 102.387 322.022 114.815 311.957 127.186C311.404 127.186 311.128 127.462 311.128 128.014C305.604 128.014 300.081 128.014 294.557 128.014C304.499 115.586 314.442 103.157 324.385 90.7286C325.08 90.4452 325.356 89.8934 325.214 89.0714Z" fill="#B3D2FC"/>
<path fill-rule="evenodd" clip-rule="evenodd" d="M342.614 128.014C332.248 128.287 322.028 128.01 311.957 127.186C322.023 114.815 332.103 102.387 342.2 89.9C342.614 102.602 342.753 115.307 342.614 128.014Z" fill="#0364FE"/>
<path fill-rule="evenodd" clip-rule="evenodd" d="M208.385 103.986C204.075 109.85 199.38 115.374 194.3 120.557C187.947 120.557 181.595 120.557 175.243 120.557C175.647 117.192 174.267 115.258 171.1 114.757C169.287 114.597 167.906 115.288 166.957 116.829C161.65 116.97 156.954 118.49 152.871 121.386C136.363 120.568 119.791 120.291 103.157 120.557C103.019 115.854 103.158 111.159 103.571 106.471C104.261 105.781 104.952 105.09 105.643 104.4C139.889 103.986 174.136 103.847 208.385 103.986Z" fill="#B9BBBE"/>
<path fill-rule="evenodd" clip-rule="evenodd" d="M175.242 120.557C174.115 122.237 172.734 123.618 171.099 124.7C166.944 125.824 164.458 128.585 163.642 132.986C162.528 132.284 161.699 131.318 161.157 130.086C160.37 129.575 159.68 129.712 159.085 130.5C158.943 133.256 159.081 136.017 159.499 138.786C158.671 138.786 157.842 138.786 157.014 138.786C152.254 135.339 150.183 130.643 150.799 124.7C151.766 123.733 152.732 122.767 153.699 121.8C153.51 121.469 153.234 121.332 152.871 121.386C156.954 118.49 161.65 116.97 166.957 116.829C167.905 115.288 169.286 114.597 171.099 114.757C174.266 115.258 175.647 117.192 175.242 120.557Z" fill="#0A0808"/>
<path fill-rule="evenodd" clip-rule="evenodd" d="M103.157 120.557C119.791 120.291 136.363 120.568 152.871 121.386C153.234 121.332 153.511 121.469 153.7 121.8C152.733 122.767 151.767 123.733 150.8 124.7C150.183 130.643 152.255 135.339 157.014 138.786C156.738 141.547 156.462 144.31 156.186 147.071C155.633 147.347 155.081 147.624 154.528 147.9C150.562 148.226 147.248 149.883 144.586 152.871C135.706 162.576 126.867 172.243 118.071 181.871C114.081 181.187 109.938 180.773 105.643 180.629C104.953 179.938 104.262 179.247 103.571 178.557C103.157 171.105 103.019 163.648 103.157 156.186C114.95 153.59 118.403 146.685 113.514 135.471C110.867 132.149 107.414 130.492 103.157 130.5C103.157 127.186 103.157 123.871 103.157 120.557Z" fill="#D3D5D7"/>
<path fill-rule="evenodd" clip-rule="evenodd" d="M175.243 120.557C181.595 120.557 187.947 120.557 194.3 120.557C192.664 123.028 191.007 125.514 189.328 128.014C189.114 135.648 192.98 138.824 200.928 137.543C203.297 136.139 205.23 134.344 206.728 132.157C207.833 134.919 209.767 136.853 212.528 137.957C212.528 149.004 212.528 160.053 212.528 171.1C211.7 171.1 210.871 171.1 210.043 171.1C208.635 171.233 207.254 171.095 205.9 170.686C198.28 165.91 190.546 161.353 182.7 157.014C180.305 152.137 176.439 149.1 171.1 147.9C170.101 146.917 168.996 146.917 167.786 147.9C167.936 146.167 167.66 144.51 166.957 142.929C168.338 142.376 169.719 141.824 171.1 141.271C171.519 138.876 172.348 136.666 173.586 134.643C172.279 131.477 171.45 128.163 171.1 124.7C172.735 123.618 174.115 122.237 175.243 120.557Z" fill="#D3D4D7"/>
<path fill-rule="evenodd" clip-rule="evenodd" d="M171.1 124.7C171.45 128.163 172.279 131.477 173.586 134.643C172.348 136.666 171.519 138.876 171.1 141.271C169.719 141.824 168.338 142.376 166.957 142.929C167.66 144.51 167.936 146.167 167.786 147.9C163.756 148.164 159.889 147.888 156.186 147.071C156.461 144.31 156.738 141.547 157.014 138.786C157.843 138.786 158.671 138.786 159.5 138.786C159.081 136.017 158.943 133.256 159.086 130.5C159.68 129.712 160.371 129.574 161.157 130.086C161.7 131.318 162.528 132.284 163.643 132.986C164.459 128.585 166.945 125.823 171.1 124.7Z" fill="#F88D76"/>
<path fill-rule="evenodd" clip-rule="evenodd" d="M258.928 128.014C259.204 128.014 259.481 128.014 259.757 128.014C265.281 128.014 270.804 128.014 276.328 128.014C276.342 129.725 276.618 131.382 277.157 132.986C276.646 132.894 276.231 132.618 275.914 132.157C272.868 137.886 268.311 139.405 262.242 136.714C261.289 134.891 259.908 133.649 258.1 132.986C258.638 131.382 258.914 129.725 258.928 128.014Z" fill="#9BB0D0"/>
<path fill-rule="evenodd" clip-rule="evenodd" d="M311.957 127.186C322.029 128.01 332.248 128.287 342.615 128.014C342.615 128.29 342.615 128.567 342.615 128.843C332.119 128.843 321.624 128.843 311.129 128.843C311.129 128.567 311.129 128.29 311.129 128.014C311.129 127.462 311.405 127.186 311.957 127.186Z" fill="#4F82D1"/>
<path fill-rule="evenodd" clip-rule="evenodd" d="M189.329 128.014C195.129 128.014 200.929 128.014 206.729 128.014C206.729 129.396 206.729 130.776 206.729 132.157C205.23 134.344 203.297 136.139 200.929 137.543C192.98 138.824 189.114 135.648 189.329 128.014Z" fill="#9CB1D1"/>
<path fill-rule="evenodd" clip-rule="evenodd" d="M206.729 128.014C212.529 128.014 218.329 128.014 224.129 128.014C224.129 129.119 224.129 130.224 224.129 131.329C222.075 136.453 218.209 138.662 212.529 137.957C209.767 136.853 207.833 134.919 206.729 132.157C206.729 130.776 206.729 129.396 206.729 128.014Z" fill="#0645B1"/>
<path fill-rule="evenodd" clip-rule="evenodd" d="M224.129 128.014C224.405 128.014 224.682 128.014 224.957 128.014C230.482 128.014 236.005 128.014 241.529 128.014C241.529 129.119 241.529 130.224 241.529 131.329C240.694 133.423 239.313 135.219 237.386 136.714C230.919 139.654 226.5 137.859 224.129 131.329C224.129 130.224 224.129 129.119 224.129 128.014Z" fill="#9BB0D0"/>
<path fill-rule="evenodd" clip-rule="evenodd" d="M242.358 127.186C247.726 128.007 253.25 128.283 258.929 128.014C258.915 129.725 258.639 131.382 258.101 132.986C256.439 136.308 253.678 137.965 249.815 137.957C245.324 137.883 242.563 135.674 241.529 131.329C241.529 130.224 241.529 129.119 241.529 128.014C241.529 127.462 241.805 127.186 242.358 127.186Z" fill="#0945B1"/>
<path fill-rule="evenodd" clip-rule="evenodd" d="M276.328 128.014C276.604 128.014 276.881 128.014 277.157 128.014C282.681 128.014 288.204 128.014 293.728 128.014C293.728 129.119 293.728 130.224 293.728 131.329C292.136 135.999 288.821 138.208 283.785 137.957C280.654 137.499 278.444 135.842 277.157 132.986C276.618 131.382 276.342 129.725 276.328 128.014Z" fill="#0644B0"/>
<path fill-rule="evenodd" clip-rule="evenodd" d="M293.729 128.014C294.004 128.014 294.281 128.014 294.557 128.014C300.081 128.014 305.604 128.014 311.129 128.014C311.129 128.29 311.129 128.567 311.129 128.843C310.554 136.601 306.411 139.501 298.7 137.543C296.527 135.795 294.87 133.724 293.729 131.329C293.729 130.224 293.729 129.119 293.729 128.014Z" fill="#9BB0D0"/>
<path fill-rule="evenodd" clip-rule="evenodd" d="M103.156 130.5C107.414 130.492 110.866 132.149 113.514 135.471C118.402 146.685 114.949 153.59 103.156 156.186C101.02 156.274 99.0865 155.721 97.3564 154.529C92.1257 151.018 89.9167 146.047 90.7279 139.614C93.1987 134.367 97.3415 131.329 103.156 130.5Z" fill="#0D66FE"/>
<path fill-rule="evenodd" clip-rule="evenodd" d="M311.128 128.843C321.624 128.843 332.118 128.843 342.614 128.843C342.614 132.433 342.614 136.024 342.614 139.614C323.555 139.753 304.498 139.614 285.442 139.2C284.683 138.97 284.131 138.555 283.785 137.957C288.821 138.208 292.135 135.999 293.728 131.329C294.87 133.724 296.527 135.795 298.699 137.543C306.411 139.501 310.554 136.601 311.128 128.843Z" fill="#A1A2A6"/>
<path fill-rule="evenodd" clip-rule="evenodd" d="M108.957 137.129C110.426 137.803 110.84 138.908 110.2 140.443C107.576 143.067 104.952 145.69 102.328 148.314C99.7249 148.241 97.6535 146.998 96.114 144.586C95.6161 143.372 96.0303 142.543 97.3569 142.1C98.7232 143.051 99.9661 144.156 101.085 145.414C103.879 142.76 106.503 139.999 108.957 137.129Z" fill="#E3EDFF"/>
<path fill-rule="evenodd" clip-rule="evenodd" d="M156.186 147.071C159.89 147.888 163.757 148.164 167.786 147.9C168.997 146.917 170.102 146.917 171.101 147.9C168.609 149.92 165.709 150.749 162.401 150.386C160.605 150.247 158.811 150.11 157.015 149.971C155.82 149.659 154.992 148.969 154.529 147.9C155.082 147.624 155.634 147.347 156.186 147.071Z" fill="#93A2DA"/>
<path fill-rule="evenodd" clip-rule="evenodd" d="M154.528 147.9C154.99 148.969 155.819 149.659 157.013 149.971C158.809 150.11 160.604 150.247 162.399 150.386C165.708 150.749 168.608 149.92 171.099 147.9C176.438 149.1 180.305 152.137 182.699 157.014C184.24 163.501 184.793 170.13 184.356 176.9C183.252 178.833 183.252 180.767 184.356 182.7C185.516 195.677 186.621 208.658 187.671 221.643C180.191 224.294 172.457 225.675 164.471 225.786C155.776 225.151 147.214 223.77 138.785 221.643C139.653 214.4 140.896 207.219 142.513 200.1C143.18 197.452 143.042 194.966 142.099 192.643C141.777 189.788 141.087 187.026 140.028 184.357C136.551 187.122 133.375 190.16 130.499 193.471C129.705 193.847 129.014 194.399 128.428 195.129C123.042 205.9 117.656 216.671 112.271 227.443C111.892 228.104 111.339 228.38 110.613 228.271C108.404 227.443 106.195 226.614 103.985 225.786C103.585 225.027 103.31 224.198 103.156 223.3C105.347 217.296 107.281 211.219 108.956 205.071C110.662 201.335 112.044 197.468 113.099 193.471C114.3 189.412 115.957 185.546 118.071 181.871C126.867 172.243 135.705 162.577 144.585 152.871C147.247 149.883 150.561 148.226 154.528 147.9Z" fill="#0435CA"/>
<path fill-rule="evenodd" clip-rule="evenodd" d="M97.3568 154.529C99.0869 155.721 101.02 156.274 103.157 156.186C103.019 163.648 103.157 171.105 103.571 178.557C104.261 179.247 104.952 179.938 105.643 180.629C109.938 180.773 114.081 181.187 118.071 181.871C115.957 185.546 114.3 189.412 113.1 193.471C88.2409 193.333 63.3838 193.471 38.5282 193.886C38.114 194.3 37.6997 194.714 37.2854 195.129C36.8721 198.431 36.734 201.746 36.8711 205.071C36.8711 212.529 36.8711 219.986 36.8711 227.443C31.5166 222.544 28.0642 216.468 26.514 209.214C24.3094 188.608 33.0094 175.212 52.614 169.029C64.214 168.753 75.814 168.476 87.414 168.2C93.8578 165.955 97.1721 161.397 97.3568 154.529Z" fill="#F0F0F2"/>
<path fill-rule="evenodd" clip-rule="evenodd" d="M182.699 157.014C190.546 161.353 198.28 165.91 205.899 170.686C207.253 171.095 208.634 171.233 210.042 171.1C213.163 172.173 216.478 172.725 219.985 172.757C227.644 173.918 235.24 175.299 242.771 176.9C243.424 179.875 243.286 182.775 242.356 185.6C236.563 186.014 230.763 186.152 224.956 186.014C218.052 186.014 211.147 186.014 204.242 186.014C197.798 183.483 191.446 180.721 185.185 177.729C185.185 177.176 184.909 176.9 184.356 176.9C184.793 170.13 184.24 163.501 182.699 157.014Z" fill="#0527AD"/>
<path fill-rule="evenodd" clip-rule="evenodd" d="M184.358 176.9C184.91 176.9 185.186 177.176 185.186 177.729C184.39 179.191 184.113 180.848 184.358 182.7C183.253 180.767 183.253 178.833 184.358 176.9Z" fill="#748BD6"/>
<path fill-rule="evenodd" clip-rule="evenodd" d="M185.186 177.729C191.447 180.721 197.8 183.483 204.244 186.014C206.553 186.824 209.039 187.1 211.701 186.843C211.701 211.7 211.701 236.557 211.701 261.414C207.834 261.414 203.968 261.414 200.101 261.414C200.101 265.281 200.101 269.147 200.101 273.014C239.865 272.245 279.636 271.969 319.415 272.186C319.415 272.462 319.415 272.738 319.415 273.014C283.786 273.014 248.158 273.014 212.529 273.014C212.391 296.216 212.529 319.416 212.944 342.614C213.859 345.462 215.655 347.533 218.329 348.829C240.53 349.777 262.764 350.192 285.029 350.071C306.022 350.071 326.874 349.795 347.587 349.243C350.076 349.059 352.285 348.23 354.215 346.757C356.895 347.245 357.999 348.902 357.529 351.729C277.158 351.729 196.786 351.729 116.415 351.729C115.931 349.421 116.76 348.04 118.901 347.586C118.993 348.097 119.269 348.511 119.729 348.829C122.768 348.967 125.805 349.104 128.844 349.243C132.212 349.234 135.25 348.681 137.958 347.586C155.104 348.128 171.952 347.576 188.501 345.929C188.777 345.929 189.053 345.929 189.329 345.929C189.188 347.024 189.464 347.991 190.158 348.829C195.427 349.517 200.675 349.379 205.901 348.414C203.35 346.727 200.588 345.347 197.615 344.271C197.615 343.167 197.615 342.062 197.615 340.957C199.227 336.9 199.78 332.482 199.272 327.7C203.415 327.7 207.558 327.7 211.701 327.7C211.701 316.376 211.701 305.053 211.701 293.729C207.558 293.729 203.415 293.729 199.272 293.729C196.569 269.502 192.702 245.473 187.672 221.643C186.622 208.657 185.518 195.677 184.358 182.7C184.113 180.848 184.39 179.191 185.186 177.729Z" fill="#EEEEEF"/>
<path fill-rule="evenodd" clip-rule="evenodd" d="M142.1 192.643C138.396 193.46 134.529 193.736 130.5 193.471C133.376 190.16 136.552 187.122 140.029 184.357C141.087 187.026 141.778 189.788 142.1 192.643Z" fill="#EAEBF0"/>
<path fill-rule="evenodd" clip-rule="evenodd" d="M204.242 186.014C211.147 186.014 218.052 186.014 224.956 186.014C223.494 186.811 221.837 187.087 219.985 186.843C219.985 211.424 219.985 236.004 219.985 260.586C217.499 260.586 215.014 260.586 212.528 260.586C212.802 235.863 212.526 211.282 211.699 186.843C209.037 187.1 206.551 186.824 204.242 186.014Z" fill="#B9BABB"/>
<path fill-rule="evenodd" clip-rule="evenodd" d="M319.414 273.014C319.414 272.738 319.414 272.462 319.414 272.186C319.414 268.595 319.414 265.004 319.414 261.414C312.509 261.414 305.604 261.414 298.699 261.414C305.452 260.591 312.357 260.316 319.414 260.586C319.408 253.914 318.855 247.285 317.756 240.7C317.816 238.993 318.092 237.336 318.585 235.729C317.326 234.025 316.635 232.091 316.514 229.929C316.053 224.68 315.639 219.432 315.271 214.186C312.785 214.186 310.299 214.186 307.814 214.186C309.749 205.22 306.712 198.729 298.699 194.714C295.862 194.095 293.101 194.234 290.414 195.129C286.505 178.982 282.086 162.963 277.156 147.071C269.975 145.967 262.795 145.967 255.614 147.071C258.996 158.257 262.31 169.443 265.556 180.629C263.623 180.904 261.689 181.181 259.756 181.457C262.474 181.504 264.96 182.194 267.214 183.529C265.536 185.343 264.018 187.276 262.656 189.329C262.244 192.077 262.105 194.839 262.242 197.614C266.271 197.35 270.138 197.626 273.842 198.443C266.385 198.443 258.928 198.443 251.471 198.443C250.918 205.071 250.366 205.071 249.814 198.443C246.775 198.443 243.738 198.443 240.699 198.443C238.927 219.482 236.717 240.472 234.071 261.414C226.614 261.414 219.156 261.414 211.699 261.414C211.699 236.557 211.699 211.7 211.699 186.843C212.526 211.282 212.802 235.863 212.528 260.586C215.014 260.586 217.499 260.586 219.985 260.586C219.985 236.004 219.985 211.424 219.985 186.843C221.837 187.087 223.494 186.811 224.956 186.014C230.763 186.152 236.563 186.014 242.356 185.6C243.286 182.775 243.424 179.875 242.771 176.9C235.24 175.299 227.644 173.918 219.985 172.757C219.837 163.9 220.113 155.061 220.814 146.243C232.177 146.335 243.501 145.783 254.785 144.586C254.785 143.757 254.785 142.929 254.785 142.1C265.749 141.585 276.521 142.414 287.099 144.586C287.272 145.071 287.549 145.486 287.928 145.829C306.154 146.243 324.382 146.381 342.614 146.243C343.157 176.393 342.605 206.36 340.956 236.143C342.585 248.231 343.413 260.522 343.442 273.014C335.432 273.014 327.423 273.014 319.414 273.014Z" fill="#CFD0D2"/>
<path fill-rule="evenodd" clip-rule="evenodd" d="M247.328 176.9C253.641 176.779 258.06 179.541 260.585 185.186C260.171 185.462 259.757 185.738 259.343 186.014C257.086 184.727 254.738 183.622 252.3 182.7C252.024 182.838 251.747 182.976 251.471 183.114C252.514 183.879 253.619 184.57 254.785 185.186C251.458 186.238 248.144 186.238 244.843 185.186C244.027 182.76 243.751 180.274 244.014 177.729C245.339 177.951 246.443 177.674 247.328 176.9Z" fill="#FD937C"/>
<path fill-rule="evenodd" clip-rule="evenodd" d="M290.415 195.129C288.604 195.138 287.914 195.966 288.344 197.614C296.116 193.343 301.916 195.277 305.744 203.414C306.157 206.995 306.296 210.585 306.158 214.186C302.015 214.186 297.872 214.186 293.73 214.186C292.937 209.532 292.384 204.837 292.072 200.1C289.587 200.1 287.101 200.1 284.615 200.1C281.855 198.61 278.817 198.058 275.501 198.443C274.948 205.071 274.396 205.071 273.844 198.443C270.14 197.626 266.273 197.35 262.244 197.614C262.107 194.839 262.245 192.077 262.658 189.329C264.019 187.276 265.538 185.343 267.215 183.529C264.962 182.194 262.476 181.504 259.758 181.457C261.691 181.181 263.625 180.904 265.558 180.629C262.312 169.443 258.997 158.257 255.615 147.071C262.796 145.967 269.977 145.967 277.158 147.071C282.088 162.963 286.507 178.982 290.415 195.129Z" fill="#DCDDDF"/>
<path fill-rule="evenodd" clip-rule="evenodd" d="M113.1 193.471C112.045 197.468 110.663 201.335 108.957 205.071C84.9287 205.071 60.9001 205.071 36.8716 205.071C36.7344 201.746 36.8725 198.431 37.2858 195.129C37.7001 194.714 38.1144 194.3 38.5287 193.886C63.3843 193.471 88.2413 193.333 113.1 193.471Z" fill="#BABCBF"/>
<path fill-rule="evenodd" clip-rule="evenodd" d="M273.844 198.443C274.396 205.071 274.948 205.071 275.501 198.443C278.817 198.058 281.855 198.61 284.615 200.1C286.647 220.591 288.856 241.03 291.244 261.414C272.187 261.414 253.129 261.414 234.072 261.414C236.719 240.472 238.929 219.482 240.701 198.443C243.739 198.443 246.777 198.443 249.815 198.443C250.368 205.071 250.92 205.071 251.472 198.443C258.929 198.443 266.387 198.443 273.844 198.443Z" fill="#0164FE"/>
<path fill-rule="evenodd" clip-rule="evenodd" d="M284.615 200.1C287.101 200.1 289.587 200.1 292.072 200.1C292.384 204.837 292.937 209.532 293.73 214.186C295.384 229.901 296.765 245.644 297.872 261.414C295.663 261.414 293.454 261.414 291.244 261.414C288.856 241.03 286.647 220.591 284.615 200.1Z" fill="#0A4CFE"/>
<path fill-rule="evenodd" clip-rule="evenodd" d="M36.8719 205.071C60.9005 205.071 84.9291 205.071 108.958 205.071C107.282 211.219 105.348 217.296 103.158 223.3C103.311 224.198 103.587 225.027 103.986 225.786C103.148 226.922 102.319 228.027 101.5 229.1C100.002 229.093 98.6212 229.507 97.3576 230.343C91.1094 235.629 84.7567 240.739 78.3005 245.671C65.0405 245.81 51.7833 245.671 38.5291 245.257C38.1148 244.843 37.7005 244.429 37.2862 244.014C36.8723 238.498 36.7341 232.974 36.8719 227.443C36.8719 219.986 36.8719 212.529 36.8719 205.071Z" fill="#D4D6D8"/>
<path fill-rule="evenodd" clip-rule="evenodd" d="M142.099 192.643C143.042 194.966 143.181 197.452 142.514 200.1C140.896 207.219 139.653 214.399 138.785 221.643C137.58 224.309 137.028 227.209 137.128 230.343C137.474 235.528 138.303 240.638 139.614 245.671C139.597 246.687 139.321 247.516 138.785 248.157C138.785 247.329 138.785 246.5 138.785 245.671C132.157 245.671 125.528 245.671 118.899 245.671C118.624 245.671 118.347 245.671 118.071 245.671C115.572 242.074 112.81 238.759 109.785 235.729C110.984 235.203 111.536 234.236 111.442 232.829C111.075 231.316 110.798 229.798 110.614 228.271C111.34 228.38 111.892 228.104 112.271 227.443C117.657 216.671 123.042 205.9 128.428 195.129C129.015 194.399 129.706 193.847 130.499 193.471C134.529 193.736 138.396 193.46 142.099 192.643Z" fill="#D0D1D4"/>
<path fill-rule="evenodd" clip-rule="evenodd" d="M298.7 261.414C298.424 261.414 298.147 261.414 297.871 261.414C296.763 245.644 295.383 229.901 293.728 214.186C297.871 214.186 302.014 214.186 306.157 214.186C306.294 210.585 306.156 206.995 305.743 203.414C301.915 195.277 296.115 193.343 288.343 197.614C287.913 195.966 288.603 195.138 290.414 195.129C293.101 194.234 295.863 194.095 298.7 194.714C306.712 198.729 309.75 205.22 307.814 214.186C310.3 214.186 312.785 214.186 315.271 214.186C315.639 219.432 316.053 224.68 316.514 229.929C316.636 232.091 317.327 234.025 318.585 235.729C318.092 237.336 317.816 238.993 317.757 240.7C318.856 247.285 319.408 253.914 319.414 260.586C312.357 260.316 305.453 260.592 298.7 261.414Z" fill="#C2C3C6"/>
<path fill-rule="evenodd" clip-rule="evenodd" d="M138.786 221.643C147.215 223.77 155.778 225.151 164.472 225.786C172.458 225.675 180.192 224.294 187.672 221.643C192.702 245.473 196.569 269.502 199.272 293.729C199.272 305.053 199.272 316.376 199.272 327.7C199.78 332.482 199.227 336.9 197.615 340.957C194.576 340.957 191.539 340.957 188.5 340.957C187.672 340.957 186.843 340.957 186.015 340.957C184.401 325.175 182.467 309.432 180.215 293.729C176.305 277.818 171.748 262.075 166.543 246.5C162.84 262.082 159.664 277.825 157.015 293.729C148.956 309.016 141.085 324.482 133.4 340.129C132.563 340.822 131.596 341.098 130.5 340.957C127.186 340.957 123.872 340.957 120.558 340.957C119.731 340.982 119.179 340.568 118.9 339.714C124.631 322.936 130.431 306.226 136.3 289.586C138.508 287.294 140.855 285.084 143.343 282.957C143.896 280.747 143.896 278.538 143.343 276.329C141.685 273.983 139.891 271.774 137.958 269.7C138.155 262.515 138.431 255.334 138.786 248.157C139.322 247.516 139.598 246.687 139.615 245.671C138.304 240.638 137.475 235.528 137.129 230.343C137.029 227.209 137.581 224.309 138.786 221.643Z" fill="#040404"/>
<path fill-rule="evenodd" clip-rule="evenodd" d="M103.985 225.786C106.195 226.614 108.404 227.443 110.614 228.271C110.798 229.798 111.075 231.316 111.442 232.829C111.536 234.236 110.984 235.203 109.785 235.729C109.785 235.176 109.509 234.9 108.956 234.9C108.293 233 107.74 233.276 107.299 235.729C106.748 237.277 106.197 238.934 105.642 240.7C104.618 241.318 103.513 241.594 102.328 241.529C100.465 237.528 100.189 233.385 101.499 229.1C102.318 228.027 103.147 226.923 103.985 225.786Z" fill="#FC907A"/>
<path fill-rule="evenodd" clip-rule="evenodd" d="M101.499 229.1C100.188 233.385 100.465 237.528 102.328 241.529C101.456 241.405 100.628 241.543 99.842 241.943C75.225 262.418 50.3679 282.581 25.2706 302.429C23.7184 303.84 22.3374 305.359 21.1278 306.986C17.0904 304.053 15.9856 300.186 17.8135 295.386C38.0117 278.77 58.1736 262.199 78.2992 245.671C84.7554 240.739 91.1081 235.629 97.3563 230.343C98.6199 229.507 100.001 229.092 101.499 229.1Z" fill="#99C0FE"/>
<path fill-rule="evenodd" clip-rule="evenodd" d="M108.958 234.9C108.405 235.176 107.853 235.453 107.301 235.729C107.742 233.276 108.294 233 108.958 234.9Z" fill="#AABCEC"/>
<path fill-rule="evenodd" clip-rule="evenodd" d="M108.957 234.9C109.51 234.9 109.786 235.176 109.786 235.729C112.811 238.76 115.573 242.074 118.072 245.671C89.0975 269.279 60.0971 292.893 31.0718 316.514C30.2863 316.915 29.4577 317.052 28.586 316.929C26.1003 313.614 23.6146 310.3 21.1289 306.986C22.3385 305.359 23.7195 303.84 25.2718 302.429C50.369 282.581 75.2262 262.419 99.8432 241.943C100.629 241.543 101.457 241.405 102.329 241.529C103.514 241.594 104.619 241.318 105.643 240.7C106.198 238.934 106.749 237.277 107.3 235.729C107.853 235.453 108.405 235.176 108.957 234.9Z" fill="#0537CB"/>
<path fill-rule="evenodd" clip-rule="evenodd" d="M118.9 245.671C125.529 245.671 132.158 245.671 138.786 245.671C138.786 246.5 138.786 247.329 138.786 248.157C138.431 255.334 138.155 262.515 137.958 269.7C131.315 261.95 124.963 253.94 118.9 245.671Z" fill="#EBECED"/>
<path fill-rule="evenodd" clip-rule="evenodd" d="M118.072 245.671C118.348 245.671 118.624 245.671 118.9 245.671C124.963 253.94 131.315 261.95 137.957 269.7C139.89 271.774 141.685 273.983 143.343 276.329C143.896 278.538 143.896 280.747 143.343 282.957C140.855 285.084 138.508 287.294 136.3 289.586C112.563 308.623 88.8115 327.68 65.0431 346.757C61.411 350.745 57.5443 351.022 53.4431 347.586C45.347 337.182 37.0613 326.963 28.5859 316.929C29.4576 317.052 30.2862 316.914 31.0717 316.514C60.097 292.893 89.0973 269.279 118.072 245.671Z" fill="#9AC1FE"/>
<path fill-rule="evenodd" clip-rule="evenodd" d="M180.214 293.729C172.481 293.729 164.747 293.729 157.014 293.729C159.663 277.825 162.839 262.082 166.542 246.5C171.747 262.075 176.304 277.818 180.214 293.729Z" fill="#E9E9E9"/>
<path fill-rule="evenodd" clip-rule="evenodd" d="M115.585 253.129C117.329 252.881 118.986 253.157 120.557 253.957C121.369 255.184 122.336 256.29 123.457 257.271C124.01 258.653 124.01 260.033 123.457 261.414C115.357 267.608 107.485 274.098 99.8426 280.886C98.4613 281.438 97.0809 281.438 95.6997 280.886C94.77 279.126 93.5272 277.607 91.9711 276.329C91.4185 275.224 91.4185 274.119 91.9711 273.014C100.244 266.809 108.115 260.181 115.585 253.129Z" fill="#D3EDFF"/>
<path fill-rule="evenodd" clip-rule="evenodd" d="M211.7 261.414C219.157 261.414 226.614 261.414 234.071 261.414C253.128 261.414 272.185 261.414 291.242 261.414C293.452 261.414 295.661 261.414 297.871 261.414C298.147 261.414 298.424 261.414 298.7 261.414C305.604 261.414 312.509 261.414 319.414 261.414C319.414 265.005 319.414 268.596 319.414 272.186C279.635 271.969 239.864 272.245 200.1 273.014C200.1 269.147 200.1 265.281 200.1 261.414C203.967 261.414 207.833 261.414 211.7 261.414Z" fill="#FEFEFE"/>
<path fill-rule="evenodd" clip-rule="evenodd" d="M100.671 273.014C100.494 271.652 100.771 270.409 101.5 269.286C102.286 268.774 102.976 268.912 103.571 269.7C104.416 268.547 105.106 267.305 105.643 265.971C106.74 266.094 107.707 265.957 108.543 265.557C108.42 266.655 108.557 267.622 108.957 268.457C107.913 269.379 106.946 269.518 106.057 268.871C104.6 269.674 104.186 270.641 104.814 271.771C103.439 272.819 102.057 273.233 100.671 273.014Z" fill="#7CBCFF"/>
<path fill-rule="evenodd" clip-rule="evenodd" d="M100.672 273.014C100.116 274.13 100.116 275.097 100.672 275.914C99.4071 277.048 98.1643 277.462 96.9438 277.157C96.3911 276.053 96.3911 274.947 96.9438 273.843C98.2397 273.501 99.4825 273.226 100.672 273.014Z" fill="#7BBCFF"/>
<path fill-rule="evenodd" clip-rule="evenodd" d="M84.9295 277.986C86.0671 277.856 87.1724 277.994 88.2438 278.4C89.1734 280.16 90.4163 281.679 91.9723 282.957C92.525 284.338 92.525 285.719 91.9723 287.1C77.7485 298.562 63.5247 310.024 49.3009 321.486C45.9484 321.754 43.6008 320.235 42.2581 316.929C41.7056 315.824 41.7056 314.719 42.2581 313.614C56.7702 302.018 70.9941 290.143 84.9295 277.986Z" fill="#D2ECFF"/>
<path fill-rule="evenodd" clip-rule="evenodd" d="M342.614 284.614C301.684 283.985 260.808 284.261 219.986 285.443C219.867 283.983 220.144 282.602 220.814 281.3C248.725 280.832 276.62 280.003 304.5 278.814C317.189 279.734 329.895 280.286 342.614 280.471C342.614 281.853 342.614 283.233 342.614 284.614Z" fill="#C8C8CA"/>
<path fill-rule="evenodd" clip-rule="evenodd" d="M342.614 284.614C342.614 301.186 342.614 317.757 342.614 334.329C302.013 334.467 261.413 334.329 220.814 333.914C219.991 317.82 219.715 301.663 219.985 285.443C260.807 284.261 301.683 283.985 342.614 284.614Z" fill="#D6D6D6"/>
<path fill-rule="evenodd" clip-rule="evenodd" d="M199.271 293.729C203.414 293.729 207.557 293.729 211.7 293.729C211.7 305.053 211.7 316.376 211.7 327.7C207.557 327.7 203.414 327.7 199.271 327.7C199.271 316.376 199.271 305.053 199.271 293.729Z" fill="#FEFEFE"/>
<path fill-rule="evenodd" clip-rule="evenodd" d="M77.4706 288.757C78.5868 289.313 79.5534 289.313 80.3706 288.757C80.2476 289.855 80.3857 290.822 80.7849 291.657C79.7405 292.579 78.7739 292.718 77.8849 292.071C76.428 292.874 76.0137 293.841 76.642 294.971C75.5977 295.894 74.6311 296.032 73.742 295.386C72.2851 296.189 71.8709 297.155 72.4992 298.286C71.4548 299.208 70.4882 299.346 69.5992 298.7C68.1423 299.503 67.728 300.47 68.3563 301.6C67.312 302.522 66.3454 302.661 65.4563 302.014C63.9994 302.817 63.5851 303.784 64.2134 304.914C63.1691 305.836 62.2025 305.975 61.3134 305.329C59.8566 306.131 59.4423 307.098 60.0706 308.229C58.8054 309.362 57.5625 309.776 56.342 309.471C55.7452 308.136 55.8833 306.893 56.7563 305.743C57.5427 305.232 58.2332 305.369 58.8277 306.157C59.6729 305.005 60.3634 303.762 60.8992 302.429C61.6856 301.917 62.3761 302.055 62.9706 302.843C63.716 301.27 64.6827 299.89 65.8706 298.7C66.3561 298.873 66.7704 299.15 67.1134 299.529C67.9586 298.376 68.6491 297.133 69.1849 295.8C70.2827 295.923 71.2493 295.785 72.0849 295.386C72.1756 292.779 73.2803 291.95 75.3992 292.9C76.3274 291.632 77.0179 290.251 77.4706 288.757Z" fill="#78BAFF"/>
<path fill-rule="evenodd" clip-rule="evenodd" d="M51.7859 309.471C52.9021 310.027 53.8688 310.027 54.6859 309.471C54.5629 310.569 54.7011 311.536 55.1002 312.371C54.0559 313.294 53.0892 313.432 52.2002 312.786C50.7433 313.589 50.329 314.556 50.9573 315.686C49.6921 316.819 48.4492 317.233 47.2288 316.929C46.6764 315.824 46.6764 314.719 47.2288 313.614C48.0573 312.51 48.8859 312.51 49.7145 313.614C50.6427 312.347 51.3332 310.965 51.7859 309.471Z" fill="#7CBCFF"/>
<path fill-rule="evenodd" clip-rule="evenodd" d="M157.015 293.729C164.748 293.729 172.482 293.729 180.215 293.729C182.467 309.432 184.401 325.175 186.015 340.957C186.844 340.957 187.672 340.957 188.501 340.957C188.501 342.614 188.501 344.271 188.501 345.929C171.952 347.576 155.104 348.128 137.958 347.586C134.864 346.606 131.827 345.501 128.844 344.271C129.396 343.167 129.948 342.062 130.501 340.957C131.596 341.098 132.563 340.822 133.401 340.129C141.085 324.482 148.956 309.016 157.015 293.729Z" fill="#FCFCFC"/>
<path fill-rule="evenodd" clip-rule="evenodd" d="M120.557 340.957C123.871 340.957 127.185 340.957 130.499 340.957C129.947 342.062 129.395 343.167 128.842 344.271C126.053 345.305 123.29 345.305 120.557 344.271C120.557 343.167 120.557 342.062 120.557 340.957Z" fill="#DF826D"/>
<path fill-rule="evenodd" clip-rule="evenodd" d="M188.5 340.957C191.538 340.957 194.576 340.957 197.614 340.957C197.614 342.062 197.614 343.167 197.614 344.271C195.017 345.533 192.255 346.086 189.329 345.929C189.053 345.929 188.776 345.929 188.5 345.929C188.5 344.271 188.5 342.614 188.5 340.957Z" fill="#EA8670"/>
<path fill-rule="evenodd" clip-rule="evenodd" d="M120.558 344.271C123.291 345.305 126.053 345.305 128.843 344.271C131.826 345.501 134.864 346.606 137.958 347.586C135.25 348.681 132.211 349.234 128.843 349.243C125.805 349.105 122.767 348.967 119.729 348.829C119.268 348.511 118.992 348.097 118.9 347.586C119.033 346.216 119.585 345.112 120.558 344.271Z" fill="#4C4B4B"/>
<path fill-rule="evenodd" clip-rule="evenodd" d="M197.614 344.271C200.587 345.347 203.349 346.727 205.9 348.414C200.674 349.379 195.426 349.517 190.157 348.829C189.464 347.991 189.188 347.024 189.329 345.929C192.255 346.086 195.017 345.533 197.614 344.271Z" fill="#4F4D4C"/>
<path fill-rule="evenodd" clip-rule="evenodd" d="M65.0432 346.757C77.329 347.446 89.7578 347.86 102.329 348C103.366 349.515 103.366 351.033 102.329 352.557C79.6813 352.557 57.0336 352.557 34.386 352.557C33.5276 350.99 33.5276 349.471 34.386 348C40.7324 347.586 47.0848 347.448 53.4432 347.586C57.5444 351.022 61.4111 350.745 65.0432 346.757Z" fill="#E4E5E6"/>
</g>
<defs>
<clipPath id="clip0_675_191">
<rect width="377" height="352.971" fill="white"/>
</clipPath>
</defs>
</svg>
