<svg width="427" height="280" viewBox="0 0 427 280" fill="none" xmlns="http://www.w3.org/2000/svg">
<g clip-path="url(#clip0_619_2667)">
<path d="M143.937 40.9129L142.693 41.9917C140.951 43.4855 138.96 44.4813 136.803 44.9793C131.825 46.2241 126.35 44.6473 122.782 40.4979L108.845 24.3984C103.784 18.5062 104.448 9.54358 110.255 4.48134L111.5 3.4025C117.39 -1.65974 126.35 -0.995836 131.41 4.81329L145.348 20.9129C150.491 26.888 149.828 35.8506 143.937 40.9129Z" fill="#232B54"/>
<path opacity="0.3" d="M136.885 44.9793C131.907 46.2241 126.432 44.6473 122.864 40.498L108.927 24.3984C103.866 18.5063 104.53 9.54361 110.337 4.48137L111.582 3.40253C111.582 3.40253 108.429 17.4274 131.326 37.4274C134.23 40.083 136.055 42.5727 136.885 44.9793Z" fill="black"/>
<path d="M153.313 51.1203L152.4 51.8672C148.086 55.6017 147.589 62.2407 151.322 66.556L161.609 78.4232C165.342 82.7386 171.979 83.2365 176.293 79.5021L177.206 78.7552C181.52 75.0208 182.017 68.3818 178.284 64.0664L167.997 52.1992C164.181 47.8838 157.627 47.3859 153.313 51.1203Z" fill="#FEC442"/>
<path d="M203.669 35.2697L169.489 64.8962L163.35 70.2075L148.168 83.4025L129.17 99.834L120.127 52.0332C118.551 43.6514 121.537 35.0207 128.008 29.3776L131.825 26.0581L134.147 24.0664C140.618 18.4232 149.578 16.7635 157.708 19.5021L203.669 35.2697Z" fill="#3D5BB2"/>
<path opacity="0.3" d="M147.421 82.1577L128.672 98.3403L119.795 51.2034C118.219 42.9046 121.206 34.4399 127.594 28.8797L131.327 25.6432C131.327 25.6432 124.939 35.2697 128.672 46.0581C131.493 53.9419 142.029 72.7801 147.421 82.1577Z" fill="black"/>
<path d="M109.508 28.2987L114.901 35.0207L17.4216 112.448L71.3462 247.552L63.382 250.705L7.05151 109.627L109.508 28.2987ZM110.006 23.7344L107.434 25.7261L5.06045 107.137L3.15234 108.631L4.06491 110.871L60.3954 251.867L61.5568 254.855L64.5434 253.693L72.5077 250.539L75.4943 249.378L74.3328 246.39L21.3208 113.444L116.809 37.5104L119.381 35.5187L117.39 32.9461L111.997 26.2241L110.006 23.7344Z" fill="#7A90F5"/>
<path d="M30.8615 111.784C30.8615 120.332 23.9757 127.22 15.4307 127.22C6.88576 127.22 0 120.249 0 111.784C0 103.237 6.88576 96.3486 15.4307 96.3486C23.9757 96.3486 30.8615 103.237 30.8615 111.784Z" fill="#3D5BB2"/>
<path d="M22.732 111.784C22.732 115.768 19.4965 119.087 15.4314 119.087C11.4493 119.087 8.13086 115.851 8.13086 111.784C8.13086 107.801 11.3663 104.481 15.4314 104.481C19.4135 104.481 22.732 107.718 22.732 111.784Z" fill="#7A90F5"/>
<path d="M120.625 37.4274C120.625 45.9751 113.739 52.8631 105.194 52.8631C96.6494 52.8631 89.7637 45.9751 89.7637 37.4274C89.7637 28.8797 96.6494 21.9917 105.194 21.9917C113.656 21.9917 120.625 28.9627 120.625 37.4274Z" fill="#3D5BB2"/>
<path d="M112.412 37.4274C112.412 41.4108 109.176 44.7303 105.111 44.7303C101.129 44.7303 97.8105 41.4937 97.8105 37.4274C97.8105 33.444 101.046 30.1245 105.111 30.1245C109.176 30.2074 112.412 33.444 112.412 37.4274Z" fill="#7A90F5"/>
<path d="M76.905 230.871H45.048C37.5815 230.871 31.5254 236.929 31.5254 244.398V250.705H90.4277V244.398C90.4277 236.929 84.3715 230.871 76.905 230.871Z" fill="#3D5BB2"/>
<path d="M76.4064 232.946C76.4064 241.494 69.5206 248.382 60.9757 248.382C52.4307 248.382 45.5449 241.494 45.5449 232.946C45.5449 224.398 52.4307 217.51 60.9757 217.51C69.5206 217.51 76.4064 224.481 76.4064 232.946Z" fill="#3D5BB2"/>
<path d="M68.2769 232.946C68.2769 236.93 65.0414 240.249 60.9763 240.249C56.9942 240.249 53.6758 237.012 53.6758 232.946C53.6758 228.963 56.9113 225.643 60.9763 225.643C64.9585 225.726 68.2769 228.963 68.2769 232.946Z" fill="#7A90F5"/>
<path d="M114.238 243.983H7.63281V254.938H114.238V243.983Z" fill="#3D5BB2"/>
<path d="M325.955 108.88H106.689C104.283 108.88 102.375 110.788 102.375 113.195V250.788H330.186V113.112C330.186 110.788 328.278 108.88 325.955 108.88Z" fill="#232B54"/>
<path d="M252.451 246.307H180.193C179.363 246.307 178.699 245.643 178.699 244.813C178.699 243.983 179.363 243.32 180.193 243.32H252.451C253.281 243.32 253.945 243.983 253.945 244.813C253.945 245.643 253.281 246.307 252.451 246.307Z" fill="white"/>
<path d="M323.797 111.784H108.762C107.352 111.784 106.273 112.946 106.273 114.274V236.929C106.273 238.34 107.435 239.419 108.762 239.419H323.797C325.207 239.419 326.286 238.257 326.286 236.929V114.274C326.286 112.946 325.207 111.784 323.797 111.784Z" fill="white"/>
<path d="M321.972 113.859H110.671C109.426 113.859 108.514 114.855 108.514 116.017V235.353C108.514 236.598 109.509 237.51 110.671 237.51H321.972C323.217 237.51 324.129 236.515 324.129 235.353V116.1C324.129 114.855 323.134 113.859 321.972 113.859Z" fill="#7A90F5"/>
<path d="M282.814 136.1V213.278C282.814 217.012 279.827 220 276.094 220H156.63C152.897 220 149.91 217.012 149.91 213.278V136.1C149.91 132.365 152.897 129.378 156.63 129.378H276.094C279.744 129.378 282.814 132.365 282.814 136.1Z" fill="#F9E2B9"/>
<path d="M282.815 136.1V142.075H149.828V136.1C149.828 132.365 152.815 129.378 156.548 129.378H276.012C279.745 129.378 282.815 132.365 282.815 136.1Z" fill="#FC7C61"/>
<path d="M159.867 135.768C159.867 137.012 158.871 138.091 157.544 138.091C156.299 138.091 155.221 137.095 155.221 135.768C155.221 134.44 156.216 133.444 157.544 133.444C158.788 133.444 159.867 134.44 159.867 135.768Z" fill="white"/>
<path d="M168.659 135.768C168.659 137.012 167.664 138.091 166.337 138.091C165.092 138.091 164.014 137.095 164.014 135.768C164.014 134.44 165.009 133.444 166.337 133.444C167.664 133.444 168.659 134.44 168.659 135.768Z" fill="white"/>
<path d="M177.454 135.768C177.454 137.012 176.459 138.091 175.132 138.091C173.804 138.091 172.809 137.095 172.809 135.768C172.809 134.44 173.804 133.444 175.132 133.444C176.459 133.444 177.454 134.44 177.454 135.768Z" fill="white"/>
<path d="M244.154 164.232C242.329 161.577 238.513 161.494 236.522 164.066L209.891 198.257L186.662 178.091C184.588 176.266 181.353 176.598 179.776 178.838L155.801 211.203H276.924L244.154 164.232Z" fill="#3D5BB2"/>
<path d="M211.467 182.905C216.965 182.905 221.422 178.446 221.422 172.946C221.422 167.446 216.965 162.988 211.467 162.988C205.969 162.988 201.512 167.446 201.512 172.946C201.512 178.446 205.969 182.905 211.467 182.905Z" fill="#FEC442"/>
<g opacity="0.1">
<path d="M259.087 237.593H217.358L136.471 113.859H178.2L259.087 237.593Z" fill="white"/>
<path d="M294.844 237.593H273.938L193.051 113.859H213.874L294.844 237.593Z" fill="white"/>
</g>
<path d="M338.73 263.403H95.4055C91.7552 263.403 88.8516 260.415 88.8516 256.847V250.788H345.284V256.847C345.284 260.415 342.297 263.403 338.73 263.403Z" fill="#232B54"/>
<path opacity="0.5" d="M338.73 263.403H95.4055C91.7552 263.403 88.8516 260.415 88.8516 256.847V250.788H345.284V256.847C345.284 260.415 342.297 263.403 338.73 263.403Z" fill="white"/>
<path d="M79.8081 263.402H4.5625L6.71949 165.975H77.6511L79.8081 263.402Z" fill="#FC7C61"/>
<path d="M48.6133 258.589H75.9074V231.286L48.6133 258.589Z" fill="#B7C3F3"/>
<path d="M73.7513 170.788L75.8253 231.618C75.8253 232.116 75.7424 232.531 75.7424 232.946C73.7513 253.195 51.02 258.589 51.02 258.589H8.62695L10.7839 170.788H73.7513Z" fill="white"/>
<path opacity="0.3" d="M75.9088 231.618C75.9088 231.618 75.8259 232.531 75.8259 232.946C73.8348 253.195 51.1035 258.589 51.1035 258.589C55.5834 254.274 54.256 245.311 54.256 245.311C75.9918 248.797 75.494 233.527 75.7429 226.556C75.7429 225.477 75.66 224.647 75.66 224.315C75.8259 226.888 75.9088 231.618 75.9088 231.618Z" fill="#B7C3F3"/>
<path d="M22.0675 174.357C22.0675 175.768 20.989 176.847 19.5787 176.847C18.1683 176.847 17.0898 175.768 17.0898 174.357C17.0898 172.946 18.1683 171.867 19.5787 171.867C20.906 171.867 22.0675 173.029 22.0675 174.357Z" fill="#B7C3F3"/>
<path d="M19.4952 160.996C18.5826 160.996 17.8359 161.826 17.8359 162.822V173.61C17.8359 174.606 18.5826 175.436 19.4952 175.436C20.4077 175.436 21.1544 174.606 21.1544 173.61V162.822C21.1544 161.826 20.4077 160.996 19.4952 160.996Z" fill="#232B54"/>
<path d="M33.4327 174.357C33.4327 175.768 32.3542 176.847 30.9439 176.847C29.5336 176.847 28.4551 175.768 28.4551 174.357C28.4551 172.946 29.5336 171.867 30.9439 171.867C32.2713 171.867 33.4327 173.029 33.4327 174.357Z" fill="#B7C3F3"/>
<path d="M30.8604 160.996C29.9478 160.996 29.2012 161.826 29.2012 162.822V173.61C29.2012 174.606 29.9478 175.436 30.8604 175.436C31.773 175.436 32.5196 174.606 32.5196 173.61V162.822C32.5196 161.826 31.773 160.996 30.8604 160.996Z" fill="#232B54"/>
<path d="M44.798 174.357C44.798 175.768 43.7195 176.847 42.3091 176.847C40.8988 176.847 39.8203 175.768 39.8203 174.357C39.8203 172.946 40.8988 171.867 42.3091 171.867C43.6365 171.867 44.798 173.029 44.798 174.357Z" fill="#B7C3F3"/>
<path d="M42.3096 160.996C41.397 160.996 40.6504 161.826 40.6504 162.822V173.61C40.6504 174.606 41.397 175.436 42.3096 175.436C43.2222 175.436 43.9688 174.606 43.9688 173.61V162.822C43.8859 161.826 43.1392 160.996 42.3096 160.996Z" fill="#232B54"/>
<path d="M56.1652 174.357C56.1652 175.768 55.0867 176.847 53.6763 176.847C52.266 176.847 51.1875 175.768 51.1875 174.357C51.1875 172.946 52.266 171.867 53.6763 171.867C55.0037 171.867 56.1652 173.029 56.1652 174.357Z" fill="#B7C3F3"/>
<path d="M53.6768 160.996C52.7642 160.996 52.0176 161.826 52.0176 162.822V173.61C52.0176 174.606 52.7642 175.436 53.6768 175.436C54.5894 175.436 55.336 174.606 55.336 173.61V162.822C55.2531 161.826 54.5064 160.996 53.6768 160.996Z" fill="#232B54"/>
<path d="M67.5304 174.357C67.5304 175.768 66.4519 176.847 65.0416 176.847C63.6312 176.847 62.5527 175.768 62.5527 174.357C62.5527 172.946 63.6312 171.867 65.0416 171.867C66.4519 171.867 67.5304 173.029 67.5304 174.357Z" fill="#B7C3F3"/>
<path d="M65.042 160.996C64.1295 160.996 63.3828 161.826 63.3828 162.822V173.61C63.3828 174.606 64.1295 175.436 65.042 175.436C65.9546 175.436 66.7013 174.606 66.7013 173.61V162.822C66.6183 161.826 65.9546 160.996 65.042 160.996Z" fill="#232B54"/>
<path d="M38.9908 181.743C36.5019 183.403 34.0131 185.145 31.6902 186.971C29.3673 188.797 27.0444 190.705 25.0533 192.78C24.0578 193.859 23.1452 194.938 22.6475 196.1C22.3156 196.681 22.2327 197.261 22.1497 197.676C22.1497 198.008 22.1497 197.925 22.1497 197.925C22.1497 197.925 22.2327 198.008 22.3986 198.091C22.8134 198.257 23.4771 198.34 24.1408 198.34C24.8045 198.34 25.5511 198.34 26.2148 198.34C27.6251 198.257 29.1184 198.091 30.6117 197.925C36.5019 197.178 42.4751 196.183 48.5313 195.436C50.0246 195.27 51.5179 195.104 53.0941 195.021C53.8408 195.021 54.6704 195.021 55.417 195.104C56.1637 195.27 57.0763 195.353 57.8229 196.1C57.9888 196.266 58.1548 196.515 58.2377 196.846C58.2377 197.012 58.2377 197.095 58.2377 197.261L58.1548 197.676C57.9888 198.174 57.8229 198.506 57.574 198.838C57.0763 199.502 56.4955 200.083 55.9978 200.581C54.8363 201.66 53.6749 202.573 52.4305 203.485C47.6187 207.22 42.4751 210.456 37.4145 213.693C32.4369 217.012 27.3762 220.249 22.8134 223.9C21.6519 224.813 20.5734 225.726 19.5779 226.805C18.6653 227.801 17.7528 228.88 17.338 229.876C17.172 230.29 17.0891 230.954 17.172 231.12V231.203C17.172 231.203 17.172 231.203 17.172 231.286C17.172 231.369 17.255 231.369 17.255 231.452C17.338 231.535 17.4209 231.535 17.4209 231.618L17.7528 231.784C18.7483 232.199 20.3246 232.282 21.7349 232.282C24.6385 232.365 27.7081 232.199 30.7776 232.448C32.2709 232.614 33.8472 232.863 35.3405 233.278C36.8338 233.693 38.2441 234.357 39.4885 235.353C39.5715 235.436 39.5715 235.519 39.4885 235.602C39.4056 235.685 39.3226 235.685 39.3226 235.602C36.6679 234.191 33.6813 234.025 30.7776 234.025C27.791 234.108 24.8874 234.523 21.8179 234.689C21.0712 234.772 20.2416 234.772 19.412 234.689C18.5824 234.689 17.7528 234.606 16.8402 234.274C16.5913 234.191 16.3424 234.108 16.0936 233.942C15.8447 233.776 15.5958 233.693 15.3469 233.444C14.8491 233.029 14.4343 232.448 14.2684 231.867C14.0195 231.286 14.0195 230.705 14.0195 230.207C14.0195 229.71 14.1025 229.212 14.2684 228.714C14.8491 226.805 15.9276 225.56 17.0061 224.315C18.0846 223.154 19.2461 222.075 20.4075 221.079C25.2193 217.178 30.4458 214.025 35.5894 210.871C38.1612 209.295 40.8159 207.801 43.3877 206.307C45.9595 204.813 48.6142 203.403 51.186 201.743C52.4305 200.913 53.6749 200.166 54.8363 199.253C55.417 198.755 55.9148 198.34 56.4126 197.759C56.5785 197.51 56.8274 197.261 56.9103 197.012C56.9933 196.763 56.9933 196.681 56.8274 196.515C56.4955 196.1 55.7489 195.934 55.0852 195.768C54.4215 195.685 53.6749 195.602 52.9282 195.685C51.4349 195.685 49.9416 195.934 48.5313 196.183C42.6411 197.178 36.9168 199.087 30.8606 200.332C29.3673 200.581 27.874 200.913 26.2978 200.996C25.4681 201.079 24.7215 201.079 23.8919 201.079C23.0623 200.996 22.1497 200.913 21.1542 200.498C20.6564 200.249 20.0757 199.917 19.6609 199.253C19.2461 198.672 19.1631 197.759 19.2461 197.344C19.329 196.349 19.6609 195.436 20.0757 194.689C20.9053 193.112 22.0667 191.95 23.1452 190.871C25.4681 188.714 27.957 186.971 30.6117 185.394C33.2665 183.817 35.9212 182.407 38.7419 181.328C38.8249 181.328 38.9078 181.328 38.9908 181.411C39.0737 181.577 39.0737 181.66 38.9908 181.743Z" fill="#232B54"/>
<path d="M55.9975 210.208L61.2241 215.602L48.9458 230.125L42.226 234.025L39.5712 235.519L39.4883 235.602L40.6497 232.365L43.3874 225.062L55.9975 210.208Z" fill="#FFC0C4"/>
<path d="M42.3099 233.942C41.5632 233.527 40.9825 233.029 40.6507 232.365L39.4062 235.602L39.4892 235.519L42.3099 233.942Z" fill="#232B54"/>
<path opacity="0.2" d="M41.8112 233.61L47.2037 228.465C49.5266 227.22 50.3562 227.552 48.9458 230.208L42.143 234.108L39.4883 235.602L41.8112 233.61Z" fill="black"/>
<path d="M90.7585 180.913L84.1217 188.714L63.2155 213.361L48.9462 230.125C48.9462 230.125 48.9462 230.042 49.0292 230.042C49.6929 228.714 48.2825 227.801 46.8722 228.714L46.9552 228.631C47.0381 228.548 47.1211 228.465 47.1211 228.382C47.5359 227.137 46.5404 226.058 45.3789 226.639H45.2959L45.213 226.722C45.213 226.722 45.213 226.639 45.2959 226.639C45.2959 226.556 45.2959 226.556 45.3789 226.473C45.3789 226.473 45.3789 226.473 45.3789 226.39V226.307V226.224V226.141V226.058C45.3789 225.975 45.3789 225.975 45.3789 225.892C45.3789 225.809 45.3789 225.726 45.3789 225.643C45.3789 225.56 45.3789 225.56 45.3789 225.477C45.3789 225.394 45.3789 225.394 45.2959 225.311V225.228C45.2959 225.228 45.2959 225.228 45.2959 225.145C45.213 225.062 45.13 224.979 45.0471 224.896C44.9641 224.813 44.9641 224.813 44.8811 224.813C44.7982 224.813 44.7152 224.73 44.5493 224.73C44.4663 224.73 44.3834 224.73 44.3004 224.73C44.2174 224.73 44.1345 224.73 44.1345 224.73C44.0515 224.73 43.9686 224.813 43.8856 224.813C43.8026 224.813 43.7197 224.896 43.6367 224.979L52.8454 214.191L56.3297 210.125L85.2831 175.934L90.7585 180.913Z" fill="#232B54"/>
<path opacity="0.2" d="M90.7594 180.913L88.1046 184.066L84.1225 188.714L63.1334 213.361L61.4742 215.353L53.9247 224.232L50.2744 228.548L48.9471 230.125C48.9471 230.125 48.9471 230.042 49.03 230.042C49.6937 228.714 48.2834 227.801 46.873 228.714L46.956 228.631L47.039 228.548C47.039 228.548 47.039 228.548 47.1219 228.465C47.1219 228.465 47.1219 228.465 47.2049 228.382C47.2049 228.382 47.2049 228.382 47.2879 228.299C47.8686 227.635 49.5278 225.726 52.3485 222.324C53.6758 220.747 56.2476 217.676 59.5661 213.776C59.732 213.61 59.8979 213.361 60.0638 213.195L65.5393 206.805C66.037 206.307 66.4518 205.726 66.9496 205.145C67.4474 204.564 67.8622 204.066 68.3599 203.486L69.1066 202.656C69.2725 202.49 69.4384 202.241 69.6043 201.992L73.3376 197.593C73.7524 197.095 74.1672 196.598 74.582 196.1C75.9923 194.44 77.4856 192.697 78.896 190.954L79.6426 190.125C80.1404 189.544 80.6382 188.963 81.1359 188.382C81.6337 187.801 82.0485 187.303 82.5463 186.722C83.8736 185.145 85.201 183.569 86.5284 182.075L89.0172 179.17L90.7594 180.913Z" fill="black"/>
<path d="M94.7411 176.266L91.6716 179.834L85.9473 174.938L89.0168 171.369C90.3442 169.793 92.7501 169.627 94.3263 170.954C95.1559 171.618 95.5707 172.531 95.6537 173.527C95.6537 173.693 95.6537 173.776 95.6537 173.942C95.5707 174.772 95.2389 175.519 94.7411 176.266Z" fill="#FC7C61"/>
<path opacity="0.5" d="M94.7411 176.266L91.6716 179.834L85.9473 174.938L88.5191 171.867C92.0034 176.017 94.4093 175.021 95.5707 173.859C95.5707 174.772 95.2389 175.519 94.7411 176.266Z" fill="black"/>
<path d="M93.4232 177.778L87.666 172.893L82.3529 179.158L88.1101 184.043L93.4232 177.778Z" fill="#3D5BB2"/>
<path opacity="0.2" d="M93.4515 177.761L91.4902 176.096L86.1772 182.362L88.1384 184.026L93.4515 177.761Z" fill="#158EBF"/>
<path d="M310.606 58.8382H204.416V87.6349H310.606V58.8382Z" fill="#B7C3F3"/>
<path d="M229.969 61.9088H207.32V84.5644H229.969V61.9088Z" fill="#3D5BB2"/>
<path d="M255.853 61.9088H233.205V84.5644H255.853V61.9088Z" fill="#7A90F5"/>
<path d="M281.82 61.9088H259.172V84.5644H281.82V61.9088Z" fill="#FC7C61"/>
<path d="M307.785 61.9088H285.137V84.5644H307.785V61.9088Z" fill="#FEC442"/>
<path d="M318.736 79.917L296.42 72.3652L301.149 95.4357L305.546 90.7054L315.916 105.892L321.64 100.83L327.281 95.8507L313.51 83.7345L318.736 79.917Z" fill="#232B54"/>
<path d="M168.493 230.125H119.132C117.804 230.125 116.56 229.378 116.062 228.133L113.822 223.32C113.241 222.075 112.08 221.328 110.753 221.328H89.3487C87.4406 221.328 85.9473 222.822 85.9473 224.73V230.208V237.593V276.681C85.9473 278.589 87.4406 280.083 89.3487 280.083H168.576C170.484 280.083 171.978 278.589 171.978 276.681V233.61C171.978 231.618 170.402 230.125 168.493 230.125Z" fill="#FEC442"/>
<path opacity="0.5" d="M168.493 230.125H119.132C117.804 230.125 116.56 229.378 116.062 228.133L113.822 223.32C113.241 222.075 112.08 221.328 110.753 221.328H89.3487C87.4406 221.328 85.9473 222.822 85.9473 224.73V230.208V237.593V276.681C85.9473 278.589 87.4406 280.083 89.3487 280.083H168.576C170.484 280.083 171.978 278.589 171.978 276.681V233.61C171.978 231.618 170.402 230.125 168.493 230.125Z" fill="black"/>
<path d="M168.494 235.353H89.3496C87.4415 235.353 85.8652 236.93 85.8652 238.838V276.681C85.8652 278.589 87.4415 280.166 89.3496 280.166H168.494C170.402 280.166 171.979 278.589 171.979 276.681V238.838C171.979 236.847 170.402 235.353 168.494 235.353Z" fill="#FEC442"/>
<g opacity="0.5">
<path d="M167.913 241.411H147.007C146.675 241.411 146.426 241.162 146.426 240.83C146.426 240.498 146.675 240.249 147.007 240.249H167.913C168.245 240.249 168.493 240.498 168.493 240.83C168.576 241.079 168.245 241.411 167.913 241.411Z" fill="white"/>
</g>
<g opacity="0.5">
<path d="M167.913 244.564H147.007C146.675 244.564 146.426 244.315 146.426 243.984C146.426 243.652 146.675 243.403 147.007 243.403H167.913C168.245 243.403 168.493 243.652 168.493 243.984C168.576 244.315 168.245 244.564 167.913 244.564Z" fill="white"/>
</g>
<g opacity="0.5">
<path d="M167.913 247.801H156.382C156.05 247.801 155.801 247.552 155.801 247.22C155.801 246.888 156.05 246.639 156.382 246.639H167.913C168.245 246.639 168.494 246.888 168.494 247.22C168.494 247.552 168.245 247.801 167.913 247.801Z" fill="white"/>
</g>
<path d="M419.118 179.502V267.635H294.427V179.502M278.997 171.701C275.761 171.701 273.189 174.025 273.189 176.847V270.291C273.189 273.112 275.761 275.436 278.997 275.436H421.192C424.427 275.436 426.999 273.112 426.999 270.291V176.847C426.999 174.025 424.427 171.701 421.192 171.701H278.997Z" fill="#3D5BB2"/>
<path d="M293.682 180.083V267.054C293.682 267.635 294.428 268.216 295.424 268.216H418.289C419.285 268.216 420.031 267.635 420.031 267.054V180.083C420.031 179.502 419.285 178.921 418.289 178.921H295.424C294.428 178.921 293.682 179.502 293.682 180.083Z" fill="#232B54"/>
<path d="M370.917 223.735L364.363 239.585H349.264L342.627 223.735C342.627 223.735 351.836 216.183 356.233 199.668V223.901C355.486 224.15 354.905 224.896 354.905 225.726C354.905 226.805 355.735 227.635 356.813 227.635C357.892 227.635 358.721 226.805 358.721 225.726C358.721 224.896 358.141 224.15 357.394 223.901V199.751C361.791 216.266 370.917 223.735 370.917 223.735Z" fill="#FC7C61"/>
<path d="M364.695 240.83H349.016C348.186 240.83 347.439 241.494 347.439 242.407C347.439 243.32 348.103 243.984 349.016 243.984H364.695C365.525 243.984 366.272 243.32 366.272 242.407C366.272 241.494 365.525 240.83 364.695 240.83Z" fill="#FC7C61"/>
<path d="M363.118 245.145H350.508C350.094 245.145 349.762 245.477 349.762 245.892V249.959C349.762 250.374 350.094 250.706 350.508 250.706H363.118C363.533 250.706 363.865 250.374 363.865 249.959V245.892C363.782 245.477 363.533 245.145 363.118 245.145Z" fill="#FC7C61"/>
<path d="M383.528 214.855C378.634 204.564 368.18 197.925 356.815 197.925C345.449 197.925 334.996 204.564 330.101 214.855L329.77 214.689C334.664 204.316 345.283 197.594 356.815 197.594C368.346 197.594 378.882 204.316 383.86 214.689L383.528 214.855Z" fill="#FC7C61"/>
<path d="M383.694 197.594H329.936V197.925H383.694V197.594Z" fill="#FC7C61"/>
<path d="M358.141 197.759C358.141 198.506 357.56 199.087 356.814 199.087C356.067 199.087 355.486 198.506 355.486 197.759C355.486 197.013 356.067 196.432 356.814 196.432C357.56 196.432 358.141 197.013 358.141 197.759Z" fill="#FC7C61"/>
<path d="M385.02 197.759C385.02 198.506 384.439 199.087 383.693 199.087C382.946 199.087 382.365 198.506 382.365 197.759C382.365 197.013 382.946 196.432 383.693 196.432C384.439 196.432 385.02 197.013 385.02 197.759Z" fill="#FC7C61"/>
<path d="M385.02 214.772C385.02 215.519 384.439 216.1 383.693 216.1C382.946 216.1 382.365 215.519 382.365 214.772C382.365 214.025 382.946 213.444 383.693 213.444C384.439 213.444 385.02 214.025 385.02 214.772Z" fill="#FC7C61"/>
<path d="M331.262 197.759C331.262 198.506 330.681 199.087 329.935 199.087C329.188 199.087 328.607 198.506 328.607 197.759C328.607 197.013 329.188 196.432 329.935 196.432C330.681 196.432 331.262 197.013 331.262 197.759Z" fill="#FC7C61"/>
<path d="M331.262 214.772C331.262 215.519 330.681 216.1 329.935 216.1C329.188 216.1 328.607 215.519 328.607 214.772C328.607 214.025 329.188 213.444 329.935 213.444C330.681 213.444 331.262 214.025 331.262 214.772Z" fill="#FC7C61"/>
<path d="M416.961 222.573L419.035 220.498C419.616 219.917 420.446 219.917 421.026 220.498L423.1 222.573C423.681 223.154 423.681 223.983 423.1 224.564L421.026 226.639C420.446 227.22 419.616 227.22 419.035 226.639L416.961 224.564C416.463 223.983 416.463 223.071 416.961 222.573Z" fill="#3D5BB2"/>
<g opacity="0.2">
<path d="M385.518 267.635H355.818L298.16 179.502H327.86L385.518 267.635Z" fill="white"/>
<path d="M410.986 267.635H396.136L338.479 179.502H353.329L410.986 267.635Z" fill="white"/>
</g>
<path d="M283.725 230.788C287.712 230.788 290.943 227.556 290.943 223.569C290.943 219.581 287.712 216.349 283.725 216.349C279.739 216.349 276.508 219.581 276.508 223.569C276.508 227.556 279.739 230.788 283.725 230.788Z" fill="#7A90F5"/>
<path d="M283.726 229.295C286.888 229.295 289.451 226.731 289.451 223.569C289.451 220.406 286.888 217.842 283.726 217.842C280.565 217.842 278.002 220.406 278.002 223.569C278.002 226.731 280.565 229.295 283.726 229.295Z" fill="#232B54"/>
<path d="M288.287 236.1H279.245C277.751 236.1 276.59 237.261 276.59 238.755C276.59 240.249 277.751 241.411 279.245 241.411H288.287C289.781 241.411 290.942 240.249 290.942 238.755C290.942 237.261 289.781 236.1 288.287 236.1Z" fill="#232B54"/>
<path d="M288.287 245.56H279.245C277.751 245.56 276.59 246.722 276.59 248.216C276.59 249.71 277.751 250.871 279.245 250.871H288.287C289.781 250.871 290.942 249.71 290.942 248.216C290.942 246.722 289.781 245.56 288.287 245.56Z" fill="#232B54"/>
<path d="M288.287 254.855H279.245C277.751 254.855 276.59 256.017 276.59 257.51C276.59 259.004 277.751 260.166 279.245 260.166H288.287C289.781 260.166 290.942 259.004 290.942 257.51C290.942 256.1 289.781 254.855 288.287 254.855Z" fill="#232B54"/>
<path d="M288.287 196.681H279.245C277.751 196.681 276.59 197.842 276.59 199.336C276.59 200.83 277.751 201.992 279.245 201.992H288.287C289.781 201.992 290.942 200.83 290.942 199.336C290.942 197.925 289.781 196.681 288.287 196.681Z" fill="#232B54"/>
<path d="M288.287 206.224H279.245C277.751 206.224 276.59 207.386 276.59 208.88C276.59 210.373 277.751 211.535 279.245 211.535H288.287C289.781 211.535 290.942 210.373 290.942 208.88C290.942 207.386 289.781 206.224 288.287 206.224Z" fill="#232B54"/>
<path d="M412.398 179.087L380.541 211.037L364.696 226.805C364.281 227.22 363.783 227.303 363.286 227.22C362.954 227.137 362.705 226.971 362.456 226.722L359.884 224.066L359.386 223.568C359.303 223.486 359.137 223.32 359.137 223.154C358.806 222.573 358.972 221.826 359.469 221.328L375.813 205.975L408.831 175.187C409.246 174.772 409.91 174.772 410.324 175.187L412.481 177.427C412.481 177.427 412.481 177.427 412.481 177.51C412.813 178.008 412.813 178.672 412.398 179.087Z" fill="white"/>
<path d="M363.701 226.971V227.054L363.286 227.303L358.059 229.958L357.396 230.29L355.654 231.203C355.488 231.286 355.322 231.286 355.156 231.12C354.99 230.954 354.907 230.788 355.073 230.539L355.985 228.88L356.317 228.299L359.055 223.402L359.387 222.822C359.387 222.822 359.47 222.739 359.47 222.822L362.456 225.892L363.701 226.971Z" fill="white"/>
<path opacity="0.1" d="M412.399 179.087L380.542 211.037L364.697 226.805C364.282 227.22 363.784 227.303 363.286 227.22L358.06 229.876L357.396 230.207L355.654 231.12C355.488 231.203 355.322 231.203 355.156 231.037L361.212 226.888L359.802 224.066H359.885L362.54 225.643L412.482 177.51C412.814 178.008 412.814 178.672 412.399 179.087Z" fill="black"/>
<path d="M356.318 228.133L358.06 229.876L357.397 230.208L355.986 228.797L356.318 228.133Z" fill="#232B54"/>
<path d="M375.813 209.959L380.957 204.979C381.206 204.73 381.621 204.73 381.869 204.979C382.118 205.228 382.118 205.643 381.869 205.892L376.726 210.871C376.477 211.12 376.062 211.12 375.813 210.871C375.481 210.622 375.481 210.208 375.813 209.959Z" fill="#232B54"/>
</g>
<defs>
<clipPath id="clip0_619_2667">
<rect width="427" height="280" fill="white"/>
</clipPath>
</defs>
</svg>
