<svg width="500" height="373" viewBox="0 0 500 373" fill="none" xmlns="http://www.w3.org/2000/svg">
<path d="M500 327.446H0V327.696H500V327.446Z" fill="#EBEBEB"/>
<path d="M449.901 343.542H416.779V343.792H449.901V343.542Z" fill="#EBEBEB"/>
<path d="M331.22 346.256H322.527V346.506H331.22V346.256Z" fill="#EBEBEB"/>
<path d="M415.778 334.256H396.586V334.506H415.778V334.256Z" fill="#EBEBEB"/>
<path d="M95.652 335.936H52.459V336.186H95.652V335.936Z" fill="#EBEBEB"/>
<path d="M110.89 335.936H104.557V336.186H110.89V335.936Z" fill="#EBEBEB"/>
<path d="M225.147 340.159H131.471V340.409H225.147V340.159Z" fill="#EBEBEB"/>
<path d="M237.014 282.848H43.915C40.768 282.848 38.207 280.287 38.207 277.14V5.708C38.207 2.561 40.768 0 43.915 0H237.014C240.16 0 242.721 2.561 242.721 5.708V277.14C242.721 280.287 240.16 282.848 237.014 282.848ZM43.915 0.250999C40.905 0.250999 38.457 2.699 38.457 5.709V277.141C38.457 280.151 40.905 282.599 43.915 282.599H237.014C240.023 282.599 242.471 280.151 242.471 277.141V5.708C242.471 2.699 240.023 0.25 237.014 0.25L43.915 0.250999Z" fill="#EBEBEB"/>
<path d="M453.311 282.848H260.213C257.066 282.848 254.506 280.287 254.506 277.14V5.708C254.506 2.561 257.067 0 260.213 0H453.311C456.459 0 459.019 2.561 459.019 5.708V277.14C459.02 280.287 456.459 282.848 453.311 282.848ZM260.213 0.250999C257.204 0.250999 254.756 2.699 254.756 5.709V277.141C254.756 280.151 257.204 282.599 260.213 282.599H453.311C456.321 282.599 458.769 280.151 458.769 277.141V5.708C458.769 2.699 456.321 0.25 453.311 0.25L260.213 0.250999Z" fill="#EBEBEB"/>
<path d="M160.662 47.441H89.4082V289.152H160.662V47.441Z" fill="#FAFAFA"/>
<path d="M150.051 47.441H145.888L121.035 289.152H125.199L150.051 47.441Z" fill="#F5F5F5"/>
<path d="M159.4 48.376H88.9531V50.506H159.4V48.376Z" fill="#E0E0E0"/>
<path d="M159.4 287.037H88.9531V291.595H159.4V287.037Z" fill="#EBEBEB"/>
<path d="M158.229 291.393H91.6621V291.595H158.229V291.393Z" fill="#EBEBEB"/>
<path d="M91.6618 48.376H158.229V291.393H162.216V45.389H87.6738V291.393H91.6618V48.376Z" fill="#EBEBEB"/>
<path d="M239.949 47.441H168.695V289.152H239.949V47.441Z" fill="#FAFAFA"/>
<path d="M220.184 47.441H197.467L172.615 289.152H195.331L220.184 47.441Z" fill="#F5F5F5"/>
<path d="M240.685 48.376H168.238V50.506H240.685V48.376Z" fill="#E0E0E0"/>
<path d="M240.685 287.037H168.238V291.595H240.685V287.037Z" fill="#EBEBEB"/>
<path d="M237.514 291.393H170.947V291.595H237.514V291.393Z" fill="#EBEBEB"/>
<path d="M170.948 48.376H237.515V291.393H241.502V45.389H166.961V291.393H170.948V48.376Z" fill="#EBEBEB"/>
<path d="M317.236 47.441H247.982V289.152H317.236V47.441Z" fill="#FAFAFA"/>
<path d="M287.22 47.441H283.057L258.205 289.152H262.368L287.22 47.441Z" fill="#F5F5F5"/>
<path d="M317.974 48.376H247.527V50.506H317.974V48.376Z" fill="#E0E0E0"/>
<path d="M317.974 287.037H247.527V291.595H317.974V287.037Z" fill="#EBEBEB"/>
<path d="M316.803 291.393H250.236V291.595H316.803V291.393Z" fill="#EBEBEB"/>
<path d="M250.236 48.376H316.802V291.393H320.79V45.389H246.248V291.393H250.236V48.376Z" fill="#EBEBEB"/>
<path d="M398.525 47.441H327.271V289.152H398.525V47.441Z" fill="#FAFAFA"/>
<path d="M391.553 47.441H368.836L343.984 289.152H366.701L391.553 47.441Z" fill="#F5F5F5"/>
<path d="M397.261 48.376H326.814V50.506H397.261V48.376Z" fill="#E0E0E0"/>
<path d="M397.261 287.037H326.814V291.595H397.261V287.037Z" fill="#EBEBEB"/>
<path d="M329.524 48.376H396.091V291.393H400.078V45.389H325.537V291.393H329.524V48.376Z" fill="#EBEBEB"/>
<path d="M396.09 291.393H329.523V291.595H396.09V291.393Z" fill="#EBEBEB"/>
<path d="M138.617 233.535H107.684V287.023H138.617V233.535Z" fill="#EBEBEB"/>
<path d="M132.676 226.061V239.476H130.236H116.062H113.623V226.061H132.676Z" fill="#EBEBEB"/>
<path d="M132.677 239.476H136.637V235.516H132.677V239.476Z" fill="#FAFAFA"/>
<path d="M125.005 239.476H128.965V235.516H125.005V239.476Z" fill="#FAFAFA"/>
<path d="M117.335 239.476H121.295V235.516H117.335V239.476Z" fill="#FAFAFA"/>
<path d="M109.663 239.476H113.623V235.516H109.663V239.476Z" fill="#F0F0F0"/>
<path d="M132.677 246.672H136.637V242.712H132.677V246.672Z" fill="#F0F0F0"/>
<path d="M125.005 246.672H128.965V242.712H125.005V246.672Z" fill="#F0F0F0"/>
<path d="M117.335 246.672H121.295V242.712H117.335V246.672Z" fill="#FAFAFA"/>
<path d="M109.663 246.672H113.623V242.712H109.663V246.672Z" fill="#FAFAFA"/>
<path d="M132.677 253.868H136.637V249.908H132.677V253.868Z" fill="#F0F0F0"/>
<path d="M125.005 253.868H128.965V249.908H125.005V253.868Z" fill="#FAFAFA"/>
<path d="M117.335 253.868H121.295V249.908H117.335V253.868Z" fill="#FAFAFA"/>
<path d="M125.005 233.257H128.965V229.297H125.005V233.257Z" fill="#FAFAFA"/>
<path d="M117.335 233.257H121.295V229.297H117.335V233.257Z" fill="#F0F0F0"/>
<path d="M109.663 253.868H113.623V249.908H109.663V253.868Z" fill="#F0F0F0"/>
<path d="M132.677 261.063H136.637V257.103H132.677V261.063Z" fill="#FAFAFA"/>
<path d="M125.005 261.063H128.965V257.103H125.005V261.063Z" fill="#F0F0F0"/>
<path d="M117.335 261.063H121.295V257.103H117.335V261.063Z" fill="#F0F0F0"/>
<path d="M109.663 261.063H113.623V257.103H109.663V261.063Z" fill="#FAFAFA"/>
<path d="M132.677 268.259H136.637V264.299H132.677V268.259Z" fill="#F0F0F0"/>
<path d="M125.005 268.259H128.965V264.299H125.005V268.259Z" fill="#FAFAFA"/>
<path d="M117.335 268.259H121.295V264.299H117.335V268.259Z" fill="#FAFAFA"/>
<path d="M109.663 268.259H113.623V264.299H109.663V268.259Z" fill="#F0F0F0"/>
<path d="M132.677 275.455H136.637V271.495H132.677V275.455Z" fill="#F0F0F0"/>
<path d="M125.005 275.455H128.965V271.495H125.005V275.455Z" fill="#FAFAFA"/>
<path d="M117.335 275.455H121.295V271.495H117.335V275.455Z" fill="#F0F0F0"/>
<path d="M109.663 275.455H113.623V271.495H109.663V275.455Z" fill="#FAFAFA"/>
<path d="M132.677 282.651H136.637V278.691H132.677V282.651Z" fill="#FAFAFA"/>
<path d="M125.005 282.651H128.965V278.691H125.005V282.651Z" fill="#FAFAFA"/>
<path d="M117.335 282.651H121.295V278.691H117.335V282.651Z" fill="#F0F0F0"/>
<path d="M109.663 282.651H113.623V278.691H109.663V282.651Z" fill="#F0F0F0"/>
<path d="M313.007 233.535H282.074V287.023H313.007V233.535Z" fill="#EBEBEB"/>
<path d="M307.068 226.061V239.476H304.629H290.455H288.016V226.061H307.068Z" fill="#EBEBEB"/>
<path d="M307.067 239.476H311.027V235.516H307.067V239.476Z" fill="#FAFAFA"/>
<path d="M299.397 239.476H303.357V235.516H299.397V239.476Z" fill="#FAFAFA"/>
<path d="M291.726 239.476H295.686V235.516H291.726V239.476Z" fill="#FAFAFA"/>
<path d="M284.054 239.476H288.014V235.516H284.054V239.476Z" fill="#F0F0F0"/>
<path d="M307.067 246.672H311.027V242.712H307.067V246.672Z" fill="#F0F0F0"/>
<path d="M299.397 246.672H303.357V242.712H299.397V246.672Z" fill="#F0F0F0"/>
<path d="M291.726 246.672H295.686V242.712H291.726V246.672Z" fill="#FAFAFA"/>
<path d="M284.054 246.672H288.014V242.712H284.054V246.672Z" fill="#FAFAFA"/>
<path d="M307.067 253.868H311.027V249.908H307.067V253.868Z" fill="#F0F0F0"/>
<path d="M299.397 253.868H303.357V249.908H299.397V253.868Z" fill="#FAFAFA"/>
<path d="M291.726 253.868H295.686V249.908H291.726V253.868Z" fill="#FAFAFA"/>
<path d="M299.397 233.257H303.357V229.297H299.397V233.257Z" fill="#FAFAFA"/>
<path d="M291.726 233.257H295.686V229.297H291.726V233.257Z" fill="#F0F0F0"/>
<path d="M284.054 253.868H288.014V249.908H284.054V253.868Z" fill="#F0F0F0"/>
<path d="M307.067 261.063H311.027V257.103H307.067V261.063Z" fill="#FAFAFA"/>
<path d="M299.397 261.063H303.357V257.103H299.397V261.063Z" fill="#F0F0F0"/>
<path d="M291.726 261.063H295.686V257.103H291.726V261.063Z" fill="#F0F0F0"/>
<path d="M284.054 261.063H288.014V257.103H284.054V261.063Z" fill="#FAFAFA"/>
<path d="M307.067 268.259H311.027V264.299H307.067V268.259Z" fill="#F0F0F0"/>
<path d="M299.397 268.259H303.357V264.299H299.397V268.259Z" fill="#FAFAFA"/>
<path d="M291.726 268.259H295.686V264.299H291.726V268.259Z" fill="#FAFAFA"/>
<path d="M284.054 268.259H288.014V264.299H284.054V268.259Z" fill="#F0F0F0"/>
<path d="M307.067 275.455H311.027V271.495H307.067V275.455Z" fill="#F0F0F0"/>
<path d="M299.397 275.455H303.357V271.495H299.397V275.455Z" fill="#FAFAFA"/>
<path d="M291.726 275.455H295.686V271.495H291.726V275.455Z" fill="#F0F0F0"/>
<path d="M284.054 275.455H288.014V271.495H284.054V275.455Z" fill="#FAFAFA"/>
<path d="M307.067 282.651H311.027V278.691H307.067V282.651Z" fill="#FAFAFA"/>
<path d="M299.397 282.651H303.357V278.691H299.397V282.651Z" fill="#FAFAFA"/>
<path d="M291.726 282.651H295.686V278.691H291.726V282.651Z" fill="#F0F0F0"/>
<path d="M284.054 282.651H288.014V278.691H284.054V282.651Z" fill="#F0F0F0"/>
<path d="M362.138 253.021H334.428V287.024H362.138V253.021Z" fill="#F0F0F0"/>
<path d="M336.84 256.792H343.286H345.06H346.833V260.339H345.06H343.286H336.84V256.792Z" fill="#E6E6E6"/>
<path d="M336.84 263.663H343.286H345.06H346.833V267.211H345.06H343.286H336.84V263.663Z" fill="#FAFAFA"/>
<path d="M336.84 270.535H343.286H345.06H346.833V274.082H345.06H343.286H336.84V270.535Z" fill="#E6E6E6"/>
<path d="M336.84 277.406H343.286H346.027H346.833V280.954H346.027H343.286H336.84V277.406Z" fill="#FAFAFA"/>
<path d="M349.732 256.792H356.178H357.951H359.725V260.339H357.951H356.178H349.732V256.792Z" fill="#FAFAFA"/>
<path d="M349.732 263.663H356.178H358.679H359.725V267.211H358.679H356.178H349.732V263.663Z" fill="#FAFAFA"/>
<path d="M349.732 270.535H356.178H357.951H359.725V274.082H357.951H356.178H349.732V270.535Z" fill="#E6E6E6"/>
<path d="M349.732 277.406H356.178H357.951H359.725V280.954H357.951H356.178H349.732V277.406Z" fill="#FAFAFA"/>
<path d="M229.984 265.896H204.807V287.024H229.984V265.896Z" fill="#F0F0F0"/>
<path d="M225.15 271.753H228.373V268.53H225.15V271.753Z" fill="#FAFAFA"/>
<path d="M218.906 271.753H222.129V268.53H218.906V271.753Z" fill="#FAFAFA"/>
<path d="M212.662 271.753H215.885V268.53H212.662V271.753Z" fill="#FAFAFA"/>
<path d="M206.42 271.753H209.643V268.53H206.42V271.753Z" fill="#FAFAFA"/>
<path d="M225.15 277.61H228.373V274.387H225.15V277.61Z" fill="#FAFAFA"/>
<path d="M218.906 277.61H222.129V274.387H218.906V277.61Z" fill="#FAFAFA"/>
<path d="M212.662 277.61H215.885V274.387H212.662V277.61Z" fill="#FAFAFA"/>
<path d="M206.42 277.61H209.643V274.387H206.42V277.61Z" fill="#E6E6E6"/>
<path d="M225.15 283.466H228.373V280.243H225.15V283.466Z" fill="#E6E6E6"/>
<path d="M218.906 283.466H222.129V280.243H218.906V283.466Z" fill="#E6E6E6"/>
<path d="M212.662 283.466H215.885V280.243H212.662V283.466Z" fill="#FAFAFA"/>
<path d="M206.42 283.466H209.643V280.243H206.42V283.466Z" fill="#E6E6E6"/>
<path d="M279.427 265.896H254.25V287.024H279.427V265.896Z" fill="#F0F0F0"/>
<path d="M274.591 271.753H277.814V268.53H274.591V271.753Z" fill="#FAFAFA"/>
<path d="M268.349 271.753H271.572V268.53H268.349V271.753Z" fill="#FAFAFA"/>
<path d="M262.105 271.753H265.328V268.53H262.105V271.753Z" fill="#FAFAFA"/>
<path d="M255.863 271.753H259.086V268.53H255.863V271.753Z" fill="#FAFAFA"/>
<path d="M274.591 277.61H277.814V274.387H274.591V277.61Z" fill="#FAFAFA"/>
<path d="M268.349 277.61H271.572V274.387H268.349V277.61Z" fill="#FAFAFA"/>
<path d="M262.105 277.61H265.328V274.387H262.105V277.61Z" fill="#FAFAFA"/>
<path d="M255.863 277.61H259.086V274.387H255.863V277.61Z" fill="#E6E6E6"/>
<path d="M274.591 283.466H277.814V280.243H274.591V283.466Z" fill="#E6E6E6"/>
<path d="M268.349 283.466H271.572V280.243H268.349V283.466Z" fill="#E6E6E6"/>
<path d="M262.105 283.466H265.328V280.243H262.105V283.466Z" fill="#FAFAFA"/>
<path d="M255.863 283.466H259.086V280.243H255.863V283.466Z" fill="#E6E6E6"/>
<path d="M201.396 250.272H176.219V287.024H201.396V250.272Z" fill="#F0F0F0"/>
<path d="M199.783 251.884H190.316V260.964H199.783V251.884Z" fill="#FAFAFA"/>
<path d="M187.297 251.884H177.83V260.964H187.297V251.884Z" fill="#FAFAFA"/>
<path d="M199.783 263.597H190.316V272.677H199.783V263.597Z" fill="#FAFAFA"/>
<path d="M187.297 263.597H177.83V272.677H187.297V263.597Z" fill="#FAFAFA"/>
<path d="M199.783 275.31H190.316V284.39H199.783V275.31Z" fill="#FAFAFA"/>
<path d="M187.297 275.31H177.83V284.39H187.297V275.31Z" fill="#FAFAFA"/>
<path d="M391.527 250.272H366.35V287.024H391.527V250.272Z" fill="#F0F0F0"/>
<path d="M389.914 251.884H380.447V260.964H389.914V251.884Z" fill="#FAFAFA"/>
<path d="M377.428 251.884H367.961V260.964H377.428V251.884Z" fill="#FAFAFA"/>
<path d="M389.914 263.597H380.447V272.677H389.914V263.597Z" fill="#FAFAFA"/>
<path d="M377.428 263.597H367.961V272.677H377.428V263.597Z" fill="#FAFAFA"/>
<path d="M389.914 275.31H380.447V284.39H389.914V275.31Z" fill="#FAFAFA"/>
<path d="M377.428 275.31H367.961V284.39H377.428V275.31Z" fill="#FAFAFA"/>
<path d="M76.2506 300.152C76.2506 300.152 71.1866 289.104 76.9726 278.212C82.7586 267.32 84.4356 264.755 80.7476 262.523C77.0596 260.292 75.3675 271.236 75.3675 271.236C75.3675 271.236 72.2586 263.707 74.8256 255.827C77.3925 247.947 79.0026 235.113 75.4966 233.736C71.9906 232.359 74.8276 249.747 71.7856 255.673C71.7856 255.673 69.2306 249.075 68.8096 242.746C68.3896 236.417 69.0456 226.311 66.2776 223.719C63.5096 221.127 61.7356 222.92 64.4566 236.887C67.1776 250.854 67.1575 262.208 67.1575 262.208C67.1575 262.208 61.1486 243.886 57.1156 243.352C53.0826 242.818 53.0876 248.751 56.5396 253.897C59.9916 259.043 66.6496 268.263 67.7406 273.007C67.7406 273.007 61.1446 259.219 55.2116 263.445C49.2786 267.671 60.3756 275.999 65.3216 279.008C70.2676 282.017 73.7026 300.881 73.7026 300.881L76.2506 300.152Z" fill="#E0E0E0"/>
<path d="M72.2535 304.683C72.2535 304.683 77.1845 293.56 71.2685 282.755C65.3525 271.951 63.6445 269.41 67.3065 267.124C70.9675 264.838 72.7905 275.756 72.7905 275.756C72.7905 275.756 75.8095 268.181 73.1475 260.34C70.4865 252.499 68.7225 239.69 72.2115 238.261C75.7005 236.832 73.0725 254.26 76.1855 260.141C76.1855 260.141 78.6615 253.506 79.0055 247.171C79.3495 240.836 78.5725 230.741 81.3095 228.107C84.0465 225.474 85.8415 227.241 83.2885 241.247C80.7355 255.253 80.8915 266.606 80.8915 266.606C80.8915 266.606 86.6805 248.197 90.7065 247.602C94.7325 247.008 94.7985 252.94 91.4085 258.138C88.0185 263.335 81.4725 272.653 80.4375 277.413C80.4375 277.413 86.8675 263.528 92.8505 267.665C98.8335 271.802 87.8375 280.295 82.9275 283.377C78.0175 286.46 74.8095 305.373 74.8095 305.373L72.2535 304.683Z" fill="#EBEBEB"/>
<path d="M94.9957 296.754H54.2617L57.5587 325.903H91.6997L94.9957 296.754Z" fill="#EBEBEB"/>
<path d="M400.338 294.678C400.485 293.69 403.862 270.385 397.096 262.339C395.598 260.558 393.708 259.627 391.478 259.572C377.82 259.252 375.951 270.222 375.934 270.335L377.545 270.583C377.608 270.19 379.227 260.906 391.438 261.202C393.205 261.245 394.648 261.96 395.848 263.388C402.147 270.878 398.76 294.203 398.725 294.437L400.338 294.678Z" fill="#EBEBEB"/>
<path d="M401.164 293.616L402.793 293.565C402.786 293.351 402.251 272.092 412.726 267.7C422.992 263.4 427.609 272.241 427.801 272.621L429.257 271.889C429.204 271.783 423.785 261.296 412.096 266.198C400.59 271.021 401.136 292.696 401.164 293.616Z" fill="#EBEBEB"/>
<path d="M401.118 295.286C401.118 294.947 401.216 261.325 407.771 251.491C414.065 242.05 424.218 246.495 424.647 246.689L425.321 245.205C425.203 245.152 413.486 239.979 406.415 250.587C399.587 260.829 399.489 293.882 399.488 295.284L401.118 295.286Z" fill="#EBEBEB"/>
<path d="M389.524 260.38C389.524 260.38 395.488 262.579 393.715 267.769C391.942 272.959 373.084 281.502 373.084 281.502C373.084 281.502 365.186 274.263 372.439 262.49C379.692 250.717 389.362 256.666 389.524 260.38Z" fill="#E0E0E0"/>
<path d="M408.065 249.721C408.065 249.721 403.831 249.267 404.172 246.688C404.513 244.109 420.631 237.472 430.14 248.205C430.14 248.205 424.051 258.664 415.249 258.801C406.447 258.937 408.065 249.721 408.065 249.721Z" fill="#E0E0E0"/>
<path d="M412.411 266.949C412.411 266.949 409.489 264.59 412.642 263.438C415.795 262.286 431.269 262.613 431.43 277.941C431.43 277.941 413.409 280.936 411.178 275.097C408.948 269.259 412.411 266.949 412.411 266.949Z" fill="#E0E0E0"/>
<path d="M386.32 325.903H414.285L417.302 295.285H383.303L386.32 325.903Z" fill="#EBEBEB"/>
<path d="M381.809 298.663H418.795V291.907H381.809V298.663Z" fill="#E0E0E0"/>
<path d="M250 372.609C357.082 372.609 443.889 367.539 443.889 361.286C443.889 355.032 357.082 349.963 250 349.963C142.918 349.963 56.1113 355.032 56.1113 361.286C56.1113 367.539 142.918 372.609 250 372.609Z" fill="#F5F5F5"/>
<path d="M355.095 106.212H123.287V276.576H355.095V106.212Z" fill="#407BFF"/>
<path opacity="0.7" d="M355.095 106.212H123.287V276.576H355.095V106.212Z" fill="white"/>
<path d="M355.095 106.212H123.287V116.644H355.095V106.212Z" fill="#407BFF"/>
<path opacity="0.7" d="M348.693 114.234C350.242 114.234 351.499 112.978 351.499 111.428C351.499 109.878 350.242 108.622 348.693 108.622C347.143 108.622 345.887 109.878 345.887 111.428C345.887 112.978 347.143 114.234 348.693 114.234Z" fill="white"/>
<path opacity="0.7" d="M340.49 114.234C342.039 114.234 343.296 112.978 343.296 111.428C343.296 109.878 342.039 108.622 340.49 108.622C338.94 108.622 337.684 109.878 337.684 111.428C337.684 112.978 338.94 114.234 340.49 114.234Z" fill="white"/>
<path opacity="0.7" d="M332.285 114.234C333.834 114.234 335.091 112.978 335.091 111.428C335.091 109.878 333.834 108.622 332.285 108.622C330.735 108.622 329.479 109.878 329.479 111.428C329.479 112.978 330.735 114.234 332.285 114.234Z" fill="white"/>
<path opacity="0.1" d="M196.483 119.769H125.238V272.123H196.483V119.769Z" fill="black"/>
<path opacity="0.1" d="M198.486 272.122H353.643V119.768L198.486 119.768L198.486 272.122Z" fill="black"/>
<path opacity="0.2" d="M323.155 131.252H229.691V197.858H323.155V131.252Z" fill="black"/>
<path d="M319.214 126.318H225.75V192.924H319.214V126.318Z" fill="#407BFF"/>
<path opacity="0.5" d="M319.218 126.318H225.748V192.928H319.218V126.318Z" fill="white"/>
<path opacity="0.7" d="M317.834 138.547H227.131V191.542H317.834V138.547Z" fill="white"/>
<path d="M319.214 126.318H225.75V136.75H319.214V126.318Z" fill="#407BFF"/>
<path opacity="0.7" d="M312.812 134.341C314.362 134.341 315.618 133.085 315.618 131.535C315.618 129.985 314.362 128.729 312.812 128.729C311.262 128.729 310.006 129.985 310.006 131.535C310.006 133.085 311.262 134.341 312.812 134.341Z" fill="white"/>
<path opacity="0.7" d="M304.607 134.341C306.156 134.341 307.413 133.085 307.413 131.535C307.413 129.985 306.156 128.729 304.607 128.729C303.057 128.729 301.801 129.985 301.801 131.535C301.801 133.085 303.057 134.341 304.607 134.341Z" fill="white"/>
<path opacity="0.7" d="M299.21 131.535C299.21 133.085 297.954 134.341 296.404 134.341C294.854 134.341 293.598 133.085 293.598 131.535C293.598 129.985 294.854 128.729 296.404 128.729C297.953 128.728 299.21 129.985 299.21 131.535Z" fill="white"/>
<path opacity="0.2" d="M227.131 178.342L252.892 162.867L271.683 173.125L300.464 154.955L317.834 167.909V191.541H227.131V178.342Z" fill="#407BFF"/>
<path d="M253.403 152.64C253.403 156.496 250.277 159.622 246.421 159.622C242.565 159.622 239.439 156.496 239.439 152.64C239.439 148.784 242.565 145.658 246.421 145.658C250.277 145.658 253.403 148.784 253.403 152.64Z" fill="white"/>
<path opacity="0.2" d="M235.668 184.528H225.748V192.928H235.668V184.528Z" fill="black"/>
<path opacity="0.2" d="M336.448 229.278H242.984V276.312H336.448V229.278Z" fill="black"/>
<path d="M341.269 231.617H247.805V298.223H341.269V231.617Z" fill="#407BFF"/>
<path opacity="0.5" d="M341.269 231.617H247.805V298.223H341.269V231.617Z" fill="white"/>
<path opacity="0.7" d="M339.889 243.845H249.186V296.84H339.889V243.845Z" fill="white"/>
<path d="M289.716 251.277L282.531 272.955H278.258L272.9 256.913L267.45 272.955H263.146L255.961 251.277H260.142L265.53 267.752L271.135 251.277H274.851L280.332 267.846L285.875 251.277H289.716Z" fill="#263238"/>
<path d="M341.269 231.617H247.805V242.049H341.269V231.617Z" fill="#407BFF"/>
<path opacity="0.7" d="M337.673 236.833C337.673 238.383 336.417 239.639 334.867 239.639C333.317 239.639 332.061 238.383 332.061 236.833C332.061 235.283 333.317 234.027 334.867 234.027C336.417 234.027 337.673 235.283 337.673 236.833Z" fill="white"/>
<path opacity="0.7" d="M329.469 236.833C329.469 238.383 328.213 239.639 326.663 239.639C325.113 239.639 323.857 238.383 323.857 236.833C323.857 235.283 325.113 234.027 326.663 234.027C328.212 234.027 329.469 235.283 329.469 236.833Z" fill="white"/>
<path opacity="0.7" d="M321.266 236.833C321.266 238.383 320.01 239.639 318.46 239.639C316.91 239.639 315.654 238.383 315.654 236.833C315.654 235.283 316.91 234.027 318.46 234.027C320.009 234.027 321.266 235.283 321.266 236.833Z" fill="white"/>
<path d="M293.984 252.278H333.113" stroke="#263238" stroke-miterlimit="10"/>
<path d="M293.984 257.43H333.113" stroke="#263238" stroke-miterlimit="10"/>
<path d="M293.984 262.581H333.113" stroke="#263238" stroke-miterlimit="10"/>
<path d="M293.984 267.733H333.113" stroke="#263238" stroke-miterlimit="10"/>
<path d="M293.984 272.884H333.113" stroke="#263238" stroke-miterlimit="10"/>
<path d="M255.961 278.035H333.114" stroke="#263238" stroke-miterlimit="10"/>
<path d="M255.961 283.187H333.114" stroke="#263238" stroke-miterlimit="10"/>
<path d="M255.961 288.338H333.114" stroke="#263238" stroke-miterlimit="10"/>
<path opacity="0.2" d="M230.286 193.926H136.822V260.532H230.286V193.926Z" fill="black"/>
<path d="M234.29 186.921H140.826V253.527H234.29V186.921Z" fill="#407BFF"/>
<path opacity="0.5" d="M234.29 186.921H140.826V253.527H234.29V186.921Z" fill="white"/>
<path opacity="0.7" d="M232.908 199.15H142.205V252.145H232.908V199.15Z" fill="white"/>
<path d="M177.135 219.809L162.722 225.199L177.135 230.588V234.934L157.875 227.456V222.943L177.135 215.465V219.809Z" fill="#263238"/>
<path d="M192.342 204.643H197.021L183.234 243.998H178.555L192.342 204.643Z" fill="#263238"/>
<path d="M217.283 222.942V227.455L198.023 234.933V230.587L212.437 225.198L198.023 219.808V215.463L217.283 222.942Z" fill="#263238"/>
<path d="M234.29 186.921H140.826V197.353H234.29V186.921Z" fill="#407BFF"/>
<path opacity="0.7" d="M230.694 192.137C230.694 193.687 229.438 194.943 227.888 194.943C226.338 194.943 225.082 193.687 225.082 192.137C225.082 190.587 226.338 189.331 227.888 189.331C229.437 189.331 230.694 190.588 230.694 192.137Z" fill="white"/>
<path opacity="0.7" d="M222.489 192.137C222.489 193.687 221.233 194.943 219.683 194.943C218.133 194.943 216.877 193.687 216.877 192.137C216.877 190.587 218.133 189.331 219.683 189.331C221.233 189.331 222.489 190.588 222.489 192.137Z" fill="white"/>
<path opacity="0.7" d="M214.284 192.137C214.284 193.687 213.028 194.943 211.478 194.943C209.928 194.943 208.672 193.687 208.672 192.137C208.672 190.587 209.928 189.331 211.478 189.331C213.028 189.331 214.284 190.588 214.284 192.137Z" fill="white"/>
<path d="M111.015 266.063L113.917 266.286C114.916 266.354 115.921 266.399 116.926 266.431C118.935 266.505 120.942 266.513 122.935 266.483C124.93 266.442 126.898 266.307 128.843 266.121C130.782 265.904 132.67 265.594 134.502 265.18L133.653 265.532C134.007 265.315 134.312 265.202 134.727 264.92C135.133 264.641 135.525 264.424 135.955 264.107C136.799 263.527 137.653 262.882 138.509 262.228C140.215 260.888 141.948 259.51 143.657 258.087L148.816 253.793L154.013 249.49C155.033 248.646 156.544 248.788 157.388 249.808C158.107 250.677 158.108 251.905 157.463 252.77C156.081 254.625 154.633 256.379 153.177 258.153C151.705 259.908 150.189 261.627 148.638 263.329C147.066 265.013 145.473 266.695 143.769 268.32C142.905 269.131 142.031 269.941 141.087 270.743C140.646 271.147 140.09 271.547 139.589 271.942C139.098 272.336 138.401 272.756 137.806 273.15C137.653 273.252 137.491 273.329 137.324 273.384L136.957 273.502C134.694 274.232 132.419 274.812 130.148 275.198C127.881 275.582 125.614 275.859 123.36 275.992C121.106 276.139 118.859 276.172 116.619 276.113C115.499 276.075 114.381 276.021 113.259 275.942C112.118 275.872 111.061 275.763 109.81 275.597C107.181 275.247 105.333 272.832 105.683 270.202C106.021 267.666 108.279 265.857 110.798 266.046L111.015 266.063Z" fill="#CE7A63"/>
<path d="M124.075 280.544L120.817 281.356L116.574 282.402C116.574 282.402 115.667 281.581 114.31 280.311C110.879 277.114 104.537 271.065 102.48 268.205C108.313 264.412 111.017 265.907 122.216 266.01C125.051 269.268 124.075 280.544 124.075 280.544Z" fill="#407BFF"/>
<path opacity="0.2" d="M120.817 281.356L116.574 282.402C116.574 282.402 115.667 281.581 114.31 280.311C114.172 278.851 114.128 277.261 114.215 275.567C114.215 275.567 118.285 277.209 120.817 281.356Z" fill="black"/>
<path d="M79.4987 234.853C79.4987 234.853 83.8807 226.754 95.6747 227.524C107.469 228.293 111.742 247.988 107.896 256.429C107.896 256.429 95.1617 258.749 82.5137 265.144C82.5137 265.144 73.7967 252.228 74.3947 243.252C74.9927 234.275 79.4987 234.853 79.4987 234.853Z" fill="#263238"/>
<path d="M120.741 315.459L125.522 323.837C138.334 320.853 179.405 314.588 184.449 328.679C190.717 346.191 145.418 360.15 120.346 361.005C95.2746 361.86 73.4106 355.886 89.2606 319.338L120.741 315.459Z" fill="#263238"/>
<path opacity="0.2" d="M120.741 315.459L125.522 323.837C138.334 320.853 179.405 314.588 184.449 328.679C190.717 346.191 145.418 360.15 120.346 361.005C95.2746 361.86 73.4106 355.886 89.2606 319.338L120.741 315.459Z" fill="black"/>
<path d="M177.187 353.434C177.13 353.47 177.056 353.466 177.003 353.425C176.953 353.39 176.936 353.325 176.959 353.27C177.041 352.991 177.871 350.581 178.711 350.327C178.892 350.283 179.083 350.339 179.211 350.473C179.449 350.67 179.563 350.978 179.509 351.282C179.373 351.733 179.098 352.129 178.723 352.414C178.247 352.805 177.732 353.147 177.187 353.434ZM177.402 352.972C178.183 352.628 178.816 352.018 179.188 351.25C179.232 351.041 179.148 350.825 178.976 350.698C178.929 350.64 178.85 350.617 178.779 350.641C178.708 350.666 178.642 350.704 178.586 350.753C178.06 351.415 177.659 352.166 177.402 352.972Z" fill="#263238"/>
<path d="M177.142 353.465C177.085 353.486 177.022 353.468 176.986 353.419C176.908 353.351 175.751 351.891 175.941 350.904C175.987 350.658 176.131 350.439 176.34 350.3C176.521 350.126 176.798 350.1 177.008 350.237C177.614 350.664 177.54 352.619 177.242 353.36L177.221 353.434C177.199 353.453 177.171 353.463 177.142 353.465ZM176.484 350.601C176.379 350.692 176.309 350.815 176.283 350.952C176.163 351.576 176.744 352.512 177.058 352.96C177.249 352.125 177.187 350.753 176.832 350.507C176.793 350.487 176.721 350.429 176.542 350.555L176.484 350.601Z" fill="#263238"/>
<path d="M133.115 357.543C133.148 357.484 133.214 357.452 133.281 357.462C133.341 357.469 133.388 357.517 133.394 357.577C133.458 357.861 133.898 360.372 133.286 361C133.149 361.127 132.955 361.171 132.777 361.115C132.475 361.059 132.225 360.843 132.125 360.551C132.025 360.091 132.074 359.611 132.264 359.18C132.492 358.606 132.777 358.058 133.115 357.543ZM133.15 358.052C132.633 358.73 132.374 359.571 132.42 360.423C132.484 360.627 132.661 360.776 132.873 360.803C132.943 360.832 133.023 360.814 133.074 360.758C133.125 360.702 133.164 360.637 133.188 360.566C133.329 359.733 133.315 358.881 133.15 358.052Z" fill="#263238"/>
<path d="M149.525 344.856L139.211 348.53L134.258 350.294L135.528 355.715L140.325 354.693L152.042 352.196L149.525 344.856Z" fill="#EBB376"/>
<path d="M136.879 355.971L136.011 349.575C135.963 349.219 135.629 348.973 135.274 349.032L132.119 349.558C132.119 349.558 127.825 349.961 126.972 351.063C124.478 354.281 126.037 368.476 127.698 368.976C128.306 369.159 128.949 368.325 129.214 367.748C130.054 365.92 131.534 361.135 132.254 359.618C133.094 357.845 135.401 356.977 136.438 356.666C136.736 356.576 136.921 356.281 136.879 355.971Z" fill="#407BFF"/>
<path d="M133.138 357.494C133.177 357.448 133.242 357.434 133.297 357.459C133.398 357.48 135.118 358.198 135.429 359.153C135.508 359.391 135.487 359.652 135.372 359.875C135.299 360.115 135.068 360.272 134.818 360.253C134.082 360.173 133.2 358.426 133.101 357.634L133.084 357.559C133.095 357.533 133.114 357.51 133.138 357.494ZM135.1 359.682C135.147 359.551 135.149 359.409 135.106 359.278C134.909 358.674 133.947 358.135 133.456 357.896C133.693 358.719 134.411 359.889 134.841 359.933C134.885 359.932 134.976 359.947 135.071 359.75L135.1 359.682Z" fill="#263238"/>
<path opacity="0.2" d="M149.525 344.856L139.211 348.53L140.325 354.693L152.042 352.196L149.525 344.856Z" fill="black"/>
<path d="M142.152 355.62L145.119 355.833L143.133 345.627L139.768 347.489L142.152 355.62Z" fill="#407BFF"/>
<path opacity="0.6" d="M142.152 355.62L145.119 355.833L143.133 345.627L139.768 347.489L142.152 355.62Z" fill="white"/>
<path opacity="0.2" d="M99.123 315.963L114.572 333.093C114.572 333.093 131.653 332.713 152.394 342.851C152.394 342.851 174.65 333.658 176.695 326.021C179.372 316.017 125.521 323.837 125.521 323.837L99.123 315.963Z" fill="black"/>
<path d="M126.14 319.783L124.223 318.395C123.502 317.873 122.573 317.732 121.73 318.016L117.789 319.344C116.213 319.875 114.992 321.136 114.512 322.728L114.215 323.714C117.237 326.232 122.359 326.727 122.359 326.727L123.803 327.03C125.089 327.299 126.295 326.552 126.572 325.312L127.209 322.458C127.429 321.472 127.004 320.408 126.14 319.783Z" fill="#CE7A63"/>
<path d="M166.856 325.95V328.488C166.856 329.139 166.089 329.406 165.446 329.406H114.717C114.066 329.406 113.281 329.139 113.281 328.488V325.95H166.856Z" fill="#263238"/>
<path opacity="0.4" d="M166.856 325.95V328.488C166.856 329.139 166.089 329.406 165.446 329.406H114.717C114.066 329.406 113.281 329.139 113.281 328.488V325.95H166.856Z" fill="white"/>
<path opacity="0.2" d="M166.855 325.95V328.488C166.855 329.139 166.089 329.406 165.446 329.406H131.987C131.336 329.406 130.562 329.139 130.562 328.488V325.95H166.855Z" fill="black"/>
<path d="M175.343 299.594L169.304 326.986C169.107 327.888 168.229 328.543 167.343 328.543H134.355C133.477 328.543 132.912 327.724 133.116 326.822L139.147 299.64C139.351 298.745 140.221 298.3 141.107 298.3H174.096C174.983 298.299 175.54 298.699 175.343 299.594Z" fill="#263238"/>
<path opacity="0.4" d="M175.344 299.594L169.305 326.986C169.108 327.888 168.23 328.543 167.344 328.543H135.478C134.592 328.543 134.035 327.724 134.231 326.822L140.27 299.64C140.466 298.745 141.344 298.3 142.231 298.3H174.098C174.984 298.299 175.541 298.699 175.344 299.594Z" fill="white"/>
<path opacity="0.2" d="M159.08 313.516V313.524C159.08 315.869 156.565 317.775 154.722 317.775C152.879 317.775 151.786 315.87 152.312 313.524C152.838 311.225 154.672 309.351 156.476 309.28C155.951 311.625 157.076 313.524 158.912 313.524C158.95 313.524 159.08 313.524 159.08 313.516Z" fill="black"/>
<path d="M156.688 356.592L167.49 358.37L172.678 359.225L174.191 353.865L169.499 352.438L158.037 348.951L156.688 356.592Z" fill="#EBB376"/>
<path d="M173.133 352.988L170.797 359.005C170.667 359.341 170.84 359.717 171.179 359.838L174.194 360.905C174.194 360.905 178.147 362.631 179.427 362.08C183.166 360.472 188.675 347.296 187.463 346.054C187.02 345.6 186.053 346.019 185.543 346.395C183.923 347.588 180.311 351.059 178.947 352.037C177.353 353.181 174.915 352.825 173.857 352.595C173.551 352.528 173.246 352.696 173.133 352.988Z" fill="#407BFF"/>
<path opacity="0.2" d="M156.688 356.592L167.49 358.37L169.499 352.438L158.037 348.951L156.688 356.592Z" fill="black"/>
<path d="M167.64 351.319C167.64 351.319 123.593 326.558 108.395 327.262C93.1971 327.967 91.0041 341.366 97.2741 349.752C103.545 358.138 115.124 360.18 115.124 360.18C115.124 360.18 107.24 349.039 108.38 345.904C109.519 342.77 113.98 347.143 113.98 347.143C113.98 347.143 141.69 356.092 165.93 358.146L167.64 351.319Z" fill="#263238"/>
<path d="M168.348 350.637L165.856 348.962L162.652 358.802H166.499L168.348 350.637Z" fill="#407BFF"/>
<path opacity="0.6" d="M168.348 350.637L165.856 348.962L162.652 358.802H166.499L168.348 350.637Z" fill="white"/>
<path d="M120.74 315.463L89.2605 319.334C89.1045 316.292 88.7335 313.121 87.9995 309.501C87.2045 305.621 85.9865 301.231 84.1455 295.917C82.6675 291.657 80.7925 286.809 78.4075 281.158C76.5325 276.691 78.9085 271.886 83.5145 270.841C84.7505 270.564 86.0555 270.297 87.4035 270.063C92.6485 269.156 96.9605 268.456 101.705 268.3C103.269 268.248 104.902 268.248 106.475 268.265C112.126 268.36 117.034 274.245 117.89 279.775C118.365 282.86 119.048 285.167 119.523 292.607C120.049 298.889 120.377 305.093 120.74 315.463Z" fill="#407BFF"/>
<path d="M86.4238 253.841C88.2348 258.287 90.8008 266.526 88.1898 269.963C88.1898 269.963 92.4658 268.772 102.42 273.352C104.625 269.181 102.484 268.202 102.484 268.202C97.1128 267.621 96.4928 263.834 96.6798 260.183L86.4238 253.841Z" fill="#CE7A63"/>
<path d="M100.335 272.44C97.3424 273.249 96.9554 277.968 96.9554 277.968C96.9554 277.968 89.0004 273.694 86.2324 270.33C87.2484 269.627 88.6954 268.304 88.6954 268.304C88.6954 268.304 98.3404 270.901 100.335 272.44Z" fill="white"/>
<path d="M103.17 271.593C103.17 271.593 105.889 271.978 107.298 275.563C107.169 268.769 103.895 268.014 103.895 268.014C103.895 268.014 102.856 267.45 101.092 267.955C103.665 268.932 103.17 271.593 103.17 271.593Z" fill="white"/>
<path opacity="0.2" d="M90.606 256.429L96.676 260.179C96.629 261.043 96.632 261.914 96.737 262.747C94.722 262.708 91.605 260.908 90.991 258.902C90.685 257.901 90.533 256.921 90.606 256.429Z" fill="black"/>
<path d="M81.359 245.093C83.67 252.347 84.493 255.458 89.169 258.498C96.204 263.071 104.612 259.157 104.516 251.482C104.43 244.574 100.666 233.871 92.711 232.362C84.874 230.877 79.048 237.839 81.359 245.093Z" fill="#CE7A63"/>
<path d="M90.9971 245.162C91.1641 245.779 91.6241 246.215 92.0221 246.136C92.4211 246.057 92.6081 245.492 92.4401 244.875C92.2721 244.258 91.8131 243.822 91.4151 243.901C91.0171 243.98 90.8291 244.545 90.9971 245.162Z" fill="#263238"/>
<path d="M98.7119 243.381C98.8799 243.998 99.3389 244.434 99.7369 244.355C100.136 244.276 100.323 243.711 100.156 243.094C99.9879 242.477 99.5289 242.041 99.1309 242.12C98.7319 242.199 98.5439 242.763 98.7119 243.381Z" fill="#263238"/>
<path d="M98.9629 242.189L100.312 241.47C100.312 241.47 99.8749 242.778 98.9629 242.189Z" fill="#263238"/>
<path d="M96.7109 245.208C96.7109 245.208 98.4669 247.66 99.9549 248.715C99.3559 249.636 97.8929 249.56 97.8929 249.56L96.7109 245.208Z" fill="#BA4D3C"/>
<path d="M95.0044 252.539C95.3364 252.533 95.6854 252.497 96.0514 252.425C96.1504 252.405 96.2084 252.308 96.1814 252.208C96.1544 252.109 96.0544 252.043 95.9524 252.062C93.2784 252.595 91.5124 250.95 91.4944 250.934C91.4174 250.86 91.3004 250.859 91.2324 250.93C91.1644 251.001 91.1714 251.118 91.2474 251.191C91.3164 251.255 92.7374 252.581 95.0044 252.539Z" fill="#263238"/>
<path d="M88.8008 241.521C88.8978 241.511 88.9868 241.462 89.0458 241.379C89.9538 240.071 91.3198 240.159 91.3358 240.16C91.5378 240.174 91.7068 240.023 91.7078 239.819C91.7078 239.616 91.5428 239.438 91.3368 239.423C91.2648 239.418 89.5508 239.306 88.4238 240.93C88.3118 241.092 88.3598 241.324 88.5308 241.448C88.6138 241.507 88.7098 241.531 88.8008 241.521Z" fill="#263238"/>
<path d="M100.792 238.685C100.884 238.687 100.975 238.655 101.043 238.589C101.184 238.451 101.177 238.217 101.028 238.067C99.5332 236.559 97.8622 236.816 97.7902 236.828C97.5912 236.861 97.4682 237.051 97.5162 237.252C97.5642 237.453 97.7642 237.589 97.9632 237.557C98.0282 237.546 99.3292 237.366 100.517 238.565C100.595 238.643 100.695 238.683 100.792 238.685Z" fill="#263238"/>
<path d="M91.248 243.97L92.597 243.252C92.597 243.252 92.159 244.559 91.248 243.97Z" fill="#263238"/>
<path d="M83.9653 249.145C83.9653 249.145 88.5803 243.296 85.5893 236.606C85.5893 236.606 94.8003 230.121 101.304 239.419C101.304 239.419 100.033 230.429 90.0333 231.027C80.0333 231.625 71.8493 247.362 85.0853 254.578L83.9653 249.145Z" fill="#263238"/>
<path d="M80.4491 251.622C81.6581 252.948 83.2901 253.588 84.6651 253.627C86.7331 253.686 87.1381 251.567 86.0361 249.751C85.0441 248.116 82.7731 246.116 80.9511 246.922C79.1551 247.716 79.0671 250.106 80.4491 251.622Z" fill="#CE7A63"/>
<path d="M84.8203 236.804C84.8203 236.804 96.4623 230.949 103.417 243.252" stroke="#263238" stroke-width="0.4321" stroke-miterlimit="10" stroke-linecap="round" stroke-linejoin="round"/>
<path d="M162.646 247.819L162.251 249.849C162.103 250.612 161.594 251.257 160.887 251.579L157.58 253.086C156.258 253.688 154.726 253.613 153.469 252.884L152.691 252.432C153.115 249.021 156.087 245.646 156.087 245.646L156.827 244.59C157.487 243.65 158.702 243.407 159.619 244.033L161.73 245.473C162.459 245.971 162.824 246.904 162.646 247.819Z" fill="#CE7A63"/>
<path opacity="0.2" d="M87.9985 309.5C87.2035 305.62 85.9855 301.23 84.1445 295.916C86.8755 290.463 89.5965 285.84 89.5965 285.84C89.5965 285.84 99.3445 299.831 87.9985 309.5Z" fill="black"/>
<path d="M87.156 284.887L87.873 287.707C88.128 288.675 88.407 289.642 88.698 290.604C89.271 292.531 89.905 294.435 90.572 296.314C91.249 298.191 92.007 300.012 92.805 301.796C93.631 303.563 94.528 305.253 95.507 306.856L94.902 306.164C95.221 306.43 95.425 306.683 95.826 306.985C96.22 307.28 96.552 307.583 96.989 307.888C97.809 308.502 98.693 309.105 99.587 309.707C101.402 310.894 103.262 312.095 105.157 313.259L110.876 316.773L116.616 320.319C117.742 321.015 118.091 322.492 117.395 323.618C116.802 324.577 115.639 324.971 114.612 324.637C112.412 323.921 110.287 323.111 108.14 322.299C106.007 321.466 103.893 320.579 101.784 319.655C99.686 318.705 97.583 317.733 95.497 316.639C94.452 316.08 93.405 315.512 92.343 314.874C91.819 314.585 91.262 314.186 90.728 313.838C90.198 313.498 89.577 312.973 89.013 312.535C88.868 312.422 88.742 312.293 88.637 312.153L88.408 311.843C86.992 309.933 85.714 307.963 84.623 305.935C83.533 303.91 82.546 301.851 81.699 299.758C80.838 297.67 80.089 295.551 79.427 293.411C79.105 292.338 78.798 291.261 78.514 290.173C78.215 289.069 77.98 288.033 77.737 286.795C77.227 284.192 78.924 281.668 81.528 281.158C84.039 280.666 86.475 282.227 87.103 284.674L87.156 284.887Z" fill="#CE7A63"/>
<path d="M81.0564 271.875C75.5834 275.468 75.1364 281.107 77.6484 292.023C81.4404 294.089 90.9044 291.965 90.9044 291.965C90.9044 291.965 88.5264 275.074 81.0564 271.875Z" fill="#407BFF"/>
<path d="M335.023 125.833C335.282 126.388 335.198 126.976 334.835 127.145C334.472 127.314 333.968 127.002 333.709 126.446C333.45 125.891 333.534 125.304 333.897 125.134C334.26 124.965 334.764 125.277 335.023 125.833Z" fill="#263238"/>
<path d="M335.249 126.951C335.249 126.951 335.481 130.743 334.811 132.936C336.221 133.394 337.695 132.197 337.695 132.197L335.249 126.951Z" fill="#DE5753"/>
<path d="M335.618 121.801C335.688 121.749 335.74 121.671 335.757 121.579C335.794 121.384 335.666 121.195 335.471 121.159C333.515 120.787 332.352 121.971 332.302 122.022C332.164 122.165 332.169 122.393 332.312 122.531C332.455 122.668 332.684 122.662 332.82 122.522C332.858 122.483 333.777 121.569 335.337 121.866C335.44 121.885 335.54 121.859 335.618 121.801Z" fill="#263238"/>
<path d="M352.452 120.544C355.143 125.526 360.775 134.076 366.133 134.468C366.133 134.468 368.543 139.785 360.573 146.347C351.809 153.563 352.801 145.445 352.801 145.445C356.644 140.364 353.598 136.917 350.021 134.27L352.452 120.544Z" fill="#E4897B"/>
<path d="M352.991 116.018C355.753 123.032 357.726 126.997 355.915 132.103C353.19 139.784 343.318 140.587 338.516 134.54C334.194 129.097 330.404 118.542 335.812 112.715C341.14 106.974 350.229 109.004 352.991 116.018Z" fill="#E4897B"/>
<path d="M357.365 127.55C355.93 130.816 343.335 132.769 339.861 124.176C339.861 124.176 333.329 122.577 330.326 117.701C327.323 112.826 329.178 108.748 333.255 107.254C336.849 105.937 337.96 107.618 337.96 107.618C337.96 107.618 353.128 98.9369 354.346 106.813C364.607 108.802 359.156 123.476 357.365 127.55Z" fill="#263238"/>
<path d="M343.214 123.631C343.952 125.462 343.92 127.53 343.445 129.097C342.731 131.455 340.683 131.169 339.466 129.288C338.37 127.594 337.421 124.327 338.819 122.55C340.196 120.8 342.369 121.538 343.214 123.631Z" fill="#E4897B"/>
<path d="M368.461 134.96C367.487 131.992 366.277 128.525 362.673 129.723C359.503 130.777 350.253 136.487 349.543 138.465C351.178 139.786 351.92 142.222 351.92 142.222L368.461 134.96Z" fill="#407BFF"/>
<path opacity="0.5" d="M368.461 134.96C367.487 131.992 366.277 128.525 362.673 129.723C359.503 130.777 350.253 136.487 349.543 138.465C351.178 139.786 351.92 142.222 351.92 142.222L368.461 134.96Z" fill="#FAFAFA"/>
<path d="M382.369 134.265C387.093 136.317 391.484 138.566 395.87 141.107C400.247 143.655 404.462 146.398 408.594 149.747C409.806 150.764 410.768 151.726 411.666 152.709C412.567 153.686 413.396 154.665 414.219 155.643C415.836 157.604 417.343 159.605 418.817 161.612C421.744 165.646 424.448 169.767 426.985 174.056L422.789 177.221L412.707 166.722C411.042 164.984 409.353 163.288 407.682 161.634C406.842 160.822 406.003 160.016 405.164 159.276C404.328 158.54 403.499 157.835 402.789 157.342C400.978 156.11 398.952 154.872 396.953 153.699C394.923 152.536 392.867 151.396 390.774 150.292C386.607 148.108 382.267 145.946 378.086 143.973L382.369 134.265Z" fill="#DC897C"/>
<path d="M426.761 186.297L424.227 181.787L431.971 179.45C431.971 179.45 433.532 183.089 431.826 186.019L426.761 186.297Z" fill="#E4897B"/>
<path d="M421.383 175.181L426.34 173.572L431.969 179.45L424.225 181.787L421.383 175.181Z" fill="#E4897B"/>
<path d="M377.186 131.484C383.448 129.013 397.383 139.766 397.383 139.766L392.198 155.501C392.198 155.501 385.631 154.476 379.117 148.785C372.291 142.821 370.783 134.011 377.186 131.484Z" fill="#263238"/>
<path opacity="0.2" d="M386.264 143.308C390.22 146.677 392.428 149.404 392.428 154.802L392.202 155.5C392.202 155.5 385.628 154.474 379.114 148.785C378.708 148.428 378.317 148.061 377.947 147.69L386.264 143.308Z" fill="black"/>
<path d="M402.3 191.287C390.34 193.427 368.43 197.347 362.61 198.397C361.01 195.047 357.56 183.027 351 168.557C349.23 164.627 347.22 160.527 344.96 156.357C342.5 151.827 339.74 147.227 336.65 142.717C336.65 142.717 342.95 140.307 349.32 138.877C354.3 137.757 369.99 131.757 374.59 131.307C380.67 130.727 381.34 133.377 381.34 133.377C381.34 133.377 389.53 141.947 402.3 191.287Z" fill="#263238"/>
<path opacity="0.2" d="M351.001 168.557C349.231 164.627 347.221 160.527 344.961 156.357L347.541 154.747C347.541 154.747 353.581 163.817 351.001 168.557Z" fill="black"/>
<path d="M301.795 162.814L296.676 162.062L297.265 170.129C297.265 170.129 301.221 170.285 303.347 167.643L301.795 162.814Z" fill="#E4897B"/>
<path d="M289.475 161.474L291.365 168.407L297.265 170.129L296.676 162.061L289.475 161.474Z" fill="#E4897B"/>
<path d="M343.027 151.261C342.897 152.044 342.784 152.63 342.649 153.297C342.522 153.944 342.368 154.58 342.215 155.215C341.904 156.484 341.566 157.742 341.192 158.996C340.459 161.507 339.539 163.979 338.461 166.437C337.353 168.881 336.072 171.314 334.425 173.656C332.77 175.978 330.76 178.281 328.031 180.12C326.67 181.029 325.121 181.8 323.449 182.306C323.242 182.373 323.028 182.424 322.817 182.481L322.5 182.563L322.005 182.664C321.353 182.778 320.73 182.818 320.17 182.801C319.03 182.773 318.083 182.578 317.232 182.328C315.538 181.822 314.199 181.142 312.951 180.432C311.707 179.724 310.598 178.929 309.53 178.132C305.303 174.89 301.856 171.293 298.652 167.286L302.344 163.545C306.173 166.271 310.171 169.028 314.075 171.164C315.048 171.695 316.032 172.155 316.958 172.553C317.88 172.943 318.794 173.232 319.466 173.319C319.796 173.361 320.06 173.366 320.14 173.329C320.189 173.318 320.174 173.294 320.12 173.293C320.103 173.291 320.087 173.292 320.071 173.296L320.192 173.25C320.272 173.218 320.354 173.197 320.434 173.16C321.076 172.9 321.708 172.529 322.335 172.033C323.592 171.05 324.823 169.602 325.884 167.894C326.955 166.19 327.915 164.272 328.734 162.244C329.582 160.226 330.283 158.096 330.943 155.939C331.267 154.859 331.564 153.765 331.835 152.668L332.226 151.027C332.35 150.503 332.482 149.897 332.565 149.48L343.027 151.261Z" fill="#DC897C"/>
<path d="M348.727 150.759C353.278 159.268 339.188 172.472 339.188 172.472L325.236 162.775C325.236 162.775 328.16 154.139 332.678 146.752C338.259 137.629 345.263 144.282 348.727 150.759Z" fill="#263238"/>
<path d="M345.28 354.549L337.17 355.399L336.76 350.699L335.65 337.909L343.76 337.049L344.99 351.179L345.28 354.549Z" fill="#E4897B"/>
<path d="M415.76 353.519H407.901L407.511 351.747L407.462 351.528L405.015 340.178L404.964 339.949L404.02 335.598H411.889L415.76 353.519Z" fill="#E4897B"/>
<path opacity="0.2" d="M343.76 337.049L344.99 351.179L336.76 350.699L335.65 337.909L343.76 337.049Z" fill="black"/>
<path opacity="0.2" d="M415.53 352.523H415.52L407.471 351.528H407.461L405.076 340.576H405.086L413.079 341.203L415.458 352.18L415.53 352.523Z" fill="black"/>
<path d="M406.81 353.046H416.36C416.682 353.048 416.96 353.272 417.03 353.586L418.58 360.586C418.713 361.213 418.312 361.828 417.685 361.961C417.601 361.979 417.516 361.987 417.43 361.986C414.34 361.936 412.09 361.746 408.21 361.746C405.82 361.746 398.61 361.996 395.31 361.996C392.01 361.996 391.58 358.736 392.93 358.436C398.99 357.116 403.55 355.286 405.49 353.546C405.849 353.216 406.322 353.037 406.81 353.046Z" fill="#263238"/>
<path d="M336.31 352.796H345.86C346.182 352.798 346.46 353.022 346.53 353.336L348.08 360.336C348.213 360.963 347.812 361.578 347.185 361.711C347.101 361.729 347.016 361.737 346.93 361.736C343.84 361.686 341.59 361.496 337.71 361.496C335.32 361.496 328.11 361.746 324.81 361.746C321.51 361.746 321.08 358.486 322.43 358.186C328.49 356.866 333.05 355.036 334.99 353.296C335.349 352.966 335.822 352.787 336.31 352.796Z" fill="#263238"/>
<path d="M334.909 347.519L346.509 347.894C342.289 270.334 340.319 266.378 377.965 229.744C378.845 240.824 379.835 252.321 380.805 261.902C381.415 267.832 381.595 273.011 382.585 276.806C389.284 302.494 405.409 347.962 405.409 347.962L416.729 348.467C416.729 348.467 402.56 286.159 401.103 265.852C399.191 239.209 405.409 210.371 401.875 189.52L362.334 196.225C326.465 248.708 319.903 260.048 334.909 347.519Z" fill="#407BFF"/>
<path opacity="0.3" d="M334.909 347.519L346.509 347.894C342.289 270.334 340.319 266.378 377.965 229.744C378.845 240.824 379.835 252.321 380.805 261.902C381.415 267.832 381.595 273.011 382.585 276.806C389.284 302.494 405.409 347.962 405.409 347.962L416.729 348.467C416.729 348.467 402.56 286.159 401.103 265.852C399.191 239.209 405.409 210.371 401.875 189.52L362.334 196.225C326.465 248.708 319.903 260.048 334.909 347.519Z" fill="white"/>
<path opacity="0.2" d="M377.965 229.699C378.845 240.779 379.835 252.299 380.805 261.879C382.225 248.049 383.965 238.189 383.965 238.189C383.965 238.189 385.595 236.849 390.075 229.699C394.555 222.539 390.075 209.199 390.075 209.199C390.215 221.599 377.965 229.699 377.965 229.699Z" fill="black"/>
<path d="M333.611 346.269L334.174 349.519H347.799V346.519L333.611 346.269Z" fill="#407BFF"/>
<path d="M404.066 347.519L405.374 350.519H417.783L417.549 347.519H404.066Z" fill="#407BFF"/>
<path opacity="0.7" d="M333.611 346.269L334.174 349.519H347.799V346.519L333.611 346.269Z" fill="white"/>
<path opacity="0.7" d="M404.066 347.519L405.374 350.519H417.783L417.549 347.519H404.066Z" fill="white"/>
</svg>
