<svg width="397" height="326" viewBox="0 0 397 326" fill="none" xmlns="http://www.w3.org/2000/svg">
<path d="M395.994 234.51C382.481 232.632 370.868 234.164 360.917 237.877C360.744 243.662 360.42 250.57 360.42 250.57L354.247 240.813C318.371 258.967 307.189 305.679 307.189 305.679C336.827 310.32 356.6 304.858 369.789 295.231C368.58 291.259 366.724 285.366 366.724 285.366L373.89 291.928C379.826 286.662 384.187 280.488 387.36 274.206C383.625 270.817 379.459 266.867 379.459 266.867L390.144 267.99C396.879 250.807 395.994 234.51 395.994 234.51Z" fill="#7C9AF2"/>
<path d="M369.789 295.21C368.58 291.238 366.723 285.345 366.723 285.345L373.89 291.907C379.826 286.64 384.186 280.466 387.36 274.185C383.625 270.796 379.459 266.846 379.459 266.846L390.144 267.968C396.879 250.786 396.016 234.51 396.016 234.51C352.088 251.994 307.211 305.657 307.211 305.657C336.827 310.298 356.6 304.837 369.789 295.21Z" fill="#4951EC"/>
<path d="M385.635 296.915C379.418 290.331 372.748 286.316 366.056 284.114C363.574 287.05 360.552 290.482 360.552 290.482L361.394 282.862C335.275 277.401 310.105 296.958 310.105 296.958C323.532 311.658 336.052 317.011 346.866 317.486C347.881 314.918 349.37 311.097 349.37 311.097L350.363 317.465C355.63 317.184 360.444 315.803 364.696 313.86C364.157 310.557 363.639 306.78 363.639 306.78L368.711 311.788C379.332 305.722 385.635 296.915 385.635 296.915Z" fill="url(#paint0_linear_612_222)"/>
<path d="M346.888 317.508C347.902 314.939 349.392 311.118 349.392 311.118L350.385 317.486C355.652 317.206 360.465 315.824 364.718 313.881C364.178 310.579 363.66 306.801 363.66 306.801L368.733 311.809C379.353 305.7 385.656 296.893 385.656 296.893C355.63 287.741 310.148 296.958 310.148 296.958C323.553 311.68 336.052 317.033 346.888 317.508Z" fill="url(#paint1_linear_612_222)"/>
<path d="M377.928 84.6385C387.188 89.7544 376.698 100.698 373.762 103.505C375.424 107.11 376.676 110.542 377.604 113.715C379.525 108.987 377.928 103.98 380.022 101.497C382.396 98.691 386.757 97.5901 387.188 104.735C387.534 110.391 380.756 113.801 377.928 114.967C379.439 120.493 379.979 125.199 380.13 128.674C383.13 123.623 381.878 117.687 384.598 115.14C387.577 112.355 392.52 111.707 392.088 119.629C391.722 126.192 383.13 129.019 380.173 129.818C380.238 132.991 379.979 134.891 379.936 135.085C379.417 138.927 378.727 142.575 377.906 146.029C380.669 141.647 380.562 136.445 383.346 134.502C386.67 132.171 391.678 132.214 390.124 140.007C388.894 146.18 380.691 147.907 377.324 148.36C375.424 155.548 372.899 161.895 370.136 167.421C373.978 164.571 377.345 157.664 381.77 156.326C384.684 155.44 386.39 156.8 387.318 158.096C388.117 159.218 388.354 160.6 387.987 161.916C385.958 169.385 373.395 168.802 369.596 168.435C366.099 175.213 362.235 180.739 358.652 185.078C360.638 183.632 363.66 181.408 365.149 180.2C367.524 178.278 371.733 176.94 374.474 177.998C374.582 178.041 374.69 178.084 374.798 178.127C376.827 179.056 377.755 181.387 377.194 183.545C374.928 191.964 360.379 187.733 357.249 186.719C357.227 186.74 357.206 186.783 357.162 186.805C347.88 197.512 339.505 202.217 339.16 202.433L338.426 201.138C338.512 201.095 346.477 196.583 355.263 186.697C348.938 174.177 353.536 166.6 357.054 166.557C360.702 166.514 364.588 170.464 361.113 175.667C359.084 178.689 357.68 182.337 356.839 184.862C360.487 180.545 364.48 174.911 368.106 167.96C354.637 154.987 363.401 147.411 367.675 149.051C371.992 150.713 372.251 154.167 370.222 159.024C368.862 162.262 368.603 165.327 368.581 167.054C371.323 161.636 373.805 155.419 375.705 148.36C372.402 147.864 364.07 146.007 362.947 139.747C361.544 131.912 366.552 131.977 369.833 134.373C372.855 136.574 372.316 142.683 375.985 147.346C377 143.417 377.82 139.251 378.425 134.847C378.446 134.783 378.964 130.962 378.273 124.832C374.906 124.745 366.466 123.925 364.566 117.881C362.192 110.304 367.157 109.721 370.718 111.686C373.892 113.434 374.215 119.262 378.079 123.407C377.367 118.226 375.791 111.599 372.445 104.282C368.948 104.174 360.81 103.267 358.954 97.3527C356.58 89.7544 361.544 89.1932 365.106 91.1575C368.322 92.9275 368.603 98.9069 372.64 103.051L372.791 102.987C372.424 100.871 371.647 96.3813 371.15 94.2443C370.503 91.3949 371.193 87.2936 373.352 85.4804C375.554 83.7103 377.928 84.6385 377.928 84.6385Z" fill="#DDE8FE"/>
<path d="M272.588 57.7424C286.273 56.9437 282.345 76.1768 281.05 81.2927C285.367 84.0989 289.101 86.9914 292.317 89.8407C291.152 83.3218 285.928 78.9614 286.532 74.7737C287.202 70.068 291.195 65.8372 296.635 73.3491C300.93 79.3068 295.857 87.7253 293.569 90.9632C299.031 95.9927 302.894 100.763 305.442 104.476C305.247 96.8562 299.765 91.2222 300.995 86.5597C302.333 81.4654 307.298 77.2993 312.306 86.3222C316.45 93.7694 309.003 102.814 306.283 105.728C308.55 109.16 309.565 111.427 309.672 111.664C311.766 116.219 313.536 120.687 315.026 125.069C315.026 118.377 311.313 112.743 313.018 108.685C315.047 103.828 320.552 100.418 324.243 110.024C327.157 117.622 319.365 125.199 315.997 128.048C318.868 137.222 320.509 145.921 321.286 153.908C323.509 148.144 322.43 138.236 326.358 133.725C328.927 130.746 331.755 131.048 333.676 131.825C335.317 132.495 336.547 133.855 337.065 135.56C340.022 145.144 325.819 153.196 321.437 155.419C322.279 165.262 321.869 173.983 320.962 181.214C322.149 178.235 323.898 173.745 324.718 171.371C325.991 167.615 329.683 163.233 333.417 162.499C333.568 162.477 333.719 162.434 333.87 162.413C336.741 162.024 339.375 163.945 340.238 166.708C343.584 177.501 324.696 182.919 320.595 183.956C320.595 183.999 320.573 184.063 320.573 184.107C317.81 202.239 311.896 213.204 311.658 213.658L309.975 212.73C310.039 212.622 315.652 202.174 318.458 185.272C302.895 175.926 302.679 164.442 306.499 161.981C310.471 159.434 317.443 161.053 317.249 169.169C317.12 173.875 318.091 178.861 318.933 182.207C319.926 174.954 320.444 166.018 319.58 155.894C295.857 150.994 300.218 136.618 306.046 135.473C311.939 134.308 314.594 137.913 315.717 144.626C316.472 149.094 318.307 152.656 319.451 154.555C318.695 146.72 317.141 138.172 314.357 129.149C310.406 130.876 299.98 134.61 294.411 128.523C287.461 120.925 292.987 117.536 298.232 117.881C303.067 118.205 306.694 125.285 313.925 127.832C312.328 122.846 310.363 117.708 307.946 112.441C307.902 112.355 305.852 107.822 300.844 101.584C297.109 103.828 287.288 108.75 281.05 103.44C273.192 96.7698 278.243 92.7117 283.51 92.3879C288.194 92.1073 292.576 98.2809 299.678 100.137C295.318 94.935 288.993 88.783 280.294 83.0843C276.387 85.3724 266.846 90.0134 260.716 84.8112C252.858 78.1412 257.909 74.083 263.176 73.7592C267.925 73.4786 272.35 79.8249 279.646 81.5733L279.754 81.4006C277.898 79.3284 273.926 74.968 271.919 72.9605C269.242 70.3055 267.148 65.3191 268.271 61.8438C269.35 58.3684 272.588 57.7424 272.588 57.7424Z" fill="#BED1F9"/>
<path d="M60.5371 243.382L137.199 215.242L103.056 122.226L26.3943 150.366L60.5371 243.382Z" fill="#BED1F9"/>
<path d="M98.8522 229.321L137.193 215.248L103.051 122.232L64.7094 136.306L98.8522 229.321Z" fill="#92B5F9"/>
<path d="M91.7414 135.495C92.5616 135.128 92.9286 134.157 92.5185 133.358C91.2017 130.681 88.0502 124.896 83.2581 119.543C74.6237 109.894 64.8668 106.462 55.0021 109.592C49.5192 111.34 45.4611 114.729 42.9139 119.694C37.1505 130.919 40.7769 146.828 42.18 151.879C42.4174 152.742 43.3241 153.239 44.1875 152.958C44.9862 152.699 45.4395 151.857 45.2236 151.037C43.9501 146.353 40.5179 131.221 45.7201 121.119C47.8787 116.931 51.3109 114.06 55.9518 112.592C64.6726 109.829 73.0695 112.873 80.9052 121.637C85.4167 126.666 88.4387 132.236 89.6691 134.74C90.0577 135.517 90.9643 135.84 91.7414 135.495Z" fill="#DDE8FE"/>
<path d="M93.12 224.343L49.3005 164.096C47.66 161.852 44.53 161.355 42.2851 162.996L8.33036 187.668C6.08542 189.309 5.58895 192.439 7.22948 194.684L51.049 254.93C52.6895 257.175 55.8195 257.672 58.0644 256.031L92.0191 231.337C94.2425 229.718 94.7605 226.588 93.12 224.343Z" fill="url(#paint2_linear_612_222)"/>
<path d="M73.9888 244.446L24.2637 176.06L13.544 183.855L63.2692 252.24L73.9888 244.446Z" fill="#0B0754"/>
<path d="M55.0215 194.425L38.0118 171.026C37.7959 170.723 37.3858 170.659 37.0836 170.874L36.9325 170.982C36.6303 171.198 36.5655 171.608 36.7814 171.911L53.7911 195.31C54.007 195.612 54.4171 195.677 54.7193 195.461L54.8704 195.353C55.1726 195.137 55.2374 194.727 55.0215 194.425Z" fill="#0B0754"/>
<path d="M55.0856 188.122L41.0548 168.802C40.8389 168.5 40.4288 168.435 40.1266 168.651L39.9755 168.759C39.6733 168.975 39.6085 169.385 39.8244 169.687L53.8552 189.007C54.0711 189.309 54.4812 189.374 54.7834 189.158L54.9345 189.05C55.2367 188.834 55.3015 188.424 55.0856 188.122Z" fill="#0B0754"/>
<path d="M61.1309 190L44.1212 166.6C43.9053 166.298 43.4952 166.233 43.193 166.449L43.0419 166.557C42.7397 166.773 42.6749 167.183 42.8908 167.485L59.9005 190.885C60.1164 191.187 60.5265 191.252 60.8287 191.036L60.9798 190.928C61.282 190.712 61.3468 190.302 61.1309 190Z" fill="#0B0754"/>
<path d="M84.7229 222.443L79.3696 215.083C78.4198 213.766 76.585 213.485 75.2682 214.435L72.6779 216.313C71.3612 217.263 71.0806 219.097 72.0303 220.414L77.3837 227.775C78.3334 229.092 80.1682 229.372 81.485 228.423L84.0753 226.545C85.3705 225.595 85.6727 223.76 84.7229 222.443Z" fill="#0B0754"/>
<path d="M0.0215023 213.766C15.8008 211.37 29.4216 213.032 41.1212 217.219C41.3802 223.997 41.8551 232.049 41.8551 232.049L48.9569 220.544C91.179 241.288 104.908 295.792 104.908 295.792C70.2838 301.642 47.0789 295.512 31.537 284.417C32.8969 279.754 34.9908 272.846 34.9908 272.846L26.7017 280.617C19.6863 274.53 14.5057 267.385 10.685 260.046C15.0237 256.031 19.8374 251.368 19.8374 251.368L7.36073 252.836C-0.777179 232.826 0.0215023 213.766 0.0215023 213.766Z" fill="#7C9AF2"/>
<path d="M31.5155 284.417C32.8754 279.754 34.9693 272.846 34.9693 272.846L26.6803 280.617C19.6648 274.53 14.4842 267.385 10.6635 260.046C15.0023 256.031 19.8159 251.368 19.8159 251.368L7.33924 252.836C-0.777083 232.826 0.0215979 213.766 0.0215979 213.766C51.6552 233.646 104.886 295.814 104.886 295.814C70.2623 301.642 47.0574 295.512 31.5155 284.417Z" fill="#4951EC"/>
<path d="M11.332 286.597C19.6858 280.056 28.0827 276.581 36.2206 275.199C38.5951 279.02 41.4876 283.532 41.4876 283.532L41.833 274.573C73.0031 272.803 98.712 299.829 98.712 299.829C80.6014 314.486 65.189 318.522 52.5828 317.184C51.8489 314.054 50.8127 309.37 50.8127 309.37L48.5462 316.58C42.5022 315.349 37.1704 312.91 32.5942 309.91C33.7814 306.175 35.055 301.901 35.055 301.901L28.3202 306.823C17.0955 297.886 11.332 286.597 11.332 286.597Z" fill="#BED1F9"/>
<path d="M52.5846 317.162C51.8507 314.033 50.8146 309.348 50.8146 309.348L48.5481 316.558C42.504 315.328 37.1723 312.888 32.5961 309.888C33.7833 306.154 35.0568 301.88 35.0568 301.88L28.322 306.801C17.0973 297.886 11.3555 286.597 11.3555 286.597C47.6846 281.243 98.7354 299.829 98.7354 299.829C80.6032 314.486 65.1908 318.501 52.5846 317.162Z" fill="#92B5F9"/>
<path d="M344.987 325.214H42.7184C41.6175 325.214 40.7109 324.307 40.7109 323.207V321.113C40.7109 320.012 41.6175 319.105 42.7184 319.105H344.987C346.087 319.105 346.994 320.012 346.994 321.113V323.207C346.994 324.307 346.109 325.214 344.987 325.214Z" fill="#4951EC"/>
<path d="M324.072 173.27L274.251 230.473C272.395 232.61 272.611 235.848 274.748 237.705L306.997 265.788C309.134 267.644 312.372 267.428 314.229 265.291L364.049 208.089C365.905 205.952 365.69 202.714 363.553 200.857L331.303 172.774C329.166 170.918 325.928 171.133 324.072 173.27Z" fill="#4951EC"/>
<path d="M348.402 187.673L291.855 252.606L302.029 261.465L358.575 196.532L348.402 187.673Z" fill="#0B0754"/>
<path d="M303.069 217.889L283.706 240.122C283.469 240.403 283.49 240.835 283.771 241.072L283.922 241.201C284.203 241.439 284.634 241.417 284.872 241.137L304.234 218.903C304.472 218.623 304.45 218.191 304.17 217.953L304.019 217.824C303.76 217.586 303.328 217.608 303.069 217.889Z" fill="#333333"/>
<path d="M296.785 219.27L280.812 237.597C280.574 237.877 280.596 238.309 280.876 238.546L281.028 238.676C281.308 238.913 281.74 238.892 281.977 238.611L297.951 220.285C298.188 220.004 298.167 219.572 297.886 219.335L297.735 219.205C297.454 218.946 297.044 218.968 296.785 219.27Z" fill="#333333"/>
<path d="M297.284 212.859L277.921 235.093C277.684 235.373 277.705 235.805 277.986 236.042L278.137 236.172C278.418 236.409 278.849 236.388 279.087 236.107L298.449 213.874C298.687 213.593 298.665 213.161 298.385 212.924L298.233 212.794C297.953 212.535 297.521 212.557 297.284 212.859Z" fill="#333333"/>
<path d="M324.115 182.034L318.028 189.028C316.948 190.28 317.078 192.158 318.308 193.237L320.769 195.374C322.021 196.454 323.899 196.324 324.978 195.094L331.065 188.1C332.145 186.848 332.015 184.97 330.785 183.891L328.324 181.754C327.094 180.653 325.194 180.782 324.115 182.034Z" fill="#0B0754"/>
<path d="M62.4683 199.756C69.6349 202.627 74.9234 206.642 78.7657 211.24C77.2115 214.133 75.4415 217.608 75.4415 217.608L81.2049 214.543C93.7464 233.517 86.1481 259.614 86.1481 259.614C70.2824 253.592 62.1014 245.368 58.3022 236.927C60.0075 235.308 62.5762 232.934 62.5762 232.934L57.2229 234.143C55.7767 229.89 55.3665 225.638 55.5608 221.645C58.3454 221.019 61.4969 220.263 61.4969 220.263L55.9278 217.824C57.4604 207.506 62.4683 199.756 62.4683 199.756Z" fill="#4951EC"/>
<path d="M58.3237 236.927C60.029 235.308 62.5977 232.934 62.5977 232.934L57.2444 234.143C55.7982 229.89 55.388 225.638 55.5823 221.645C58.3669 221.019 61.5184 220.263 61.5184 220.263L55.9493 217.824C57.4603 207.484 62.4466 199.735 62.4466 199.735C79.1326 220.652 86.148 259.593 86.148 259.593C70.2823 253.592 62.1013 245.346 58.3237 236.927Z" fill="#0B0754"/>
<path d="M104.995 23.8309C104.995 23.8309 105.298 26.8961 107.737 27.1119C105.319 27.3278 104.995 30.393 104.995 30.393C104.995 30.393 104.693 27.3278 102.254 27.1119C104.693 26.9177 104.995 23.8309 104.995 23.8309Z" fill="#DDE8FE"/>
<path d="M157.34 123.407C157.34 123.407 157.858 128.588 161.959 128.933C157.88 129.3 157.34 134.459 157.34 134.459C157.34 134.459 156.822 129.278 152.721 128.933C156.8 128.588 157.34 123.407 157.34 123.407Z" fill="#FEB546"/>
<path d="M290.029 25.4498C290.029 25.4498 290.288 28.0833 292.36 28.256C290.288 28.4287 290.029 31.0622 290.029 31.0622C290.029 31.0622 289.77 28.4287 287.697 28.256C289.748 28.0617 290.029 25.4498 290.029 25.4498Z" fill="#DDE8FE"/>
<path d="M17.2035 64.4556C17.2035 64.4556 17.7431 69.6794 21.8445 70.0464C17.7215 70.4134 17.2035 75.6372 17.2035 75.6372C17.2035 75.6372 16.6638 70.4134 12.5625 70.0464C16.6854 69.6794 17.2035 64.4556 17.2035 64.4556Z" fill="#7C9AF2"/>
<path d="M77.342 83.5808C77.342 83.5808 77.9249 89.2147 82.3716 89.6033C77.9249 89.9918 77.342 95.6258 77.342 95.6258C77.342 95.6258 76.7808 89.9918 72.3125 89.6033C76.7808 89.2147 77.342 83.5808 77.342 83.5808Z" fill="#BED1F9"/>
<path d="M205.131 24.3705C205.131 24.3705 205.692 30.0044 210.161 30.393C205.714 30.7815 205.131 36.4155 205.131 36.4155C205.131 36.4155 204.548 30.7815 200.102 30.393C204.57 30.0044 205.131 24.3705 205.131 24.3705Z" fill="#BED1F9"/>
<path d="M146.246 0C146.246 0 146.808 5.63393 151.276 6.02248C146.829 6.41103 146.246 12.045 146.246 12.045C146.246 12.045 145.685 6.41103 141.217 6.02248C145.685 5.63393 146.246 0 146.246 0Z" fill="#7C9AF2"/>
<path d="M51.3733 7.0802C51.3733 7.0802 51.9345 12.7141 56.4028 13.1027C51.9561 13.4912 51.3733 19.1467 51.3733 19.1467C51.3733 19.1467 50.812 13.5128 46.3438 13.1243C50.812 12.7141 51.3733 7.0802 51.3733 7.0802Z" fill="url(#paint3_linear_612_222)"/>
<path d="M318.264 54.9362C318.264 54.9362 318.825 60.5702 323.293 60.9587C318.847 61.3473 318.264 66.9812 318.264 66.9812C318.264 66.9812 317.703 61.3473 313.234 60.9587C317.681 60.5702 318.264 54.9362 318.264 54.9362Z" fill="url(#paint4_linear_612_222)"/>
<path d="M210.463 85.1998C210.463 85.1998 210.787 88.4161 213.334 88.6319C210.787 88.8478 210.463 92.0641 210.463 92.0641C210.463 92.0641 210.139 88.8478 207.592 88.6319C210.139 88.4161 210.463 85.1998 210.463 85.1998Z" fill="url(#paint5_linear_612_222)"/>
<path d="M304.731 319.58H91.7425C87.3605 319.58 83.7988 316.018 83.7988 311.636V160.168C83.7988 155.786 87.3605 152.224 91.7425 152.224H304.753C309.135 152.224 312.696 155.786 312.696 160.168V311.615C312.696 316.018 309.135 319.58 304.731 319.58Z" fill="#0B0754"/>
<path d="M296.398 313.04H92.2599C90.8568 313.04 89.7344 311.896 89.7344 310.514V161.377C89.7344 159.974 90.8784 158.851 92.2599 158.851H296.398V313.04Z" fill="#DDE8FE"/>
<path d="M286.663 179.293H98.0879V310.406H286.663V179.293Z" fill="white"/>
<path d="M286.684 182.876V173.163C286.684 169.838 283.986 167.14 280.662 167.14H104.11C100.786 167.14 98.0879 169.838 98.0879 173.163V182.876H286.684Z" fill="url(#paint6_linear_612_222)"/>
<path d="M275.243 178.84H200.729C198.894 178.84 197.404 177.35 197.404 175.515V174.522C197.404 172.688 198.894 171.198 200.729 171.198H275.243C277.078 171.198 278.567 172.688 278.567 174.522V175.515C278.589 177.35 277.1 178.84 275.243 178.84Z" fill="white"/>
<path d="M113.651 174.587C113.932 176.767 112.097 178.581 109.917 178.322C108.428 178.127 107.24 176.94 107.046 175.451C106.765 173.27 108.6 171.457 110.78 171.716C112.27 171.911 113.457 173.098 113.651 174.587Z" fill="white"/>
<path d="M128.155 174.587C128.436 176.767 126.601 178.581 124.421 178.322C122.931 178.127 121.744 176.94 121.55 175.451C121.269 173.27 123.104 171.457 125.284 171.716C126.774 171.911 127.961 173.098 128.155 174.587Z" fill="white"/>
<path d="M142.665 174.587C142.946 176.767 141.111 178.581 138.931 178.322C137.441 178.127 136.254 176.94 136.06 175.451C135.779 173.27 137.614 171.457 139.794 171.716C141.284 171.911 142.471 173.098 142.665 174.587Z" fill="white"/>
<path d="M224.796 254.693H159.973C158.98 254.693 158.182 253.894 158.182 252.901V204.592C158.182 203.599 158.98 202.8 159.973 202.8H224.796C225.789 202.8 226.588 203.599 226.588 204.592V252.901C226.588 253.894 225.789 254.693 224.796 254.693Z" fill="#DDE8FE"/>
<path d="M184.239 246.382C182.555 246.382 181.174 245.001 181.174 243.317C181.174 241.633 182.555 240.252 184.239 240.252C185.923 240.252 187.304 241.633 187.304 243.317C187.304 245.001 185.923 246.382 184.239 246.382ZM184.239 241.18C183.073 241.18 182.102 242.13 182.102 243.317C182.102 244.504 183.052 245.454 184.239 245.454C185.405 245.454 186.376 244.504 186.376 243.317C186.376 242.13 185.405 241.18 184.239 241.18Z" fill="url(#paint7_linear_612_222)"/>
<path d="M196.604 246.382C194.921 246.382 193.539 245.001 193.539 243.317C193.539 241.633 194.921 240.252 196.604 240.252C198.288 240.252 199.669 241.633 199.669 243.317C199.669 245.001 198.288 246.382 196.604 246.382ZM196.604 241.18C195.439 241.18 194.467 242.13 194.467 243.317C194.467 244.504 195.417 245.454 196.604 245.454C197.77 245.454 198.741 244.504 198.741 243.317C198.741 242.13 197.77 241.18 196.604 241.18Z" fill="url(#paint8_linear_612_222)"/>
<path d="M214.78 211.434C214.715 211.219 214.456 211.089 214.219 211.132L205.692 212.989C205.519 213.032 205.368 213.161 205.347 213.312L204.483 217.651C204.44 217.845 204.246 217.997 204.03 217.997H170.442C170.118 217.997 169.903 218.277 170.01 218.536L177.177 235.999C177.242 236.172 177.414 236.28 177.609 236.28H200.209C200.49 236.28 200.727 236.517 200.663 236.755L200.188 239.043C200.145 239.237 199.95 239.388 199.734 239.388H180.696C180.437 239.388 180.221 239.561 180.221 239.798C180.221 240.014 180.437 240.209 180.696 240.209H200.511C200.749 240.209 200.943 240.057 200.965 239.863L205.26 218.515L205.368 218.018L206.167 214.003C206.189 213.852 206.34 213.723 206.512 213.679L214.434 211.953C214.693 211.866 214.845 211.65 214.78 211.434ZM174.177 224.71H179.832C180.048 224.71 180.242 224.839 180.285 225.034L181.322 229.502C181.386 229.761 181.149 229.998 180.868 229.998H175.99C175.796 229.998 175.623 229.89 175.558 229.718L173.723 225.249C173.637 224.969 173.853 224.71 174.177 224.71ZM181.753 224.71H187.538C187.797 224.71 188.013 224.883 188.013 225.12V229.588C188.013 229.804 187.797 229.998 187.538 229.998H182.811C182.595 229.998 182.401 229.869 182.358 229.675L181.322 225.206C181.235 224.947 181.451 224.71 181.753 224.71ZM188.941 223.479V219.227C188.941 219.011 189.157 218.817 189.416 218.817H195.201C195.482 218.817 195.698 219.033 195.676 219.27L195.158 223.523C195.137 223.738 194.942 223.89 194.683 223.89H189.438C189.136 223.89 188.941 223.695 188.941 223.479ZM194.921 225.142L194.359 229.61C194.338 229.826 194.144 229.977 193.885 229.977H189.395C189.136 229.977 188.92 229.804 188.92 229.567V225.098C188.92 224.883 189.136 224.688 189.395 224.688H194.446C194.726 224.71 194.942 224.904 194.921 225.142ZM187.538 223.89H181.386C181.17 223.89 180.976 223.76 180.933 223.566L179.94 219.313C179.875 219.054 180.113 218.817 180.393 218.817H187.56C187.819 218.817 188.035 218.99 188.035 219.227V223.479C187.992 223.695 187.797 223.89 187.538 223.89ZM187.992 231.207V235.049C187.992 235.265 187.776 235.46 187.517 235.46H184.063C183.847 235.46 183.653 235.33 183.61 235.136L182.703 231.294C182.638 231.035 182.876 230.797 183.156 230.797H187.517C187.797 230.797 187.992 230.991 187.992 231.207ZM189.395 230.797H193.69C193.971 230.797 194.187 231.013 194.165 231.25L193.69 235.093C193.669 235.309 193.474 235.46 193.215 235.46H189.395C189.136 235.46 188.92 235.287 188.92 235.049V231.207C188.941 230.991 189.136 230.797 189.395 230.797ZM195.59 230.797H201.267C201.548 230.797 201.785 231.035 201.72 231.272L200.943 235.114C200.9 235.309 200.706 235.46 200.49 235.46H195.137C194.856 235.46 194.64 235.244 194.662 235.006L195.137 231.164C195.137 230.97 195.352 230.797 195.59 230.797ZM195.309 229.545L195.87 225.077C195.892 224.861 196.086 224.71 196.345 224.71H202.497C202.778 224.71 203.015 224.947 202.951 225.185L202.044 229.653C202.001 229.847 201.807 229.998 201.591 229.998H195.784C195.504 229.998 195.288 229.783 195.309 229.545ZM202.821 223.89H196.54C196.259 223.89 196.043 223.674 196.065 223.436L196.583 219.184C196.604 218.968 196.799 218.817 197.058 218.817H203.685C203.965 218.817 204.203 219.054 204.138 219.292L203.274 223.544C203.253 223.738 203.059 223.89 202.821 223.89ZM178.926 219.141L179.918 223.393C179.983 223.652 179.746 223.89 179.465 223.89H173.507C173.313 223.89 173.14 223.782 173.076 223.609L171.327 219.357C171.219 219.097 171.435 218.817 171.759 218.817H178.451C178.688 218.817 178.882 218.946 178.926 219.141ZM176.681 230.797H181.257C181.473 230.797 181.667 230.927 181.71 231.121L182.617 234.963C182.681 235.222 182.444 235.46 182.163 235.46H178.256C178.062 235.46 177.889 235.352 177.825 235.179L176.249 231.337C176.141 231.078 176.357 230.797 176.681 230.797Z" fill="url(#paint9_linear_612_222)"/>
<path d="M214.242 302.117H170.53C168.156 302.117 166.213 300.196 166.213 297.8V296.526C166.213 294.152 168.134 292.209 170.53 292.209H214.242C216.616 292.209 218.559 294.13 218.559 296.526V297.8C218.559 300.196 216.616 302.117 214.242 302.117Z" fill="url(#paint10_linear_612_222)"/>
<path d="M182.445 297.951C182.445 298.08 182.423 298.21 182.402 298.318C182.359 298.426 182.315 298.534 182.251 298.62C182.186 298.706 182.121 298.793 182.035 298.858C181.948 298.922 181.84 298.987 181.733 299.03C181.625 299.073 181.517 299.117 181.387 299.138C181.258 299.16 181.128 299.181 180.955 299.181H179.855C179.811 299.181 179.747 299.16 179.703 299.138C179.66 299.095 179.639 299.052 179.639 298.965V295.166C179.639 295.08 179.66 295.015 179.703 294.994C179.747 294.951 179.79 294.951 179.855 294.951H180.826C181.085 294.951 181.279 294.972 181.452 295.015C181.625 295.058 181.754 295.123 181.862 295.231C181.97 295.317 182.056 295.447 182.099 295.577C182.164 295.706 182.186 295.857 182.186 296.03C182.186 296.138 182.164 296.224 182.143 296.31C182.121 296.397 182.078 296.483 182.035 296.569C181.992 296.656 181.927 296.721 181.862 296.785C181.797 296.85 181.711 296.893 181.625 296.936C181.733 296.958 181.84 297.001 181.948 297.066C182.056 297.131 182.143 297.195 182.207 297.282C182.294 297.368 182.337 297.476 182.38 297.606C182.423 297.67 182.445 297.8 182.445 297.951ZM181.581 296.051C181.581 295.943 181.56 295.857 181.538 295.771C181.517 295.684 181.473 295.62 181.409 295.555C181.344 295.49 181.258 295.447 181.171 295.425C181.063 295.404 180.934 295.382 180.783 295.382H180.2V296.764H180.847C180.999 296.764 181.107 296.742 181.193 296.699C181.279 296.656 181.366 296.613 181.409 296.548C181.473 296.483 181.517 296.418 181.538 296.31C181.581 296.224 181.581 296.138 181.581 296.051ZM181.84 297.973C181.84 297.843 181.819 297.735 181.776 297.627C181.733 297.541 181.668 297.454 181.603 297.39C181.517 297.325 181.43 297.282 181.301 297.239C181.193 297.195 181.042 297.195 180.869 297.195H180.2V298.685H181.02C181.15 298.685 181.258 298.663 181.366 298.642C181.452 298.62 181.538 298.555 181.625 298.512C181.689 298.447 181.754 298.383 181.797 298.296C181.819 298.21 181.84 298.102 181.84 297.973Z" fill="white"/>
<path d="M186.503 297.606C186.503 297.865 186.46 298.102 186.395 298.296C186.309 298.491 186.201 298.663 186.072 298.814C185.921 298.966 185.769 299.052 185.554 299.138C185.359 299.203 185.122 299.246 184.863 299.246C184.625 299.246 184.41 299.203 184.215 299.138C184.021 299.073 183.848 298.966 183.719 298.836C183.589 298.706 183.481 298.534 183.395 298.34C183.309 298.145 183.287 297.908 183.287 297.649V295.015C183.287 294.994 183.287 294.972 183.309 294.972C183.309 294.951 183.33 294.951 183.352 294.951C183.373 294.951 183.395 294.929 183.438 294.929C183.481 294.929 183.525 294.929 183.568 294.929C183.611 294.929 183.676 294.929 183.697 294.929C183.74 294.929 183.762 294.951 183.784 294.951C183.805 294.951 183.827 294.972 183.827 294.972C183.827 294.994 183.848 294.994 183.848 295.015V297.584C183.848 297.778 183.87 297.951 183.913 298.102C183.956 298.253 184.021 298.361 184.129 298.469C184.215 298.577 184.323 298.642 184.453 298.685C184.582 298.728 184.733 298.75 184.884 298.75C185.057 298.75 185.187 298.728 185.316 298.685C185.446 298.642 185.554 298.555 185.64 298.469C185.726 298.383 185.791 298.253 185.834 298.102C185.877 297.951 185.899 297.8 185.899 297.606V295.015C185.899 294.994 185.899 294.972 185.921 294.972C185.921 294.951 185.942 294.951 185.964 294.951C185.985 294.951 186.007 294.929 186.05 294.929C186.093 294.929 186.136 294.929 186.18 294.929C186.223 294.929 186.266 294.929 186.309 294.929C186.352 294.929 186.374 294.951 186.395 294.951C186.417 294.951 186.439 294.972 186.439 294.972C186.439 294.994 186.46 294.994 186.46 295.015V297.606H186.503Z" fill="white"/>
<path d="M189.978 298.944C189.978 298.987 189.978 299.009 189.978 299.052C189.978 299.073 189.956 299.117 189.956 299.117C189.935 299.138 189.935 299.16 189.913 299.16C189.892 299.16 189.892 299.181 189.87 299.181H187.819C187.776 299.181 187.711 299.16 187.668 299.138C187.625 299.095 187.604 299.052 187.604 298.965V295.166C187.604 295.08 187.625 295.015 187.668 294.994C187.711 294.951 187.755 294.951 187.819 294.951H189.848C189.87 294.951 189.892 294.951 189.892 294.972C189.913 294.972 189.913 294.994 189.935 295.015C189.935 295.037 189.956 295.058 189.956 295.08C189.956 295.102 189.956 295.145 189.956 295.188C189.956 295.231 189.956 295.253 189.956 295.296C189.956 295.317 189.935 295.339 189.935 295.361C189.935 295.382 189.913 295.404 189.892 295.404C189.87 295.404 189.87 295.425 189.848 295.425H188.186V296.764H189.611C189.633 296.764 189.654 296.764 189.654 296.785C189.676 296.785 189.676 296.807 189.697 296.828C189.719 296.85 189.719 296.872 189.719 296.893C189.719 296.915 189.719 296.958 189.719 297.001C189.719 297.044 189.719 297.066 189.719 297.109C189.719 297.131 189.697 297.152 189.697 297.174C189.697 297.195 189.676 297.195 189.654 297.217C189.633 297.217 189.633 297.239 189.611 297.239H188.186V298.771H189.87C189.892 298.771 189.913 298.771 189.913 298.793C189.935 298.793 189.935 298.814 189.956 298.836C189.978 298.858 189.978 298.879 189.978 298.901C189.978 298.858 189.978 298.879 189.978 298.944Z" fill="white"/>
<path d="M195.634 298.944C195.634 298.987 195.634 299.03 195.613 299.052C195.591 299.073 195.57 299.117 195.548 299.117C195.527 299.138 195.505 299.16 195.462 299.16C195.44 299.16 195.397 299.181 195.375 299.181H195.181C195.116 299.181 195.073 299.181 195.03 299.16C194.987 299.138 194.944 299.117 194.901 299.095C194.857 299.073 194.814 299.03 194.771 298.965C194.728 298.901 194.685 298.836 194.642 298.75L193.346 296.332C193.282 296.203 193.217 296.073 193.131 295.943C193.066 295.814 193.001 295.663 192.936 295.533C192.936 295.684 192.936 295.857 192.936 296.008C192.936 296.181 192.936 296.332 192.936 296.505V299.073C192.936 299.095 192.936 299.095 192.915 299.117C192.915 299.138 192.893 299.138 192.871 299.16C192.85 299.16 192.828 299.181 192.785 299.181C192.742 299.181 192.699 299.181 192.656 299.181C192.591 299.181 192.548 299.181 192.526 299.181C192.483 299.181 192.461 299.16 192.44 299.16C192.418 299.16 192.397 299.138 192.397 299.117C192.397 299.095 192.375 299.095 192.375 299.073V295.145C192.375 295.058 192.397 294.994 192.44 294.951C192.483 294.907 192.548 294.886 192.612 294.886H192.893C192.958 294.886 193.023 294.886 193.066 294.907C193.109 294.929 193.152 294.929 193.195 294.972C193.238 295.015 193.26 295.037 193.303 295.08C193.346 295.123 193.368 295.188 193.411 295.253L194.404 297.131C194.469 297.239 194.534 297.347 194.577 297.454C194.642 297.562 194.685 297.67 194.749 297.778C194.793 297.886 194.857 297.994 194.901 298.08C194.944 298.188 195.008 298.275 195.052 298.383C195.052 298.21 195.052 298.037 195.052 297.843C195.052 297.649 195.052 297.476 195.052 297.303V294.994C195.052 294.972 195.052 294.972 195.073 294.951C195.073 294.929 195.095 294.929 195.116 294.907C195.138 294.907 195.16 294.886 195.203 294.886C195.246 294.886 195.289 294.886 195.354 294.886C195.397 294.886 195.44 294.886 195.483 294.886C195.527 294.886 195.548 294.907 195.57 294.907C195.591 294.907 195.613 294.929 195.613 294.951C195.613 294.972 195.634 294.972 195.634 294.994V298.944Z" fill="white"/>
<path d="M200.34 296.98C200.34 297.325 200.297 297.627 200.211 297.908C200.124 298.188 200.016 298.426 199.844 298.62C199.693 298.814 199.477 298.965 199.239 299.073C199.002 299.181 198.721 299.225 198.397 299.225C198.074 299.225 197.793 299.181 197.577 299.073C197.34 298.987 197.145 298.836 196.994 298.663C196.843 298.491 196.735 298.253 196.649 297.994C196.584 297.735 196.541 297.411 196.541 297.066C196.541 296.721 196.584 296.418 196.671 296.159C196.757 295.879 196.865 295.663 197.037 295.469C197.21 295.274 197.404 295.123 197.642 295.015C197.879 294.907 198.16 294.864 198.484 294.864C198.808 294.864 199.067 294.907 199.304 295.015C199.541 295.102 199.736 295.253 199.887 295.425C200.038 295.598 200.146 295.836 200.232 296.095C200.297 296.332 200.34 296.656 200.34 296.98ZM199.736 297.023C199.736 296.785 199.714 296.548 199.671 296.354C199.628 296.138 199.563 295.965 199.455 295.814C199.347 295.663 199.218 295.533 199.067 295.447C198.894 295.361 198.7 295.317 198.441 295.317C198.203 295.317 197.987 295.361 197.815 295.447C197.642 295.533 197.512 295.663 197.404 295.814C197.297 295.965 197.232 296.138 197.189 296.354C197.145 296.569 197.124 296.764 197.124 297.001C197.124 297.26 197.145 297.476 197.189 297.692C197.232 297.908 197.297 298.08 197.404 298.232C197.512 298.383 197.642 298.512 197.793 298.577C197.966 298.663 198.16 298.706 198.419 298.706C198.656 298.706 198.872 298.663 199.045 298.577C199.218 298.491 199.347 298.361 199.455 298.21C199.563 298.059 199.628 297.865 199.671 297.67C199.714 297.476 199.736 297.26 199.736 297.023Z" fill="white"/>
<path d="M205.239 299.052C205.239 299.073 205.218 299.117 205.196 299.117C205.175 299.138 205.153 299.16 205.132 299.16C205.11 299.16 205.067 299.181 205.024 299.181C204.98 299.181 204.916 299.181 204.851 299.181C204.786 299.181 204.721 299.181 204.678 299.181C204.635 299.181 204.592 299.16 204.57 299.16C204.549 299.16 204.527 299.138 204.506 299.117C204.484 299.095 204.484 299.073 204.462 299.052L203.577 295.836L202.757 299.052C202.757 299.073 202.735 299.117 202.714 299.117C202.692 299.138 202.671 299.16 202.649 299.16C202.628 299.16 202.584 299.181 202.541 299.181C202.498 299.181 202.433 299.181 202.369 299.181C202.304 299.181 202.239 299.181 202.196 299.181C202.153 299.181 202.11 299.16 202.088 299.16C202.066 299.16 202.023 299.138 202.023 299.117C202.002 299.095 202.002 299.073 201.98 299.052L200.858 295.123C200.836 295.08 200.836 295.037 200.836 295.015C200.836 294.994 200.836 294.972 200.858 294.951C200.879 294.929 200.901 294.929 200.944 294.929C200.987 294.929 201.052 294.929 201.117 294.929C201.181 294.929 201.246 294.929 201.268 294.929C201.311 294.929 201.332 294.929 201.354 294.951C201.376 294.951 201.397 294.972 201.397 294.994C201.397 295.015 201.419 295.037 201.419 295.058L202.369 298.62L203.275 295.058C203.275 295.037 203.297 295.015 203.297 294.994C203.297 294.972 203.318 294.972 203.34 294.951C203.361 294.951 203.383 294.929 203.426 294.929C203.469 294.929 203.513 294.929 203.577 294.929C203.642 294.929 203.685 294.929 203.728 294.929C203.772 294.929 203.793 294.951 203.815 294.951C203.836 294.951 203.858 294.972 203.858 294.994C203.858 295.015 203.88 295.037 203.88 295.058L204.851 298.62L205.779 295.058C205.779 295.037 205.801 295.015 205.801 294.994C205.801 294.972 205.822 294.972 205.844 294.951C205.865 294.951 205.887 294.929 205.93 294.929C205.973 294.929 206.017 294.929 206.081 294.929C206.146 294.929 206.189 294.929 206.232 294.929C206.276 294.929 206.297 294.951 206.319 294.951C206.34 294.972 206.34 294.994 206.34 295.015C206.34 295.037 206.34 295.08 206.319 295.123L205.239 299.052Z" fill="white"/>
<path d="M226.743 278.459H158.035V280.617H226.743V278.459Z" fill="#DDE8FE"/>
<path d="M226.743 283.467H158.035V285.625H226.743V283.467Z" fill="#DDE8FE"/>
<path d="M226.743 273.451H158.035V275.61H226.743V273.451Z" fill="#DDE8FE"/>
<path d="M226.743 268.443H158.035V270.602H226.743V268.443Z" fill="#DDE8FE"/>
<path d="M226.743 263.435H158.035V265.594H226.743V263.435Z" fill="#DDE8FE"/>
<path opacity="0.3" d="M310.581 235.438C310.861 239.021 307.904 241.979 304.321 241.698C301.515 241.482 299.227 239.194 299.011 236.388C298.73 232.805 301.687 229.847 305.271 230.128C308.098 230.344 310.365 232.61 310.581 235.438Z" fill="#4951EC"/>
<path d="M306.545 238.331H303.091C302.703 238.331 302.4 238.028 302.4 237.64V234.186C302.4 233.797 302.703 233.495 303.091 233.495H306.545C306.933 233.495 307.236 233.797 307.236 234.186V237.64C307.214 238.007 306.912 238.331 306.545 238.331ZM303.07 233.668C302.789 233.668 302.573 233.884 302.573 234.164V237.618C302.573 237.899 302.789 238.115 303.07 238.115H306.523C306.804 238.115 307.02 237.899 307.02 237.618V234.164C307.02 233.884 306.804 233.668 306.523 233.668H303.07Z" fill="#DAEEF7"/>
<path opacity="0.5" d="M95.9922 111.427C97.0715 106.743 101.259 103.246 106.289 103.246C107.217 103.246 108.102 103.354 108.965 103.591C111.448 98.3024 116.823 94.6328 123.039 94.6328C124.658 94.6328 126.213 94.8703 127.659 95.3236C131.005 89.776 137.113 86.0632 144.064 86.0632C152.353 86.0632 159.412 91.3302 162.088 98.691C163.988 97.6333 166.168 97.0289 168.478 97.0289C175.731 97.0289 181.624 102.922 181.624 110.175C181.624 110.606 181.602 111.038 181.559 111.448H95.9922V111.427Z" fill="#DDE8FE"/>
<path opacity="0.5" d="M42.5234 74.4068C43.1494 71.687 45.5671 69.6795 48.4596 69.6795C48.9992 69.6795 49.5173 69.7442 49.9922 69.8738C51.4169 66.8086 54.5252 64.6931 58.1301 64.6931C59.0583 64.6931 59.9649 64.8442 60.8067 65.1033C62.7495 61.887 66.268 59.7499 70.283 59.7499C75.0751 59.7499 79.1548 62.7936 80.6874 67.046C81.7883 66.4416 83.0403 66.0962 84.3786 66.0962C88.5663 66.0962 91.9769 69.5068 91.9769 73.6945C91.9769 73.9535 91.9553 74.1909 91.9337 74.4284H42.5234V74.4068Z" fill="#DDE8FE"/>
<path opacity="0.5" d="M160.707 44.4023C160.988 43.1719 162.089 42.2653 163.384 42.2653C163.621 42.2653 163.859 42.2869 164.074 42.3516C164.722 40.9701 166.125 40.0204 167.744 40.0204C168.154 40.0204 168.564 40.0851 168.953 40.193C169.838 38.7468 171.414 37.7754 173.227 37.7754C175.385 37.7754 177.22 39.1569 177.933 41.0565C178.429 40.7759 178.99 40.6248 179.595 40.6248C181.494 40.6248 183.027 42.1574 183.027 44.0569C183.027 44.1649 183.027 44.2728 183.005 44.3807H160.707V44.4023Z" fill="#DDE8FE"/>
<path opacity="0.5" d="M228.034 62.2539C227.408 59.534 224.99 57.5266 222.097 57.5266C221.558 57.5266 221.04 57.5913 220.565 57.7208C219.14 54.6556 216.032 52.5402 212.427 52.5402C211.499 52.5402 210.592 52.6913 209.75 52.9503C207.807 49.734 204.289 47.597 200.274 47.597C195.482 47.597 191.402 50.6406 189.87 54.8931C188.769 54.2887 187.517 53.9433 186.178 53.9433C181.991 53.9433 178.58 57.3539 178.58 61.5415C178.58 61.8006 178.602 62.038 178.623 62.2755H228.034V62.2539Z" fill="#DDE8FE"/>
<path d="M275.027 234.294C276.15 238.309 279.668 242.194 284.676 244.979C289.361 247.569 294.865 248.972 300.305 248.972C300.779 248.972 301.254 248.972 301.729 248.951L303.391 248.886L304.147 248.929C304.622 248.951 305.097 248.972 305.572 248.972C311.033 248.972 316.537 247.591 321.221 245.001C326.229 242.238 329.769 238.331 330.892 234.337C332.317 229.264 329.942 224.559 324.351 221.472C321.286 219.788 318.135 219.594 315.221 220.932C311.162 222.81 307.644 227.645 304.773 235.308C304.039 237.273 303.435 239.172 302.96 240.791C302.485 239.172 301.902 237.294 301.168 235.352C298.297 227.689 294.779 222.853 290.742 220.975C287.85 219.616 284.676 219.81 281.611 221.493C275.999 224.516 273.603 229.2 275.027 234.294ZM307.644 243.576C308.119 241.806 308.809 239.475 309.716 237.057C312.026 230.948 314.767 226.912 317.444 225.681C317.876 225.487 318.458 225.271 319.192 225.271C319.905 225.271 320.768 225.465 321.804 226.048C325.215 227.926 326.575 230.214 325.819 232.848C324.438 237.769 316.688 242.907 307.644 243.576ZM284.137 226.07C285.173 225.508 286.036 225.314 286.749 225.314C287.483 225.314 288.044 225.508 288.497 225.724C291.152 226.955 293.894 231.013 296.203 237.122C297.11 239.539 297.801 241.871 298.276 243.641C289.231 242.95 281.482 237.791 280.1 232.891C279.366 230.214 280.726 227.926 284.137 226.07Z" fill="url(#paint11_linear_612_222)"/>
<path d="M267.73 320.271L335.489 320.336C339.137 320.336 342.094 317.378 342.094 313.73L342.137 253.959C342.137 250.311 339.18 247.353 335.532 247.353L267.773 247.289C264.125 247.289 261.168 250.246 261.168 253.894L261.125 313.666C261.125 317.292 264.082 320.249 267.73 320.271Z" fill="#BED1F9"/>
<path d="M261.148 283.769L342.117 283.834L342.139 255.837C342.139 251.153 338.34 247.332 333.656 247.332L269.653 247.267C264.969 247.267 261.148 251.066 261.148 255.75V283.769Z" fill="#92B5F9"/>
<path d="M259.745 274.53L343.542 274.595C345.959 274.595 347.902 272.652 347.902 270.235L347.924 251.692C347.924 249.275 345.981 247.332 343.563 247.332L259.767 247.267C257.349 247.267 255.406 249.21 255.406 251.627L255.385 270.17C255.385 272.587 257.349 274.53 259.745 274.53Z" fill="#BED1F9"/>
<path d="M291.901 320.274L310.357 320.291L310.422 247.308L291.966 247.292L291.901 320.274Z" fill="url(#paint12_linear_612_222)"/>
<path d="M291.915 283.788L310.371 283.804L310.379 274.587L291.923 274.57L291.915 283.788Z" fill="#92B5F9"/>
<path d="M181.234 177.544L179.809 180.739C179.701 180.998 179.809 181.322 180.068 181.43L187.537 184.776C188.077 185.013 188.595 184.409 188.271 183.912L185.378 179.401C185.378 179.401 183.09 179.811 181.234 177.544Z" fill="url(#paint13_linear_612_222)"/>
<path d="M171.736 177.544L170.311 180.739C170.203 180.998 170.311 181.322 170.57 181.43L178.039 184.776C178.578 185.013 179.097 184.409 178.773 183.912L175.88 179.401C175.88 179.401 173.592 179.811 171.736 177.544Z" fill="url(#paint14_linear_612_222)"/>
<path d="M155.59 89.5169L154.791 94.5033L153.107 87.8548C153.107 87.8548 155.46 86.7107 155.568 87.1209C155.676 87.531 155.59 89.5169 155.59 89.5169Z" fill="url(#paint15_linear_612_222)"/>
<path d="M142.228 100.245L141.494 108.858L149.114 108.491L148.229 100.871L142.228 100.245Z" fill="#AAAAAA"/>
<path d="M148.639 104.498L148.229 100.871L142.228 100.245L141.969 103.224C143.178 104.411 145.315 105.642 148.639 104.498Z" fill="#AAAAAA"/>
<path d="M153.3 94.4385C152.847 95.3883 153.084 96.446 153.84 96.813C154.595 97.1799 155.588 96.705 156.041 95.7553C156.495 94.8055 156.257 93.7478 155.502 93.3808C154.746 93.0138 153.775 93.4887 153.3 94.4385Z" fill="#AAAAAA"/>
<path d="M154.403 95.1293C154.446 94.8918 154.489 94.6328 154.554 94.3954C154.791 93.424 154.856 92.3663 154.683 91.2654C154.165 87.7469 151.316 84.9191 147.776 84.4442C143.027 83.7967 138.818 87.3152 138.537 91.9777C138.041 91.6539 137.479 91.5676 136.961 91.7619C135.968 92.1288 135.537 93.424 136.012 94.676C136.465 95.9064 137.652 96.6187 138.645 96.2518C138.775 96.2086 138.904 96.1222 139.034 96.0359C139.185 100.029 142.25 103.31 146.157 103.483C148.078 103.569 149.848 102.9 151.23 101.735C153.086 100.353 154.036 97.4174 154.403 95.1293Z" fill="#AAAAAA"/>
<path d="M148.488 92.5174C148.509 92.9923 148.509 93.4456 148.531 93.8773C148.552 94.309 148.617 94.7839 148.79 95.0861C148.963 95.3236 149.114 95.4962 149.114 95.7984C149.114 96.1006 148.963 96.3813 148.768 96.5539C148.358 96.8993 147.819 96.9425 147.365 96.8346C147.819 96.7482 148.25 96.5971 148.509 96.2949C148.617 96.1438 148.704 95.9927 148.682 95.82C148.66 95.6473 148.617 95.6042 148.401 95.3236C148.25 95.0645 148.207 94.8271 148.185 94.5896C148.164 94.3522 148.164 94.1147 148.185 93.8773C148.207 93.424 148.315 92.9491 148.488 92.5174Z" fill="#0160E7"/>
<path d="M145.79 92.9923C145.855 93.4887 145.402 93.8989 144.927 93.7909C144.646 93.7262 144.43 93.4887 144.387 93.2081C144.322 92.7116 144.776 92.3015 145.25 92.4094C145.531 92.4742 145.747 92.7116 145.79 92.9923Z" fill="#0B0754"/>
<path d="M151.857 93.683C151.921 94.1795 151.468 94.5896 150.993 94.4817C150.712 94.4169 150.497 94.1795 150.453 93.8989C150.389 93.4024 150.842 92.9923 151.317 93.1002C151.598 93.1649 151.813 93.4024 151.857 93.683Z" fill="#0B0754"/>
<path d="M144.604 97.9355C144.798 98.1081 144.992 98.2377 145.186 98.3888C145.381 98.5183 145.596 98.6478 145.812 98.7557C146.244 98.9716 146.719 99.1227 147.194 99.1874C147.669 99.2522 148.165 99.209 148.618 99.0795C149.093 98.95 149.525 98.7341 149.957 98.4751C149.504 98.8637 149.115 99.0579 148.662 99.209C148.187 99.3601 147.712 99.4249 147.172 99.3601C146.676 99.2954 146.179 99.1227 145.748 98.8852C145.316 98.6262 144.927 98.324 144.604 97.9355Z" fill="#0160E7"/>
<path d="M146.675 91.546C146.308 91.4381 145.984 91.3517 145.639 91.287C145.293 91.2438 144.969 91.2222 144.646 91.2654C144.322 91.3085 143.998 91.3733 143.696 91.5244C143.458 91.5892 142.897 91.9345 142.746 91.9993C142.919 91.6755 143.178 91.3301 143.48 91.1359C143.782 90.8984 144.192 90.7689 144.581 90.7041C144.969 90.661 145.38 90.7041 145.747 90.8552C146.114 91.0063 146.459 91.2222 146.675 91.546Z" fill="#0B0754"/>
<path d="M149.805 91.8914C150.085 91.6324 150.452 91.4813 150.841 91.4165C151.229 91.3517 151.639 91.3733 152.006 91.4812C152.395 91.6108 152.74 91.8266 152.999 92.1072C153.28 92.3663 153.453 92.7548 153.561 93.1002C153.431 93.0139 152.935 92.5605 152.719 92.4526C152.438 92.2583 152.136 92.1288 151.834 92.0209C151.532 91.913 151.208 91.8698 150.862 91.8482C150.539 91.8266 150.193 91.8482 149.805 91.8914Z" fill="#0B0754"/>
<path d="M146.416 140.676C146.416 140.676 144.84 151.425 155.223 153.303C165.627 155.181 178.557 154.62 178.557 154.62L180.349 179.336L185.767 179.617C185.767 179.617 199.733 145.273 180.392 139.899L163.015 139.985L155.849 139.467C155.849 139.467 148.596 137.675 148.509 138.021C148.466 138.366 146.588 140.848 146.416 140.676Z" fill="#4951EC"/>
<path d="M136.853 140.74C136.853 140.74 135.277 151.49 145.66 153.368C156.065 155.246 168.995 154.685 168.995 154.685L170.786 179.401L176.204 179.681C176.204 179.681 190.17 145.338 170.829 139.963L153.453 140.05L146.286 139.532C146.286 139.532 139.033 137.74 138.947 138.085C138.904 138.431 137.026 140.913 136.853 140.74Z" fill="#7C9AF2"/>
<path d="M149.956 105.426C149.956 105.426 157.122 106.332 158.936 107.822C160.749 109.29 169.513 131.005 169.513 131.005L162.238 139.532L146.783 139.64C146.783 139.64 135.191 145.878 127.917 139.985C120.642 134.07 124.398 113.521 128.607 109.074C132.817 104.649 140.307 104.757 140.307 104.757C140.307 104.757 147.107 109.506 149.956 105.426Z" fill="url(#paint16_linear_612_222)"/>
<path d="M136.097 116.219C136.356 117.406 136.507 118.593 136.615 119.802C136.68 120.406 136.701 121.011 136.745 121.615C136.766 122.22 136.766 122.824 136.766 123.428C136.745 124.637 136.68 125.846 136.464 127.055C136.27 128.242 135.967 129.451 135.406 130.53C135.773 129.386 135.967 128.199 136.097 127.012C136.227 125.825 136.27 124.616 136.291 123.428C136.313 122.241 136.291 121.032 136.248 119.824C136.205 118.636 136.162 117.428 136.097 116.219Z" fill="white"/>
<path d="M157.512 115.42C157.836 117.19 158.181 118.939 158.548 120.687C158.915 122.436 159.282 124.184 159.692 125.911C160.102 127.638 160.577 129.365 161.138 131.048C161.419 131.89 161.743 132.732 162.11 133.531C162.476 134.351 162.908 135.128 163.491 135.819C162.843 135.214 162.347 134.437 161.915 133.639C161.484 132.84 161.117 132.02 160.814 131.178C160.491 130.336 160.21 129.473 159.951 128.631C159.692 127.767 159.476 126.904 159.26 126.04C159.044 125.177 158.85 124.292 158.677 123.407C158.505 122.522 158.332 121.637 158.202 120.752C157.879 118.982 157.663 117.212 157.512 115.42Z" fill="white"/>
<path d="M161.116 134.61C161.073 134.243 158.332 133.854 157.339 133.79C156.583 133.747 151.532 133.574 149.827 133.509L149.957 133.941L149.935 135.884L149.654 137.179C151.165 137.265 154.835 137.416 155.612 137.567C156.627 137.762 158.418 138.539 158.418 138.539C158.418 138.539 159.152 138.366 158.224 137.956C157.468 137.632 156.95 137.136 156.713 136.876C156.583 136.725 156.734 136.466 156.821 136.51C159.368 137.179 159.627 137.287 159.627 137.287C159.627 137.287 162.627 137.265 159.649 136.596C157.857 136.186 157.209 135.948 157.058 135.754C156.994 135.668 157.101 135.387 157.231 135.365C158.785 135.279 161.57 135.819 160.793 135.452C160.167 135.15 158.224 134.826 157.447 134.718C157.404 134.718 157.317 134.437 157.533 134.416C158.979 134.308 161.16 134.934 161.116 134.61Z" fill="#AAAAAA"/>
<path d="M134.35 130.228C134.976 130.379 135.602 130.552 136.228 130.681C136.854 130.832 137.48 130.94 138.127 131.07C139.401 131.307 140.674 131.502 141.948 131.674C143.221 131.847 144.495 131.998 145.79 132.128C147.064 132.257 148.359 132.365 149.632 132.43H149.805L149.848 132.581C149.956 133.013 150.021 133.423 150.086 133.854C150.129 134.286 150.172 134.718 150.151 135.15C150.151 135.581 150.107 136.013 150.043 136.445C149.956 136.876 149.848 137.287 149.676 137.697L149.654 137.74L149.632 137.762L148.229 138.711C147.754 139.035 147.301 139.337 146.826 139.64C147.258 139.294 147.711 138.949 148.165 138.603L149.503 137.567L149.46 137.61C149.611 137.222 149.697 136.833 149.762 136.423C149.805 136.013 149.827 135.603 149.827 135.193C149.805 134.783 149.762 134.373 149.719 133.962C149.654 133.552 149.568 133.142 149.46 132.754L149.676 132.905C149.006 132.883 148.38 132.84 147.733 132.797C147.085 132.754 146.438 132.689 145.79 132.624C144.495 132.495 143.221 132.322 141.948 132.128C140.674 131.912 139.401 131.674 138.149 131.372C137.523 131.221 136.897 131.048 136.271 130.854C135.558 130.681 134.954 130.444 134.35 130.228Z" fill="white"/>
<path d="M193.429 120.147H165.475L157.553 139.488H144.083C143.716 139.488 143.393 139.791 143.393 140.179C143.393 140.546 143.695 140.87 144.083 140.87H184.125L193.429 120.147Z" fill="#0B0754"/>
<path d="M179.571 131.178C179.398 131.998 178.686 132.559 177.973 132.408C177.261 132.257 176.808 131.48 176.959 130.66C177.131 129.839 177.844 129.278 178.556 129.429C179.29 129.559 179.743 130.358 179.571 131.178Z" fill="#DDE8FE"/>
<path d="M155.742 84.7896C155.742 84.7896 158.138 84.8759 155.634 82.8469C153.13 80.8394 146.417 78.4649 142.099 80.7314C142.099 80.7314 141.236 78.8966 139.984 79.3283C138.732 79.7601 140.804 81.0336 140.804 81.0336C140.804 81.0336 139.207 80.9905 138.732 81.7676C138.365 82.3504 139.358 82.372 139.876 82.3504C138.969 82.5015 135.494 84.7032 137.243 91.6971C137.869 91.5676 141.387 86.4517 141.387 86.4517C141.387 86.4517 149.46 90.9416 148.662 87.3799C148.662 87.3799 157.015 92.6037 155.828 88.2865C155.828 88.2649 159.066 88.5024 155.742 84.7896Z" fill="url(#paint17_linear_612_222)"/>
<path d="M137.221 91.7403C137.221 91.7403 137.89 91.5028 138.602 92.0856C139.315 92.6469 139.25 94.6544 139.25 94.6544C139.25 94.6544 142.682 96.8561 142.315 87.5094C141.926 77.5583 139.444 88.3081 139.444 88.3081L137.221 91.7403Z" fill="url(#paint18_linear_612_222)"/>
<path d="M151.146 319.688L145.814 303.196L152.571 301.664L152.247 303.779L154.578 318.242L152.204 320.422L151.146 319.688Z" fill="#AAAAAA"/>
<path d="M132.734 300.865L134.893 319.04L137.462 320.422L138.692 318.199L140.246 300.282L132.734 300.865Z" fill="#AAAAAA"/>
<path d="M132.088 304.254C134.031 304.815 136.858 305.225 140.55 304.643L141.111 299.548L143.636 298.447L145.536 304.513C147.069 304.707 149.939 304.751 153.803 303.261L152.055 293.245H131.915C131.894 294.929 131.915 296.569 131.937 298.124C132.002 300.196 132.045 302.268 132.088 304.254Z" fill="#BED1F9"/>
<path d="M134.201 313.147L134.892 319.019L137.482 320.4L138.713 318.177L139.123 313.299C136.964 313.428 135.151 313.277 134.201 313.147Z" fill="#BED1F9"/>
<path d="M138.695 318.199V321.285C138.695 321.544 138.479 321.739 138.242 321.739H131.032C130.514 321.739 130.32 321.048 130.751 320.767L134.809 318.199C134.788 318.199 136.364 319.364 138.695 318.199Z" fill="url(#paint19_linear_612_222)"/>
<path d="M153.631 312.414C151.127 313.666 149.033 313.169 149.033 313.169L151.149 319.71L152.206 320.444L154.581 318.263L153.631 312.414Z" fill="#BED1F9"/>
<path d="M150.65 318.199V321.285C150.65 321.544 150.866 321.739 151.104 321.739H158.313C158.831 321.739 159.026 321.048 158.594 320.767L154.536 318.199C154.557 318.199 152.982 319.364 150.65 318.199Z" fill="url(#paint20_linear_612_222)"/>
<path d="M144.067 268.465H139.793V272.739H144.067V268.465Z" fill="#AAAAAA"/>
<path d="M144.067 271.033V268.465H139.793V270.645C140.7 271.141 142.081 271.422 144.067 271.033Z" fill="#AAAAAA"/>
<path d="M150.285 261.384C149.875 261.169 149.378 261.212 148.925 261.428C149.076 257.456 145.838 254.131 141.759 254.261C137.679 254.11 134.441 257.456 134.592 261.428C134.16 261.212 133.664 261.169 133.232 261.384C132.433 261.773 132.174 262.917 132.671 263.931C133.167 264.946 134.225 265.421 135.024 265.032C135.132 264.968 135.24 264.903 135.326 264.817C135.779 268.098 138.521 270.558 141.737 270.515C144.953 270.558 147.695 268.098 148.148 264.817C148.234 264.903 148.342 264.968 148.45 265.032C149.249 265.421 150.307 264.946 150.803 263.931C151.343 262.917 151.084 261.794 150.285 261.384Z" fill="#AAAAAA"/>
<path d="M137.01 271.702C137.01 271.702 142.061 276.343 146.659 271.767L137.01 271.702Z" fill="#AAAAAA"/>
<path d="M167.749 261.924C167.727 261.773 169.325 260.37 169.152 260.327C168.979 260.283 167.339 261.384 167.274 261.276C167.231 261.169 168.785 259.83 168.591 259.636C168.396 259.442 166.734 260.953 166.648 260.737C166.562 260.521 168.31 259.01 168.094 258.859C167.922 258.729 165.936 260.37 165.31 260.888C165.223 260.953 165.094 260.909 165.094 260.802C164.9 259.183 164.792 259.075 164.619 259.139C164.511 259.183 163.993 261.017 163.648 262.356C157.603 268.745 147.264 273.192 147.264 273.192C147.264 273.192 143.551 282.258 148.775 280.337C153.373 278.653 162.806 267.903 165.072 265.291L165.979 264.428C166.281 264.234 166.54 264.083 166.54 264.083C169.368 261.816 169.303 261.751 169.238 261.622C169.195 261.471 167.77 262.075 167.749 261.924Z" fill="#AAAAAA"/>
<path d="M115.271 261.924C115.292 261.773 113.695 260.37 113.867 260.327C114.04 260.283 115.681 261.384 115.745 261.276C115.789 261.169 114.234 259.83 114.429 259.636C114.623 259.442 116.285 260.953 116.371 260.737C116.458 260.521 114.709 259.01 114.925 258.859C115.098 258.729 117.084 260.37 117.71 260.888C117.796 260.953 117.926 260.909 117.926 260.802C118.12 259.183 118.228 259.075 118.4 259.139C118.508 259.183 119.026 261.017 119.372 262.356C125.416 268.745 135.756 273.192 135.756 273.192C135.756 273.192 139.468 282.258 134.245 280.337C129.647 278.653 120.214 267.903 117.947 265.291L117.041 264.428C116.738 264.234 116.479 264.083 116.479 264.083C113.652 261.816 113.716 261.751 113.781 261.622C113.824 261.471 115.249 262.075 115.271 261.924Z" fill="#AAAAAA"/>
<path d="M154.967 268.68L149.592 270.904C148.513 271.357 147.369 271.638 146.203 271.767C142.037 275.912 137.461 271.724 137.461 271.724C136.188 271.638 134.914 271.335 133.727 270.839L128.568 268.702C128.568 268.702 128.158 272.458 126.215 275.545L132.41 279.387L131.892 293.418C131.892 293.418 148.384 294.519 152.032 293.267L151.233 279.322L157.32 275.545C154.946 272.782 154.967 268.68 154.967 268.68Z" fill="url(#paint21_linear_612_222)"/>
<path d="M135.238 278.934C135.238 278.934 143.204 279.258 148.125 278.934C148.125 278.934 148.492 287.87 149.485 291.475C149.722 292.339 150.435 292.986 151.32 293.116L152.054 293.245C152.054 293.245 150.025 295.015 149.96 295.015C149.895 295.015 144.11 294.951 144.024 294.907C143.937 294.864 131.914 293.245 131.914 293.245C131.914 293.245 133.144 293.31 133.986 292.295C134.828 291.302 135.238 278.934 135.238 278.934Z" fill="#BED1F9"/>
<path d="M137.137 281.006H136.037C135.864 281.006 135.734 280.876 135.734 280.704V271.443C135.734 271.271 135.864 271.141 136.037 271.141H137.137C137.31 271.141 137.44 271.271 137.44 271.443V280.704C137.44 280.876 137.289 281.006 137.137 281.006Z" fill="#92B5F9"/>
<path d="M147.391 281.006H146.29C146.118 281.006 145.988 280.876 145.988 280.704V271.443C145.988 271.271 146.118 271.141 146.29 271.141H147.391C147.564 271.141 147.694 271.271 147.694 271.443V280.704C147.694 280.876 147.564 281.006 147.391 281.006Z" fill="#92B5F9"/>
<path d="M133.923 278.157C133.88 278.243 133.858 278.329 133.815 278.416C133.729 278.588 133.643 278.739 133.513 278.869C133.383 278.999 133.254 279.128 133.103 279.214C132.952 279.301 132.779 279.365 132.606 279.365L132.412 279.387L132.563 279.495C132.65 279.56 132.736 279.581 132.844 279.625C132.93 279.646 133.038 279.668 133.146 279.668C133.34 279.668 133.535 279.646 133.707 279.56C133.621 279.581 133.513 279.603 133.427 279.603C133.34 279.603 133.232 279.603 133.146 279.581C133.06 279.56 132.973 279.538 132.887 279.517C132.865 279.517 132.844 279.495 132.822 279.495C132.952 279.473 133.06 279.43 133.189 279.365C133.362 279.279 133.513 279.128 133.642 278.977L133.729 278.869C133.75 278.826 133.772 278.783 133.794 278.739C133.837 278.653 133.88 278.567 133.902 278.48C133.923 278.394 133.945 278.308 133.988 278.2C134.009 278.113 134.009 278.006 134.031 277.919C133.988 277.984 133.966 278.07 133.923 278.157Z" fill="#DAEEF7"/>
<path d="M149.723 278.092C149.766 278.178 149.788 278.265 149.831 278.351C149.917 278.524 150.004 278.675 150.133 278.804C150.263 278.934 150.392 279.063 150.543 279.15C150.695 279.236 150.867 279.301 151.04 279.301L151.234 279.322L151.083 279.43C150.997 279.495 150.91 279.517 150.802 279.56C150.716 279.581 150.608 279.603 150.5 279.603C150.306 279.603 150.112 279.581 149.939 279.495C150.025 279.517 150.133 279.538 150.22 279.538C150.306 279.538 150.414 279.538 150.5 279.517C150.587 279.495 150.673 279.473 150.759 279.452C150.781 279.452 150.802 279.43 150.824 279.43C150.695 279.409 150.587 279.365 150.457 279.301C150.284 279.214 150.133 279.063 150.004 278.912L149.917 278.804C149.896 278.761 149.874 278.718 149.853 278.675C149.81 278.588 149.766 278.502 149.745 278.416C149.723 278.329 149.702 278.243 149.658 278.135C149.637 278.049 149.637 277.941 149.615 277.854C149.658 277.898 149.702 278.006 149.723 278.092Z" fill="#DAEEF7"/>
<path d="M143.721 287.417H139.749C138.67 287.417 137.785 286.532 137.785 285.453V283.273H145.686V285.453C145.686 286.532 144.801 287.417 143.721 287.417Z" fill="#92B5F9"/>
<path d="M137.075 280.078C137.075 280.337 136.859 280.574 136.579 280.574C136.298 280.574 136.082 280.358 136.082 280.078C136.082 279.797 136.298 279.581 136.579 279.581C136.859 279.603 137.075 279.819 137.075 280.078Z" fill="#DAEEF7"/>
<path d="M147.327 280.078C147.327 280.337 147.111 280.574 146.83 280.574C146.55 280.574 146.334 280.358 146.334 280.078C146.334 279.797 146.55 279.581 146.83 279.581C147.111 279.603 147.327 279.819 147.327 280.078Z" fill="#DAEEF7"/>
<path d="M143.573 263.068C143.465 263.478 143.81 263.845 144.22 263.78C144.458 263.759 144.652 263.586 144.695 263.349C144.803 262.939 144.458 262.572 144.048 262.636C143.832 262.658 143.637 262.831 143.573 263.068Z" fill="#0B0754"/>
<path d="M138.606 263.111C138.498 263.521 138.843 263.888 139.254 263.824C139.491 263.802 139.685 263.629 139.728 263.392C139.836 262.982 139.491 262.615 139.081 262.68C138.865 262.723 138.671 262.895 138.606 263.111Z" fill="#0B0754"/>
<path d="M142.922 261.989C143.202 261.881 143.483 261.816 143.764 261.751C144.044 261.708 144.303 261.687 144.562 261.708C144.821 261.73 145.08 261.795 145.34 261.902C145.685 262.032 145.944 262.205 146.117 262.291C145.966 262.054 145.75 261.751 145.491 261.622C145.232 261.428 144.908 261.341 144.606 261.298C144.282 261.255 143.958 261.32 143.656 261.428C143.375 261.579 143.116 261.751 142.922 261.989Z" fill="#0B0754"/>
<path d="M140.591 261.989C140.397 261.751 140.138 261.557 139.857 261.449C139.577 261.32 139.231 261.276 138.908 261.298C138.584 261.341 138.26 261.428 138.001 261.622C137.742 261.773 137.526 262.054 137.375 262.291C137.569 262.205 137.807 262.032 138.152 261.902C138.411 261.795 138.67 261.73 138.929 261.708C139.188 261.687 139.469 261.687 139.728 261.751C140.03 261.794 140.311 261.881 140.591 261.989Z" fill="#0B0754"/>
<path d="M136.858 252.707C136.858 252.707 138.887 251.002 143.463 251.282C148.061 251.563 148.924 253.959 149.183 257.369L148.924 261.449C148.924 261.449 147.737 260.219 146.183 256.83C146.183 256.83 143.614 259.722 142.492 259.377C141.369 259.031 142.923 256.959 142.923 256.959C142.923 256.959 137.678 261.471 134.591 261.471C134.591 261.471 132.951 256.204 135.26 254.261C135.26 254.261 133.533 254.347 133.447 254.002C133.361 253.657 134.267 253.16 135.929 253.354C135.929 253.354 134.742 251.045 135.411 250.807C136.059 250.527 136.858 252.707 136.858 252.707Z" fill="url(#paint22_linear_612_222)"/>
<path d="M139.297 266.263C139.47 267.018 140.333 267.623 141.412 267.644C142.47 267.687 143.377 267.126 143.592 266.392L139.297 266.263Z" fill="white"/>
<path d="M141.541 262.377C141.562 262.68 141.541 262.982 141.497 263.284C141.476 263.435 141.433 263.586 141.368 263.737C141.303 263.888 141.238 264.039 141.109 264.169C140.958 264.277 140.893 264.32 140.85 264.428C140.807 264.514 140.828 264.644 140.871 264.752C140.979 264.989 141.217 265.162 141.497 265.291C141.195 265.27 140.871 265.162 140.677 264.86C140.591 264.709 140.526 264.514 140.591 264.342C140.656 264.147 140.763 264.083 140.915 263.953C141.001 263.867 141.066 263.759 141.13 263.629C141.195 263.5 141.238 263.37 141.282 263.241C141.368 262.96 141.454 262.68 141.541 262.377Z" fill="#0160E7"/>
<path d="M167.479 283.185L181.158 278.164L175.073 261.588L161.395 266.609L167.479 283.185Z" fill="#BED1F9"/>
<path d="M174.325 280.67L181.154 278.163L175.07 261.586L168.24 264.093L174.325 280.67Z" fill="#92B5F9"/>
<path d="M173.056 263.953C173.207 263.888 173.272 263.716 173.186 263.565C172.948 263.09 172.387 262.054 171.545 261.104C170.013 259.377 168.264 258.772 166.516 259.334C165.544 259.636 164.811 260.24 164.357 261.125C163.321 263.133 163.969 265.961 164.228 266.867C164.271 267.018 164.444 267.105 164.595 267.061C164.746 267.018 164.811 266.867 164.789 266.716C164.552 265.874 163.947 263.176 164.875 261.384C165.264 260.629 165.868 260.132 166.71 259.873C168.264 259.377 169.754 259.917 171.157 261.492C171.956 262.399 172.495 263.392 172.711 263.824C172.754 263.953 172.927 263.996 173.056 263.953Z" fill="#DAEEF7"/>
<path d="M122.704 267.15L109.025 262.129L102.941 278.705L116.619 283.726L122.704 267.15Z" fill="#BED1F9"/>
<path d="M115.847 264.635L109.018 262.128L102.933 278.705L109.762 281.212L115.847 264.635Z" fill="#92B5F9"/>
<path d="M111.039 264.493C110.888 264.428 110.823 264.255 110.91 264.104C111.147 263.629 111.708 262.593 112.55 261.643C114.083 259.917 115.831 259.312 117.58 259.873C118.551 260.176 119.285 260.78 119.738 261.665C120.775 263.672 120.127 266.5 119.868 267.407C119.825 267.558 119.652 267.644 119.501 267.601C119.35 267.558 119.285 267.407 119.307 267.256C119.544 266.414 120.149 263.716 119.22 261.924C118.832 261.169 118.227 260.672 117.386 260.413C115.831 259.917 114.342 260.456 112.939 262.032C112.14 262.939 111.601 263.931 111.385 264.363C111.341 264.493 111.19 264.536 111.039 264.493Z" fill="#DAEEF7"/>
<path d="M294.799 270.17L296.137 273.149C296.245 273.386 296.137 273.688 295.9 273.796L288.906 276.926C288.409 277.164 287.913 276.581 288.215 276.106L290.913 271.897C290.913 271.897 293.05 272.307 294.799 270.17Z" fill="url(#paint23_linear_612_222)"/>
<path d="M303.844 269.803L305.182 272.782C305.29 273.019 305.182 273.321 304.945 273.429L297.951 276.559C297.454 276.775 296.958 276.214 297.26 275.739L299.958 271.53C299.98 271.551 302.117 271.94 303.844 269.803Z" fill="url(#paint24_linear_612_222)"/>
<path d="M312.024 173.227C312.024 173.227 304.405 171.954 301.857 180.437L305.009 185.164C305.009 185.164 311.614 182.617 311.636 182.38C311.657 182.121 312.024 173.227 312.024 173.227Z" fill="url(#paint25_linear_612_222)"/>
<path d="M324.264 177.07C324.264 177.07 326.487 180.415 327.61 181.732C330.459 185.056 330.826 184.02 332.596 186.891C334.517 189.978 332.574 191.921 331.474 192.806C330.373 193.691 332.207 196.993 330.157 198.85C327.48 201.267 324.998 198.979 323.163 200.339C321.328 201.699 320.918 203.707 316.536 203.318C312.176 202.93 312.197 188.64 312.197 188.64C312.197 188.64 315.781 181.063 315.91 180.998C316.083 180.933 324.264 177.07 324.264 177.07Z" fill="url(#paint26_linear_612_222)"/>
<path d="M301.858 180.459C301.858 180.459 301.599 183.07 300.735 184.582C298.555 188.381 297.368 187.129 296.159 190.28C294.864 193.669 297.109 195.223 298.361 195.893C299.613 196.562 298.404 200.145 300.757 201.57C303.844 203.448 305.851 200.749 307.923 201.742C309.996 202.735 310.751 204.635 314.982 203.448C319.213 202.26 316.515 188.23 316.515 188.23C316.515 188.23 311.593 181.452 311.442 181.408C311.291 181.387 301.858 180.459 301.858 180.459Z" fill="url(#paint27_linear_612_222)"/>
<path d="M312.889 197.382C312.889 197.382 320.185 196.044 323.531 196.152C326.877 196.26 321.502 204.98 321.502 204.98L316.019 205.11C316.019 205.11 312.651 201.354 312.889 200.922C313.105 200.49 312.889 197.619 312.889 197.619V197.382Z" fill="#AAAAAA"/>
<path d="M319.407 190.41L321.328 196.26C321.328 196.26 319.644 199.713 314.528 198.224C314.528 198.224 315.111 197.015 314.334 194.533C313.514 191.986 319.407 190.41 319.407 190.41Z" fill="#AAAAAA"/>
<path opacity="0.6" d="M319.407 190.41L320.314 193.13C319.774 195.115 318.025 196.475 314.744 196.907C314.744 196.324 314.658 195.526 314.334 194.511C313.514 191.986 319.407 190.41 319.407 190.41Z" fill="#AAAAAA"/>
<path d="M307.665 186.136C308.075 187.085 307.794 188.122 307.039 188.467C306.283 188.791 305.333 188.294 304.902 187.345C304.491 186.395 304.772 185.359 305.528 185.035C306.283 184.689 307.254 185.186 307.665 186.136Z" fill="#0160E7"/>
<path d="M307.449 190.453C306.952 189.222 306.693 187.927 306.542 186.783C306.521 186.546 306.478 186.287 306.413 186.049C306.219 185.078 306.197 184.042 306.391 182.963C307.039 179.509 309.931 176.832 313.428 176.487C318.134 176.012 322.149 179.638 322.257 184.236C322.753 183.934 323.315 183.869 323.811 184.063C324.782 184.474 325.149 185.769 324.653 186.956C324.156 188.165 322.969 188.812 321.998 188.402C321.868 188.337 321.739 188.273 321.631 188.186C321.329 192.115 318.199 195.223 314.356 195.267C311.486 195.331 308.636 193.583 307.449 190.453Z" fill="#AAAAAA"/>
<path d="M312.476 184.43C312.627 184.862 312.714 185.315 312.735 185.79C312.757 186.028 312.735 186.265 312.714 186.503C312.67 186.74 312.627 186.978 312.476 187.215C312.303 187.431 312.217 187.517 312.174 187.69C312.152 187.841 312.217 188.014 312.325 188.165C312.562 188.467 312.994 188.64 313.447 188.726C312.994 188.812 312.476 188.748 312.088 188.402C311.893 188.23 311.742 187.949 311.764 187.647C311.785 187.345 311.915 187.193 312.109 186.956C312.195 186.805 312.26 186.611 312.303 186.416C312.347 186.222 312.368 185.985 312.39 185.769C312.433 185.337 312.455 184.884 312.476 184.43Z" fill="#0160E7"/>
<path d="M315.134 184.992C315.048 185.488 315.479 185.898 315.976 185.812C316.257 185.747 316.472 185.531 316.516 185.251C316.602 184.754 316.17 184.344 315.674 184.43C315.393 184.495 315.177 184.711 315.134 184.992Z" fill="#0B0754"/>
<path d="M309.132 185.445C309.046 185.941 309.478 186.352 309.952 186.265C310.233 186.2 310.449 185.985 310.492 185.704C310.578 185.208 310.147 184.797 309.65 184.884C309.391 184.948 309.175 185.164 309.132 185.445Z" fill="#0B0754"/>
<path opacity="0.3" d="M315.242 190.453C315.242 190.453 314.249 190.086 313.3 190.712C313.3 190.712 312.285 190.064 311.486 190.69C311.486 190.69 311.853 192.201 313.537 192.093C315.199 191.986 315.242 190.453 315.242 190.453Z" fill="#0160E7"/>
<path d="M316.103 189.913C315.909 190.064 315.714 190.215 315.52 190.323C315.326 190.453 315.11 190.561 314.894 190.669C314.462 190.863 313.988 190.993 313.513 191.036C313.038 191.079 312.563 191.014 312.11 190.885C311.656 190.734 311.225 190.518 310.814 190.237C310.987 190.41 311.181 190.561 311.397 190.69C311.613 190.82 311.829 190.928 312.066 191.014C312.304 191.1 312.541 191.165 312.779 191.208C313.016 191.23 313.275 191.252 313.534 191.23C314.031 191.187 314.506 191.036 314.959 190.798C315.369 190.561 315.779 190.259 316.103 189.913Z" fill="#0160E7"/>
<path d="M314.291 183.524C314.658 183.437 314.982 183.351 315.327 183.308C315.651 183.265 315.975 183.265 316.299 183.33C316.601 183.373 316.924 183.459 317.227 183.61C317.464 183.696 318.004 184.042 318.155 184.107C318.004 183.783 317.766 183.437 317.443 183.243C317.14 183.006 316.752 182.855 316.385 182.79C315.996 182.725 315.586 182.768 315.241 182.898C314.874 183.027 314.528 183.222 314.291 183.524Z" fill="url(#paint28_linear_612_222)"/>
<path d="M311.203 183.761C310.923 183.502 310.577 183.33 310.21 183.243C309.843 183.157 309.433 183.157 309.045 183.265C308.678 183.373 308.311 183.567 308.03 183.848C307.749 184.085 307.555 184.452 307.447 184.797C307.577 184.711 308.095 184.301 308.311 184.193C308.591 183.999 308.894 183.891 309.196 183.804C309.498 183.718 309.822 183.675 310.167 183.675C310.491 183.675 310.836 183.696 311.203 183.761Z" fill="url(#paint29_linear_612_222)"/>
<path d="M325.581 233.064C325.581 233.064 327.739 243.187 317.961 245.583C308.204 247.979 295.878 248.238 295.878 248.238L295.641 271.832L290.504 272.415C290.504 272.415 275.178 240.64 293.223 234.38L309.737 233.409L316.515 232.502C316.515 232.502 323.293 230.365 323.379 230.689C323.509 230.991 325.43 233.236 325.581 233.064Z" fill="#4951EC"/>
<path d="M334.669 232.546C334.669 232.546 336.827 242.669 327.049 245.065C317.292 247.461 304.966 247.72 304.966 247.72L304.729 271.314L299.591 271.897C299.591 271.897 284.265 240.122 302.311 233.862L318.825 232.891L325.603 231.984C325.603 231.984 332.381 229.847 332.467 230.171C332.575 230.473 334.518 232.718 334.669 232.546Z" fill="#7C9AF2"/>
<path d="M302.008 248.39C302.288 248.346 302.569 248.282 302.85 248.217C303.13 248.152 303.411 248.087 303.67 248.001C303.799 247.958 303.95 247.915 304.08 247.872C303.929 247.85 303.799 247.807 303.67 247.742C303.411 247.656 303.152 247.505 302.914 247.353C302.677 247.181 302.461 247.008 302.288 246.792C302.094 246.576 301.943 246.361 301.792 246.123L302.073 246.425C302.18 246.512 302.267 246.62 302.375 246.706C302.569 246.9 302.806 247.051 303.022 247.181C303.26 247.31 303.497 247.44 303.756 247.526C304.015 247.613 304.274 247.677 304.533 247.677L304.987 247.699L304.576 247.893C304.296 248.023 304.037 248.109 303.756 248.174C303.476 248.26 303.195 248.303 302.914 248.346C302.634 248.39 302.353 248.433 302.051 248.454C301.77 248.476 301.468 248.498 301.188 248.498C301.447 248.476 301.727 248.433 302.008 248.39Z" fill="white"/>
<path d="M304.598 211.586C304.598 211.586 303.929 228.12 302.072 230.711L312.304 228.379V210.377L304.598 211.586Z" fill="#AAAAAA"/>
<path d="M308.959 213.852C308.959 213.852 310.384 218.018 310.643 220.22C311.29 225.703 310.578 229.588 309.455 232.718C307.858 237.1 320.874 235.503 321.155 235.373C321.414 235.244 332.574 230.927 332.574 230.927L334.689 224.753V213.852L334.085 208.866L308.959 213.852Z" fill="#BED1F9"/>
<path d="M340.151 208.866L331.948 211.65C331.948 211.65 333.373 224.753 332.919 226.609C332.531 228.207 326.595 231.358 322.839 233.128C322.234 233.409 321.565 233.538 320.896 233.474C318.759 233.301 314.96 232.956 314.355 232.934C313.427 232.869 310.837 232.934 310.751 233.258C310.664 233.56 312.758 233.236 314.118 233.517C314.312 233.56 314.204 233.819 314.161 233.819C313.449 233.841 311.592 233.927 310.988 234.121C310.232 234.38 312.888 234.164 314.312 234.445C314.42 234.467 314.485 234.747 314.42 234.812C314.247 234.985 313.621 235.136 311.916 235.309C309.067 235.589 311.851 235.956 311.851 235.956C311.851 235.956 312.11 235.891 314.55 235.546C314.636 235.524 314.744 235.783 314.614 235.913C314.377 236.129 313.837 236.517 313.103 236.755C312.197 237.035 312.844 237.273 312.844 237.273C312.844 237.273 314.571 236.755 315.543 236.69C316.277 236.625 319.687 236.906 321.112 236.992L321.22 236.755C323.119 236.69 338.316 236.301 339.784 226.89C341.295 217.155 340.151 208.866 340.151 208.866Z" fill="#AAAAAA"/>
<path d="M280.596 218.256H306.715L314.119 236.323H326.703C327.049 236.323 327.351 236.604 327.351 236.949C327.351 237.294 327.07 237.597 326.703 237.597H289.295L280.596 218.256Z" fill="#0B0754"/>
<path d="M293.526 228.574C293.677 229.351 294.347 229.869 295.016 229.718C295.685 229.588 296.117 228.854 295.965 228.077C295.814 227.3 295.145 226.782 294.476 226.933C293.807 227.063 293.375 227.797 293.526 228.574Z" fill="#DDE8FE"/>
<path d="M312.888 197.382C312.888 197.382 317.853 203.167 323.53 196.152C323.53 196.152 329.747 195.655 334.323 198.893C338.899 202.152 341.662 209.47 341.662 209.47C341.662 209.47 333.352 213.658 331.301 213.852H308.247C308.247 213.852 304.729 213.593 301.34 211.866C301.34 211.845 301.923 200.231 312.888 197.382Z" fill="#BED1F9"/>
<path d="M328.278 207.247C328.494 207.959 328.689 208.693 328.883 209.405C329.25 210.83 329.574 212.19 329.811 213.636C330.264 213.658 330.761 213.593 331.214 213.528C333.61 213.097 335.186 212.427 337.323 211.564C340.518 210.118 340.086 210.247 341.705 209.449C339.827 210.636 338.834 211.154 337.474 211.845C335.596 212.708 333.826 213.507 331.3 213.96C330.2 214.111 329.876 214.068 329.466 214.025C329.293 212.967 329.12 211.866 328.602 209.47L328.127 207.268L327.631 205.088C327.847 205.822 328.063 206.534 328.278 207.247Z" fill="#0B0754"/>
<path d="M310.082 203.426C309.758 204.268 309.456 205.131 309.197 205.995C308.938 206.858 308.701 207.722 308.55 208.607C308.398 209.362 308.312 210.334 308.334 211.262C308.377 212.147 309.672 216.334 310.061 217.155C309.521 216.421 308.075 212.212 307.988 211.283C307.88 210.355 307.945 209.427 308.118 208.52C308.291 207.614 308.528 206.75 308.873 205.887C309.219 205.023 309.607 204.182 310.082 203.426Z" fill="#0B0754"/>
<path d="M322.278 184.236C322.278 184.236 313.752 182.185 309.693 176.4C309.693 176.4 309.629 171.133 317.443 172.321C325.041 173.486 326.833 180.89 322.278 184.236Z" fill="url(#paint30_linear_612_222)"/>
<defs>
<linearGradient id="paint0_linear_612_222" x1="347.87" y1="281.9" x2="347.87" y2="317.486" gradientUnits="userSpaceOnUse">
<stop stop-color="#0160E7"/>
<stop offset="1" stop-color="#013681"/>
</linearGradient>
<linearGradient id="paint1_linear_612_222" x1="310.148" y1="305.175" x2="385.656" y2="305.175" gradientUnits="userSpaceOnUse">
<stop stop-color="#0160E7"/>
<stop offset="1" stop-color="#013681"/>
</linearGradient>
<linearGradient id="paint2_linear_612_222" x1="50.1717" y1="162.028" x2="50.1717" y2="256.999" gradientUnits="userSpaceOnUse">
<stop stop-color="#0160E7"/>
<stop offset="1" stop-color="#013681"/>
</linearGradient>
<linearGradient id="paint3_linear_612_222" x1="51.3733" y1="7.0802" x2="51.3733" y2="19.1467" gradientUnits="userSpaceOnUse">
<stop stop-color="#0160E7"/>
<stop offset="1" stop-color="#013681"/>
</linearGradient>
<linearGradient id="paint4_linear_612_222" x1="318.264" y1="54.9362" x2="318.264" y2="66.9812" gradientUnits="userSpaceOnUse">
<stop stop-color="#0160E7"/>
<stop offset="1" stop-color="#013681"/>
</linearGradient>
<linearGradient id="paint5_linear_612_222" x1="210.463" y1="85.1998" x2="210.463" y2="92.0641" gradientUnits="userSpaceOnUse">
<stop stop-color="#0160E7"/>
<stop offset="1" stop-color="#013681"/>
</linearGradient>
<linearGradient id="paint6_linear_612_222" x1="192.386" y1="167.14" x2="192.386" y2="182.876" gradientUnits="userSpaceOnUse">
<stop stop-color="#0160E7"/>
<stop offset="1" stop-color="#013681"/>
</linearGradient>
<linearGradient id="paint7_linear_612_222" x1="184.239" y1="240.252" x2="184.239" y2="246.382" gradientUnits="userSpaceOnUse">
<stop stop-color="#0160E7"/>
<stop offset="1" stop-color="#013681"/>
</linearGradient>
<linearGradient id="paint8_linear_612_222" x1="196.604" y1="240.252" x2="196.604" y2="246.382" gradientUnits="userSpaceOnUse">
<stop stop-color="#0160E7"/>
<stop offset="1" stop-color="#013681"/>
</linearGradient>
<linearGradient id="paint9_linear_612_222" x1="192.389" y1="211.124" x2="192.389" y2="240.209" gradientUnits="userSpaceOnUse">
<stop stop-color="#0160E7"/>
<stop offset="1" stop-color="#013681"/>
</linearGradient>
<linearGradient id="paint10_linear_612_222" x1="192.386" y1="292.209" x2="192.386" y2="302.117" gradientUnits="userSpaceOnUse">
<stop stop-color="#0160E7"/>
<stop offset="1" stop-color="#013681"/>
</linearGradient>
<linearGradient id="paint11_linear_612_222" x1="302.961" y1="220.052" x2="302.961" y2="248.972" gradientUnits="userSpaceOnUse">
<stop stop-color="#0160E7"/>
<stop offset="1" stop-color="#013681"/>
</linearGradient>
<linearGradient id="paint12_linear_612_222" x1="301.129" y1="320.282" x2="301.194" y2="247.3" gradientUnits="userSpaceOnUse">
<stop stop-color="#0160E7"/>
<stop offset="1" stop-color="#013681"/>
</linearGradient>
<linearGradient id="paint13_linear_612_222" x1="184.069" y1="177.544" x2="184.069" y2="184.829" gradientUnits="userSpaceOnUse">
<stop stop-color="#0160E7"/>
<stop offset="1" stop-color="#013681"/>
</linearGradient>
<linearGradient id="paint14_linear_612_222" x1="174.571" y1="177.544" x2="174.571" y2="184.829" gradientUnits="userSpaceOnUse">
<stop stop-color="#0160E7"/>
<stop offset="1" stop-color="#013681"/>
</linearGradient>
<linearGradient id="paint15_linear_612_222" x1="154.365" y1="87.0321" x2="154.365" y2="94.5033" gradientUnits="userSpaceOnUse">
<stop stop-color="#0160E7"/>
<stop offset="1" stop-color="#013681"/>
</linearGradient>
<linearGradient id="paint16_linear_612_222" x1="146.658" y1="104.756" x2="146.658" y2="142.517" gradientUnits="userSpaceOnUse">
<stop stop-color="#0160E7"/>
<stop offset="1" stop-color="#013681"/>
</linearGradient>
<linearGradient id="paint17_linear_612_222" x1="147" y1="79.2626" x2="147" y2="91.6971" gradientUnits="userSpaceOnUse">
<stop stop-color="#0160E7"/>
<stop offset="1" stop-color="#013681"/>
</linearGradient>
<linearGradient id="paint18_linear_612_222" x1="139.782" y1="83.2847" x2="139.782" y2="94.8802" gradientUnits="userSpaceOnUse">
<stop stop-color="#0160E7"/>
<stop offset="1" stop-color="#013681"/>
</linearGradient>
<linearGradient id="paint19_linear_612_222" x1="134.604" y1="318.199" x2="134.604" y2="321.739" gradientUnits="userSpaceOnUse">
<stop stop-color="#0160E7"/>
<stop offset="1" stop-color="#013681"/>
</linearGradient>
<linearGradient id="paint20_linear_612_222" x1="154.741" y1="318.199" x2="154.741" y2="321.739" gradientUnits="userSpaceOnUse">
<stop stop-color="#0160E7"/>
<stop offset="1" stop-color="#013681"/>
</linearGradient>
<linearGradient id="paint21_linear_612_222" x1="141.768" y1="268.68" x2="141.768" y2="293.865" gradientUnits="userSpaceOnUse">
<stop stop-color="#0160E7"/>
<stop offset="1" stop-color="#013681"/>
</linearGradient>
<linearGradient id="paint22_linear_612_222" x1="141.312" y1="250.782" x2="141.312" y2="261.471" gradientUnits="userSpaceOnUse">
<stop stop-color="#0160E7"/>
<stop offset="1" stop-color="#013681"/>
</linearGradient>
<linearGradient id="paint23_linear_612_222" x1="292.151" y1="270.17" x2="292.151" y2="276.981" gradientUnits="userSpaceOnUse">
<stop stop-color="#0160E7"/>
<stop offset="1" stop-color="#013681"/>
</linearGradient>
<linearGradient id="paint24_linear_612_222" x1="301.196" y1="269.803" x2="301.196" y2="276.607" gradientUnits="userSpaceOnUse">
<stop stop-color="#0160E7"/>
<stop offset="1" stop-color="#013681"/>
</linearGradient>
<linearGradient id="paint25_linear_612_222" x1="306.941" y1="173.159" x2="306.941" y2="185.164" gradientUnits="userSpaceOnUse">
<stop stop-color="#0160E7"/>
<stop offset="1" stop-color="#013681"/>
</linearGradient>
<linearGradient id="paint26_linear_612_222" x1="322.803" y1="177.07" x2="322.803" y2="203.367" gradientUnits="userSpaceOnUse">
<stop stop-color="#0160E7"/>
<stop offset="1" stop-color="#013681"/>
</linearGradient>
<linearGradient id="paint27_linear_612_222" x1="306.566" y1="180.459" x2="306.566" y2="203.826" gradientUnits="userSpaceOnUse">
<stop stop-color="#0160E7"/>
<stop offset="1" stop-color="#013681"/>
</linearGradient>
<linearGradient id="paint28_linear_612_222" x1="316.223" y1="182.76" x2="316.223" y2="184.107" gradientUnits="userSpaceOnUse">
<stop stop-color="#0160E7"/>
<stop offset="1" stop-color="#013681"/>
</linearGradient>
<linearGradient id="paint29_linear_612_222" x1="309.325" y1="183.181" x2="309.325" y2="184.797" gradientUnits="userSpaceOnUse">
<stop stop-color="#0160E7"/>
<stop offset="1" stop-color="#013681"/>
</linearGradient>
<linearGradient id="paint30_linear_612_222" x1="317.224" y1="172.146" x2="317.224" y2="184.236" gradientUnits="userSpaceOnUse">
<stop stop-color="#0160E7"/>
<stop offset="1" stop-color="#013681"/>
</linearGradient>
</defs>
</svg>
