<svg width="341" height="305" viewBox="0 0 341 305" fill="none" xmlns="http://www.w3.org/2000/svg">
<path d="M288.6 176.727C280.9 172.327 274.7 161.527 274.7 152.727C274.7 149.427 275.6 146.927 277 145.227C272.8 145.527 269.9 149.027 269.9 155.027C269.9 163.827 276.1 174.527 283.8 179.027C288.6 181.827 292.8 181.427 295.3 178.627C293.4 178.827 291.1 178.227 288.6 176.727Z" fill="#72B5E8"/>
<path d="M302.1 173.827C302.1 172.727 302 171.627 301.9 170.427L307.5 169.727C306.9 166.927 306.1 164.027 305 161.227L298.6 159.327C297.5 156.927 296.1 154.627 294.6 152.427L296.1 145.927C294.2 143.527 292.1 141.427 290 139.427L286.6 143.927C285.7 143.227 284.7 142.627 283.8 142.027C282.8 141.427 281.9 141.027 281 140.627L277.6 132.227C275.4 131.627 273.4 131.427 271.5 131.627L273 139.827C271.5 140.227 270.1 141.027 269 142.127L262.6 136.627C261.5 138.127 260.6 140.027 260.1 142.227L265.7 149.427C265.6 150.427 265.5 151.427 265.5 152.527C265.5 153.627 265.6 154.727 265.7 155.927L260.1 156.627C260.7 159.427 261.5 162.327 262.6 165.127L269 167.027C270.1 169.427 271.5 171.727 273 173.927L271.5 180.427C273.4 182.827 275.5 184.927 277.6 186.927L281 182.427C281.9 183.127 282.9 183.727 283.8 184.327C284.8 184.927 285.7 185.327 286.6 185.727L290 194.127C292.2 194.727 294.2 194.927 296.1 194.727L294.6 186.527C296.1 186.127 297.5 185.327 298.6 184.227L305 189.727C306.1 188.227 307 186.327 307.5 184.127L301.9 176.927C302 176.027 302.1 174.927 302.1 173.827ZM283.9 179.027C276.2 174.627 270 163.827 270 155.027C270 146.227 276.2 142.727 283.9 147.127C291.6 151.527 297.8 162.327 297.8 171.127C297.8 179.927 291.6 183.527 283.9 179.027Z" fill="#A8CFF0"/>
<path d="M286.3 137.727L282.9 129.227L277.5 132.327L280.9 140.827L286.3 137.727Z" fill="#72B5E8"/>
<path d="M280.9 140.827C281.8 141.227 282.8 141.627 283.7 142.227C284.7 142.827 285.6 143.427 286.5 144.127L289.9 139.627C289.9 139.627 289.3 139.227 289 139.127C288 138.527 287.1 138.127 286.2 137.727L280.9 140.827Z" fill="#D1EBFF"/>
<path d="M282.9 129.227C280.7 128.627 278.7 128.427 276.8 128.627L271.4 131.727C273.3 131.527 275.4 131.727 277.5 132.327L282.9 129.227Z" fill="#D1EBFF"/>
<path d="M301.5 142.927C299.6 140.527 297.5 138.427 295.4 136.427L290 139.527C292.2 141.427 294.2 143.627 296.1 146.027L301.5 142.927Z" fill="#D1EBFF"/>
<path d="M296.1 146.027L294.6 152.527L300 149.427L301.5 142.927L296.1 146.027Z" fill="#72B5E8"/>
<path d="M294.6 152.527C296.1 154.727 297.5 157.027 298.6 159.427L304 156.327C302.9 153.927 301.5 151.627 300 149.427L294.6 152.527Z" fill="#72B5E8"/>
<path d="M298.6 159.327L305 161.327L310.3 158.227L303.9 156.227L298.6 159.327Z" fill="#D1EBFF"/>
<path d="M305 161.327C306.1 164.127 307 167.027 307.5 169.827L312.9 166.727C312.3 163.927 311.5 161.027 310.4 158.227L305 161.327Z" fill="#72B5E8"/>
<path d="M272.9 139.927L272.5 137.527L267.9 133.627L262.5 136.727L268.9 142.227C270 141.127 271.4 140.327 272.9 139.927Z" fill="#72B5E8"/>
<path d="M307.5 184.127C306.9 186.327 306.1 188.127 305 189.727L310.4 186.627C311.5 185.127 312.4 183.227 312.9 181.027L307.5 184.127Z" fill="#72B5E8"/>
<path d="M307.3 173.827C307.4 172.827 307.5 171.827 307.5 170.727C307.5 170.427 307.5 170.027 307.5 169.727L301.9 170.427C302 171.527 302.1 172.727 302.1 173.827C302.1 174.927 302 175.927 301.9 176.927L307.3 173.827Z" fill="#72B5E8"/>
<path d="M301.9 176.927L307.5 184.127L312.9 181.027L307.3 173.827L301.9 176.927Z" fill="#D1EBFF"/>
<path d="M298.6 184.227C297.5 185.327 296.1 186.127 294.6 186.527L296.1 194.727L301.5 191.627L300.4 185.827L298.6 184.227Z" fill="#72B5E8"/>
<path d="M265.4 153.527L260 156.727L265.6 156.027C265.5 155.127 265.4 154.327 265.4 153.527Z" fill="#D1EBFF"/>
<path d="M280.9 182.427L277.5 186.927L282.9 183.827C282.2 183.427 281.6 182.927 280.9 182.427Z" fill="#72B5E8"/>
<path d="M272.198 140.327C271.898 140.327 271.698 140.427 271.398 140.627C271.698 140.527 271.998 140.427 272.198 140.327Z" fill="white"/>
<path d="M264.899 156.127L260.199 156.727C260.199 156.827 260.199 156.927 260.299 157.027L264.899 156.427C264.899 156.227 264.899 156.127 264.899 156.127Z" fill="white"/>
<path d="M295.8 146.427L294.3 152.927C295.8 155.127 297.2 157.427 298.3 159.827L304.7 161.727C305.8 164.427 306.6 167.227 307.2 169.927L307.8 169.827C307.2 167.027 306.4 164.127 305.3 161.327L298.9 159.427C297.8 157.027 296.4 154.727 294.9 152.527L296.4 146.027C294.5 143.627 292.4 141.527 290.3 139.527L290.1 140.227C292.1 142.127 294 144.127 295.8 146.427Z" fill="white"/>
<path d="M284 178.927C276.3 174.527 270.1 163.727 270.1 154.927C270.1 151.027 271.3 148.227 273.3 146.627C271 148.127 269.5 151.127 269.5 155.327C269.5 164.127 275.7 174.827 283.4 179.327C287.3 181.527 290.8 181.727 293.3 180.327C293.1 180.427 292.9 180.427 292.7 180.427C290.3 181.327 287.3 180.927 284 178.927Z" fill="white"/>
<path d="M295.6 186.227C296.5 185.927 297.4 185.427 298.1 184.827L297.9 184.627C297.2 185.327 296.5 185.827 295.6 186.227Z" fill="white"/>
<path d="M268.699 142.327C268.499 142.327 268.699 142.127 268.899 141.927L262.699 136.727C262.499 136.927 262.399 137.227 262.699 137.227L268.699 142.327Z" fill="white"/>
<path d="M294.399 186.927L295.899 194.827C295.699 194.827 296.099 194.827 296.399 194.827L294.899 186.727C294.599 186.727 294.299 186.827 294.399 186.927Z" fill="white"/>
<path d="M302.4 173.827C302.4 172.827 302.3 171.827 302.2 170.727H301.6C301.7 171.827 301.8 173.027 301.8 174.127C301.8 175.227 301.7 176.227 301.6 177.227L307.2 184.427C306.7 186.227 306 187.827 305.2 189.227V189.627C306.3 188.127 307.2 186.227 307.7 184.027L302.1 176.827C302.3 175.927 302.4 174.927 302.4 173.827Z" fill="white"/>
<path d="M277.2 132.527L280.6 140.927C281.5 141.327 282.5 141.727 283.4 142.327C284.4 142.927 285.3 143.527 286.2 144.227L286.3 143.727C285.5 143.127 284.7 142.627 283.9 142.127C282.9 141.527 282 141.127 281.1 140.727L277.7 132.327C275.5 131.727 273.5 131.527 271.6 131.727L271.7 132.127C273.3 132.027 275.4 132.127 277.2 132.527Z" fill="white"/>
<path d="M280.298 182.827L277.398 186.527C277.498 186.627 277.598 186.727 277.798 186.827L280.698 183.027C280.498 183.027 280.398 182.927 280.298 182.827Z" fill="white"/>
<path d="M286.6 110.727C275.1 104.027 265.7 87.9272 265.7 74.7272C265.7 69.8272 267 66.0272 269.2 63.5272C262.9 64.0272 258.6 69.3272 258.6 78.2272C258.6 91.4272 268 107.627 279.5 114.227C286.7 118.427 293.1 117.827 296.9 113.527C293.9 113.727 290.4 112.927 286.6 110.727Z" fill="#72B5E8"/>
<path d="M306.9 106.327C306.9 104.627 306.8 102.927 306.5 101.227L314.9 100.127C314 95.8272 312.7 91.6272 311.1 87.3272L301.5 84.4272C299.8 80.8272 297.8 77.3272 295.5 74.1272L297.8 64.4272C294.9 60.8272 291.9 57.6272 288.6 54.7272L283.4 61.4272C282 60.4272 280.6 59.4272 279.2 58.5272C277.8 57.7272 276.4 57.0272 275 56.5272L269.8 43.8272C266.5 42.9272 263.4 42.6272 260.6 42.9272L262.9 55.3272C260.6 55.9272 258.6 57.1272 256.9 58.7272L247.3 50.5272C245.6 52.8272 244.3 55.6272 243.5 58.9272L251.9 69.7272C251.7 71.2272 251.5 72.7272 251.5 74.4272C251.5 76.1272 251.6 77.8272 251.9 79.5272L243.5 80.6272C244.4 84.9272 245.7 89.1272 247.3 93.4272L256.9 96.3272C258.6 99.9272 260.6 103.427 262.9 106.627L260.6 116.327C263.5 119.927 266.5 123.127 269.8 126.027L275 119.327C276.4 120.327 277.8 121.327 279.2 122.227C280.6 123.027 282 123.727 283.4 124.227L288.6 136.927C291.9 137.827 295 138.127 297.8 137.827L295.5 125.427C297.8 124.827 299.8 123.627 301.5 122.027L311.1 130.227C312.8 127.927 314.1 125.127 314.9 121.827L306.5 111.027C306.8 109.527 306.9 108.027 306.9 106.327ZM279.5 114.227C268 107.527 258.6 91.4272 258.6 78.2272C258.6 65.0272 268 59.6272 279.5 66.3272C291 73.0272 300.4 89.1272 300.4 102.327C300.4 115.527 291.1 120.827 279.5 114.227Z" fill="#A8CFF0"/>
<path d="M283.1 51.9272L277.9 39.2272L269.9 43.9272L275 56.6272L283.1 51.9272Z" fill="#72B5E8"/>
<path d="M275 56.6272C276.4 57.2272 277.8 57.8272 279.2 58.6272C280.6 59.4272 282 60.4272 283.4 61.5272L288.6 54.8272C288.6 54.8272 287.7 54.3272 287.3 54.0272C285.9 53.2272 284.5 52.5272 283.1 52.0272L275 56.6272Z" fill="#D1EBFF"/>
<path d="M277.9 39.2272C274.6 38.3272 271.5 38.0272 268.7 38.3272L260.6 42.9272C263.5 42.6272 266.5 42.9272 269.8 43.8272L277.9 39.2272Z" fill="#D1EBFF"/>
<path d="M305.999 59.8272C303.099 56.2272 300.099 53.0272 296.799 50.1272L288.699 54.7272C291.999 57.6272 295.099 60.9272 297.899 64.4272L305.999 59.8272Z" fill="#D1EBFF"/>
<path d="M297.9 64.5272L295.6 74.2272L303.7 69.5272L306 59.8272L297.9 64.5272Z" fill="#72B5E8"/>
<path d="M295.6 74.2272C297.9 77.4272 299.9 80.9272 301.6 84.5272L309.7 79.9272C308 76.3272 306 72.8272 303.7 69.6272L295.6 74.2272Z" fill="#72B5E8"/>
<path d="M301.6 84.5272L311.2 87.4272L319.3 82.8272L309.7 79.9272L301.6 84.5272Z" fill="#D1EBFF"/>
<path d="M311.199 87.4272C312.899 91.6272 314.199 95.9272 314.999 100.227L323.099 95.6272C322.199 91.3272 320.899 87.1272 319.299 82.8272L311.199 87.4272Z" fill="#72B5E8"/>
<path d="M262.901 55.3272L262.201 51.7272L255.401 45.9272L247.301 50.5272L256.901 58.7272C258.601 57.1272 260.701 55.9272 262.901 55.3272Z" fill="#72B5E8"/>
<path d="M314.999 121.827C314.099 125.127 312.799 127.927 311.199 130.227L319.299 125.627C320.999 123.327 322.299 120.527 323.099 117.227L314.999 121.827Z" fill="#72B5E8"/>
<path d="M314.7 106.327C314.9 104.827 315.1 103.327 315.1 101.627C315.1 101.127 315.1 100.627 315 100.127L306.6 101.227C306.8 102.927 307 104.627 307 106.327C307 108.027 306.9 109.527 306.6 111.027L314.7 106.327Z" fill="#72B5E8"/>
<path d="M306.6 111.027L315 121.827L323.1 117.127L314.7 106.327L306.6 111.027Z" fill="#D1EBFF"/>
<path d="M301.6 122.027C299.9 123.727 297.9 124.827 295.6 125.427L297.9 137.827L306 133.227L304.4 124.427L301.6 122.027Z" fill="#72B5E8"/>
<path d="M251.6 75.7272L243.5 80.5272L251.9 79.4272C251.8 78.2272 251.7 77.0272 251.6 75.7272Z" fill="#D1EBFF"/>
<path d="M275.001 119.327L269.801 126.027L278.001 121.427C277.001 120.727 276.001 120.027 275.001 119.327Z" fill="#72B5E8"/>
<path d="M262 55.9272V55.8272C261.6 55.9272 261.2 56.1272 260.9 56.3272C261.2 56.1272 261.6 56.0272 262 55.9272Z" fill="white"/>
<path d="M250.9 79.6272L243.9 80.5272C243.9 80.6272 244 80.8272 244 80.9272L251 80.0272C251 79.9272 250.9 79.7272 250.9 79.6272Z" fill="white"/>
<path d="M297.401 65.0272L295.101 74.7272C297.401 77.9272 299.401 81.4272 301.101 85.0272L310.701 87.9272C312.301 92.0272 313.601 96.2272 314.401 100.327L315.401 100.127C314.501 95.8272 313.201 91.6272 311.601 87.3272L302.001 84.4272C300.301 80.8272 298.301 77.3272 296.001 74.1272L298.301 64.4272C295.401 60.8272 292.401 57.6272 289.101 54.7272L288.801 55.8272C291.801 58.5272 294.701 61.6272 297.401 65.0272Z" fill="white"/>
<path d="M279.6 114.027C268.1 107.327 258.7 91.2272 258.7 78.0272C258.7 72.2272 260.5 67.9272 263.6 65.5272C260.1 67.8272 257.9 72.3272 257.9 78.6272C257.9 91.8272 267.3 108.027 278.8 114.627C284.6 118.027 289.9 118.327 293.7 116.027C293.4 116.127 293.1 116.127 292.8 116.227C289.2 117.527 284.6 116.927 279.6 114.027Z" fill="white"/>
<path d="M297.1 125.027C298.5 124.527 299.8 123.827 300.9 122.927L300.5 122.627C299.6 123.527 298.4 124.327 297.1 125.027Z" fill="white"/>
<path d="M256.701 59.0272C256.301 59.0272 256.701 58.7272 257.101 58.4272L247.801 50.5272C247.501 50.9272 247.301 51.3272 247.701 51.3272L256.701 59.0272Z" fill="white"/>
<path d="M295.4 125.927L297.6 137.727C297.3 137.727 297.8 137.727 298.3 137.627L296 125.427C295.6 125.627 295.1 125.827 295.4 125.927Z" fill="white"/>
<path d="M307.301 106.327C307.301 104.827 307.201 103.227 307.001 101.727L306.201 101.827C306.401 103.527 306.601 105.227 306.601 106.927C306.601 108.627 306.501 110.127 306.201 111.627L314.601 122.427C313.901 125.127 312.801 127.527 311.501 129.627L311.601 130.327C313.301 128.027 314.601 125.227 315.401 121.927L307.001 111.127C307.201 109.527 307.301 107.927 307.301 106.327Z" fill="white"/>
<path d="M269.5 44.2272L274.7 56.9272C276.1 57.5272 277.5 58.1272 278.9 58.9272C280.3 59.7272 281.7 60.7272 283.1 61.8272L283.3 61.0272C282.1 60.1272 280.9 59.3272 279.7 58.6272C278.3 57.8272 276.9 57.1272 275.5 56.6272L270.3 43.9272C267 43.0272 263.9 42.7272 261.1 43.0272L261.2 43.5272C263.6 43.4272 266.8 43.5272 269.5 44.2272Z" fill="white"/>
<path d="M274.001 119.827L269.701 125.427C269.901 125.627 270.101 125.727 270.201 125.927L274.601 120.227C274.401 120.127 274.201 120.027 274.001 119.827Z" fill="white"/>
<path d="M289.699 38.3272C289.799 37.0272 290.699 36.4272 291.799 37.0272C292.899 37.6272 293.699 39.2272 293.599 40.5272C293.499 41.8272 292.599 42.4272 291.499 41.8272C290.499 41.2272 289.699 39.6272 289.699 38.3272Z" fill="#EB4680"/>
<path d="M283.699 198.327C283.699 197.427 284.399 197.027 285.099 197.427C285.799 197.827 286.399 198.927 286.299 199.827C286.299 200.727 285.599 201.127 284.899 200.727C284.199 200.327 283.699 199.227 283.699 198.327Z" fill="#EB4680"/>
<path d="M322.799 133.627C322.599 133.627 322.499 133.527 322.399 133.427C322.299 133.227 322.299 133.027 322.399 132.827L324.799 128.727C324.899 128.527 325.199 128.427 325.499 128.527C325.699 128.627 325.799 128.927 325.699 129.227L323.899 132.227L327.399 131.127C327.699 131.027 327.899 131.227 327.999 131.427C328.099 131.727 327.899 131.927 327.699 132.027L322.899 133.527C322.899 133.627 322.899 133.627 322.799 133.627Z" fill="#EB4680"/>
<path d="M281.302 151.827C283.202 152.927 284.802 155.027 285.802 157.227C285.802 157.227 286.902 156.927 287.302 156.727C288.202 156.327 289.402 156.527 290.702 157.227C293.602 158.927 296.002 163.027 296.002 166.327C296.002 172.427 285.502 174.527 285.502 174.527C285.502 174.527 275.502 161.227 275.502 155.027C275.502 153.327 274.802 152.827 275.702 152.327C275.802 152.327 277.702 151.227 277.802 151.227C278.802 150.927 280.002 151.027 281.302 151.827Z" fill="#D62D69"/>
<path d="M279.601 152.727C281.601 153.927 283.401 156.227 284.301 158.727C285.201 157.327 286.901 157.027 289.001 158.127C291.901 159.827 294.301 163.927 294.301 167.227C294.301 173.327 284.301 175.127 284.301 175.127C284.301 175.127 274.301 161.827 274.301 155.627C274.301 152.427 276.601 151.027 279.601 152.727Z" fill="#EB4680"/>
<path opacity="0.7" d="M279.3 152.827C281.3 154.027 283.3 156.327 284.2 158.827C284.4 158.527 284.1 158.627 284.4 158.427C283.5 156.127 281.8 153.927 279.8 152.827C278.2 151.927 277 151.727 276 152.227C276.9 152.027 278.1 152.127 279.3 152.827Z" fill="white"/>
<path opacity="0.7" d="M289.1 158.127C287.5 157.227 286.3 157.227 285.5 157.727C286.4 157.427 287.5 157.627 288.7 158.327C291.6 160.027 294 164.127 294 167.427C294 170.227 291.8 172.227 289.5 173.427C292.1 172.227 294.4 170.427 294.4 167.327C294.4 163.927 292 159.827 289.1 158.127Z" fill="white"/>
<path d="M324.401 133.027L323.701 132.327C329.101 127.427 331.901 119.427 331.901 109.327C331.901 84.0272 313.901 53.0272 291.801 40.2272L292.301 39.3272C314.701 52.2272 332.901 83.6272 332.901 109.227C332.901 119.727 330.001 127.927 324.401 133.027Z" fill="#EB4680"/>
<path d="M340.201 115.927C339.901 115.927 339.701 115.727 339.701 115.427C339.701 115.127 339.701 114.727 339.701 114.427C339.701 114.127 339.901 113.927 340.201 113.927C340.501 113.927 340.701 114.127 340.701 114.427C340.701 114.727 340.701 115.127 340.701 115.427C340.701 115.727 340.501 115.927 340.201 115.927Z" fill="#A8CFF0"/>
<path d="M312.701 150.527C312.401 150.527 312.201 150.327 312.201 150.027C312.201 149.727 312.401 149.527 312.701 149.527C313.401 149.527 314.001 149.527 314.701 149.427C315.001 149.427 315.201 149.627 315.201 149.927C315.201 150.227 315.001 150.427 314.701 150.427C314.101 150.527 313.401 150.527 312.701 150.527ZM309.701 150.427C309.001 150.327 308.301 150.327 307.701 150.227C307.401 150.227 307.201 149.927 307.301 149.627C307.301 149.327 307.601 149.127 307.901 149.227C308.601 149.327 309.201 149.427 309.801 149.427C310.101 149.427 310.301 149.727 310.301 149.927C310.201 150.227 310.001 150.427 309.701 150.427ZM317.601 150.127C317.401 150.127 317.201 149.927 317.101 149.727C317.101 149.427 317.201 149.227 317.501 149.127C318.101 149.027 318.801 148.827 319.401 148.727C319.701 148.627 319.901 148.827 320.001 149.127C320.101 149.427 319.901 149.627 319.601 149.727C319.101 149.827 318.401 150.027 317.601 150.127C317.701 150.127 317.701 150.127 317.601 150.127ZM322.401 148.727C322.201 148.727 322.001 148.627 321.901 148.427C321.801 148.127 321.901 147.927 322.201 147.827C322.801 147.627 323.401 147.327 324.001 147.027C324.201 146.927 324.501 147.027 324.701 147.227C324.801 147.427 324.701 147.727 324.501 147.927C323.901 148.227 323.301 148.527 322.701 148.727C322.501 148.727 322.501 148.727 322.401 148.727ZM326.801 146.427C326.601 146.427 326.501 146.327 326.401 146.227C326.201 146.027 326.301 145.727 326.501 145.527C327.001 145.127 327.601 144.827 328.101 144.427C328.301 144.227 328.601 144.327 328.801 144.527C329.001 144.727 328.901 145.027 328.701 145.227C328.201 145.627 327.601 146.027 327.101 146.427C327.001 146.427 326.901 146.427 326.801 146.427ZM330.601 143.327C330.501 143.327 330.301 143.327 330.201 143.227C330.001 143.027 330.001 142.727 330.201 142.527C330.701 142.027 331.101 141.627 331.501 141.127C331.701 140.927 332.001 140.927 332.201 141.027C332.401 141.227 332.401 141.527 332.301 141.727C331.901 142.227 331.401 142.727 330.901 143.227C330.901 143.327 330.801 143.327 330.601 143.327ZM333.801 139.527C333.701 139.527 333.601 139.527 333.501 139.427C333.301 139.227 333.201 138.927 333.401 138.727C333.801 138.227 334.101 137.627 334.401 137.127C334.501 136.927 334.801 136.827 335.101 136.927C335.301 137.027 335.401 137.327 335.301 137.627C335.001 138.227 334.601 138.727 334.201 139.327C334.101 139.427 334.001 139.527 333.801 139.527ZM336.201 135.227C336.101 135.227 336.101 135.227 336.001 135.227C335.801 135.127 335.601 134.827 335.801 134.527C336.101 133.927 336.301 133.327 336.601 132.727C336.701 132.427 337.001 132.327 337.301 132.427C337.601 132.527 337.701 132.827 337.601 133.127C337.301 133.727 337.101 134.327 336.801 134.927C336.601 135.127 336.401 135.227 336.201 135.227ZM338.001 130.627C338.001 130.627 337.901 130.627 337.801 130.627C337.501 130.527 337.401 130.227 337.501 130.027C337.701 129.427 337.901 128.827 338.001 128.127C338.101 127.827 338.301 127.727 338.601 127.727C338.901 127.827 339.001 128.027 339.001 128.327C338.801 129.027 338.601 129.627 338.401 130.227C338.501 130.427 338.301 130.627 338.001 130.627ZM339.301 125.827C339.201 125.827 339.201 125.827 339.301 125.827C338.901 125.727 338.801 125.527 338.801 125.227C338.901 124.627 339.001 123.927 339.101 123.327C339.101 123.027 339.401 122.827 339.701 122.927C340.001 122.927 340.201 123.227 340.101 123.527C340.001 124.227 339.901 124.827 339.801 125.527C339.701 125.627 339.501 125.827 339.301 125.827ZM340.001 120.827C339.901 120.827 339.901 120.827 340.001 120.827C339.701 120.827 339.501 120.527 339.501 120.327C339.601 119.727 339.601 119.027 339.701 118.327C339.701 118.027 339.901 117.827 340.201 117.827C340.501 117.827 340.701 118.127 340.701 118.327C340.701 119.027 340.601 119.627 340.501 120.327C340.401 120.727 340.201 120.827 340.001 120.827Z" fill="#A8CFF0"/>
<path d="M304.801 149.727H304.701C304.401 149.627 304.001 149.627 303.701 149.527C303.401 149.427 303.301 149.227 303.301 148.927C303.401 148.627 303.601 148.527 303.901 148.527C304.201 148.627 304.501 148.727 304.901 148.727C305.201 148.827 305.301 149.027 305.301 149.327C305.201 149.527 305.001 149.727 304.801 149.727Z" fill="#A8CFF0"/>
<path d="M240.8 70.5272C240.6 70.5272 240.4 70.3272 240.3 70.1272C240.2 69.8272 240.2 69.4272 240.1 69.1272C240.1 68.8272 240.2 68.6272 240.5 68.5272C240.8 68.5272 241 68.6272 241.1 68.9272C241.2 69.2272 241.2 69.6272 241.3 69.9272C241.3 70.2272 241.1 70.5272 240.8 70.5272Z" fill="#A8CFF0"/>
<path d="M332.9 80.7272C332.7 80.7272 332.5 80.6272 332.4 80.4272C332.1 79.8272 331.9 79.2272 331.6 78.5272C331.5 78.2272 331.6 78.0272 331.9 77.8272C332.2 77.7272 332.4 77.8272 332.6 78.1272C332.9 78.7272 333.1 79.4272 333.4 80.0272C333.5 80.3272 333.4 80.5272 333.1 80.7272C333.1 80.7272 333 80.7272 332.9 80.7272ZM330.9 76.0272C330.7 76.0272 330.5 75.9272 330.4 75.7272C330.1 75.1272 329.8 74.5272 329.5 73.9272C329.4 73.7272 329.5 73.4272 329.7 73.2272C329.9 73.1272 330.2 73.2272 330.4 73.4272C330.7 74.0272 331 74.6272 331.3 75.2272C331.4 75.5272 331.3 75.7272 331.1 75.9272C331.1 76.0272 331 76.0272 330.9 76.0272ZM328.7 71.5272C328.5 71.5272 328.3 71.4272 328.3 71.2272C328 70.6272 327.7 70.0272 327.4 69.4272C327.3 69.2272 327.4 68.9272 327.6 68.7272C327.8 68.6272 328.1 68.7272 328.3 68.9272C328.6 69.5272 328.9 70.1272 329.2 70.7272C329.3 70.9272 329.2 71.2272 329 71.4272C328.9 71.4272 328.8 71.5272 328.7 71.5272ZM326.3 67.0272C326.1 67.0272 326 66.9272 325.9 66.7272C325.6 66.1272 325.2 65.5272 324.9 64.9272C324.8 64.7272 324.8 64.4272 325.1 64.2272C325.3 64.1272 325.6 64.1272 325.8 64.4272C326.1 65.0272 326.5 65.6272 326.8 66.2272C326.9 66.4272 326.8 66.7272 326.6 66.9272C326.5 67.0272 326.4 67.0272 326.3 67.0272ZM240.1 66.5272C239.9 66.5272 239.6 66.3272 239.6 66.1272C239.5 65.4272 239.4 64.7272 239.4 64.1272C239.4 63.8272 239.6 63.6272 239.8 63.5272C240.1 63.5272 240.3 63.7272 240.4 63.9272C240.5 64.6272 240.6 65.2272 240.6 65.9272C240.7 66.2272 240.5 66.5272 240.1 66.5272ZM323.8 62.6272C323.6 62.6272 323.5 62.5272 323.4 62.4272C323 61.8272 322.7 61.3272 322.3 60.7272C322.2 60.5272 322.2 60.2272 322.5 60.0272C322.7 59.9272 323 59.9272 323.2 60.2272C323.6 60.8272 323.9 61.3272 324.3 61.9272C324.4 62.1272 324.4 62.4272 324.1 62.6272C324 62.6272 323.9 62.6272 323.8 62.6272ZM239.6 61.5272C239.3 61.5272 239.1 61.3272 239.1 61.0272C239.1 60.3272 239 59.6272 239 59.0272C239 58.7272 239.2 58.5272 239.5 58.5272C239.8 58.5272 240 58.7272 240 59.0272C240 59.7272 240.1 60.3272 240.1 61.0272C240.1 61.2272 239.9 61.5272 239.6 61.5272ZM321 58.4272C320.8 58.4272 320.7 58.3272 320.6 58.2272C320.2 57.6272 319.8 57.1272 319.5 56.5272C319.3 56.3272 319.4 56.0272 319.6 55.8272C319.8 55.6272 320.1 55.7272 320.3 55.9272C320.7 56.5272 321.1 57.0272 321.4 57.6272C321.6 57.8272 321.5 58.1272 321.3 58.3272C321.2 58.3272 321.1 58.4272 321 58.4272ZM239.5 56.4272C239.2 56.4272 239 56.2272 239 55.9272C239 55.2272 239 54.5272 239 53.9272C239 53.6272 239.2 53.4272 239.5 53.4272C239.8 53.4272 240 53.6272 240 53.9272C240 54.6272 240 55.2272 240 55.9272C240 56.2272 239.7 56.4272 239.5 56.4272ZM318.1 54.2272C317.9 54.2272 317.8 54.1272 317.7 54.0272C317.3 53.5272 316.9 52.9272 316.5 52.4272C316.3 52.2272 316.4 51.9272 316.6 51.7272C316.8 51.5272 317.1 51.6272 317.3 51.8272C317.7 52.3272 318.1 52.9272 318.5 53.4272C318.7 53.6272 318.6 53.9272 318.4 54.1272C318.3 54.2272 318.2 54.2272 318.1 54.2272ZM239.7 51.4272C239.4 51.4272 239.2 51.1272 239.2 50.9272C239.3 50.2272 239.3 49.5272 239.4 48.9272C239.4 48.6272 239.7 48.4272 240 48.5272C240.3 48.5272 240.5 48.8272 240.4 49.1272C240.3 49.8272 240.3 50.4272 240.2 51.1272C240.2 51.2272 239.9 51.4272 239.7 51.4272ZM315 50.2272C314.9 50.2272 314.7 50.1272 314.6 50.0272C314.2 49.5272 313.8 49.0272 313.3 48.4272C313.1 48.2272 313.2 47.9272 313.4 47.7272C313.6 47.5272 313.9 47.6272 314.1 47.8272C314.5 48.3272 315 48.8272 315.4 49.4272C315.6 49.6272 315.5 49.9272 315.3 50.1272C315.2 50.2272 315.1 50.2272 315 50.2272ZM311.8 46.4272C311.7 46.4272 311.5 46.3272 311.4 46.2272C311 45.7272 310.5 45.2272 310.1 44.7272C309.9 44.5272 309.9 44.2272 310.1 44.0272C310.3 43.8272 310.6 43.8272 310.8 44.0272C311.3 44.5272 311.7 45.0272 312.2 45.5272C312.4 45.7272 312.4 46.0272 312.2 46.2272C312 46.3272 311.9 46.4272 311.8 46.4272ZM240.3 46.4272C239.9 46.3272 239.8 46.1272 239.8 45.8272C239.9 45.1272 240.1 44.5272 240.2 43.8272C240.3 43.5272 240.5 43.4272 240.8 43.4272C241.1 43.5272 241.2 43.7272 241.2 44.0272C241.1 44.6272 240.9 45.3272 240.8 46.0272C240.8 46.2272 240.6 46.4272 240.3 46.4272ZM308.3 42.7272C308.2 42.7272 308 42.6272 307.9 42.5272C307.4 42.0272 307 41.5272 306.5 41.1272C306.3 40.9272 306.3 40.6272 306.5 40.4272C306.7 40.2272 307 40.2272 307.2 40.4272C307.7 40.9272 308.2 41.4272 308.6 41.8272C308.8 42.0272 308.8 42.3272 308.6 42.5272C308.6 42.6272 308.5 42.7272 308.3 42.7272ZM241.5 41.4272H241.4C241.1 41.3272 241 41.0272 241.1 40.8272C241.3 40.1272 241.5 39.5272 241.7 38.9272C241.8 38.6272 242.1 38.5272 242.3 38.6272C242.6 38.7272 242.7 39.0272 242.6 39.2272C242.4 39.8272 242.2 40.5272 242 41.1272C241.9 41.3272 241.7 41.4272 241.5 41.4272ZM304.7 39.1272C304.6 39.1272 304.5 39.1272 304.4 39.0272C303.9 38.5272 303.4 38.1272 302.9 37.6272C302.7 37.4272 302.7 37.1272 302.9 36.9272C303.1 36.7272 303.4 36.7272 303.6 36.9272C304.1 37.4272 304.6 37.8272 305.1 38.3272C305.3 38.5272 305.3 38.8272 305.1 39.0272C305 39.1272 304.8 39.1272 304.7 39.1272ZM243.3 36.7272C243.2 36.7272 243.2 36.7272 243.1 36.7272C242.8 36.6272 242.7 36.3272 242.9 36.0272C243.2 35.4272 243.5 34.8272 243.8 34.2272C243.9 34.0272 244.2 33.9272 244.5 34.0272C244.7 34.1272 244.8 34.4272 244.7 34.7272C244.4 35.3272 244.1 35.9272 243.8 36.5272C243.7 36.6272 243.5 36.7272 243.3 36.7272ZM300.9 35.8272C300.8 35.8272 300.7 35.8272 300.6 35.7272C300.1 35.3272 299.6 34.8272 299 34.4272C298.8 34.2272 298.7 33.9272 298.9 33.7272C299.1 33.5272 299.4 33.4272 299.6 33.6272C300.1 34.0272 300.7 34.5272 301.2 34.9272C301.4 35.1272 301.4 35.4272 301.3 35.6272C301.2 35.7272 301.1 35.8272 300.9 35.8272ZM296.9 32.6272C296.8 32.6272 296.7 32.6272 296.6 32.5272C296.1 32.1272 295.5 31.7272 295 31.3272C294.8 31.1272 294.7 30.8272 294.9 30.6272C295.1 30.4272 295.4 30.3272 295.6 30.5272C296.2 30.9272 296.7 31.3272 297.3 31.7272C297.5 31.9272 297.6 32.2272 297.4 32.4272C297.2 32.6272 297.1 32.6272 296.9 32.6272ZM245.8 32.3272C245.7 32.3272 245.6 32.3272 245.5 32.2272C245.3 32.0272 245.2 31.7272 245.4 31.5272C245.8 30.9272 246.2 30.4272 246.6 29.8272C246.8 29.6272 247.1 29.5272 247.3 29.7272C247.5 29.9272 247.6 30.2272 247.4 30.4272C247 30.9272 246.6 31.5272 246.2 32.0272C246.1 32.2272 245.9 32.3272 245.8 32.3272ZM292.8 29.8272C292.7 29.8272 292.6 29.8272 292.5 29.7272C291.9 29.3272 291.4 29.0272 290.8 28.6272C290.6 28.5272 290.5 28.1272 290.6 27.9272C290.7 27.7272 291.1 27.6272 291.3 27.7272C291.9 28.0272 292.5 28.4272 293 28.8272C293.2 28.9272 293.3 29.3272 293.2 29.5272C293.1 29.7272 292.9 29.8272 292.8 29.8272ZM249 28.4272C248.9 28.4272 248.7 28.4272 248.6 28.3272C248.4 28.1272 248.4 27.8272 248.6 27.6272C249.1 27.1272 249.6 26.6272 250.1 26.2272C250.3 26.0272 250.6 26.0272 250.8 26.3272C251 26.5272 251 26.8272 250.7 27.0272C250.2 27.4272 249.7 27.9272 249.3 28.4272C249.2 28.3272 249.1 28.4272 249 28.4272ZM288.4 27.2272C288.3 27.2272 288.2 27.2272 288.2 27.1272C287.6 26.8272 287 26.5272 286.4 26.2272C286.2 26.1272 286.1 25.8272 286.2 25.5272C286.3 25.3272 286.6 25.2272 286.9 25.3272C287.5 25.6272 288.1 25.9272 288.7 26.2272C288.9 26.3272 289 26.6272 288.9 26.9272C288.8 27.1272 288.6 27.2272 288.4 27.2272ZM252.9 25.2272C252.7 25.2272 252.6 25.1272 252.5 25.0272C252.3 24.8272 252.4 24.5272 252.6 24.3272C253.2 23.9272 253.8 23.6272 254.4 23.2272C254.6 23.1272 254.9 23.2272 255.1 23.4272C255.2 23.6272 255.1 23.9272 254.9 24.1272C254.3 24.4272 253.8 24.8272 253.2 25.1272C253.1 25.1272 253 25.2272 252.9 25.2272ZM283.9 24.9272C283.8 24.9272 283.8 24.9272 283.7 24.9272C283.1 24.6272 282.5 24.4272 281.9 24.1272C281.6 24.0272 281.5 23.7272 281.6 23.5272C281.7 23.2272 282 23.1272 282.3 23.2272C282.9 23.4272 283.6 23.7272 284.2 24.0272C284.5 24.1272 284.6 24.4272 284.5 24.7272C284.3 24.8272 284.1 24.9272 283.9 24.9272ZM279.2 23.1272C279.1 23.1272 279.1 23.1272 279 23.1272C278.4 22.9272 277.7 22.7272 277.1 22.5272C276.8 22.4272 276.7 22.1272 276.8 21.9272C276.9 21.6272 277.1 21.5272 277.4 21.6272C278 21.8272 278.7 22.0272 279.4 22.2272C279.7 22.3272 279.8 22.6272 279.7 22.8272C279.6 23.0272 279.4 23.1272 279.2 23.1272ZM257.3 22.8272C257.1 22.8272 256.9 22.7272 256.8 22.5272C256.7 22.2272 256.8 22.0272 257.1 21.9272C257.7 21.7272 258.4 21.4272 259.1 21.2272C259.4 21.1272 259.6 21.3272 259.7 21.5272C259.8 21.8272 259.6 22.0272 259.4 22.1272C258.8 22.3272 258.1 22.5272 257.5 22.7272C257.5 22.8272 257.4 22.8272 257.3 22.8272ZM274.3 21.8272H274.2C273.5 21.7272 272.9 21.5272 272.2 21.5272C271.9 21.5272 271.7 21.2272 271.8 20.9272C271.8 20.6272 272.1 20.4272 272.4 20.5272C273.1 20.6272 273.7 20.7272 274.4 20.9272C274.7 21.0272 274.8 21.2272 274.8 21.5272C274.7 21.6272 274.5 21.8272 274.3 21.8272ZM262.2 21.5272C262 21.5272 261.8 21.3272 261.7 21.1272C261.7 20.8272 261.8 20.6272 262.1 20.5272C262.8 20.4272 263.5 20.3272 264.1 20.2272C264.4 20.2272 264.6 20.4272 264.6 20.6272C264.6 20.9272 264.4 21.1272 264.2 21.1272C263.6 21.3272 262.9 21.4272 262.2 21.5272ZM269.3 21.1272C268.6 21.1272 267.9 21.0272 267.3 21.0272C267 21.0272 266.8 20.8272 266.8 20.5272C266.8 20.2272 267 20.0272 267.3 20.0272C268 20.0272 268.7 20.0272 269.4 20.1272C269.7 20.1272 269.9 20.4272 269.9 20.6272C269.7 20.9272 269.5 21.1272 269.3 21.1272Z" fill="#A8CFF0"/>
<path d="M334.4 84.5272C334.2 84.5272 334 84.4272 333.9 84.2272L333.6 83.3272C333.5 83.0272 333.6 82.8272 333.9 82.7272C334.2 82.6272 334.4 82.7272 334.5 83.0272L334.8 83.9272C334.9 84.2272 334.8 84.4272 334.5 84.5272C334.5 84.5272 334.5 84.5272 334.4 84.5272Z" fill="#A8CFF0"/>
<path d="M316.301 159.127C316.101 159.127 315.901 159.027 315.801 158.827C315.701 158.527 315.601 158.227 315.401 157.927C315.301 157.627 315.401 157.427 315.701 157.227C316.001 157.127 316.201 157.227 316.401 157.527C316.501 157.827 316.701 158.127 316.801 158.427C316.901 158.727 316.801 158.927 316.501 159.127C316.401 159.127 316.301 159.127 316.301 159.127Z" fill="#EB4680"/>
<path d="M302.5 205.627C301.8 205.627 301.2 205.627 300.5 205.527C300.2 205.527 300 205.227 300 205.027C300 204.727 300.3 204.527 300.5 204.527C301.1 204.627 301.8 204.627 302.4 204.627C302.7 204.627 302.9 204.827 302.9 205.127C303 205.427 302.8 205.627 302.5 205.627ZM305.4 205.427C305.2 205.427 304.9 205.227 304.9 205.027C304.9 204.727 305 204.527 305.3 204.427C305.9 204.327 306.6 204.227 307.2 204.027C307.5 203.927 307.7 204.127 307.8 204.427C307.9 204.727 307.7 204.927 307.4 205.027C306.9 205.227 306.2 205.327 305.4 205.427C305.5 205.427 305.5 205.427 305.4 205.427ZM297.6 205.127H297.5C296.9 205.027 296.2 204.827 295.5 204.627C295.2 204.527 295.1 204.227 295.2 204.027C295.3 203.727 295.6 203.627 295.8 203.727C296.4 203.927 297.1 204.027 297.7 204.227C298 204.327 298.1 204.527 298.1 204.827C298 204.927 297.8 205.127 297.6 205.127ZM310.2 204.027C310 204.027 309.8 203.927 309.7 203.727C309.6 203.527 309.7 203.227 309.9 203.027C310.5 202.727 311 202.427 311.6 202.127C311.8 202.027 312.1 202.027 312.3 202.327C312.4 202.527 312.4 202.827 312.1 203.027C311.5 203.427 310.9 203.727 310.3 204.027H310.2ZM292.8 203.627C292.7 203.627 292.7 203.627 292.6 203.627C292 203.427 291.4 203.127 290.8 202.827C290.5 202.727 290.4 202.427 290.6 202.127C290.7 201.827 291 201.727 291.3 201.927C291.9 202.227 292.5 202.427 293.1 202.727C293.4 202.827 293.5 203.127 293.4 203.327C293.2 203.527 293 203.627 292.8 203.627ZM314.2 201.327C314.1 201.327 313.9 201.227 313.8 201.127C313.6 200.927 313.6 200.627 313.8 200.427C314.3 200.027 314.7 199.527 315.1 199.027C315.3 198.827 315.6 198.827 315.8 198.927C316 199.127 316 199.427 315.9 199.627C315.5 200.127 315 200.627 314.5 201.127C314.5 201.227 314.4 201.327 314.2 201.327ZM317.4 197.427C317.3 197.427 317.2 197.427 317.1 197.327C316.9 197.227 316.8 196.827 316.9 196.627C317.2 196.127 317.5 195.527 317.8 194.927C317.9 194.727 318.2 194.627 318.5 194.727C318.7 194.827 318.9 195.127 318.7 195.427C318.4 196.027 318.1 196.627 317.7 197.227C317.7 197.327 317.5 197.427 317.4 197.427ZM319.4 192.927C319.3 192.927 319.3 192.927 319.2 192.927C318.9 192.827 318.8 192.527 318.9 192.327C319.1 191.727 319.3 191.127 319.5 190.427C319.6 190.127 319.8 190.027 320.1 190.027C320.4 190.127 320.5 190.327 320.5 190.627C320.3 191.327 320.1 191.927 319.9 192.527C319.8 192.827 319.6 192.927 319.4 192.927ZM320.6 188.127C320.2 188.027 320.1 187.827 320.1 187.527C320.2 186.927 320.3 186.227 320.4 185.627C320.4 185.327 320.7 185.127 320.9 185.227C321.2 185.227 321.4 185.527 321.3 185.727C321.2 186.427 321.1 187.027 321 187.727C321.1 188.027 320.9 188.127 320.6 188.127ZM321.1 183.227C320.8 183.227 320.6 183.027 320.6 182.727C320.6 182.327 320.6 181.827 320.6 181.327V180.727C320.6 180.427 320.8 180.227 321.1 180.227C321.4 180.227 321.6 180.427 321.6 180.727V181.327C321.6 181.827 321.6 182.227 321.6 182.727C321.6 183.027 321.4 183.227 321.1 183.227ZM321 178.327C320.7 178.327 320.5 178.127 320.5 177.827C320.5 177.227 320.4 176.527 320.3 175.827C320.3 175.527 320.5 175.327 320.7 175.227C321 175.227 321.2 175.427 321.3 175.627C321.4 176.327 321.4 176.927 321.5 177.627C321.5 178.027 321.3 178.227 321 178.327ZM320.4 173.427C320.2 173.427 319.9 173.227 319.9 173.027C319.8 172.427 319.7 171.727 319.5 171.127C319.4 170.827 319.6 170.627 319.9 170.527C320.2 170.427 320.4 170.627 320.5 170.927C320.6 171.627 320.8 172.227 320.9 172.927C320.9 173.027 320.7 173.327 320.4 173.427ZM319.4 168.527C319.2 168.527 319 168.327 318.9 168.127C318.7 167.527 318.6 166.827 318.4 166.227C318.3 165.927 318.5 165.727 318.7 165.627C319 165.527 319.2 165.727 319.3 165.927C319.5 166.527 319.7 167.227 319.8 167.827C319.9 168.127 319.7 168.327 319.4 168.427C319.4 168.527 319.4 168.527 319.4 168.527ZM318 163.727C317.8 163.727 317.6 163.627 317.5 163.427C317.3 162.827 317.1 162.227 316.9 161.527C316.8 161.227 316.9 161.027 317.2 160.927C317.5 160.827 317.7 160.927 317.8 161.227C318 161.827 318.2 162.527 318.4 163.127C318.5 163.427 318.3 163.627 318.1 163.727H318Z" fill="#EB4680"/>
<path d="M288.3 201.527C288.2 201.527 288.1 201.527 288.1 201.427C287.8 201.227 287.5 201.127 287.2 200.927C287 200.827 286.9 200.527 287 200.227C287.1 200.027 287.4 199.927 287.7 200.027C288 200.227 288.3 200.327 288.6 200.527C288.8 200.627 288.9 200.927 288.8 201.227C288.7 201.427 288.5 201.527 288.3 201.527Z" fill="#EB4680"/>
<path d="M315.1 159.627C314.8 159.627 314.6 159.327 314.6 159.127L314.8 156.427C314.8 156.227 314.9 156.127 315.1 156.027C315.3 155.927 315.5 155.927 315.6 156.127L317.8 157.827C318 158.027 318.1 158.327 317.9 158.527C317.7 158.727 317.4 158.827 317.2 158.627L315.7 157.527L315.6 159.227C315.6 159.427 315.4 159.627 315.1 159.627Z" fill="#EB4680"/>
<path d="M133.6 71.0272C133.6 67.7272 129 65.0272 123.3 65.0272C117.6 65.0272 113 67.6272 113 70.9272C113 73.9272 116.9 76.4272 121.9 76.8272V78.5272C120.9 78.6272 120.2 79.1272 120.3 79.7272V85.4272C120.3 86.1272 121.3 86.7272 122.5 86.7272H124.2C125.4 86.7272 126.4 86.1272 126.4 85.4272V79.7272C126.4 79.1272 125.7 78.6272 124.7 78.5272V76.8272C129.8 76.4272 133.6 74.0272 133.6 71.0272Z" fill="white"/>
<path d="M258.3 303.427L79.5 200.127C72.6 196.127 67 185.427 67 176.227V13.5272C67 4.32721 72.6 0.0272062 79.5 4.02721L258.3 107.327C265.2 111.327 270.8 122.027 270.8 131.227V293.827C270.8 303.127 265.2 307.427 258.3 303.427Z" fill="#D1EBFF"/>
<path d="M263.199 104.827L84.3992 1.52719C81.6992 -0.0728056 79.0992 -0.372806 77.0992 0.427194C76.7992 0.527194 71.8992 3.02719 71.6992 3.22719C73.7992 2.22719 76.4992 2.42719 79.4992 4.12719L258.299 107.427C265.199 111.427 270.799 122.127 270.799 131.327V293.927C270.799 299.727 268.599 303.527 265.299 304.627C265.599 304.627 265.899 304.527 266.399 304.227C266.599 304.127 271.799 301.327 271.899 301.227C274.299 299.527 275.799 296.127 275.799 291.427V128.727C275.699 119.527 270.099 108.827 263.199 104.827Z" fill="#3F92D1"/>
<path d="M261.799 105.427L82.9992 2.22719C80.2992 0.627191 77.6992 0.327191 75.6992 1.12719C75.3992 1.22719 71.8992 3.12719 71.6992 3.22719C73.7992 2.22719 76.4992 2.42719 79.4992 4.12719L258.299 107.427L261.799 105.427Z" fill="#4F9FDB"/>
<path d="M258.9 107.027L80.0996 3.82721C77.2996 2.22721 74.6996 1.92721 72.5996 2.82721C74.3996 2.52721 76.4996 2.92721 78.5996 4.22721L257.4 107.527C264.3 111.527 269.9 122.227 269.9 131.427V294.027C269.9 299.427 267.9 303.127 264.9 304.427C268.8 303.827 271.4 299.827 271.4 293.527V131.027C271.4 121.827 265.8 111.027 258.9 107.027Z" fill="white"/>
<path d="M74 28.0272V176.227C74 183.427 77.4 190.527 83 194.127L259.9 296.327C260 296.327 260.1 296.427 260.2 296.527C261.8 297.427 263.8 296.327 263.8 294.427V137.627L74 28.0272Z" fill="#03336E"/>
<path d="M263.5 295.027C263.4 294.927 263.3 294.927 263.2 294.827L86.3 192.727C80.7 189.227 77.3 182.127 77.3 174.827V29.9272L74 28.0272V176.227C74 183.427 77.4 190.527 83 194.127L259.9 296.327C260 296.327 260.1 296.427 260.2 296.527C261.6 297.327 263.2 296.627 263.6 295.227C263.6 295.027 263.5 295.027 263.5 295.027Z" fill="#001A46"/>
<path d="M253.801 119.827C253.801 122.027 255.301 124.627 257.201 125.727C259.101 126.827 260.601 125.927 260.601 123.727C260.601 121.527 259.101 118.927 257.201 117.827C255.301 116.827 253.801 117.627 253.801 119.827Z" fill="#FFCC00"/>
<path d="M244.9 114.727C244.9 116.927 246.4 119.527 248.3 120.627C250.2 121.727 251.7 120.827 251.7 118.627C251.7 116.427 250.2 113.827 248.3 112.727C246.4 111.627 244.9 112.527 244.9 114.727Z" fill="#EB4680"/>
<path d="M236 109.527C236 111.727 237.5 114.327 239.4 115.427C241.3 116.527 242.8 115.627 242.8 113.427C242.8 111.227 241.3 108.627 239.4 107.527C237.5 106.427 236 107.327 236 109.527Z" fill="#0FBAB8"/>
<path d="M190.599 104.527L177.599 97.0272C176.299 96.2272 175.199 96.8272 175.199 98.4272C175.199 99.9272 176.299 101.727 177.599 102.527L190.599 110.027C191.899 110.827 192.999 110.227 192.999 108.627C192.999 107.127 191.999 105.327 190.599 104.527ZM211.999 116.927L198.999 109.427C197.699 108.627 196.599 109.227 196.599 110.827C196.599 112.327 197.699 114.127 198.999 114.927L211.999 122.427C213.299 123.227 214.399 122.627 214.399 121.027C214.399 119.527 213.299 117.627 211.999 116.927ZM233.399 129.227L220.399 121.727C219.099 120.927 217.999 121.527 217.999 123.127C217.999 124.627 219.099 126.427 220.399 127.227L233.399 134.727C234.699 135.527 235.799 134.927 235.799 133.327C235.699 131.827 234.699 130.027 233.399 129.227ZM254.699 141.527L241.699 134.027C240.399 133.227 239.299 133.827 239.299 135.427C239.299 136.927 240.399 138.727 241.699 139.527L254.699 147.027C255.999 147.827 257.099 147.227 257.099 145.627C257.099 144.127 255.999 142.327 254.699 141.527Z" fill="#72B5E8"/>
<path d="M139.201 115.327V171.127L145.301 167.527V111.527L139.201 115.327Z" fill="#2672AB"/>
<path d="M139.2 115.327V171.127L17.4004 101.227V45.2272L139.2 115.327Z" fill="#3F92D1"/>
<path d="M17.4004 45.2272L139.2 115.327L145.3 111.527L23.4004 41.6272L17.4004 45.2272Z" fill="#72B5E8"/>
<path opacity="0.7" d="M17.4004 45.2272L139.2 115.327L145.3 111.527L139.2 114.427L17.4004 45.2272Z" fill="white"/>
<path d="M121.4 150.827V148.527L82.9004 126.627V129.027L121.4 150.827Z" fill="white"/>
<path d="M66.3008 82.5272V84.9272L130.901 121.927V119.527L66.3008 82.5272Z" fill="white"/>
<path d="M89.0008 115.427L66.3008 102.227V104.627L89.0008 117.727V115.427Z" fill="white"/>
<path d="M104.4 134.127V136.527L113.8 141.627V139.227L104.4 134.127Z" fill="white"/>
<path d="M103.001 113.627L66.3008 92.4272V94.7272L103.001 115.927V113.627Z" fill="white"/>
<path d="M79.7008 105.127L66.3008 97.3272V99.7272L79.7008 107.427V105.127Z" fill="white"/>
<path d="M76.3008 120.227L102.101 135.127V132.727L76.3008 117.927V120.227Z" fill="white"/>
<path d="M82 106.427V108.827L118.3 129.327V127.027L82 106.427Z" fill="white"/>
<path d="M91.4004 116.727V119.127L109.5 129.527V127.227L91.4004 116.727Z" fill="white"/>
<path d="M74.0008 116.527L66.3008 112.127V114.427L74.0008 118.927V116.527Z" fill="white"/>
<path d="M105.301 117.327L130.901 131.727V129.327L105.301 114.927V117.327Z" fill="white"/>
<path d="M120.602 130.727L130.902 136.627V134.327L120.602 128.327V130.727Z" fill="white"/>
<path d="M66.3008 89.8272L130.901 126.827V124.427L66.3008 87.4272V89.8272Z" fill="white"/>
<path d="M111.801 130.927L130.901 141.627V139.227L111.801 128.527V130.927Z" fill="white"/>
<path d="M80.6008 125.327L66.3008 117.027V119.427L80.6008 127.627V125.327Z" fill="white"/>
<path d="M123.701 152.227L130.901 156.327V154.027L123.701 149.827V152.227Z" fill="white"/>
<path d="M116.102 142.927L130.902 151.427V149.027L116.102 140.527V142.927Z" fill="white"/>
<path d="M66.3008 109.527L130.901 146.527V144.127L66.3008 107.127V109.527Z" fill="white"/>
<path d="M52.8008 73.1272L31.5008 60.9272C27.8008 58.8272 24.8008 61.0272 24.8008 66.0272V90.6272C24.8008 95.6272 27.8008 101.327 31.5008 103.427L52.7008 115.727C56.4008 117.827 59.4008 115.627 59.4008 110.627V86.0272C59.5008 81.0272 56.5008 75.3272 52.8008 73.1272Z" fill="#2672AB"/>
<path d="M55.4008 113.727L34.2008 101.427C30.5008 99.3272 27.5008 93.5272 27.5008 88.6272V63.9272C27.5008 62.3272 27.8008 61.0272 28.3008 60.1272C26.2008 60.4272 24.8008 62.6272 24.8008 65.9272V90.5272C24.8008 95.5272 27.8008 101.227 31.5008 103.327L52.7008 115.627C55.2008 117.127 57.4008 116.527 58.6008 114.427C57.7008 114.627 56.6008 114.427 55.4008 113.727Z" fill="#084C94"/>
<path d="M36.3008 80.0272L15.0008 67.7272C11.3008 65.6272 8.30078 67.8272 8.30078 72.8272V97.4272C8.30078 102.427 11.3008 108.127 15.0008 110.227L36.2008 122.527C39.9008 124.627 42.9008 122.427 42.9008 117.427V92.9272C43.0008 87.9272 40.0008 82.2272 36.3008 80.0272Z" fill="#0FBAB8"/>
<path d="M39.7016 78.0272L18.5016 65.7272C16.9016 64.8272 15.5016 64.7272 14.3016 65.2272L10.6016 67.4272C11.8016 66.7272 13.3016 66.7272 15.0016 67.7272L36.3016 80.0272C40.0016 82.2272 43.0016 87.9272 43.0016 92.9272V117.527C43.0016 119.927 42.3016 121.727 41.1016 122.627L43.1016 121.327C44.8016 120.327 46.4016 118.827 46.4016 115.527V90.8272C46.5016 85.9272 43.4016 80.1272 39.7016 78.0272Z" fill="#0BA19F"/>
<path opacity="0.7" d="M36.6012 79.7272L15.4012 67.4272C13.6012 66.3272 11.9012 66.4272 10.7012 67.3272C11.8012 66.9272 13.2012 67.0272 14.6012 67.9272L35.8012 80.2272C39.5012 82.3272 42.5012 88.1272 42.5012 93.0272V117.627C42.5012 120.127 41.7012 121.927 40.5012 122.827C42.2012 122.227 43.3012 120.127 43.3012 117.127V92.6272C43.4012 87.6272 40.4012 81.9272 36.6012 79.7272Z" fill="white"/>
<path d="M13.9004 74.5272V102.627L37.0004 116.027V87.8272L13.9004 74.5272ZM35.5004 113.427L15.4004 101.827V77.1272L35.5004 88.7272V113.427Z" fill="white"/>
<path d="M31.9016 92.8272C31.9016 94.6272 30.6016 95.4272 29.0016 94.5272C27.4016 93.6272 26.1016 91.3272 26.1016 89.5272C26.1016 87.7272 27.4016 86.9272 29.0016 87.8272C30.6016 88.7272 31.9016 91.0272 31.9016 92.8272Z" fill="white"/>
<path d="M14.7012 95.2272L20.7012 87.4272L26.8012 102.827L31.2012 99.2272L36.1012 112.527L36.0012 113.927L14.8012 102.527L14.7012 95.2272Z" fill="white"/>
<path d="M295.799 96.2272C295.799 100.027 294.499 102.727 292.299 104.027C292.199 104.027 288.599 106.327 288.599 106.327C286.399 107.527 287.799 104.727 284.399 102.827C277.599 98.9272 271.999 89.3272 271.999 81.5272C271.999 77.6272 268.399 77.6272 270.599 76.3272C270.699 76.3272 274.699 74.0272 274.799 73.9272C276.999 72.7272 280.099 72.9272 283.399 74.9272C290.199 78.9272 295.799 88.4272 295.799 96.2272Z" fill="#FFCC00"/>
<path d="M280 77.0272C276.7 75.1272 273.8 74.9272 271.5 76.0272C273.6 75.4272 276.1 75.9272 278.9 77.5272C285.7 81.4272 291.3 91.0272 291.3 98.8272C291.3 102.927 289.8 105.727 287.4 106.927C290.4 106.127 292.4 103.127 292.4 98.4272C292.3 90.5272 286.8 81.0272 280 77.0272Z" fill="white"/>
<path d="M288.166 106.53C292.981 103.714 292.953 94.7068 288.103 86.4107C283.253 78.1146 275.418 73.6715 270.602 76.4868C265.787 79.302 265.815 88.3095 270.665 96.6057C275.515 104.902 283.35 109.345 288.166 106.53Z" fill="#FFD70F"/>
<path d="M277.199 86.4272C277.199 87.5272 276.399 87.9272 275.499 87.4272C274.499 86.8272 273.799 85.5272 273.799 84.4272C273.799 83.3272 274.599 82.9272 275.499 83.4272C276.399 84.0272 277.199 85.3272 277.199 86.4272Z" fill="#D99F00"/>
<path d="M284.199 90.5272C284.199 91.6272 283.399 92.0272 282.499 91.5272C281.499 90.9272 280.799 89.6272 280.799 88.5272C280.799 87.4272 281.599 87.0272 282.499 87.5272C283.399 88.1272 284.199 89.4272 284.199 90.5272Z" fill="#D99F00"/>
<path d="M272.4 91.0272L274 91.3272C274.7 94.1272 276.7 96.9272 279 98.2272C281.2 99.4272 283.1 99.0272 283.9 97.2272L285.5 98.8272C284.5 101.327 281.8 101.827 279 100.227C276 98.4272 273.4 94.7272 272.4 91.0272Z" fill="#D99F00"/>
<path d="M275.899 87.1272C274.899 86.5272 274.199 85.2272 274.199 84.1272C274.199 83.7272 274.299 83.5272 274.399 83.3272C273.999 83.4272 273.699 83.8272 273.699 84.5272C273.699 85.6272 274.499 86.9272 275.399 87.5272C275.999 87.9272 276.599 87.8272 276.899 87.4272C276.599 87.4272 276.299 87.3272 275.899 87.1272Z" fill="#B08100"/>
<path d="M282.899 91.1272C281.899 90.5272 281.199 89.2272 281.199 88.1272C281.199 87.7272 281.299 87.5272 281.399 87.3272C280.999 87.4272 280.699 87.8272 280.699 88.5272C280.699 89.6272 281.499 90.9272 282.399 91.5272C282.999 91.9272 283.599 91.8272 283.899 91.4272C283.699 91.4272 283.299 91.3272 282.899 91.1272Z" fill="#B08100"/>
<path d="M284.101 97.3272L283.901 97.1272C283.701 97.5272 283.501 97.9272 283.201 98.2272C283.501 98.0272 283.801 97.7272 284.101 97.3272Z" fill="#B08100"/>
<path d="M279.5 99.8272C276.7 98.2272 274.1 94.7272 273 91.1272L272.4 91.0272C273.4 94.8272 276 98.4272 279 100.127C281.2 101.327 283.2 101.327 284.5 100.227C283.1 101.027 281.4 100.927 279.5 99.8272Z" fill="#B08100"/>
<path d="M289.701 219.027V287.227L295.801 283.727V215.327L289.701 219.027Z" fill="#2672AB"/>
<path d="M289.7 219.027V287.227L156.4 210.827V142.527L289.7 219.027Z" fill="#3F92D1"/>
<path d="M156.4 142.527L289.7 219.027L295.8 215.327L162.5 138.827L156.4 142.527Z" fill="#72B5E8"/>
<path opacity="0.7" d="M156.4 142.527L289.7 219.027L295.8 215.327L289.7 218.227L156.4 142.527Z" fill="white"/>
<path d="M275.578 262.295C283.684 257.556 283.589 242.313 275.366 228.248C267.143 214.182 253.906 206.622 245.801 211.36C237.696 216.099 237.791 231.342 246.014 245.407C254.236 259.473 267.473 267.033 275.578 262.295Z" fill="#2672AB"/>
<path d="M262.701 259.127C251.101 252.427 241.801 236.327 241.801 223.027C241.801 218.127 243.101 214.227 245.301 211.727C241.901 214.027 239.801 218.527 239.801 224.827C239.801 238.127 249.201 254.227 260.701 260.927C267.901 265.127 274.301 264.527 278.101 260.327C274.301 262.827 268.801 262.627 262.701 259.127Z" fill="#084C94"/>
<path d="M202.001 179.927L197.501 177.327V228.027L202.001 230.627V179.927ZM208.501 177.327L204.001 174.727V231.627L208.501 234.227V177.327ZM215.101 188.827L210.601 186.227V235.527L215.101 238.127V188.827ZM184.201 192.427V220.227L188.701 222.827V195.027L184.201 192.427ZM195.301 184.627L190.801 182.027V223.927L195.301 226.527V184.627ZM221.701 202.927L217.201 200.327V239.327L221.701 241.927V202.927ZM228.101 219.027L223.601 216.427V243.027L228.101 245.627V219.027ZM182.001 187.627L177.501 185.027V216.227L182.001 218.827V187.627ZM164.201 189.427V208.327L168.701 210.927V192.027L164.201 189.427ZM175.301 182.027L170.801 179.427V212.127L175.301 214.727V182.027Z" fill="#2672AB"/>
<path d="M202.001 199.827L197.501 197.227V228.027L202.001 230.627V199.827ZM208.501 185.827L204.001 183.227V231.727L208.501 234.327V185.827ZM215.101 197.827L210.601 195.227V235.527L215.101 238.127V197.827ZM184.201 199.127V220.127L188.701 222.727V201.727L184.201 199.127ZM195.301 198.327L190.801 195.727V224.027L195.301 226.627V198.327ZM182.001 190.127L177.501 187.527V216.127L182.001 218.727V190.127ZM164.201 202.827V208.327L168.701 210.927V205.427L164.201 202.827ZM175.301 202.827L170.801 200.227V212.127L175.301 214.727V202.827ZM221.701 210.127L217.201 207.527V239.227L221.701 241.827V210.127ZM228.101 222.927L223.601 220.327V243.027L228.101 245.627V222.927Z" fill="#A8CFF0"/>
<path d="M215.102 198.427L210.602 195.827V195.227L215.102 197.827V198.427Z" fill="white"/>
<path d="M208.502 186.327L204.002 183.827V183.227L208.502 185.827V186.327Z" fill="white"/>
<path d="M228.102 223.527L223.602 220.927V220.327L228.102 222.927V223.527Z" fill="white"/>
<path d="M202.002 200.327L197.502 197.827V197.227L202.002 199.827V200.327Z" fill="white"/>
<path d="M221.701 210.727L217.201 208.127V207.527L221.701 210.127V210.727Z" fill="white"/>
<path d="M175.301 203.427L170.801 200.827V200.227L175.301 202.827V203.427Z" fill="white"/>
<path d="M182.002 190.727L177.502 188.127V187.527L182.002 190.127V190.727Z" fill="white"/>
<path d="M168.701 205.427V206.027L164.201 203.427V202.827L168.701 205.427Z" fill="white"/>
<path d="M195.301 198.927L190.801 196.327V195.727L195.301 198.327V198.927Z" fill="white"/>
<path d="M188.701 202.327L184.201 199.727V199.127L188.701 201.727V202.327Z" fill="white"/>
<path d="M240.1 228.027C240.4 218.027 247.7 214.027 256.6 219.227C261.2 221.927 265.4 226.427 268.4 231.727L271.7 230.927C267.9 224.127 262.6 218.127 256.6 214.727C245.4 208.227 236.2 213.327 236.1 226.127L238.7 228.527L240.1 228.027Z" fill="#FFCC00"/>
<path d="M264.9 259.227C262.5 259.427 259.6 258.727 256.6 257.027C248.1 252.127 241.1 240.727 240.2 230.827L236.2 228.827C236.2 228.927 234.9 229.127 234.9 229.227C236.1 241.627 246.1 255.627 256.7 261.727C260.5 263.927 263.1 265.127 266.2 264.727C266.3 264.727 267.5 264.427 267.6 264.327L264.9 259.227Z" fill="#FFCC00"/>
<path d="M269.9 234.627C271.9 238.927 273.1 243.427 273.1 247.627C273.1 253.627 270.7 257.527 266.9 258.827L269.5 263.927C274.2 262.327 277.2 257.427 277.2 250.027C277.2 244.827 275.7 239.227 273.2 233.827L269.9 234.627Z" fill="#FFCC00"/>
<path d="M262.3 242.927C261.2 242.027 260.2 240.827 259.4 239.427C258.9 238.627 258.9 237.727 259.4 237.527C260 237.127 260.5 236.627 260.9 235.927C261.4 236.027 262 235.927 262 235.227C262 234.527 261.7 233.727 261.3 233.327C261.2 230.327 260.1 227.127 256.6 225.127C255.4 224.427 254.5 224.227 253.8 224.327C253.6 224.327 252.3 224.727 252.1 224.827C251.2 225.327 252 226.327 252 227.927C251.6 227.827 251.3 228.227 251.3 228.927C251.3 229.627 251.9 230.527 252.4 231.027C252.7 232.127 253.3 233.327 253.9 234.427C254.4 235.227 254.4 236.127 253.9 236.327C253.1 236.727 252.1 236.827 251 236.427C250.6 236.327 250.1 236.327 249.8 236.427C249.7 236.427 248.5 236.827 248.4 236.827C247.7 237.127 248.5 237.627 248.5 238.727V241.827C248.5 242.427 248.9 243.127 249.5 243.527L262.9 252.427C263.1 252.527 264.5 252.127 264.6 252.027C264.8 251.927 264.9 251.727 264.9 251.427V248.327C264.8 246.327 263.8 244.227 262.3 242.927Z" fill="#FFCC00"/>
<path d="M239.201 228.227C239.501 218.227 246.801 214.227 255.701 219.427C260.301 222.127 264.501 226.627 267.501 231.927L270.801 231.127C267.001 224.327 261.701 218.327 255.701 214.927C244.501 208.427 235.301 213.527 235.201 226.327L239.201 228.227Z" fill="white"/>
<path d="M264.001 259.527C261.601 259.727 258.701 259.027 255.701 257.327C247.201 252.427 240.201 241.027 239.301 231.127L235.301 229.127C236.401 241.627 245.101 255.927 255.701 262.027C259.701 264.327 263.401 265.127 266.601 264.727L264.001 259.527Z" fill="white"/>
<path d="M269.002 234.927C271.002 239.227 272.202 243.727 272.202 247.927C272.202 253.927 269.802 257.827 266.002 259.127L268.602 264.227C273.302 262.627 276.302 257.727 276.302 250.327C276.302 245.127 274.802 239.527 272.302 234.127L269.002 234.927Z" fill="white"/>
<path d="M261.4 243.227C260.3 242.327 259.3 241.127 258.5 239.727C258 238.927 258 238.027 258.5 237.827C259.1 237.427 259.6 236.927 260 236.227C260.5 236.327 261.1 236.227 261.1 235.527C261.1 234.827 260.8 234.027 260.4 233.627C260.3 230.627 259.2 227.427 255.7 225.427C252.2 223.427 251.2 225.327 251 228.227C250.6 228.127 250.3 228.527 250.3 229.227C250.3 229.927 250.9 230.827 251.4 231.327C251.7 232.427 252.3 233.627 252.9 234.727C253.4 235.527 253.4 236.427 252.9 236.627C252.1 237.027 251.1 237.127 250 236.727C248.5 236.327 247.4 237.127 247.4 238.927V242.027C247.4 242.627 247.8 243.327 248.4 243.727L262.9 252.127C263.4 252.427 263.9 252.227 263.9 251.627V248.527C263.9 246.627 262.9 244.427 261.4 243.227Z" fill="white"/>
<path d="M238.701 228.327C239.001 218.327 246.301 214.327 255.201 219.527C259.801 222.227 264.001 226.727 267.001 232.027L270.301 231.227C266.501 224.427 261.201 218.427 255.201 215.027C244.001 208.527 234.801 213.627 234.701 226.427L238.701 228.327Z" fill="#FFDE17"/>
<path d="M263.501 259.627C261.101 259.827 258.201 259.127 255.201 257.427C246.701 252.527 239.701 241.127 238.801 231.227L234.801 229.227C235.901 241.727 244.601 256.027 255.201 262.127C259.201 264.427 262.901 265.227 266.101 264.827L263.501 259.627Z" fill="#FFDE17"/>
<path d="M268.502 235.027C270.502 239.327 271.702 243.827 271.702 248.027C271.702 254.027 269.302 257.927 265.502 259.227L268.102 264.327C272.802 262.727 275.802 257.827 275.802 250.427C275.802 245.227 274.302 239.627 271.802 234.227L268.502 235.027Z" fill="#FFDE17"/>
<path d="M260.9 243.327C259.8 242.427 258.8 241.227 258 239.827C257.5 239.027 257.5 238.127 258 237.927C258.6 237.527 259.1 237.027 259.5 236.327C260 236.427 260.6 236.327 260.6 235.627C260.6 234.927 260.3 234.127 259.9 233.727C259.8 230.727 258.7 227.527 255.2 225.527C251.7 223.527 250.7 225.427 250.5 228.327C250.1 228.227 249.8 228.627 249.8 229.327C249.8 230.027 250.4 230.927 250.9 231.427C251.2 232.527 251.8 233.727 252.4 234.827C252.9 235.627 252.9 236.527 252.4 236.727C251.6 237.127 250.6 237.227 249.5 236.827C248 236.427 246.9 237.227 246.9 239.027V242.127C246.9 242.727 247.3 243.427 247.9 243.827L262.4 252.227C262.9 252.527 263.4 252.327 263.4 251.727V248.627C263.4 246.727 262.3 244.527 260.9 243.327Z" fill="#FFDE17"/>
<path d="M157.199 201.927V230.527L161.899 227.827V199.127L157.199 201.927Z" fill="#0BA19F"/>
<path d="M157.2 201.927V230.527L51.5 169.527V140.827L157.2 201.927Z" fill="#0FBAB8"/>
<path d="M51.5 140.827L157.2 201.927L161.9 199.127L56.3 138.027L51.5 140.827Z" fill="#3ECFCD"/>
<path opacity="0.7" d="M51.5 140.827L157.2 201.927L161.9 199.127L157.3 201.227L51.5 140.827Z" fill="white"/>
<path d="M151.799 221.827L56.6992 166.327V149.527L151.799 205.027V221.827Z" fill="white"/>
<path d="M60.6992 154.327L62.5992 155.427L63.4992 164.627L64.3992 156.527L66.5992 157.827L67.4992 167.027L68.3992 158.827L70.0992 159.827L68.9992 171.127L66.4992 169.727L65.5992 161.927L64.6992 168.727L62.0992 167.227L60.6992 154.327Z" fill="#084C94"/>
<path d="M72.0996 160.927L73.9996 162.027L74.8996 171.227L75.7996 163.127L77.9996 164.427L78.8996 173.627L79.7996 165.427L81.4996 166.427L80.1996 177.727L77.6996 176.327L76.7996 168.527L75.8996 175.327L73.2996 173.827L72.0996 160.927Z" fill="#084C94"/>
<path d="M83.5996 167.427L85.4996 168.527L86.3996 177.727L87.2996 169.627L89.4996 170.927L90.3996 180.127L91.2996 171.927L92.9996 172.927L91.6996 184.227L89.1996 182.827L88.2996 175.027L87.3996 181.827L84.7996 180.327L83.5996 167.427Z" fill="#084C94"/>
<path d="M99.5 55.0272V74.9272L102.5 73.3272V53.2272L99.5 55.0272Z" fill="#FFCC00"/>
<path d="M99.5008 55.0272V74.9272L81.8008 64.7272V44.6272L99.5008 55.0272Z" fill="#FFD70F"/>
<path d="M81.8008 44.6272L99.5008 55.0272L102.501 53.2272L84.7008 42.9272L81.8008 44.6272Z" fill="#FFDE17"/>
<path d="M81.8008 44.6272L99.5008 55.0272L102.501 53.2272L99.4008 54.0272L81.8008 44.6272Z" fill="white"/>
<path d="M115.1 48.4272V80.6272L119.9 77.9272V45.4272L115.1 48.4272Z" fill="#D62D69"/>
<path d="M86.4004 31.5272L115.1 48.4272L119.9 45.4272L91.2004 28.7272L86.4004 31.5272Z" fill="#F76195"/>
<path opacity="0.7" d="M86.4004 31.5272L115.1 48.4272L119.9 45.4272L115.2 47.7272L86.4004 31.5272Z" fill="white"/>
<path d="M86.4004 31.5272V44.9272L101.6 53.8272V72.8272L115.1 80.6272V48.4272L86.4004 31.5272Z" fill="#EB4680"/>
<path d="M176.4 126.227V148.527L179.8 146.627V124.227L176.4 126.227Z" fill="#0BA19F"/>
<path d="M176.4 126.227V148.527L156.6 137.027V114.627L176.4 126.227Z" fill="#0FBAB8"/>
<path d="M156.6 114.627L176.4 126.227L179.8 124.227L159.9 112.627L156.6 114.627Z" fill="#3ECFCD"/>
<path opacity="0.7" d="M156.6 114.627L176.4 126.227L179.8 124.227L176.3 125.127L156.6 114.627Z" fill="white"/>
<path d="M202.4 141.227V163.527L205.8 161.627V139.227L202.4 141.227Z" fill="#0BA19F"/>
<path d="M202.4 141.227V163.527L182.6 152.027V129.627L202.4 141.227Z" fill="#0FBAB8"/>
<path d="M182.6 129.627L202.4 141.227L205.8 139.227L185.9 127.627L182.6 129.627Z" fill="#3ECFCD"/>
<path opacity="0.7" d="M182.6 129.627L202.4 141.227L205.8 139.227L202.3 140.127L182.6 129.627Z" fill="white"/>
<path d="M228.301 156.027V178.327L231.601 176.427V154.027L228.301 156.027Z" fill="#0BA19F"/>
<path d="M228.3 156.027V178.327L208.5 166.827V144.427L228.3 156.027Z" fill="#0FBAB8"/>
<path d="M208.5 144.427L228.3 156.027L231.6 154.027L211.8 142.527L208.5 144.427Z" fill="#3ECFCD"/>
<path opacity="0.7" d="M208.5 144.427L228.3 156.027L231.6 154.027L228.1 155.027L208.5 144.427Z" fill="white"/>
<path d="M253.801 170.527V192.827L257.101 190.927V168.527L253.801 170.527Z" fill="#0BA19F"/>
<path d="M253.8 170.527V192.827L234 181.327V158.927L253.8 170.527Z" fill="#0FBAB8"/>
<path d="M234 158.927L253.8 170.527L257.1 168.527L237.3 157.027L234 158.927Z" fill="#3ECFCD"/>
<path opacity="0.7" d="M234 158.927L253.8 170.527L257.1 168.527L253.6 169.527L234 158.927Z" fill="white"/>
<path d="M222.3 165.527C221.6 164.927 221 164.127 220.5 163.327C220.2 162.827 220.2 162.227 220.5 162.127C220.9 161.927 221.2 161.527 221.4 161.127C221.7 161.227 222.1 161.127 222.1 160.627C222.1 160.227 221.9 159.727 221.6 159.427C221.5 157.527 220.9 155.527 218.7 154.227C216.5 152.927 215.8 154.127 215.8 156.027C215.5 155.927 215.3 156.227 215.3 156.727C215.3 157.127 215.7 157.727 216 158.027C216.2 158.727 216.6 159.527 216.9 160.127C217.2 160.627 217.2 161.227 216.9 161.327C216.4 161.627 215.8 161.627 215.1 161.427C214.2 161.127 213.5 161.727 213.5 162.827V164.827C213.5 165.227 213.8 165.727 214.1 165.827L223.3 171.127C223.6 171.327 223.9 171.127 223.9 170.827V168.827C223.9 167.627 223.3 166.327 222.3 165.527Z" fill="white"/>
<path d="M237.5 179.827L240.7 181.727V175.927L237.5 174.027V179.827ZM242.6 182.727L245.8 184.627V174.027L242.6 172.127V182.727ZM247.7 170.327V185.727L250.9 187.627V172.227L247.7 170.327Z" fill="white"/>
<path d="M197.7 149.827C197.7 149.527 197.7 149.227 197.6 148.927L199.1 148.727C198.9 147.927 198.7 147.227 198.4 146.427L196.7 145.927C196.4 145.327 196 144.627 195.6 144.027L196 142.327C195.5 141.727 194.9 141.127 194.3 140.627L193.4 141.827C193.2 141.627 192.9 141.427 192.6 141.327C192.3 141.227 192.1 141.027 191.8 140.927L190.9 138.627C190.3 138.427 189.8 138.427 189.2 138.427L189.6 140.627C189.2 140.727 188.8 140.927 188.5 141.227L186.8 139.727C186.5 140.127 186.3 140.627 186.1 141.227L187.6 143.127C187.6 143.427 187.5 143.627 187.5 143.927C187.5 144.227 187.5 144.527 187.6 144.827L186.1 145.027C186.3 145.827 186.5 146.527 186.8 147.327L188.5 147.827C188.8 148.427 189.2 149.127 189.6 149.727L189.2 151.427C189.7 152.027 190.3 152.627 190.9 153.127L191.8 151.927C192 152.127 192.3 152.327 192.6 152.427C192.9 152.527 193.1 152.727 193.4 152.827L194.3 155.127C194.9 155.327 195.4 155.327 196 155.327L195.6 153.127C196 153.027 196.4 152.827 196.7 152.527L198.4 154.027C198.7 153.627 198.9 153.127 199.1 152.527L197.6 150.627C197.7 150.327 197.7 150.127 197.7 149.827ZM192.7 149.227C191.6 148.627 190.7 147.027 190.7 145.827C190.7 144.527 191.6 144.027 192.7 144.727C193.8 145.327 194.7 146.927 194.7 148.127C194.7 149.327 193.8 149.827 192.7 149.227Z" fill="white"/>
<path d="M160.299 123.427L166.699 133.427L173.099 130.827C172.899 130.527 172.599 130.227 172.299 130.127L160.999 123.627C160.799 123.427 160.499 123.427 160.299 123.427Z" fill="white"/>
<path d="M173.099 130.827L166.699 134.427L164.899 131.327L160.299 133.227L164.499 130.827L160.299 123.527C159.999 123.627 159.799 123.927 159.799 124.327V131.927C159.799 132.727 160.399 133.727 160.999 134.127L172.299 140.627C172.999 141.027 173.599 140.727 173.599 139.927V132.327C173.599 131.827 173.399 131.327 173.099 130.827ZM173.099 140.627L168.499 133.527L168.799 133.327L173.099 140.627Z" fill="white"/>
<path d="M76.5996 191.327V219.827L81.1996 217.327V188.627L76.5996 191.327Z" fill="#2672AB"/>
<path d="M76.7 191.327V219.827L0 175.627V146.927L76.7 191.327Z" fill="#3F92D1"/>
<path d="M0 146.927L76.7 191.327L81.2 188.627L4.4 144.227L0 146.927Z" fill="#72B5E8"/>
<path opacity="0.7" d="M0 146.927L76.7 191.327L81.2 188.627L76.5 190.427L0 146.927Z" fill="white"/>
<path d="M29.6 168.727L15.6 160.627C14.7 160.127 14 160.527 14 161.527V171.027C14 172.027 14.7 173.227 15.6 173.727L24.4 178.827L28.8 186.427V181.427L29.7 181.927C30.6 182.427 31.3 182.027 31.3 181.027V171.527C31.2 170.427 30.5 169.227 29.6 168.727ZM19.7 170.527C19.2 170.827 18.5 170.327 18 169.527C17.5 168.727 17.5 167.927 18 167.627C18.5 167.327 19.2 167.827 19.7 168.627C20.2 169.427 20.2 170.227 19.7 170.527ZM23.5 172.727C23 173.027 22.3 172.527 21.8 171.727C21.3 170.927 21.3 170.127 21.8 169.827C22.3 169.527 23 170.027 23.5 170.827C24 171.527 24 172.427 23.5 172.727ZM27.3 174.827C26.8 175.127 26.1 174.627 25.6 173.827C25.1 173.027 25.1 172.227 25.6 171.927C26.1 171.627 26.8 172.127 27.3 172.927C27.8 173.727 27.8 174.627 27.3 174.827ZM12.9 170.327V162.627L7.5 159.527C6.7 159.027 6 159.427 6 160.427V169.927C6 170.927 6.7 172.127 7.6 172.627L8.5 173.127V178.127L12.9 175.627L21.7 180.727C22.6 181.227 23.3 180.827 23.3 179.827V179.427L15.8 175.127C14.1 174.127 12.9 172.027 12.9 170.327Z" fill="white"/>
<path d="M34.4004 173.527V175.827L71.0004 197.027V194.627L34.4004 173.527Z" fill="white"/>
<path d="M59.4004 197.827L34.4004 183.327V185.727L59.4004 200.227V197.827Z" fill="white"/>
<path d="M34.4004 180.827L71.0004 201.927V199.527L34.4004 178.427V180.827Z" fill="white"/>
<path opacity="0.2" d="M127.7 251.027L103.9 237.627C106 236.127 107.2 234.327 107.2 232.427C107.2 227.127 98.0996 222.827 86.8996 222.827C75.6996 222.827 66.5996 227.127 66.5996 232.427C66.5996 237.727 75.6996 242.027 86.8996 242.027C89.1996 242.027 91.4996 241.827 93.5996 241.527L119.2 255.927C120.9 256.927 123.7 256.727 125.7 255.627C127.8 254.527 130.3 252.527 127.7 251.027Z" fill="#92B4D1"/>
<path d="M127.701 248.327C129.101 250.927 128.101 254.327 125.501 255.727C122.901 257.127 119.501 256.127 118.101 253.527C116.701 250.927 117.701 247.527 120.301 246.127C122.901 244.727 126.201 245.727 127.701 248.327Z" fill="#001A46"/>
<path d="M110.402 214.127L98.6016 220.527L116.202 253.027C117.202 254.927 120.702 255.027 123.902 253.327C127.202 251.527 129.002 248.627 127.902 246.727L110.402 214.127Z" fill="#084C94"/>
<path d="M110.4 214.127C111.4 216.027 109.6 219.027 106.4 220.727C103.1 222.527 99.7002 222.327 98.7002 220.427C97.7002 218.527 99.5002 215.527 102.7 213.827C105.9 212.127 109.4 212.227 110.4 214.127Z" fill="#2672AB"/>
<path d="M102.701 205.427L95.7012 209.227L100.701 218.527C101.301 219.627 103.401 219.727 105.301 218.727C107.201 217.727 108.301 215.927 107.701 214.827L102.701 205.427Z" fill="#001A46"/>
<path d="M82.9012 131.027C74.2012 126.027 66.2012 125.427 60.4012 128.527C60.2012 128.627 51.9012 133.227 51.7012 133.627C57.6012 129.127 66.3012 129.227 76.1012 134.827C93.9012 145.127 108.301 169.927 108.301 190.327C108.301 200.727 104.501 207.927 98.5012 211.227C98.9012 211.127 99.4012 210.927 100.101 210.527C100.301 210.427 105.901 207.027 106.101 206.927C111.701 203.527 115.101 196.427 115.101 186.527C115.001 166.127 100.601 141.327 82.9012 131.027Z" fill="#72B5E8"/>
<path d="M76.1004 134.927C58.3004 124.627 43.9004 132.927 43.9004 153.227C43.9004 173.627 58.3004 198.427 76.1004 208.727C93.9004 219.027 108.3 210.727 108.3 190.427C108.3 170.127 93.8004 145.227 76.1004 134.927ZM75.6004 203.927C60.5004 195.227 48.3004 174.127 48.3004 156.827C48.3004 139.527 60.5004 132.527 75.6004 141.227C90.7004 149.927 102.9 171.027 102.9 188.327C102.9 205.627 90.6004 212.627 75.6004 203.927Z" fill="#D1EBFF"/>
<path d="M81.2008 200.727C66.1008 192.027 53.9008 170.927 53.9008 153.627C53.9008 146.527 55.9008 141.227 59.4008 138.027C52.7008 139.827 48.3008 146.527 48.3008 156.827C48.3008 174.127 60.5008 195.227 75.6008 203.927C84.5008 209.127 92.5008 208.727 97.4008 204.027C92.9008 205.227 87.3008 204.227 81.2008 200.727Z" fill="#72B5E8"/>
<path d="M77.5996 134.127C69.0996 129.227 61.2996 128.527 55.5996 131.427C60.9996 129.927 68.8996 130.727 76.0996 134.927C93.8996 145.227 108.3 170.027 108.3 190.427C108.3 201.027 103.2 208.627 96.8996 211.827C104.8 209.627 109.8 201.827 109.8 189.727C109.8 169.227 95.3996 144.427 77.5996 134.127Z" fill="white"/>
</svg>
