<svg width="374" height="330" viewBox="0 0 374 330" fill="none" xmlns="http://www.w3.org/2000/svg">
<path d="M184.845 290.52C284.151 290.52 364.654 280.884 364.654 268.996C364.654 257.109 284.151 247.472 184.845 247.472C85.5386 247.472 5.03516 257.109 5.03516 268.996C5.03516 280.884 85.5386 290.52 184.845 290.52Z" fill="#D9E4F5"/>
<path d="M94.0261 17.448C94.0261 18.2976 93.6795 19.073 93.1153 19.6332C92.5583 20.1975 91.7828 20.5441 90.9333 20.5441H24.7452C23.0452 20.5441 21.6523 19.1512 21.6523 17.448C21.6523 16.5976 21.999 15.823 22.5632 15.2628C23.1202 14.6985 23.8956 14.3519 24.7452 14.3519H27.8735C29.1092 11.4807 31.9627 9.47363 35.2836 9.47363C37.5188 9.47363 39.5404 10.3845 41.0042 11.8523C42.9541 8.54505 46.5499 6.32435 50.6681 6.32435C51.8006 6.32435 52.8896 6.49604 53.9181 6.80638C56.0719 2.75673 60.3287 0 65.2352 0C71.1275 0 76.0848 3.97872 77.5809 9.39222C78.6666 8.84974 79.891 8.5386 81.1912 8.5386C84.866 8.5386 87.9661 10.9922 88.9407 14.3519H90.9333C92.6332 14.3519 94.0261 15.7448 94.0261 17.448Z" fill="#D9E4F5"/>
<path d="M332.104 18.9182C332.104 19.7678 331.758 20.5432 331.193 21.1034C330.636 21.6677 329.861 22.0143 329.011 22.0143H262.823C261.123 22.0143 259.73 20.6214 259.73 18.9182C259.73 18.0678 260.077 17.2932 260.641 16.733C261.198 16.1687 261.973 15.8221 262.823 15.8221H265.952C267.187 12.9509 270.041 10.9438 273.362 10.9438C275.597 10.9438 277.619 11.8547 279.083 13.3225C281.033 10.0153 284.629 7.79457 288.747 7.79457C289.879 7.79457 290.969 7.96626 291.997 8.27659C294.15 4.22694 298.407 1.47021 303.314 1.47021C309.206 1.47021 314.164 5.44893 315.66 10.8624C316.746 10.32 317.97 10.0088 319.27 10.0088C322.945 10.0088 326.045 12.4625 327.02 15.8229H329.012C330.711 15.8221 332.104 17.215 332.104 18.9182Z" fill="#D9E4F5"/>
<path d="M224.337 39.6429C224.337 40.4933 223.99 41.2679 223.426 41.8281C222.869 42.3923 222.094 42.739 221.244 42.739H155.056C153.356 42.739 151.963 41.3461 151.963 39.6429C151.963 38.7933 152.31 38.0179 152.874 37.4576C153.431 36.8934 154.206 36.5468 155.056 36.5468H158.184C159.42 33.6756 162.273 31.6685 165.594 31.6685C167.829 31.6685 169.851 32.5794 171.316 34.0472C173.265 30.7399 176.861 28.5192 180.979 28.5192C182.111 28.5192 183.201 28.6909 184.229 29.0013C186.382 24.9516 190.64 22.1949 195.547 22.1949C201.439 22.1949 206.396 26.1736 207.892 31.5871C208.978 31.0438 210.202 30.7335 211.503 30.7335C215.177 30.7335 218.278 33.1871 219.252 36.5476H221.245C222.944 36.5468 224.337 37.9397 224.337 39.6429Z" fill="#D9E4F5"/>
<path d="M308.311 162.181C312.106 155.397 319.366 141.154 322.488 126.446C327.153 104.469 337.546 103.501 341.344 109.793C351.773 127.072 323.536 156.693 314.562 165.433L308.311 162.181Z" fill="#C7D9ED"/>
<path d="M310.691 163.419C317.644 154.548 322.918 144.819 326.335 137.641C330.874 128.109 333.208 120.895 333.231 120.822C333.314 120.563 333.592 120.421 333.852 120.504C334.111 120.587 334.255 120.865 334.17 121.124C334.148 121.197 331.796 128.461 327.233 138.05C323.812 145.241 318.536 154.976 311.581 163.882L310.691 163.419Z" fill="#B4CAE3"/>
<path d="M59.2901 226.954C55.8079 220.004 49.2055 205.445 46.7567 190.609C43.0988 168.442 32.7611 167.001 28.6808 173.113C17.4741 189.898 44.3304 220.776 52.8973 229.917L59.2901 226.954Z" fill="#C7D9ED"/>
<path d="M56.8558 228.082C50.3155 218.903 45.4904 208.945 42.404 201.618C38.3052 191.888 36.3021 184.576 36.2819 184.502C36.211 184.24 35.9394 184.084 35.6766 184.157C35.4138 184.227 35.2582 184.498 35.33 184.761C35.3485 184.835 37.3669 192.199 41.4875 201.985C44.5779 209.325 49.4038 219.29 55.945 228.504L56.8558 228.082Z" fill="#B4CAE3"/>
<path d="M67.7942 247.159C60.2761 239.581 43.8534 221.819 33.5068 201.654C18.6592 172.714 3.77042 175.3 0.849258 185.531C-6.70675 211.989 37.7967 240.744 56.2498 251.365L67.7942 247.159Z" fill="#D9E4F5"/>
<path d="M63.7299 248.64C50.7733 238.923 39.819 227.428 32.3758 218.754C22.4218 207.155 16.4263 197.96 16.3658 197.868C16.1514 197.538 15.7089 197.444 15.3784 197.66C15.0471 197.873 14.9528 198.316 15.1688 198.646C15.2269 198.739 21.2659 207.998 31.2763 219.667C38.6292 228.239 49.3901 239.547 62.1315 249.223L63.7299 248.64Z" fill="#C7D9ED"/>
<path d="M302.971 175.966C310.827 168.739 328.042 151.745 339.298 132.072C355.45 103.84 370.206 107.103 372.657 117.456C378.998 144.231 333.23 170.926 314.312 180.695L302.971 175.966Z" fill="#D9E4F5"/>
<path d="M306.963 177.631C320.349 168.515 331.816 157.532 339.647 149.206C350.119 138.073 356.528 129.162 356.593 129.071C356.822 128.751 357.268 128.678 357.589 128.908C357.911 129.137 357.985 129.583 357.754 129.904C357.692 129.993 351.237 138.967 340.705 150.167C332.969 158.395 321.703 169.201 308.533 178.285L306.963 177.631Z" fill="#C7D9ED"/>
<path d="M76.9522 132.007C69.1713 127.371 51.9176 116.251 39.1496 101.87C20.8262 81.2316 9.13914 86.5073 8.90296 95.5319C8.29278 118.871 50.9455 133.083 68.3556 137.906L76.9522 132.007Z" fill="#D9E4F5"/>
<path d="M73.9259 134.083C61.2232 128.841 49.79 121.713 41.8383 116.16C31.2047 108.735 24.333 102.449 24.2637 102.385C24.0179 102.159 23.6342 102.175 23.4085 102.423C23.1812 102.669 23.1973 103.052 23.4448 103.278C23.5125 103.342 30.4333 109.672 41.1273 117.142C48.9824 122.63 60.2181 129.645 72.7354 134.9L73.9259 134.083Z" fill="#C7D9ED"/>
<path d="M118.877 42.772C120.17 30.6722 119.164 18.9771 113.142 21.862C107.114 24.7485 109.227 44.8412 117.422 58.0936L119.131 63.2685C113.328 53.5063 101.747 45.2353 96.9945 48.3266C92.2718 51.3985 100.48 56.2042 108.709 59.343C114.973 61.7322 118.527 64.7323 120.177 66.4315L128.252 90.8729C119.017 75.4392 100.725 62.4044 93.2044 67.2956C85.7105 72.1699 98.7348 79.7952 111.792 84.7758C121.659 88.5393 127.292 93.2604 129.935 95.9672L131.545 100.841C132.434 100.694 133.321 100.542 134.208 100.385L124.601 71.3074C125.247 68.811 126.527 65.3933 129.064 61.4186C133.804 53.9948 137.534 45.2458 131.911 45.5916C127.03 45.8923 123.105 56.0043 122.858 66.0277L119.535 55.9713C119.038 52.6841 118.32 47.9937 118.877 42.772Z" fill="#C7D9ED"/>
<path d="M352.922 176.397C356.188 164.674 361.441 154.178 365.973 159.081C370.508 163.989 361.127 181.882 348.618 191.173L345.119 195.35C354.117 188.421 367.933 185.009 371.209 189.638C374.464 194.236 365.061 195.672 356.255 195.55C349.551 195.458 345.142 196.934 342.98 197.904L326.452 217.636C340.732 206.703 362.544 201.342 367.727 208.664C372.893 215.961 357.973 218.239 343.999 218.046C333.44 217.901 326.463 220.209 323.006 221.748L319.711 225.682C318.939 225.218 318.17 224.749 317.404 224.276L337.068 200.799C337.39 198.241 337.462 194.592 336.572 189.962C334.908 181.313 334.672 171.805 339.77 174.203C344.195 176.284 344.109 187.13 340.638 196.537L347.438 188.418C349.113 185.55 351.513 181.456 352.922 176.397Z" fill="#D9E4F5"/>
<path d="M335.64 86.205C333.48 86.205 331.723 84.4478 331.723 82.2876C331.723 80.1273 333.48 78.3701 335.64 78.3701C337.8 78.3701 339.558 80.1273 339.558 82.2876C339.558 84.4478 337.8 86.205 335.64 86.205ZM335.64 79.5994C334.158 79.5994 332.952 80.8052 332.952 82.2876C332.952 83.7699 334.158 84.9758 335.64 84.9758C337.122 84.9758 338.328 83.7699 338.328 82.2876C338.329 80.8052 337.122 79.5994 335.64 79.5994Z" fill="#007EFF"/>
<path d="M355.552 90.191C353.392 90.191 351.635 88.4338 351.635 86.2735C351.635 84.1133 353.392 82.3561 355.552 82.3561C357.712 82.3561 359.47 84.1133 359.47 86.2735C359.47 88.4338 357.712 90.191 355.552 90.191ZM355.552 83.5845C354.07 83.5845 352.864 84.7904 352.864 86.2727C352.864 87.7551 354.07 88.9609 355.552 88.9609C357.035 88.9609 358.24 87.7551 358.24 86.2727C358.241 84.7904 357.035 83.5845 355.552 83.5845Z" fill="#0060E6"/>
<path d="M364.985 98.1895C364.646 98.1895 364.371 97.9146 364.371 97.5753V94.8653C364.371 94.526 364.646 94.2511 364.985 94.2511C365.325 94.2511 365.6 94.526 365.6 94.8653V97.5753C365.6 97.9146 365.325 98.1895 364.985 98.1895Z" fill="#007EFF"/>
<path d="M364.985 102.932C364.646 102.932 364.371 102.657 364.371 102.318V99.6082C364.371 99.2688 364.646 98.994 364.985 98.994C365.325 98.994 365.6 99.2688 365.6 99.6082V102.318C365.6 102.657 365.325 102.932 364.985 102.932Z" fill="#007EFF"/>
<path d="M368.792 99.2059H366.357C366.018 99.2059 365.742 98.9303 365.742 98.5909C365.742 98.2516 366.017 97.9767 366.357 97.9767H368.792C369.131 97.9767 369.406 98.2516 369.406 98.5909C369.406 98.9303 369.131 99.2059 368.792 99.2059Z" fill="#007EFF"/>
<path d="M363.619 99.2059H361.185C360.845 99.2059 360.57 98.9303 360.57 98.5909C360.57 98.2516 360.845 97.9767 361.185 97.9767H363.619C363.958 97.9767 364.233 98.2516 364.233 98.5909C364.233 98.9303 363.958 99.2059 363.619 99.2059Z" fill="#007EFF"/>
<path d="M344.063 93.7707C343.724 93.7707 343.449 93.4959 343.449 93.1565V90.4466C343.449 90.1072 343.725 89.8323 344.063 89.8323C344.403 89.8323 344.678 90.1072 344.678 90.4466V93.1565C344.678 93.4951 344.404 93.7707 344.063 93.7707Z" fill="#0060E6"/>
<path d="M344.063 98.5128C343.724 98.5128 343.449 98.238 343.449 97.8978V95.1878C343.449 94.8485 343.725 94.5736 344.063 94.5736C344.403 94.5736 344.678 94.8485 344.678 95.1878V97.8978C344.678 98.238 344.404 98.5128 344.063 98.5128Z" fill="#0060E6"/>
<path d="M347.865 94.7863H345.431C345.091 94.7863 344.816 94.5114 344.816 94.1721C344.816 93.8327 345.091 93.5579 345.431 93.5579H347.865C348.204 93.5579 348.479 93.8327 348.479 94.1721C348.479 94.5114 348.203 94.7863 347.865 94.7863Z" fill="#0060E6"/>
<path d="M342.693 94.7864H340.259C339.919 94.7864 339.645 94.5115 339.645 94.1721C339.645 93.8328 339.919 93.5579 340.259 93.5579H342.693C343.032 93.5579 343.307 93.8328 343.307 94.1721C343.307 94.5115 343.032 94.7864 342.693 94.7864Z" fill="#0060E6"/>
<path d="M16.5791 160.256C16.5791 162.416 14.8218 164.174 12.6616 164.174C10.5014 164.174 8.74414 162.416 8.74414 160.256C8.74414 158.096 10.5014 156.339 12.6616 156.339C14.8218 156.339 16.5791 158.097 16.5791 160.256ZM9.97258 160.256C9.97258 161.738 11.1784 162.944 12.6608 162.944C14.1431 162.944 15.349 161.738 15.349 160.256C15.349 158.774 14.1431 157.568 12.6608 157.568C11.1784 157.568 9.97258 158.774 9.97258 160.256Z" fill="#007EFF"/>
<path d="M20.5654 140.346C20.5654 142.506 18.8082 144.263 16.6479 144.263C14.4877 144.263 12.7305 142.506 12.7305 140.346C12.7305 138.185 14.4877 136.428 16.6479 136.428C18.8082 136.428 20.5654 138.185 20.5654 140.346ZM13.9597 140.346C13.9597 141.828 15.1656 143.034 16.6479 143.034C18.1303 143.034 19.3361 141.828 19.3361 140.346C19.3361 138.863 18.1303 137.657 16.6479 137.657C15.1656 137.657 13.9597 138.863 13.9597 140.346Z" fill="#0060E6"/>
<path d="M28.5634 130.911C28.5634 131.251 28.2885 131.526 27.9492 131.526H25.2392C24.8999 131.526 24.625 131.251 24.625 130.911C24.625 130.572 24.8999 130.297 25.2392 130.297H27.9492C28.2877 130.297 28.5634 130.572 28.5634 130.911Z" fill="#007EFF"/>
<path d="M33.3056 130.912C33.3056 131.251 33.0307 131.526 32.6914 131.526H29.9814C29.6421 131.526 29.3672 131.251 29.3672 130.912C29.3672 130.572 29.6421 130.297 29.9814 130.297H32.6914C33.0307 130.297 33.3056 130.572 33.3056 130.912Z" fill="#007EFF"/>
<path d="M29.578 127.108V129.542C29.578 129.881 29.3032 130.156 28.9638 130.156C28.6245 130.156 28.3496 129.881 28.3496 129.542V127.108C28.3496 126.768 28.6245 126.493 28.9638 126.493C29.3032 126.493 29.578 126.768 29.578 127.108Z" fill="#007EFF"/>
<path d="M29.578 132.281V134.715C29.578 135.055 29.3032 135.329 28.9638 135.329C28.6245 135.329 28.3496 135.055 28.3496 134.715V132.281C28.3496 131.942 28.6245 131.667 28.9638 131.667C29.3032 131.666 29.578 131.942 29.578 132.281Z" fill="#007EFF"/>
<path d="M24.1454 151.835C24.1454 152.175 23.8706 152.449 23.5312 152.449H20.8213C20.4819 152.449 20.207 152.175 20.207 151.835C20.207 151.496 20.4819 151.221 20.8213 151.221H23.5312C23.8706 151.221 24.1454 151.496 24.1454 151.835Z" fill="#0060E6"/>
<path d="M28.8892 151.835C28.8892 152.175 28.6144 152.449 28.2742 152.449H25.5642C25.2249 152.449 24.9492 152.175 24.9492 151.835C24.9492 151.496 25.2241 151.221 25.5642 151.221H28.2742C28.6136 151.221 28.8892 151.496 28.8892 151.835Z" fill="#0060E6"/>
<path d="M25.162 148.032V150.466C25.162 150.805 24.8872 151.08 24.5478 151.08C24.2085 151.08 23.9336 150.805 23.9336 150.466V148.032C23.9336 147.692 24.2085 147.417 24.5478 147.417C24.8872 147.417 25.162 147.692 25.162 148.032Z" fill="#0060E6"/>
<path d="M25.162 153.205V155.639C25.162 155.978 24.8872 156.253 24.5478 156.253C24.2085 156.253 23.9336 155.978 23.9336 155.639V153.205C23.9336 152.865 24.2085 152.591 24.5478 152.591C24.8872 152.591 25.162 152.865 25.162 153.205Z" fill="#0060E6"/>
<path d="M40.9071 50.0733C40.7427 49.2406 40.4146 48.4362 39.927 47.718C39.6037 47.2384 39.2104 46.7974 38.7493 46.4113C36.0289 44.1326 31.9744 44.4945 29.7021 47.219C27.9505 49.3212 27.7708 52.2126 29.0323 54.4655L21.8043 63.1355C21.1917 63.8698 21.2901 64.9644 22.026 65.5778L22.8562 66.2703C23.2988 66.6402 23.788 66.9482 24.3096 67.1892C24.8295 67.4294 25.3808 67.6027 25.9507 67.7018C26.3368 67.7695 26.6858 67.6148 26.9051 67.3504C27.1235 67.0876 27.2154 66.7168 27.08 66.3468L26.4698 64.6904L28.2093 64.9918C28.5954 65.0612 28.9444 64.9048 29.1637 64.642C29.3821 64.3792 29.4724 64.0076 29.3386 63.6385L28.7284 61.982L30.4679 62.2835C30.854 62.3512 31.2022 62.1956 31.423 61.932C31.6415 61.6693 31.7334 61.2985 31.598 60.9285L30.987 59.2736L32.5499 57.3979C33.5752 57.7494 34.6634 57.83 35.7121 57.651C37.2243 57.3931 38.6534 56.5927 39.6811 55.2812C39.7851 55.149 39.8826 55.0144 39.9729 54.875C40.0874 54.7065 40.1898 54.5332 40.2833 54.3559C40.9942 53.0259 41.1925 51.5056 40.9071 50.0733ZM34.054 48.5676C34.8415 47.6212 36.2473 47.4931 37.192 48.2814C37.3258 48.3926 37.4435 48.5152 37.5427 48.649C38.1553 49.4558 38.1528 50.6077 37.4766 51.4194C37.4048 51.504 37.329 51.5838 37.2468 51.6556C37.0469 51.8345 36.8204 51.9724 36.5786 52.0659C36.5439 52.0796 36.5077 52.0933 36.4706 52.1045C36.3062 52.1602 36.1369 52.1948 35.966 52.2101C35.9144 52.2158 35.862 52.2182 35.8112 52.219C35.7596 52.2206 35.7073 52.2206 35.6549 52.2166C35.6097 52.2158 35.5638 52.2118 35.517 52.2053C35.4695 52.2005 35.4219 52.194 35.3743 52.1852C35.3711 52.1852 35.3663 52.1835 35.3615 52.1835C35.3203 52.1763 35.28 52.1674 35.2413 52.1561C35.2067 52.1497 35.1736 52.1408 35.1406 52.1303C35.11 52.1223 35.0785 52.1126 35.0495 52.1013C35.0044 52.0876 34.9592 52.0715 34.9149 52.0505C34.8536 52.0264 34.7932 51.999 34.7351 51.9675C34.5957 51.8966 34.4627 51.8071 34.3378 51.7031C33.4801 50.9873 33.2971 49.7597 33.8622 48.8344C33.9186 48.7417 33.9823 48.6522 34.054 48.5676Z" fill="#00A0FF"/>
<path d="M30.2363 57.8542C30.3597 57.9573 30.3766 58.1427 30.2734 58.2661L24.5947 65.0773C24.4915 65.2006 24.3061 65.2175 24.1828 65.1144C24.0595 65.0112 24.0426 64.8258 24.1457 64.7025L29.8244 57.8912C29.9276 57.7679 30.113 57.751 30.2363 57.8542Z" fill="#007EFF"/>
<path d="M28.9629 56.7934C29.0862 56.8965 29.1031 57.0819 29 57.2053L23.3213 64.0165C23.2181 64.1398 23.0327 64.1567 22.9094 64.0536C22.786 63.9504 22.7691 63.765 22.8723 63.6417L28.5518 56.8305C28.6542 56.7071 28.8396 56.6902 28.9629 56.7934Z" fill="#007EFF"/>
<path d="M37.2467 51.6556C37.1903 51.7483 37.1266 51.8386 37.0565 51.924C36.4785 52.6173 35.5685 52.8704 34.7527 52.6447C34.4553 52.5632 34.1708 52.419 33.9185 52.2078C32.973 51.4186 32.8464 50.0153 33.6339 49.069C33.7057 48.9843 33.7814 48.9062 33.8628 48.8344C33.2978 49.7598 33.48 50.9874 34.3384 51.7032C34.4634 51.8072 34.5972 51.8966 34.7358 51.9676C34.7938 51.999 34.8551 52.0264 34.9156 52.0506C34.9599 52.0707 35.005 52.0869 35.0502 52.1014C35.0792 52.1119 35.1106 52.1223 35.1413 52.1304C35.1743 52.1409 35.2074 52.1497 35.242 52.1562C35.2815 52.1675 35.3218 52.1763 35.3621 52.1836C35.367 52.1836 35.3718 52.186 35.375 52.1852C35.4226 52.1933 35.4701 52.2005 35.5177 52.2054C35.5644 52.2118 35.6096 52.2158 35.6555 52.2166C35.7063 52.2199 35.7595 52.2199 35.8119 52.2191C35.8627 52.2191 35.9151 52.2158 35.9667 52.2102C36.1375 52.1949 36.3068 52.1602 36.4713 52.1046C36.5083 52.0933 36.5446 52.0796 36.5793 52.0659C36.8195 51.9724 37.046 51.8354 37.2467 51.6556Z" fill="#007EFF"/>
<path d="M38.9063 52.5052C38.895 52.3971 38.8926 52.2875 38.8975 52.1755C38.9563 51.0583 39.8269 50.1756 40.907 50.0733C40.7425 49.2406 40.4145 48.4362 39.9268 47.718C39.0627 47.8655 38.2542 48.1871 37.5425 48.649C38.1551 49.4558 38.1527 50.6077 37.4764 51.4194C37.4046 51.504 37.3289 51.5838 37.2467 51.6556C37.0468 51.8345 36.8203 51.9723 36.5784 52.0659C36.5438 52.0796 36.5075 52.0933 36.4704 52.1045C36.306 52.1602 36.1367 52.1948 35.9658 52.2101C35.9142 52.2158 35.8618 52.2182 35.8111 52.219C35.7579 52.2198 35.7055 52.2198 35.6547 52.2166C35.6095 52.2158 35.5636 52.2117 35.5168 52.2053C35.4693 52.2005 35.4217 52.194 35.3742 52.1851C35.371 52.1851 35.3661 52.1835 35.3613 52.1835C35.3202 52.1763 35.2799 52.1674 35.2412 52.1561C35.2065 52.1497 35.1735 52.1408 35.1404 52.1303C35.1098 52.1223 35.0784 52.1126 35.0493 52.1013C35.0042 52.0876 34.9591 52.0715 34.9147 52.0505C34.851 52.244 34.797 52.4431 34.7519 52.6438C34.6769 52.988 34.6278 53.3418 34.6084 53.7046C34.5327 55.1611 34.9494 56.5298 35.7119 57.6494C37.2241 57.3915 38.6532 56.5911 39.681 55.2796C39.7849 55.1474 39.8825 55.0128 39.9728 54.8734C40.0872 54.7049 40.1896 54.5316 40.2831 54.3543C39.5262 54.0471 38.9837 53.3386 38.9063 52.5052Z" fill="#007EFF"/>
<path d="M48.8011 54.5268C48.8761 51.0921 46.1685 48.1742 42.7371 47.9864C39.1929 47.7929 36.1661 50.5142 35.9815 54.0568C35.8389 56.7878 37.4284 59.2116 39.7886 60.2571L39.2001 71.5298C39.1502 72.4858 39.8853 73.3031 40.8413 73.3531L41.9214 73.4095C42.4977 73.4394 43.0741 73.3934 43.6351 73.2733C44.1961 73.1532 44.7418 72.9622 45.2561 72.6994C45.6067 72.5213 45.7921 72.1884 45.8098 71.8458C45.8276 71.504 45.6776 71.1526 45.348 70.9374L43.8672 69.9773L45.4399 69.1769C45.7905 69.0004 45.9759 68.6667 45.9936 68.3249C46.0113 67.9831 45.8614 67.6317 45.5317 67.4165L44.051 66.4565L45.6236 65.6544C45.9743 65.4763 46.1597 65.1442 46.1774 64.8008C46.1951 64.4591 46.0452 64.1076 45.7155 63.8924L44.2348 62.934L44.3621 60.4957C46.8779 59.6831 48.7383 57.3488 48.8011 54.5268ZM44.6781 53.0847C44.4645 54.1479 43.4964 54.925 42.3792 54.8661C41.2628 54.8081 40.3802 53.9351 40.2786 52.855C40.2682 52.7462 40.2649 52.6366 40.2706 52.5253C40.3351 51.2961 41.3821 50.3514 42.6114 50.4151C43.8406 50.4795 44.7845 51.5282 44.72 52.7575C44.7144 52.8687 44.6999 52.9775 44.6781 53.0847Z" fill="#00A0FF"/>
<path d="M42.7831 62.2481C42.9435 62.2561 43.0684 62.3948 43.0596 62.5552L42.5977 71.4113C42.5896 71.5718 42.451 71.6967 42.2906 71.6878C42.1302 71.6798 42.0052 71.5411 42.0141 71.3807L42.476 62.5245C42.4849 62.3641 42.6227 62.24 42.7831 62.2481Z" fill="#007EFF"/>
<path d="M41.1288 62.1618C41.2892 62.1699 41.4141 62.3085 41.4053 62.4689L40.9434 71.3251C40.9353 71.4855 40.7967 71.6104 40.6363 71.6016C40.4759 71.5935 40.351 71.4549 40.3598 71.2945L40.8217 62.4383C40.8298 62.2779 40.9684 62.1537 41.1288 62.1618Z" fill="#007EFF"/>
<path d="M44.685 53.4136C44.6213 54.6429 43.5718 55.586 42.3442 55.5223C41.1149 55.4578 40.1711 54.4107 40.2355 53.1815C40.2412 53.0702 40.2557 52.9614 40.2775 52.8558C40.379 53.9352 41.2617 54.8089 42.378 54.867C43.4952 54.925 44.4633 54.1487 44.6769 53.0856C44.6882 53.1928 44.6914 53.3024 44.685 53.4136Z" fill="#007EFF"/>
<path d="M44.0635 39.5865C40.3283 37.9961 35.9957 39.7396 34.4053 43.4749C34.1998 43.9585 34.049 44.4526 33.9531 44.95C34.8793 44.8508 35.8272 44.9532 36.7236 45.2635C36.7808 45.0282 36.859 44.7928 36.9573 44.5615C37.9488 42.2336 40.6499 41.147 42.9778 42.1384C45.3065 43.1299 46.3939 45.8302 45.4032 48.1581C45.3347 48.3177 45.2581 48.4725 45.1743 48.6208C46.0255 49.0359 46.7719 49.634 47.3619 50.3611C47.5876 50.0128 47.7867 49.6388 47.9552 49.2447C49.5448 45.5094 47.7988 41.1768 44.0635 39.5865ZM43.135 50.5086C42.4893 50.8141 41.7735 50.968 41.0465 50.9487C41.0376 50.9479 41.0295 50.9479 41.0199 50.9471C40.4709 50.9293 39.9164 50.8108 39.3803 50.5827C38.8636 50.3627 38.4066 50.0572 38.0213 49.6912C38.0012 49.6719 37.9818 49.6533 37.9633 49.6348C37.5151 49.1931 37.1661 48.6667 36.9323 48.0952C36.0376 47.5431 34.8583 47.693 34.1305 48.4789C34.5383 49.8315 35.3291 51.0599 36.4342 51.9925C36.4696 52.0216 36.5043 52.0514 36.5414 52.0796C36.6059 52.1328 36.6712 52.1844 36.7389 52.2352C37.2096 52.5906 37.7287 52.8945 38.2946 53.1355C38.9378 53.4096 39.5996 53.5845 40.2622 53.6675C40.3508 53.678 40.4403 53.6877 40.5298 53.6957C40.5483 53.6973 40.5677 53.6998 40.587 53.6998C42.0315 53.8167 43.4671 53.4983 44.714 52.8171C44.7173 52.7978 44.7173 52.7792 44.7189 52.7607C44.7729 51.712 44.0966 50.7955 43.135 50.5086Z" fill="#3B3E7D"/>
<path d="M13.5523 78.1653H11.862C11.4227 78.1653 11.0664 77.809 11.0664 77.3697V75.6794C11.0664 75.2401 11.4227 74.8839 11.862 74.8839C12.3013 74.8839 12.6576 75.2401 12.6576 75.6794V76.5742H13.5523C13.9916 76.5742 14.3479 76.9304 14.3479 77.3697C14.3479 77.809 13.9916 78.1653 13.5523 78.1653Z" fill="#B4CAE3"/>
<path d="M59.2702 78.1653H55.9057C55.4664 78.1653 55.1101 77.809 55.1101 77.3697C55.1101 76.9304 55.4664 76.5742 55.9057 76.5742H59.2702C59.7095 76.5742 60.0658 76.9304 60.0658 77.3697C60.0658 77.809 59.7095 78.1653 59.2702 78.1653ZM52.7387 78.1653H49.3742C48.9349 78.1653 48.5786 77.809 48.5786 77.3697C48.5786 76.9304 48.9349 76.5742 49.3742 76.5742H52.7387C53.178 76.5742 53.5343 76.9304 53.5343 77.3697C53.5343 77.809 53.178 78.1653 52.7387 78.1653ZM46.2072 78.1653H42.8427C42.4034 78.1653 42.0471 77.809 42.0471 77.3697C42.0471 76.9304 42.4034 76.5742 42.8427 76.5742H46.2072C46.6465 76.5742 47.0028 76.9304 47.0028 77.3697C47.0028 77.809 46.6465 78.1653 46.2072 78.1653ZM39.6757 78.1653H36.3112C35.8719 78.1653 35.5156 77.809 35.5156 77.3697C35.5156 76.9304 35.8719 76.5742 36.3112 76.5742H39.6757C40.115 76.5742 40.4713 76.9304 40.4713 77.3697C40.4713 77.809 40.115 78.1653 39.6757 78.1653ZM33.1442 78.1653H29.7797C29.3404 78.1653 28.9841 77.809 28.9841 77.3697C28.9841 76.9304 29.3404 76.5742 29.7797 76.5742H33.1442C33.5835 76.5742 33.9397 76.9304 33.9397 77.3697C33.9397 77.809 33.5835 78.1653 33.1442 78.1653ZM26.6135 78.1653H23.249C22.8097 78.1653 22.4534 77.809 22.4534 77.3697C22.4534 76.9304 22.8097 76.5742 23.249 76.5742H26.6135C27.0528 76.5742 27.409 76.9304 27.409 77.3697C27.4082 77.809 27.052 78.1653 26.6135 78.1653ZM20.082 78.1653H16.7175C16.2782 78.1653 15.9219 77.809 15.9219 77.3697C15.9219 76.9304 16.2782 76.5742 16.7175 76.5742H20.082C20.5213 76.5742 20.8775 76.9304 20.8775 77.3697C20.8767 77.809 20.5213 78.1653 20.082 78.1653Z" fill="#B4CAE3"/>
<path d="M64.1265 78.1653H62.4362C61.9969 78.1653 61.6406 77.809 61.6406 77.3697C61.6406 76.9304 61.9969 76.5742 62.4362 76.5742H63.3309V75.6794C63.3309 75.2401 63.6872 74.8839 64.1265 74.8839C64.5658 74.8839 64.9221 75.2401 64.9221 75.6794V77.3697C64.9221 77.809 64.5658 78.1653 64.1265 78.1653Z" fill="#B4CAE3"/>
<path d="M64.1276 73.4297C63.6883 73.4297 63.332 73.0734 63.332 72.6341V69.3986C63.332 68.9593 63.6883 68.603 64.1276 68.603C64.5669 68.603 64.9232 68.9593 64.9232 69.3986V72.6341C64.9232 73.0742 64.5669 73.4297 64.1276 73.4297ZM64.1276 67.1497C63.6883 67.1497 63.332 66.7934 63.332 66.3541V63.1186C63.332 62.6793 63.6883 62.323 64.1276 62.323C64.5669 62.323 64.9232 62.6793 64.9232 63.1186V66.3541C64.9232 66.7934 64.5669 67.1497 64.1276 67.1497ZM64.1276 60.8688C63.6883 60.8688 63.332 60.5126 63.332 60.0733V56.8377C63.332 56.3984 63.6883 56.0421 64.1276 56.0421C64.5669 56.0421 64.9232 56.3984 64.9232 56.8377V60.0733C64.9232 60.5134 64.5669 60.8688 64.1276 60.8688ZM64.1276 54.5888C63.6883 54.5888 63.332 54.2325 63.332 53.7932V50.5577C63.332 50.1184 63.6883 49.7621 64.1276 49.7621C64.5669 49.7621 64.9232 50.1184 64.9232 50.5577V53.7932C64.9232 54.2325 64.5669 54.5888 64.1276 54.5888ZM64.1276 48.308C63.6883 48.308 63.332 47.9517 63.332 47.5124V44.2769C63.332 43.8376 63.6883 43.4813 64.1276 43.4813C64.5669 43.4813 64.9232 43.8376 64.9232 44.2769V47.5124C64.9232 47.9517 64.5669 48.308 64.1276 48.308ZM64.1276 42.028C63.6883 42.028 63.332 41.6717 63.332 41.2324V37.9969C63.332 37.5576 63.6883 37.2013 64.1276 37.2013C64.5669 37.2013 64.9232 37.5576 64.9232 37.9969V41.2324C64.9232 41.6717 64.5669 42.028 64.1276 42.028Z" fill="#B4CAE3"/>
<path d="M64.1265 35.7472C63.6872 35.7472 63.3309 35.3909 63.3309 34.9516V34.0569H62.4362C61.9969 34.0569 61.6406 33.7006 61.6406 33.2613C61.6406 32.822 61.9969 32.4657 62.4362 32.4657H64.1265C64.5658 32.4657 64.9221 32.822 64.9221 33.2613V34.9516C64.9221 35.3909 64.5658 35.7472 64.1265 35.7472Z" fill="#B4CAE3"/>
<path d="M59.2702 34.0569H55.9057C55.4664 34.0569 55.1101 33.7006 55.1101 33.2613C55.1101 32.822 55.4664 32.4657 55.9057 32.4657H59.2702C59.7095 32.4657 60.0658 32.822 60.0658 33.2613C60.0658 33.7014 59.7095 34.0569 59.2702 34.0569ZM52.7387 34.0569H49.3742C48.9349 34.0569 48.5786 33.7006 48.5786 33.2613C48.5786 32.822 48.9349 32.4657 49.3742 32.4657H52.7387C53.178 32.4657 53.5343 32.822 53.5343 33.2613C53.5343 33.7014 53.178 34.0569 52.7387 34.0569ZM46.2072 34.0569H42.8427C42.4034 34.0569 42.0471 33.7006 42.0471 33.2613C42.0471 32.822 42.4034 32.4657 42.8427 32.4657H46.2072C46.6465 32.4657 47.0028 32.822 47.0028 33.2613C47.0028 33.7014 46.6465 34.0569 46.2072 34.0569ZM39.6757 34.0569H36.3112C35.8719 34.0569 35.5156 33.7006 35.5156 33.2613C35.5156 32.822 35.8719 32.4657 36.3112 32.4657H39.6757C40.115 32.4657 40.4713 32.822 40.4713 33.2613C40.4713 33.7014 40.115 34.0569 39.6757 34.0569ZM33.1442 34.0569H29.7797C29.3404 34.0569 28.9841 33.7006 28.9841 33.2613C28.9841 32.822 29.3404 32.4657 29.7797 32.4657H33.1442C33.5835 32.4657 33.9397 32.822 33.9397 33.2613C33.9397 33.7014 33.5835 34.0569 33.1442 34.0569ZM26.6135 34.0569H23.249C22.8097 34.0569 22.4534 33.7006 22.4534 33.2613C22.4534 32.822 22.8097 32.4657 23.249 32.4657H26.6135C27.0528 32.4657 27.409 32.822 27.409 33.2613C27.4082 33.7014 27.052 34.0569 26.6135 34.0569ZM20.082 34.0569H16.7175C16.2782 34.0569 15.9219 33.7006 15.9219 33.2613C15.9219 32.822 16.2782 32.4657 16.7175 32.4657H20.082C20.5213 32.4657 20.8775 32.822 20.8775 33.2613C20.8767 33.7014 20.5213 34.0569 20.082 34.0569Z" fill="#B4CAE3"/>
<path d="M11.862 35.7472C11.4227 35.7472 11.0664 35.3909 11.0664 34.9516V33.2613C11.0664 32.822 11.4227 32.4657 11.862 32.4657H13.5523C13.9916 32.4657 14.3479 32.822 14.3479 33.2613C14.3479 33.7006 13.9916 34.0569 13.5523 34.0569H12.6576V34.9516C12.6576 35.3909 12.3013 35.7472 11.862 35.7472Z" fill="#B4CAE3"/>
<path d="M11.862 73.4297C11.4227 73.4297 11.0664 73.0734 11.0664 72.6341V69.3986C11.0664 68.9593 11.4227 68.603 11.862 68.603C12.3013 68.603 12.6576 68.9593 12.6576 69.3986V72.6341C12.6576 73.0742 12.3013 73.4297 11.862 73.4297ZM11.862 67.1497C11.4227 67.1497 11.0664 66.7934 11.0664 66.3541V63.1186C11.0664 62.6793 11.4227 62.323 11.862 62.323C12.3013 62.323 12.6576 62.6793 12.6576 63.1186V66.3541C12.6576 66.7934 12.3013 67.1497 11.862 67.1497ZM11.862 60.8688C11.4227 60.8688 11.0664 60.5126 11.0664 60.0733V56.8377C11.0664 56.3984 11.4227 56.0421 11.862 56.0421C12.3013 56.0421 12.6576 56.3984 12.6576 56.8377V60.0733C12.6576 60.5134 12.3013 60.8688 11.862 60.8688ZM11.862 54.5888C11.4227 54.5888 11.0664 54.2325 11.0664 53.7932V50.5577C11.0664 50.1184 11.4227 49.7621 11.862 49.7621C12.3013 49.7621 12.6576 50.1184 12.6576 50.5577V53.7932C12.6576 54.2325 12.3013 54.5888 11.862 54.5888ZM11.862 48.308C11.4227 48.308 11.0664 47.9517 11.0664 47.5124V44.2769C11.0664 43.8376 11.4227 43.4813 11.862 43.4813C12.3013 43.4813 12.6576 43.8376 12.6576 44.2769V47.5124C12.6576 47.9517 12.3013 48.308 11.862 48.308ZM11.862 42.028C11.4227 42.028 11.0664 41.6717 11.0664 41.2324V37.9969C11.0664 37.5576 11.4227 37.2013 11.862 37.2013C12.3013 37.2013 12.6576 37.5576 12.6576 37.9969V41.2324C12.6576 41.6717 12.3013 42.028 11.862 42.028Z" fill="#B4CAE3"/>
<path d="M86.6646 89.0625C86.2253 89.0625 85.869 88.7062 85.869 88.2669V84.8871C85.869 84.4478 86.2253 84.0915 86.6646 84.0915C87.1039 84.0915 87.4602 84.4478 87.4602 84.8871V88.2669C87.4602 88.7062 87.1039 89.0625 86.6646 89.0625ZM86.6646 82.5011C86.2253 82.5011 85.869 82.1449 85.869 81.7056V78.3257C85.869 77.8864 86.2253 77.5302 86.6646 77.5302C87.1039 77.5302 87.4602 77.8864 87.4602 78.3257V81.7056C87.4602 82.1457 87.1039 82.5011 86.6646 82.5011ZM86.6646 75.9406C86.2253 75.9406 85.869 75.5843 85.869 75.145V71.7652C85.869 71.3259 86.2253 70.9696 86.6646 70.9696C87.1039 70.9696 87.4602 71.3259 87.4602 71.7652V75.145C87.4602 75.5843 87.1039 75.9406 86.6646 75.9406ZM86.6646 69.3793C86.2253 69.3793 85.869 69.023 85.869 68.5837V65.2039C85.869 64.7646 86.2253 64.4083 86.6646 64.4083C87.1039 64.4083 87.4602 64.7646 87.4602 65.2039V68.5837C87.4602 69.023 87.1039 69.3793 86.6646 69.3793ZM86.6646 62.8179C86.2253 62.8179 85.869 62.4617 85.869 62.0224V58.6425C85.869 58.2032 86.2253 57.847 86.6646 57.847C87.1039 57.847 87.4602 58.2032 87.4602 58.6425V62.0224C87.4602 62.4617 87.1039 62.8179 86.6646 62.8179ZM83.9361 58.9859H80.5563C80.117 58.9859 79.7607 58.6297 79.7607 58.1904C79.7607 57.7511 80.117 57.3948 80.5563 57.3948H83.9361C84.3754 57.3948 84.7317 57.7511 84.7317 58.1904C84.7317 58.6297 84.3754 58.9859 83.9361 58.9859ZM77.3748 58.9859H73.9949C73.5556 58.9859 73.1994 58.6297 73.1994 58.1904C73.1994 57.7511 73.5556 57.3948 73.9949 57.3948H77.3748C77.8141 57.3948 78.1703 57.7511 78.1703 58.1904C78.1703 58.6297 77.8141 58.9859 77.3748 58.9859ZM70.8134 58.9859H67.4336C66.9943 58.9859 66.638 58.6297 66.638 58.1904C66.638 57.7511 66.9943 57.3948 67.4336 57.3948H70.8134C71.2527 57.3948 71.609 57.7511 71.609 58.1904C71.609 58.6297 71.2527 58.9859 70.8134 58.9859ZM64.2529 58.9859H64.1804C63.7411 58.9859 63.3848 58.6297 63.3848 58.1904C63.3848 57.7511 63.7411 57.3948 64.1804 57.3948H64.2529C64.6922 57.3948 65.0485 57.7511 65.0485 58.1904C65.0477 58.6297 64.6922 58.9859 64.2529 58.9859Z" fill="#B4CAE3"/>
<path d="M262.078 54.3913L261.943 59.1083L266.363 59.2349C266.553 60.3593 266.933 61.4548 267.487 62.4841L264.355 65.4407L267.595 68.8721L270.592 66.0421C271.767 66.8949 273.079 67.4833 274.445 67.796L274.318 72.2165L279.035 72.3519L279.166 67.796C280.094 67.5873 280.997 67.2536 281.855 66.7917L284.811 69.924L288.243 66.6845L285.413 63.6876C286.265 62.5131 286.854 61.2009 287.167 59.8346L291.031 59.9466L291.167 55.2288L287.167 55.1143C286.901 53.9294 286.436 52.7824 285.758 51.7264L288.756 48.8963L285.517 45.4649L282.384 48.4216C281.225 47.7082 279.959 47.2391 278.652 47.0118L278.78 42.5647L274.063 42.4293L273.925 47.2504C272.939 47.5285 271.987 47.9516 271.098 48.5231L268.268 45.5246L264.836 48.7642L267.793 51.8957C267.283 52.7251 266.897 53.6078 266.635 54.5235L262.078 54.3913ZM273.855 54.309C275.59 52.6719 278.332 52.7501 279.97 54.4848C281.607 56.2194 281.529 58.9624 279.794 60.5995C278.06 62.2366 275.317 62.1585 273.68 60.4238C272.042 58.6892 272.121 55.947 273.855 54.309Z" fill="#007EFF"/>
<path d="M277.558 64.272C281.374 63.8617 284.136 60.436 283.726 56.6193C283.315 52.8026 279.889 50.0418 276.073 50.4521C272.257 50.8624 269.495 54.2881 269.906 58.1048C270.317 61.9207 273.742 64.6823 277.558 64.272ZM273.857 54.3091C275.592 52.672 278.334 52.7502 279.972 54.4848C281.609 56.2195 281.531 58.9625 279.796 60.5996C278.061 62.2367 275.318 62.1585 273.681 60.4239C272.043 58.6892 272.122 55.947 273.857 54.3091Z" fill="#0060E6"/>
<path d="M293.119 56.4024L293.041 59.1414L295.608 59.2147C295.718 59.8676 295.938 60.5036 296.26 61.1017L294.441 62.8186L296.322 64.8112L298.063 63.1677C298.745 63.6626 299.507 64.0044 300.3 64.1865L300.226 66.7538L302.966 66.832L303.042 64.1865C303.581 64.0656 304.106 63.8714 304.603 63.6029L306.32 65.4222L308.313 63.5409L306.669 61.8006C307.164 61.1187 307.506 60.3561 307.687 59.563L309.931 59.6274L310.01 56.8884L307.687 56.8215C307.532 56.134 307.262 55.4674 306.868 54.8539L308.609 53.2104L306.728 51.2178L304.909 52.9347C304.236 52.5204 303.5 52.248 302.741 52.1158L302.816 49.5331L300.077 49.455L299.997 52.2544C299.424 52.4156 298.871 52.6615 298.355 52.9936L296.712 51.2525L294.719 53.1338L296.436 54.9523C296.14 55.4335 295.916 55.9462 295.764 56.4782L293.119 56.4024ZM299.959 56.3548C300.966 55.4037 302.558 55.4496 303.509 56.4572C304.46 57.4648 304.415 59.0567 303.407 60.0079C302.399 60.959 300.807 60.9131 299.856 59.9055C298.906 58.8988 298.951 57.306 299.959 56.3548Z" fill="#007EFF"/>
<path d="M302.11 62.1399C304.326 61.9013 305.929 59.912 305.691 57.6961C305.453 55.4803 303.463 53.877 301.247 54.1148C299.031 54.3534 297.428 56.3428 297.666 58.5586C297.904 60.7753 299.894 62.3785 302.11 62.1399ZM299.96 56.3548C300.968 55.4037 302.56 55.4496 303.511 56.4572C304.462 57.4648 304.416 59.0568 303.408 60.0079C302.401 60.9591 300.808 60.9131 299.858 59.9055C298.907 58.8988 298.952 57.306 299.96 56.3548Z" fill="#0060E6"/>
<path d="M322.406 78.1652H320.716C320.276 78.1652 319.92 77.8089 319.92 77.3696C319.92 76.9303 320.276 76.574 320.716 76.574H321.61V75.6793C321.61 75.24 321.966 74.8837 322.406 74.8837C322.845 74.8837 323.201 75.24 323.201 75.6793V77.3696C323.201 77.8089 322.845 78.1652 322.406 78.1652Z" fill="#B4CAE3"/>
<path d="M317.505 78.1652H314.091C313.652 78.1652 313.295 77.8089 313.295 77.3696C313.295 76.9303 313.652 76.574 314.091 76.574H317.505C317.944 76.574 318.3 76.9303 318.3 77.3696C318.3 77.8089 317.944 78.1652 317.505 78.1652ZM310.879 78.1652H307.465C307.026 78.1652 306.669 77.8089 306.669 77.3696C306.669 76.9303 307.026 76.574 307.465 76.574H310.879C311.318 76.574 311.674 76.9303 311.674 77.3696C311.674 77.8089 311.318 78.1652 310.879 78.1652ZM304.253 78.1652H300.839C300.4 78.1652 300.044 77.8089 300.044 77.3696C300.044 76.9303 300.4 76.574 300.839 76.574H304.253C304.692 76.574 305.048 76.9303 305.048 77.3696C305.048 77.8089 304.692 78.1652 304.253 78.1652ZM297.627 78.1652H294.213C293.774 78.1652 293.418 77.8089 293.418 77.3696C293.418 76.9303 293.774 76.574 294.213 76.574H297.627C298.066 76.574 298.423 76.9303 298.423 77.3696C298.422 77.8089 298.066 78.1652 297.627 78.1652ZM291.001 78.1652H287.588C287.148 78.1652 286.792 77.8089 286.792 77.3696C286.792 76.9303 287.148 76.574 287.588 76.574H291.001C291.441 76.574 291.797 76.9303 291.797 77.3696C291.796 77.8089 291.44 78.1652 291.001 78.1652ZM284.375 78.1652H280.961C280.522 78.1652 280.165 77.8089 280.165 77.3696C280.165 76.9303 280.522 76.574 280.961 76.574H284.375C284.814 76.574 285.17 76.9303 285.17 77.3696C285.17 77.8089 284.814 78.1652 284.375 78.1652ZM277.749 78.1652H274.335C273.896 78.1652 273.54 77.8089 273.54 77.3696C273.54 76.9303 273.896 76.574 274.335 76.574H277.749C278.188 76.574 278.544 76.9303 278.544 77.3696C278.544 77.8089 278.188 78.1652 277.749 78.1652ZM271.123 78.1652H267.709C267.27 78.1652 266.914 77.8089 266.914 77.3696C266.914 76.9303 267.27 76.574 267.709 76.574H271.123C271.562 76.574 271.919 76.9303 271.919 77.3696C271.919 77.8089 271.562 78.1652 271.123 78.1652ZM264.497 78.1652H261.084C260.644 78.1652 260.288 77.8089 260.288 77.3696C260.288 76.9303 260.644 76.574 261.084 76.574H264.497C264.936 76.574 265.293 76.9303 265.293 77.3696C265.292 77.8089 264.936 78.1652 264.497 78.1652ZM257.871 78.1652H254.458C254.018 78.1652 253.662 77.8089 253.662 77.3696C253.662 76.9303 254.018 76.574 254.458 76.574H257.871C258.311 76.574 258.667 76.9303 258.667 77.3696C258.666 77.8089 258.31 78.1652 257.871 78.1652Z" fill="#B4CAE3"/>
<path d="M251.246 78.1652H249.555C249.116 78.1652 248.76 77.8089 248.76 77.3696V75.6793C248.76 75.24 249.116 74.8837 249.555 74.8837C249.995 74.8837 250.351 75.24 250.351 75.6793V76.574H251.246C251.685 76.574 252.041 76.9303 252.041 77.3696C252.041 77.8089 251.685 78.1652 251.246 78.1652Z" fill="#B4CAE3"/>
<path d="M249.557 73.2176C249.118 73.2176 248.762 72.8613 248.762 72.422V68.9608C248.762 68.5215 249.118 68.1652 249.557 68.1652C249.997 68.1652 250.353 68.5215 250.353 68.9608V72.422C250.352 72.8613 249.997 73.2176 249.557 73.2176ZM249.557 66.4999C249.118 66.4999 248.762 66.1436 248.762 65.7043V62.2431C248.762 61.8038 249.118 61.4475 249.557 61.4475C249.997 61.4475 250.353 61.8038 250.353 62.2431V65.7043C250.352 66.1436 249.997 66.4999 249.557 66.4999ZM249.557 59.7814C249.118 59.7814 248.762 59.4251 248.762 58.9858V55.5246C248.762 55.0853 249.118 54.729 249.557 54.729C249.997 54.729 250.353 55.0853 250.353 55.5246V58.9858C250.352 59.4259 249.997 59.7814 249.557 59.7814ZM249.557 53.0637C249.118 53.0637 248.762 52.7074 248.762 52.2681V48.8069C248.762 48.3676 249.118 48.0113 249.557 48.0113C249.997 48.0113 250.353 48.3676 250.353 48.8069V52.2681C250.352 52.7074 249.997 53.0637 249.557 53.0637ZM249.557 46.3452C249.118 46.3452 248.762 45.9889 248.762 45.5496V42.0892C248.762 41.6499 249.118 41.2936 249.557 41.2936C249.997 41.2936 250.353 41.6499 250.353 42.0892V45.5496C250.352 45.9897 249.997 46.3452 249.557 46.3452Z" fill="#B4CAE3"/>
<path d="M249.557 39.6274C249.118 39.6274 248.762 39.2711 248.762 38.8318V37.1415C248.762 36.7022 249.118 36.3459 249.557 36.3459H251.248C251.687 36.3459 252.043 36.7022 252.043 37.1415C252.043 37.5808 251.687 37.9371 251.248 37.9371H250.353V38.8318C250.352 39.2711 249.997 39.6274 249.557 39.6274Z" fill="#B4CAE3"/>
<path d="M317.505 37.9371H314.092C313.652 37.9371 313.296 37.5808 313.296 37.1415C313.296 36.7022 313.652 36.3459 314.092 36.3459H317.505C317.945 36.3459 318.301 36.7022 318.301 37.1415C318.301 37.5808 317.944 37.9371 317.505 37.9371ZM310.879 37.9371H307.465C307.026 37.9371 306.669 37.5808 306.669 37.1415C306.669 36.7022 307.026 36.3459 307.465 36.3459H310.879C311.318 36.3459 311.674 36.7022 311.674 37.1415C311.674 37.5808 311.318 37.9371 310.879 37.9371ZM304.253 37.9371H300.839C300.4 37.9371 300.044 37.5808 300.044 37.1415C300.044 36.7022 300.4 36.3459 300.839 36.3459H304.253C304.692 36.3459 305.048 36.7022 305.048 37.1415C305.048 37.5808 304.692 37.9371 304.253 37.9371ZM297.627 37.9371H294.213C293.774 37.9371 293.418 37.5808 293.418 37.1415C293.418 36.7022 293.774 36.3459 294.213 36.3459H297.627C298.066 36.3459 298.423 36.7022 298.423 37.1415C298.423 37.5808 298.066 37.9371 297.627 37.9371ZM291.001 37.9371H287.588C287.148 37.9371 286.792 37.5808 286.792 37.1415C286.792 36.7022 287.148 36.3459 287.588 36.3459H291.001C291.441 36.3459 291.797 36.7022 291.797 37.1415C291.797 37.5808 291.44 37.9371 291.001 37.9371ZM284.375 37.9371H280.961C280.522 37.9371 280.165 37.5808 280.165 37.1415C280.165 36.7022 280.522 36.3459 280.961 36.3459H284.375C284.814 36.3459 285.17 36.7022 285.17 37.1415C285.17 37.5808 284.814 37.9371 284.375 37.9371ZM277.749 37.9371H274.335C273.896 37.9371 273.54 37.5808 273.54 37.1415C273.54 36.7022 273.896 36.3459 274.335 36.3459H277.749C278.188 36.3459 278.544 36.7022 278.544 37.1415C278.544 37.5808 278.188 37.9371 277.749 37.9371ZM271.123 37.9371H267.709C267.27 37.9371 266.914 37.5808 266.914 37.1415C266.914 36.7022 267.27 36.3459 267.709 36.3459H271.123C271.562 36.3459 271.919 36.7022 271.919 37.1415C271.919 37.5808 271.562 37.9371 271.123 37.9371ZM264.497 37.9371H261.084C260.644 37.9371 260.288 37.5808 260.288 37.1415C260.288 36.7022 260.644 36.3459 261.084 36.3459H264.497C264.936 36.3459 265.293 36.7022 265.293 37.1415C265.293 37.5808 264.936 37.9371 264.497 37.9371ZM257.871 37.9371H254.458C254.018 37.9371 253.662 37.5808 253.662 37.1415C253.662 36.7022 254.018 36.3459 254.458 36.3459H257.871C258.311 36.3459 258.667 36.7022 258.667 37.1415C258.667 37.5808 258.31 37.9371 257.871 37.9371Z" fill="#B4CAE3"/>
<path d="M322.406 39.6274C321.966 39.6274 321.61 39.2711 321.61 38.8318V37.9371H320.716C320.276 37.9371 319.92 37.5808 319.92 37.1415C319.92 36.7022 320.276 36.3459 320.716 36.3459H322.406C322.845 36.3459 323.201 36.7022 323.201 37.1415V38.8318C323.201 39.2711 322.845 39.6274 322.406 39.6274Z" fill="#B4CAE3"/>
<path d="M322.407 73.2176C321.968 73.2176 321.611 72.8613 321.611 72.422V68.9608C321.611 68.5215 321.968 68.1652 322.407 68.1652C322.846 68.1652 323.202 68.5215 323.202 68.9608V72.422C323.202 72.8613 322.846 73.2176 322.407 73.2176ZM322.407 66.4999C321.968 66.4999 321.611 66.1436 321.611 65.7043V62.2431C321.611 61.8038 321.968 61.4475 322.407 61.4475C322.846 61.4475 323.202 61.8038 323.202 62.2431V65.7043C323.202 66.1436 322.846 66.4999 322.407 66.4999ZM322.407 59.7814C321.968 59.7814 321.611 59.4251 321.611 58.9858V55.5246C321.611 55.0853 321.968 54.729 322.407 54.729C322.846 54.729 323.202 55.0853 323.202 55.5246V58.9858C323.202 59.4259 322.846 59.7814 322.407 59.7814ZM322.407 53.0637C321.968 53.0637 321.611 52.7074 321.611 52.2681V48.8069C321.611 48.3676 321.968 48.0113 322.407 48.0113C322.846 48.0113 323.202 48.3676 323.202 48.8069V52.2681C323.202 52.7074 322.846 53.0637 322.407 53.0637ZM322.407 46.3452C321.968 46.3452 321.611 45.9889 321.611 45.5496V42.0892C321.611 41.6499 321.968 41.2936 322.407 41.2936C322.846 41.2936 323.202 41.6499 323.202 42.0892V45.5496C323.202 45.9897 322.846 46.3452 322.407 46.3452Z" fill="#B4CAE3"/>
<path d="M227.069 89.0624C226.63 89.0624 226.273 88.7061 226.273 88.2668V84.887C226.273 84.4477 226.63 84.0914 227.069 84.0914C227.508 84.0914 227.865 84.4477 227.865 84.887V88.2668C227.865 88.7061 227.508 89.0624 227.069 89.0624ZM227.069 82.501C226.63 82.501 226.273 82.1448 226.273 81.7055V78.3256C226.273 77.8863 226.63 77.5301 227.069 77.5301C227.508 77.5301 227.865 77.8863 227.865 78.3256V81.7055C227.865 82.1456 227.508 82.501 227.069 82.501ZM227.069 75.9405C226.63 75.9405 226.273 75.5842 226.273 75.1449V71.7651C226.273 71.3258 226.63 70.9695 227.069 70.9695C227.508 70.9695 227.865 71.3258 227.865 71.7651V75.1449C227.865 75.5842 227.508 75.9405 227.069 75.9405ZM227.069 69.3792C226.63 69.3792 226.273 69.0229 226.273 68.5836V65.2038C226.273 64.7645 226.63 64.4082 227.069 64.4082C227.508 64.4082 227.865 64.7645 227.865 65.2038V68.5836C227.865 69.0229 227.508 69.3792 227.069 69.3792ZM227.069 62.8178C226.63 62.8178 226.273 62.4616 226.273 62.0223V58.6424C226.273 58.2031 226.63 57.8469 227.069 57.8469C227.508 57.8469 227.865 58.2031 227.865 58.6424V62.0223C227.865 62.4616 227.508 62.8178 227.069 62.8178ZM249.554 58.4579H248.954C248.514 58.4579 248.158 58.1016 248.158 57.6623C248.158 57.223 248.514 56.8667 248.954 56.8667H249.554C249.993 56.8667 250.35 57.223 250.35 57.6623C250.349 58.1016 249.993 58.4579 249.554 58.4579ZM245.772 58.4579H242.392C241.953 58.4579 241.597 58.1016 241.597 57.6623C241.597 57.223 241.953 56.8667 242.392 56.8667H245.772C246.211 56.8667 246.568 57.223 246.568 57.6623C246.568 58.1016 246.211 58.4579 245.772 58.4579ZM239.212 58.4579H235.832C235.392 58.4579 235.036 58.1016 235.036 57.6623C235.036 57.223 235.392 56.8667 235.832 56.8667H239.212C239.651 56.8667 240.007 57.223 240.007 57.6623C240.006 58.1016 239.65 58.4579 239.212 58.4579ZM232.65 58.4579H229.27C228.831 58.4579 228.475 58.1016 228.475 57.6623C228.475 57.223 228.831 56.8667 229.27 56.8667H232.65C233.089 56.8667 233.446 57.223 233.446 57.6623C233.445 58.1016 233.089 58.4579 232.65 58.4579Z" fill="#B4CAE3"/>
<path d="M26.9319 150.396L26.9238 150.408H26.9375L26.9319 150.396Z" fill="#0060E6"/>
<path d="M26.9227 150.408L26.8711 150.479L26.8872 150.408H26.9227Z" fill="#0060E6"/>
<path d="M323.592 93.1041V244.685C323.592 250.935 318.528 255.999 312.277 255.999H53.9494C47.6992 255.999 42.6348 250.935 42.6348 244.685V93.1041C42.6348 86.8539 47.6992 81.7894 53.9494 81.7894H312.278C318.528 81.7894 323.592 86.8539 323.592 93.1041Z" fill="#3B3E7D"/>
<path d="M323.592 171.959V244.685C323.592 250.935 318.528 255.999 312.277 255.999H53.9494C47.6992 255.999 42.6348 250.935 42.6348 244.685V171.959H323.592Z" fill="#18285D"/>
<path d="M311.114 100.81V236.979C311.114 240.986 307.868 244.235 303.861 244.235H62.3714C60.6787 244.235 59.1222 243.654 57.8865 242.682C57.56 242.424 57.2537 242.137 56.9756 241.828C55.8173 240.546 55.1152 238.843 55.1152 236.979V100.81C55.1152 96.8031 58.3661 93.5538 62.3714 93.5538H303.86C305.2 93.5538 306.453 93.9166 307.53 94.5509C308.541 95.1458 309.398 95.9793 310.018 96.9748C310.714 98.0871 311.114 99.4026 311.114 100.81Z" fill="white"/>
<path d="M349.839 249.943V250.911C349.839 255.733 348.293 260.192 345.667 263.819C341.663 269.357 335.147 272.96 327.79 272.96H38.4404C31.0827 272.96 24.5665 269.357 20.5628 263.819C17.9375 260.192 16.3906 255.733 16.3906 250.911V249.943H349.839Z" fill="#021147"/>
<path d="M145.744 249.943V250.164C145.744 251.91 146.913 253.326 148.356 253.326H216.428C217.87 253.326 219.038 251.91 219.038 250.164V249.943H145.744Z" fill="white"/>
<path d="M311.114 100.81V108.844H55.1172V100.81C55.1172 99.264 55.5984 97.8333 56.4254 96.6588C57.7337 94.7815 59.91 93.5547 62.3734 93.5547H303.861C306.324 93.5547 308.5 94.7823 309.806 96.6588C310.633 97.8333 311.114 99.264 311.114 100.81Z" fill="#D9E4F5"/>
<path d="M249.297 103.622H113.478C113.143 103.622 112.869 103.348 112.869 103.013V100.168C112.869 99.8331 113.143 99.5599 113.477 99.5599H249.297C249.631 99.5599 249.904 99.8339 249.904 100.168V103.014C249.905 103.348 249.631 103.622 249.297 103.622Z" fill="white"/>
<path d="M80.1476 101.59V103.096C80.1476 103.528 79.6801 103.798 79.3061 103.582L78.0019 102.829L76.6985 102.076C76.3245 101.86 76.3245 101.321 76.6985 101.105L78.0019 100.352L79.3061 99.5993C79.6801 99.3833 80.1476 99.6533 80.1476 100.085V101.59Z" fill="#3B3E7D"/>
<path d="M86.9316 101.59V103.096C86.9316 103.528 87.3992 103.798 87.7732 103.582L89.0774 102.829L90.3816 102.076C90.7556 101.86 90.7556 101.321 90.3816 101.105L89.0774 100.352L87.7732 99.5993C87.3992 99.3833 86.9316 99.6533 86.9316 100.085V101.59Z" fill="#3B3E7D"/>
<path d="M309.806 96.658H56.4258C57.734 94.7807 59.9104 93.5538 62.3737 93.5538H303.861C306.325 93.5538 308.5 94.7815 309.806 96.658Z" fill="#B9D2F0"/>
<path d="M208.595 74.7525H143.447C139.031 74.7525 135.451 71.1728 135.451 66.7564V65.1491C135.451 60.7327 139.031 57.153 143.447 57.153H208.595C213.011 57.153 216.591 60.7327 216.591 65.1491V66.7564C216.591 71.1728 213.01 74.7525 208.595 74.7525Z" fill="#007EFF"/>
<path d="M207.913 60.7238C205.029 60.7238 202.684 63.0695 202.684 65.9527C202.684 68.836 205.029 71.1817 207.913 71.1817C210.796 71.1817 213.141 68.836 213.141 65.9527C213.141 63.0695 210.796 60.7238 207.913 60.7238ZM208.123 67.8832V66.0511H210.486C210.472 66.6983 210.377 67.3142 210.207 67.8832H208.123ZM209.604 69.9701C209.988 69.4825 210.294 68.9223 210.513 68.304H212.106C211.433 69.501 210.303 70.3433 208.975 70.6424C209.199 70.4417 209.41 70.2168 209.604 69.9701ZM210.065 68.304C209.867 68.8183 209.605 69.2866 209.284 69.6969C208.782 70.3369 208.282 70.6625 208.123 70.756V68.304H210.065ZM208.123 63.3782V61.1494C208.185 61.1518 208.248 61.1559 208.31 61.1615C208.572 61.3832 209.392 62.1433 209.949 63.379H208.123V63.3782ZM210.409 63.3782C210.222 62.9276 209.985 62.4963 209.704 62.0933C209.501 61.8015 209.28 61.5283 209.043 61.2784C210.245 61.5694 211.301 62.3255 211.971 63.3782H210.409ZM208.123 65.6311V63.7989H210.121C210.337 64.389 210.46 65.0048 210.484 65.6311H208.123ZM210.905 65.6311C210.882 65.0088 210.768 64.393 210.568 63.7989H212.211C212.5 64.3729 212.668 64.9887 212.711 65.6311H210.905ZM212.72 66.0519C212.707 66.6887 212.572 67.3045 212.316 67.8841H210.646C210.806 67.3118 210.894 66.6959 210.908 66.0519H212.72ZM205.229 67.8832H203.51C203.254 67.3037 203.119 66.6879 203.106 66.0511H204.967C204.981 66.6951 205.069 67.3109 205.229 67.8832ZM205.924 63.3782C206.086 63.0171 206.282 62.6696 206.508 62.3432C206.948 61.7096 207.388 61.309 207.569 61.1559C207.613 61.1526 207.658 61.1502 207.702 61.1486V63.3774L205.924 63.3782ZM207.703 63.7989V65.6311H205.391C205.416 65.0072 205.538 64.3914 205.753 63.7989H207.703ZM203.855 63.3782C204.538 62.3053 205.616 61.5444 206.845 61.2639C206.603 61.5178 206.377 61.7967 206.17 62.0933C205.889 62.4955 205.652 62.9276 205.465 63.3782H203.855ZM207.703 66.0519V67.8841H205.667C205.496 67.3174 205.402 66.7016 205.388 66.0519H207.703ZM203.116 65.6311C203.158 64.9895 203.326 64.3737 203.615 63.7989H205.307C205.106 64.393 204.993 65.0088 204.97 65.6311H203.116ZM205.362 68.304C205.581 68.9223 205.887 69.4833 206.271 69.9701C206.469 70.2224 206.685 70.4522 206.915 70.6561C205.576 70.3708 204.397 69.505 203.72 68.304H205.362ZM207.703 68.304V70.7262C207.385 70.5279 206.391 69.8105 205.811 68.304H207.703Z" fill="white"/>
<path d="M194.699 60.9276C197.441 60.9276 199.671 63.158 199.671 65.8994C199.671 68.6408 197.441 70.8712 194.699 70.8712H144.438C141.697 70.8712 139.466 68.6408 139.466 65.8994C139.466 63.158 141.697 60.9276 144.438 60.9276H194.699ZM194.699 60.4133H144.438C141.413 60.4133 138.951 62.8742 138.951 65.9002C138.951 68.9253 141.412 71.387 144.438 71.387H194.699C197.724 71.387 200.185 68.9261 200.185 65.9002C200.185 62.8742 197.724 60.4133 194.699 60.4133Z" fill="white"/>
<path d="M283.247 126.589V218.151C283.247 221.407 280.607 224.048 277.35 224.048H91.4284C88.1719 224.048 85.5312 221.407 85.5312 218.151V126.589C85.5312 123.333 88.1719 120.692 91.4284 120.692H277.349C280.606 120.692 283.247 123.333 283.247 126.589Z" fill="#D9E4F5"/>
<path d="M283.247 126.589V130.887H85.5312V126.589C85.5312 123.333 88.1719 120.692 91.4284 120.692H277.349C280.606 120.692 283.247 123.333 283.247 126.589Z" fill="#B4CAE3"/>
<path d="M264.258 125.69C264.258 126.794 263.363 127.689 262.259 127.689C261.155 127.689 260.26 126.794 260.26 125.69C260.26 124.585 261.155 123.691 262.259 123.691C263.363 123.691 264.258 124.586 264.258 125.69Z" fill="#3B3E7D"/>
<path d="M270.654 125.69C270.654 126.794 269.76 127.689 268.655 127.689C267.551 127.689 266.656 126.794 266.656 125.69C266.656 124.585 267.551 123.691 268.655 123.691C269.759 123.691 270.654 124.586 270.654 125.69Z" fill="#0060E6"/>
<path d="M277.051 125.69C277.051 126.794 276.156 127.689 275.052 127.689C273.947 127.689 273.053 126.794 273.053 125.69C273.053 124.585 273.947 123.691 275.052 123.691C276.156 123.691 277.051 124.586 277.051 125.69Z" fill="#007EFF"/>
<path d="M110.791 160.475H98.6601C96.5998 160.475 94.9297 158.805 94.9297 156.745V144.614C94.9297 142.553 96.5998 140.883 98.6601 140.883H110.791C112.852 140.883 114.522 142.553 114.522 144.614V156.745C114.521 158.805 112.851 160.475 110.791 160.475Z" fill="#B4CAE3"/>
<path d="M108.192 157.677H96.0605C94.0002 157.677 92.3301 156.007 92.3301 153.946V141.815C92.3301 139.755 94.0002 138.085 96.0605 138.085H108.192C110.252 138.085 111.922 139.755 111.922 141.815V153.946C111.922 156.007 110.252 157.677 108.192 157.677Z" fill="#007EFF"/>
<path d="M105.722 146.082L100.367 147.919L105.722 149.757V152.761L96.709 149.492V146.347L105.722 143.077V146.082Z" fill="white"/>
<path d="M143.151 160.475H131.02C128.959 160.475 127.289 158.805 127.289 156.745V144.614C127.289 142.553 128.959 140.883 131.02 140.883H143.151C145.211 140.883 146.88 142.553 146.88 144.614V156.745C146.88 158.805 145.21 160.475 143.151 160.475Z" fill="#B4CAE3"/>
<path d="M140.551 157.677H128.42C126.36 157.677 124.689 156.007 124.689 153.946V141.815C124.689 139.755 126.36 138.085 128.42 138.085H140.551C142.611 138.085 144.282 139.755 144.282 141.815V153.946C144.282 156.007 142.611 157.677 140.551 157.677Z" fill="#007EFF"/>
<path d="M135.043 141.58H137.751L133.284 154.333H130.576L135.043 141.58Z" fill="white"/>
<path d="M174.364 160.475H162.232C160.172 160.475 158.502 158.805 158.502 156.745V144.614C158.502 142.553 160.172 140.883 162.232 140.883H174.364C176.424 140.883 178.094 142.553 178.094 144.614V156.745C178.093 158.805 176.423 160.475 174.364 160.475Z" fill="#B4CAE3"/>
<path d="M171.764 157.677H159.633C157.573 157.677 155.902 156.007 155.902 153.946V141.815C155.902 139.755 157.573 138.085 159.633 138.085H171.764C173.824 138.085 175.494 139.755 175.494 141.815V153.946C175.494 156.007 173.824 157.677 171.764 157.677Z" fill="#007EFF"/>
<path d="M161.281 143.077L170.294 146.347V149.492L161.281 152.761V149.757L166.636 147.919L161.281 146.082V143.077Z" fill="white"/>
<path d="M271.522 215.452H259.391C257.33 215.452 255.66 213.782 255.66 211.722V199.59C255.66 197.53 257.33 195.86 259.391 195.86H271.522C273.582 195.86 275.252 197.53 275.252 199.59V211.722C275.251 213.782 273.581 215.452 271.522 215.452Z" fill="#B4CAE3"/>
<path d="M268.922 212.653H256.791C254.731 212.653 253.061 210.983 253.061 208.923V196.792C253.061 194.731 254.731 193.061 256.791 193.061H268.922C270.983 193.061 272.653 194.731 272.653 196.792V208.923C272.653 210.983 270.983 212.653 268.922 212.653Z" fill="#007EFF"/>
<path d="M262.674 196.476C259.151 196.476 256.285 199.343 256.285 202.866C256.285 206.389 259.152 209.255 262.674 209.255C266.197 209.255 269.064 206.389 269.064 202.866C269.063 199.342 266.197 196.476 262.674 196.476ZM262.931 205.225V202.986H265.819C265.802 203.777 265.687 204.53 265.478 205.225H262.931ZM264.741 207.775C265.21 207.179 265.583 206.494 265.851 205.739H267.797C266.975 207.202 265.594 208.23 263.972 208.596C264.246 208.351 264.504 208.076 264.741 207.775ZM265.303 205.739C265.062 206.368 264.742 206.94 264.35 207.441C263.737 208.223 263.125 208.621 262.931 208.735V205.739H265.303ZM262.931 199.72V196.996C263.007 197 263.083 197.004 263.16 197.011C263.479 197.282 264.482 198.21 265.163 199.72H262.931ZM265.724 199.72C265.495 199.17 265.206 198.642 264.863 198.15C264.615 197.794 264.343 197.46 264.055 197.154C265.524 197.51 266.815 198.434 267.633 199.719H265.724V199.72ZM262.931 202.472V200.233H265.373C265.637 200.955 265.786 201.707 265.816 202.472H262.931ZM266.33 202.472C266.302 201.712 266.163 200.959 265.918 200.233H267.925C268.279 200.935 268.483 201.688 268.536 202.472H266.33ZM268.548 202.986C268.532 203.764 268.366 204.517 268.054 205.225H266.014C266.209 204.525 266.317 203.772 266.334 202.986H268.548ZM259.394 205.225H257.294C256.982 204.517 256.816 203.764 256.8 202.986H259.074C259.091 203.772 259.199 204.525 259.394 205.225ZM260.243 199.72C260.44 199.279 260.681 198.854 260.957 198.455C261.494 197.682 262.032 197.191 262.253 197.005C262.307 197.001 262.361 196.999 262.416 196.996V199.72H260.243ZM262.417 200.233V202.472H259.592C259.621 201.709 259.771 200.957 260.034 200.233H262.417ZM257.715 199.72C258.549 198.409 259.867 197.479 261.37 197.137C261.075 197.447 260.797 197.787 260.544 198.15C260.202 198.642 259.912 199.17 259.684 199.72H257.715ZM262.417 202.986V205.225H259.929C259.721 204.532 259.606 203.78 259.588 202.986H262.417ZM256.812 202.472C256.863 201.688 257.069 200.936 257.423 200.233H259.49C259.244 200.959 259.106 201.712 259.077 202.472H256.812ZM259.556 205.739C259.824 206.495 260.198 207.179 260.667 207.775C260.91 208.083 261.174 208.363 261.454 208.613C259.817 208.265 258.377 207.207 257.551 205.739H259.556ZM262.417 205.739V208.699C262.028 208.456 260.814 207.58 260.105 205.739H262.417Z" fill="white"/>
<path d="M175.837 170.98H94.5854C93.3393 170.98 92.3301 169.97 92.3301 168.725C92.3301 167.478 93.3401 166.469 94.5854 166.469H175.837C177.083 166.469 178.092 167.479 178.092 168.725C178.092 169.971 177.083 170.98 175.837 170.98Z" fill="#B4CAE3"/>
<path d="M175.837 179.334H94.5854C93.3393 179.334 92.3301 178.324 92.3301 177.079C92.3301 175.832 93.3401 174.823 94.5854 174.823H175.837C177.083 174.823 178.092 175.833 178.092 177.079C178.092 178.324 177.083 179.334 175.837 179.334Z" fill="#B4CAE3"/>
<path d="M175.837 187.688H94.5854C93.3393 187.688 92.3301 186.678 92.3301 185.433C92.3301 184.187 93.3401 183.177 94.5854 183.177H175.837C177.083 183.177 178.092 184.187 178.092 185.433C178.092 186.678 177.083 187.688 175.837 187.688Z" fill="#B4CAE3"/>
<path d="M175.837 196.041H94.5854C93.3393 196.041 92.3301 195.031 92.3301 193.786C92.3301 192.54 93.3401 191.53 94.5854 191.53H175.837C177.083 191.53 178.092 192.54 178.092 193.786C178.092 195.031 177.083 196.041 175.837 196.041Z" fill="#B4CAE3"/>
<path d="M175.837 204.395H94.5854C93.3393 204.395 92.3301 203.385 92.3301 202.14C92.3301 200.894 93.3401 199.885 94.5854 199.885H175.837C177.083 199.885 178.092 200.894 178.092 202.14C178.092 203.385 177.083 204.395 175.837 204.395Z" fill="#B4CAE3"/>
<path d="M175.837 212.748H94.5854C93.3393 212.748 92.3301 211.738 92.3301 210.493C92.3301 209.248 93.3401 208.238 94.5854 208.238H175.837C177.083 208.238 178.092 209.248 178.092 210.493C178.092 211.739 177.083 212.748 175.837 212.748Z" fill="#B4CAE3"/>
<path d="M245.608 191.53H190.237C188.995 191.53 187.93 192.502 187.907 193.744C187.883 195.009 188.902 196.042 190.162 196.042H245.608C246.853 196.042 247.863 195.032 247.863 193.787C247.865 192.54 246.855 191.53 245.608 191.53Z" fill="#B4CAE3"/>
<path d="M245.608 199.884H190.237C188.995 199.884 187.93 200.855 187.907 202.097C187.883 203.362 188.902 204.395 190.162 204.395H245.608C246.853 204.395 247.863 203.385 247.863 202.14C247.865 200.894 246.855 199.884 245.608 199.884Z" fill="#B4CAE3"/>
<path d="M245.608 208.238H190.237C188.995 208.238 187.93 209.209 187.907 210.451C187.883 211.716 188.902 212.749 190.162 212.749H245.608C246.853 212.749 247.863 211.739 247.863 210.494C247.865 209.248 246.855 208.238 245.608 208.238Z" fill="#B4CAE3"/>
<path d="M272.651 140.839V182.681C272.651 182.769 272.647 182.856 272.641 182.942C272.6 183.413 272.455 183.847 272.227 184.219C271.783 184.951 271.027 185.433 270.172 185.433H190.228C189.261 185.433 188.424 184.82 188.018 183.924C187.846 183.55 187.748 183.127 187.748 182.681V140.839C187.748 140.499 187.803 140.175 187.904 139.872C188.053 139.436 188.298 139.05 188.61 138.751C189.043 138.337 189.609 138.085 190.227 138.085H270.171C270.666 138.085 271.126 138.244 271.511 138.522C271.873 138.778 272.171 139.139 272.369 139.565C272.55 139.947 272.651 140.38 272.651 140.839Z" fill="#B4CAE3"/>
<path d="M272.643 182.941C272.602 183.412 272.456 183.846 272.229 184.218L229.846 161.928L228.424 161.18L187.906 139.872C188.055 139.435 188.3 139.049 188.612 138.75L229.846 160.433L231.265 161.18H231.267L272.643 182.941Z" fill="#D9E4F5"/>
<path d="M272.37 139.564L231.266 161.181H231.263L229.844 161.929L188.018 183.924C187.846 183.55 187.748 183.126 187.748 182.681V182.57L228.423 161.182L229.844 160.434L271.511 138.522C271.873 138.778 272.171 139.138 272.37 139.564Z" fill="#D9E4F5"/>
<path d="M62.9452 329.722C80.9903 329.722 95.6188 326.869 95.6188 323.35C95.6188 319.832 80.9903 316.979 62.9452 316.979C44.9 316.979 30.2715 319.832 30.2715 323.35C30.2715 326.869 44.9 329.722 62.9452 329.722Z" fill="#D9E4F5"/>
<path d="M44.5831 216.729L39.8894 219.624C37.8751 218.374 35.5859 217.643 33.2402 217.482C32.8195 216.352 32.5801 215.076 32.5801 213.643C32.5801 202.053 41.7168 180.642 41.7168 180.642L40.8833 204.563C40.2731 210.662 42.2375 214.429 44.5831 216.729Z" fill="#00A0FF"/>
<path d="M57.9278 208.492L39.8882 219.623C35.3839 216.828 29.5061 216.628 24.6915 219.602C18.684 223.309 16.3448 230.703 18.7968 237.059C19.112 237.881 19.5086 238.682 19.9866 239.458C24.1741 246.241 33.0617 248.347 39.8455 244.161C42.2548 242.675 44.0709 240.598 45.2275 238.23C46.3859 235.864 46.8784 233.208 46.6398 230.568L110.157 191.377L110.898 192.579L126.576 192.121L133.961 178.421L134.009 178.327L132.751 175.83L128.737 177.852L127.892 178.277L127.266 178.511L123.029 186.369L114.105 186.631L111.76 182.832L109.417 179.033L109.551 178.784L113.654 171.174L122.578 170.912L125.783 164.964L123.097 165.043L110.106 165.423L102.663 179.229L103.404 180.432L57.9278 208.492ZM35.9901 224.977L38.6952 229.365L40.1066 231.653L36.3859 238.554L28.5469 238.783L24.4288 232.112L24.5634 231.863L28.1504 225.207L35.9901 224.977Z" fill="#0060E6"/>
<path d="M57.9278 208.492L39.8882 219.623C35.3839 216.828 29.5061 216.628 24.6915 219.602C18.684 223.309 16.3448 230.703 18.7968 237.059C23.0174 243.735 31.8308 245.783 38.5687 241.626C40.9772 240.14 42.7941 238.062 43.9508 235.695C45.1091 233.329 45.6016 230.673 45.363 228.033L108.881 188.842L109.621 190.044L125.299 189.586L131.332 178.392L132.741 175.778L125.988 175.976L121.751 183.834L112.827 184.096L110.482 180.297L109.551 178.785L108.14 176.498L112.377 168.639L121.301 168.377L123.097 165.043L110.106 165.423L102.663 179.229L103.404 180.432L57.9278 208.492ZM34.7133 222.442L38.8307 229.117L38.696 229.365L35.1099 236.019L27.2709 236.248L24.5642 231.863L23.1528 229.576L26.8744 222.671L34.7133 222.442Z" fill="#007EFF"/>
<path d="M66.5059 159.504C66.5059 160.985 67.7109 162.191 69.1925 162.191C70.6732 162.191 71.8791 160.985 71.8791 159.504C71.8791 159.316 71.8605 159.132 71.8226 158.954C71.7848 158.779 71.7324 158.61 71.6638 158.449C71.6638 158.449 71.6638 158.449 71.6622 158.447C71.2519 157.49 70.2992 156.818 69.1933 156.818C69.024 156.818 68.8563 156.833 68.6959 156.865H68.6943C68.4049 156.918 68.1317 157.019 67.8834 157.159C67.062 157.62 66.5059 158.499 66.5059 159.504ZM66.925 159.504C66.925 158.505 67.5747 157.654 68.4743 157.355C68.7 157.279 68.941 157.237 69.1925 157.237C69.3682 157.237 69.5399 157.258 69.7035 157.297C70.1017 157.387 70.4628 157.586 70.7498 157.86C71.0472 158.14 71.2681 158.501 71.3793 158.906C71.4325 159.098 71.4599 159.298 71.4599 159.504C71.4599 160.754 70.4427 161.772 69.1925 161.772C67.9423 161.772 66.925 160.754 66.925 159.504Z" fill="#007EFF"/>
<path d="M55.5977 167.662V173.002C55.5977 173.002 57.1896 175.723 59.3442 175.907C61.4956 176.095 63.4084 173.567 63.4084 173.567V168.039L55.5977 167.662Z" fill="#FB9A83"/>
<path d="M61.2598 168.954C61.2598 168.954 61.6056 170.846 63.4095 171.539V169.087L61.2598 168.954Z" fill="#FF6D6B"/>
<path d="M62.801 170.008C54.7589 172.283 52.1198 166.069 50.9954 162.135C50.8713 161.698 50.7584 161.212 50.6609 160.694C50.6568 160.674 50.6536 160.652 50.648 160.629C50.5392 160.046 50.444 159.426 50.3642 158.787C50.3038 158.314 50.253 157.833 50.2079 157.349C50.0934 156.173 50.0185 154.994 49.9693 153.947C49.8548 151.556 51.2872 149.356 53.5272 148.497C56.7555 147.255 61.6572 146.273 66.3009 148.906C68.017 149.878 69.0923 151.68 69.1309 153.651C69.1309 153.651 69.9418 156.801 69.5574 158.214C69.1729 159.627 69.0874 160.055 68.9585 161.936C68.8303 163.817 67.7614 168.348 66.6499 169.289C65.5391 170.229 62.801 170.008 62.801 170.008Z" fill="#FB9A83"/>
<path d="M65.7906 161.672C65.6826 161.648 65.5988 161.555 65.5923 161.439C65.498 159.719 63.9673 158.69 63.952 158.68C63.8351 158.604 63.8028 158.446 63.8794 158.329C63.956 158.212 64.1132 158.18 64.2301 158.256C64.3018 158.304 65.9897 159.432 66.0985 161.411C66.1058 161.551 65.9986 161.671 65.8591 161.679C65.8357 161.679 65.8124 161.677 65.7906 161.672Z" fill="#FF6D6B"/>
<path d="M64.2782 160.48C64.2322 160.47 64.1887 160.447 64.1532 160.411C64.0549 160.311 64.0557 160.151 64.1557 160.052C64.1726 160.036 64.5692 159.649 65.2519 159.51C65.3889 159.482 65.5227 159.57 65.5509 159.707C65.5792 159.844 65.4905 159.979 65.3535 160.006C64.8263 160.114 64.5152 160.409 64.5127 160.413C64.4483 160.476 64.3596 160.499 64.2782 160.48Z" fill="#FF6D6B"/>
<path d="M49.6851 157.732C50.0108 161.995 51.8784 166.592 51.8784 166.592C53.9193 171.094 57.7183 170.269 59.7713 169.653C61.2722 169.203 63.3067 167.537 64.1378 166.772C64.7754 166.186 65.1599 165.317 65.3856 164.598C65.5508 164.07 65.1695 163.545 64.619 163.493C63.6622 163.401 62.6659 162.589 62.4273 160.335C62.0219 156.512 64.573 156.509 64.573 156.509C66.1191 156.372 66.9404 158.31 66.9404 158.31C66.9404 158.31 67.8924 157.071 67.6957 155.034C67.5232 153.247 69.3248 154.52 69.3248 154.52C69.3248 154.52 71.8558 152.32 71.913 150.154C71.9703 147.988 70.708 147.902 69.5722 147.346C68.4365 146.791 71.0578 144.74 69.8044 143.656C68.5501 142.574 67.1258 142.459 66.0997 143.029C65.0736 143.599 64.731 140.806 63.1641 140.75C61.5971 140.692 60.6 142.403 59.5021 141.718C58.4051 141.035 55.6121 140.009 54.3578 142.117C53.1036 144.226 52.7618 144.768 51.7357 144.881C50.7096 144.995 47.8602 146.962 48.4301 150.21C49.0016 153.458 49.4949 155.243 49.6851 157.732Z" fill="#021147"/>
<path d="M65.2168 156.57C65.482 156.649 65.7157 156.785 65.9213 156.95C66.4364 156.89 66.9796 156.943 67.5165 157.066C67.6398 157.095 67.7607 157.125 67.8824 157.16C68.0823 157.218 68.2806 157.283 68.4741 157.355C68.8755 157.502 69.2656 157.678 69.6251 157.86C70.3828 158.241 71.014 158.653 71.3799 158.906C71.5952 159.057 71.7201 159.152 71.7273 159.158L71.8233 158.954C71.7854 158.78 71.733 158.611 71.6645 158.45C71.6645 158.45 71.6645 158.45 71.6629 158.448C71.4525 158.301 71.1381 158.091 70.7512 157.86C70.4433 157.677 70.0894 157.482 69.7049 157.297C69.6912 157.291 69.6775 157.283 69.6622 157.277C69.3575 157.13 69.0327 156.992 68.6957 156.867H68.6941C68.3524 156.742 67.9961 156.634 67.6374 156.556C66.8257 156.375 65.9914 156.338 65.2168 156.57Z" fill="#007EFF"/>
<path d="M75.9867 326.741C76.5727 326.819 77.2853 326.857 77.885 326.72L78.7765 326.43L80.2403 325.989C80.2403 325.989 85.4998 323.924 87.3626 322.113C89.2246 320.303 88.8925 318.309 85.9891 317.338C83.0857 316.367 80.491 317.287 78.9385 316.666C78.9385 316.666 74.2907 317.057 74.5495 319.54C74.4898 321.851 74.352 323.075 74.6607 325.41C74.7526 326.101 75.2959 326.648 75.9867 326.741Z" fill="#007EFF"/>
<path d="M78.5593 317.775C78.4795 317.757 78.4061 317.709 78.3602 317.634C78.2707 317.488 78.3166 317.297 78.4625 317.208C78.5117 317.178 79.67 316.476 80.6873 316.514C82.043 316.563 82.538 317.617 82.5581 317.662C82.6291 317.818 82.5605 318.002 82.405 318.072C82.2494 318.143 82.0656 318.075 81.9947 317.919C81.981 317.891 81.6287 317.17 80.6647 317.133C79.832 317.103 78.797 317.73 78.7866 317.736C78.7156 317.78 78.6342 317.791 78.5593 317.775Z" fill="white"/>
<path d="M79.6022 317.66C79.5224 317.643 79.4499 317.594 79.4031 317.519C79.3137 317.373 79.3596 317.182 79.5055 317.092C79.5547 317.062 80.713 316.361 81.7302 316.399C83.086 316.448 83.5809 317.503 83.6011 317.548C83.672 317.703 83.6035 317.887 83.4479 317.958C83.2924 318.029 83.1086 317.96 83.0377 317.805C83.0239 317.777 82.6709 317.055 81.7077 317.019C80.875 316.988 79.84 317.615 79.8295 317.622C79.7586 317.665 79.6772 317.676 79.6022 317.66Z" fill="white"/>
<path d="M80.6218 317.448C80.542 317.43 80.4694 317.382 80.4227 317.307C80.3332 317.161 80.3791 316.97 80.525 316.88C80.5742 316.85 81.7325 316.149 82.7498 316.186C84.1056 316.235 84.6005 317.29 84.6206 317.335C84.6916 317.49 84.623 317.674 84.4675 317.745C84.3119 317.816 84.1281 317.748 84.0572 317.592C84.0435 317.564 83.6904 316.842 82.7272 316.806C81.8945 316.775 80.8595 317.403 80.8491 317.409C80.7781 317.453 80.6967 317.464 80.6218 317.448Z" fill="white"/>
<path d="M80.0114 313.471L79.7269 318.353C77.9213 318.852 76.5655 319.082 75.5418 318.286L75.25 313.108L80.0114 313.471Z" fill="#FB9A83"/>
<path d="M81.4935 315.492C78.7956 317.158 74.4671 316.185 74.4671 316.185C74.9837 316.093 70.6947 284.003 70.1296 279.17C69.6089 274.71 64.0487 261.761 61.712 254.415C61.5491 253.904 61.404 253.421 61.2743 252.968C61.0913 252.324 60.9164 251.71 60.7511 251.131C59.7178 247.534 59.0391 245.246 59.0391 245.246L74.4671 241.874C74.9257 243.605 75.3586 245.311 75.7688 246.996C75.8583 247.365 75.9462 247.731 76.0332 248.097C76.0872 248.328 76.1412 248.559 76.1961 248.788C85.6576 288.98 81.4935 315.492 81.4935 315.492Z" fill="#3B3E7D"/>
<path d="M76.0352 248.096C70.7353 250.035 65.5524 250.912 60.7531 251.131C59.7197 247.533 59.041 245.246 59.041 245.246L74.469 241.873C74.9277 243.604 75.3605 245.31 75.7708 246.996C75.8603 247.365 75.9473 247.731 76.0352 248.096Z" fill="#18285D"/>
<path d="M35.988 325.668C36.5289 325.907 37.2028 326.143 37.817 326.179L38.7544 326.151L40.2827 326.136C40.2827 326.136 45.9098 325.623 48.2039 324.406C50.4979 323.188 50.7357 321.181 48.2192 319.437C45.7027 317.693 42.954 317.851 41.6377 316.821C41.6377 316.821 37.0657 315.897 36.62 318.354C35.9171 320.556 35.4423 321.692 35.0861 324.02C34.9813 324.709 35.3496 325.386 35.988 325.668Z" fill="#007EFF"/>
<path d="M40.9633 317.779C40.8916 317.74 40.8352 317.673 40.8118 317.588C40.7667 317.423 40.8642 317.253 41.0294 317.208C41.0843 317.192 42.3925 316.842 43.3598 317.163C44.6478 317.59 44.8284 318.74 44.8357 318.789C44.8606 318.958 44.743 319.115 44.5737 319.14C44.4044 319.165 44.2472 319.048 44.2222 318.878C44.2174 318.847 44.0804 318.056 43.1647 317.752C42.374 317.49 41.2044 317.802 41.1923 317.806C41.1125 317.827 41.0311 317.815 40.9633 317.779Z" fill="white"/>
<path d="M41.9946 317.96C41.9229 317.921 41.8664 317.854 41.8431 317.769C41.7979 317.603 41.8955 317.433 42.0607 317.388C42.1163 317.373 43.4246 317.023 44.391 317.344C45.6791 317.77 45.8597 318.92 45.8661 318.97C45.8911 319.139 45.7734 319.296 45.6041 319.321C45.4349 319.346 45.2769 319.228 45.2527 319.059C45.2479 319.028 45.1108 318.237 44.1951 317.932C43.4044 317.67 42.2348 317.983 42.2227 317.986C42.1437 318.008 42.0623 317.996 41.9946 317.96Z" fill="white"/>
<path d="M43.0337 318.04C42.9619 318.001 42.9055 317.935 42.8821 317.849C42.837 317.684 42.9345 317.514 43.0998 317.469C43.1546 317.453 44.4636 317.104 45.4301 317.424C46.7182 317.851 46.8987 319.001 46.906 319.05C46.931 319.219 46.8133 319.377 46.644 319.402C46.4747 319.427 46.3167 319.309 46.2926 319.14C46.2877 319.108 46.1507 318.317 45.235 318.013C44.4443 317.75 43.2747 318.064 43.2634 318.067C43.1828 318.089 43.1014 318.077 43.0337 318.04Z" fill="white"/>
<path d="M43.5595 314.052L41.9215 318.66C40.0491 318.635 38.6828 318.477 37.9219 317.426L39.089 312.372L43.5595 314.052Z" fill="#FB9A83"/>
<path d="M58.2442 243.757C58.2007 245.549 58.1379 247.307 58.0613 249.04C58.0298 249.742 57.9944 250.458 57.9533 251.187C57.8823 252.439 57.7993 253.726 57.7034 255.034C56.9489 265.486 55.4811 277.285 54.3413 283.203C53.5852 287.128 44.4171 316.406 44.4171 316.406C41.4032 317.24 37.5825 315.167 37.4785 315.109C38.0033 315.109 41.8449 279.966 43.0548 277.395C43.815 275.779 43.1217 271.521 42.5527 253.337C42.5277 252.495 42.5003 251.625 42.4753 250.723C42.4584 250.129 42.4463 249.56 42.4374 249.019C42.3729 245.159 42.4874 242.684 42.4874 242.684L58.2442 243.757Z" fill="#3B3E7D"/>
<path d="M42.4892 242.684L58.2461 243.757C58.2026 245.549 58.1397 247.307 58.0631 249.04C58.0317 249.742 57.9962 250.458 57.9551 251.187C51.8137 251.158 46.4349 250.121 42.44 249.019C42.3748 245.159 42.4892 242.684 42.4892 242.684Z" fill="#18285D"/>
<path d="M76.031 242.77C76.031 242.77 66.6299 246.461 58.2453 246.503C49.8606 246.543 41.8323 245.743 41.8323 245.743C41.8323 245.743 41.1302 233.069 40.6723 218.91C40.6433 217.983 40.6143 217.05 40.5869 216.115C40.5555 215.077 40.5289 214.033 40.4999 212.992C40.4765 212.061 40.4539 211.128 40.4329 210.198C40.4055 209.004 40.383 207.817 40.362 206.64C40.3451 205.7 40.333 204.772 40.3201 203.851C40.1911 193.175 39.6849 183.556 41.401 181.397C44.9292 176.959 55.5949 172.498 55.5949 172.498C57.9632 173.169 60.6312 173.393 63.6596 173.081C63.6596 173.081 69.6301 177.591 73.8151 180.643C77.1208 183.053 74.5124 191.664 74.6962 203.486C74.7083 204.388 74.7252 205.307 74.7421 206.238C74.7486 206.538 74.7542 206.842 74.7607 207.146C74.7776 207.965 74.7985 208.85 74.8235 209.785C74.8461 210.658 74.8711 211.577 74.9009 212.529C74.9299 213.531 74.9614 214.569 74.9968 215.633C75.0258 216.533 75.0549 217.452 75.0887 218.379C75.4748 229.811 76.031 242.77 76.031 242.77Z" fill="#00A0FF"/>
<path d="M55.57 178.564C60.7707 179.05 64.2222 176.287 64.3794 176.159C64.5068 176.055 64.5261 175.867 64.4213 175.74C64.3173 175.612 64.1295 175.593 64.0022 175.697C63.9627 175.729 59.9429 178.937 54.2158 177.76C54.0554 177.727 53.8966 177.831 53.8635 177.992C53.8305 178.153 53.9345 178.311 54.0957 178.344C54.6011 178.448 55.0936 178.52 55.57 178.564Z" fill="#007EFF"/>
<path d="M74.7431 206.238C67.5853 207.615 61.2029 208.081 55.8362 208.081C48.6598 208.081 43.306 207.246 40.3622 206.64C40.3453 205.7 40.3332 204.772 40.3203 203.851C44.8141 204.811 57.6232 206.838 74.6964 203.487C74.7101 204.388 74.7262 205.307 74.7431 206.238Z" fill="#007EFF"/>
<path d="M74.9016 212.529C67.6792 213.931 61.2404 214.404 55.8366 214.404C48.7707 214.404 43.4732 213.596 40.5005 212.992C40.4771 212.061 40.4546 211.127 40.4336 210.198C45.0354 211.171 57.8276 213.146 74.8242 209.785C74.8475 210.658 74.8725 211.577 74.9016 212.529Z" fill="#007EFF"/>
<path d="M75.0889 218.379C67.7916 219.808 61.2883 220.289 55.8361 220.289C48.9056 220.289 43.6751 219.512 40.6733 218.91C40.6443 217.983 40.6153 217.05 40.5879 216.115C45.3332 217.1 58.1028 219.006 74.997 215.633C75.026 216.533 75.0558 217.452 75.0889 218.379Z" fill="#007EFF"/>
<path d="M74.5393 181.397C74.5393 181.397 89.2798 204.26 91.7116 202.76C95.3776 200.498 98.5124 198.563 98.5124 198.563L101.978 196.425C101.978 196.425 99.9198 209.822 91.7955 212.515C86.6971 214.206 72.8555 196.797 72.8555 196.797C72.8555 196.797 72.8563 185.007 74.5393 181.397Z" fill="#00A0FF"/>
<path d="M222.742 228.633C207.01 207.482 197.074 187.972 197.074 187.972L197.572 202.595C197.572 202.595 212.523 226.676 217.194 231.684C219.058 231.684 222.742 231.051 222.742 228.633Z" fill="#007EFF"/>
<path d="M183.76 184.458C183.76 184.458 181.164 185.155 178.642 185.784C176.322 186.364 175.032 187.04 175.032 187.04C175.032 187.04 174.802 209.24 175.032 215.977C175.262 222.715 173.078 228.897 173.507 232.831C173.507 232.831 192.762 234.193 196.869 232.562C196.869 232.562 195.279 215.229 197.074 210.36C198.896 205.416 199.852 201.971 199.425 199.956C198.329 194.783 197.025 194.009 197.365 189.246C197.705 184.484 183.76 184.458 183.76 184.458Z" fill="#00A0FF"/>
<path d="M192.099 192.475C186.876 192.475 183.696 189.403 183.552 189.261C183.435 189.145 183.433 188.957 183.548 188.839C183.664 188.721 183.853 188.721 183.97 188.836C184.007 188.872 187.71 192.439 193.522 191.801C193.685 191.783 193.833 191.9 193.851 192.064C193.868 192.228 193.751 192.375 193.587 192.393C193.074 192.449 192.578 192.475 192.099 192.475Z" fill="#007EFF"/>
<path d="M179.63 220.127C179.47 220.127 179.338 220.001 179.332 219.839C179.327 219.675 179.455 219.537 179.62 219.531C179.7 219.527 187.652 219.16 193.113 211.946C193.213 211.814 193.4 211.788 193.53 211.888C193.662 211.987 193.687 212.175 193.588 212.305C187.95 219.753 179.723 220.123 179.641 220.126C179.637 220.127 179.634 220.127 179.63 220.127Z" fill="#007EFF"/>
<path d="M179.369 222.952C178.744 222.952 178.38 222.914 178.362 222.912C178.199 222.893 178.081 222.746 178.1 222.583C178.118 222.42 178.265 222.303 178.429 222.32C178.509 222.329 186.429 223.126 192.886 216.787C193.004 216.672 193.192 216.674 193.308 216.791C193.423 216.908 193.421 217.097 193.303 217.212C188.017 222.403 181.769 222.952 179.369 222.952Z" fill="#007EFF"/>
<path d="M256.122 243.925L261.206 245.72L259.491 250.344L253.996 248.746L256.122 243.925Z" fill="#FB9A83"/>
<path d="M260.45 246.364C260.45 246.364 259.332 244.656 259.73 243.771C260.128 242.886 268.269 237.911 269.609 235.677C270.949 233.442 272.547 234.556 273.29 235.327C274.033 236.098 265.939 254.371 265.939 254.371C265.939 254.371 260.176 252.846 258.695 251.611C257.213 250.376 260.167 248.39 260.45 246.364Z" fill="#007EFF"/>
<path d="M265.758 243.91C265.753 244.004 265.71 244.096 265.632 244.162C265.481 244.29 265.255 244.271 265.128 244.12C265.085 244.07 264.079 242.87 263.942 241.7C263.759 240.143 264.876 239.39 264.925 239.359C265.09 239.25 265.312 239.296 265.421 239.461C265.53 239.627 265.484 239.849 265.318 239.958C265.288 239.979 264.526 240.508 264.655 241.617C264.766 242.57 265.666 243.646 265.675 243.657C265.736 243.73 265.764 243.821 265.758 243.91Z" fill="white"/>
<path d="M264.443 244.567C264.438 244.661 264.395 244.753 264.317 244.819C264.165 244.947 263.94 244.928 263.811 244.777C263.769 244.726 262.763 243.527 262.626 242.357C262.443 240.798 263.56 240.046 263.607 240.015C263.773 239.906 263.995 239.952 264.104 240.117C264.213 240.283 264.167 240.505 264.001 240.614C263.971 240.635 263.208 241.165 263.337 242.273C263.449 243.23 264.349 244.302 264.358 244.313C264.422 244.387 264.449 244.477 264.443 244.567Z" fill="white"/>
<path d="M267.026 242.831C267.02 242.926 266.977 243.018 266.899 243.084C266.747 243.212 266.522 243.192 266.394 243.042C266.351 242.991 265.344 241.792 265.208 240.621C265.024 239.063 266.142 238.311 266.19 238.28C266.356 238.171 266.578 238.217 266.687 238.383C266.796 238.549 266.75 238.771 266.584 238.88C266.553 238.901 265.791 239.431 265.92 240.539C266.032 241.496 266.932 242.569 266.942 242.579C267.003 242.652 267.03 242.743 267.026 242.831Z" fill="white"/>
<path d="M188.609 234.79C188.609 234.79 209.156 228.807 219.439 228.396C229.732 227.99 257.439 243.285 257.439 243.285C258.1 244.893 257.668 246.678 256.589 248.288C256.436 248.52 256.271 248.739 256.094 248.946C255.715 249.431 255.277 249.877 254.792 250.297C254.792 250.297 234.337 247.677 220.672 240.43C220.672 240.43 201.484 245.209 190.44 244.903C190.44 244.903 185.884 241.1 188.609 234.79Z" fill="#021147"/>
<path d="M196.535 175.03C200.81 170.756 200.81 163.825 196.535 159.551C192.261 155.276 185.33 155.276 181.056 159.551C176.782 163.825 176.782 170.756 181.056 175.03C185.33 179.304 192.261 179.304 196.535 175.03Z" fill="#021147"/>
<path d="M184.801 163.295C188.505 163.295 191.508 160.292 191.508 156.588C191.508 152.883 188.505 149.88 184.801 149.88C181.097 149.88 178.094 152.883 178.094 156.588C178.094 160.292 181.097 163.295 184.801 163.295Z" fill="#021147"/>
<path d="M196.648 170.315C196.648 170.315 198.311 168.577 199.266 170.237C200.221 171.896 198.223 176.339 195.629 174.959L196.648 170.315Z" fill="#FF6D6B"/>
<path d="M196.867 174.756C196.842 175.029 197.042 175.271 197.314 175.297C197.586 175.323 197.828 175.123 197.855 174.851C197.881 174.578 197.681 174.336 197.408 174.31C197.136 174.284 196.894 174.484 196.867 174.756Z" fill="white"/>
<path d="M196.355 173.598C196.455 173.608 196.553 173.554 196.59 173.46C197.143 172.083 198.744 171.656 198.76 171.651C198.882 171.62 198.953 171.501 198.919 171.385C198.885 171.269 198.759 171.199 198.637 171.231C198.562 171.25 196.799 171.715 196.162 173.301C196.116 173.413 196.176 173.54 196.295 173.584C196.314 173.591 196.334 173.596 196.355 173.598Z" fill="#ED495C"/>
<path d="M197.984 173.033C198.026 173.037 198.071 173.03 198.111 173.01C198.223 172.956 198.266 172.824 198.208 172.717C198.198 172.699 197.963 172.277 197.414 171.979C197.304 171.919 197.164 171.955 197.102 172.059C197.04 172.163 197.079 172.297 197.19 172.357C197.614 172.587 197.8 172.912 197.801 172.915C197.839 172.983 197.909 173.026 197.984 173.033Z" fill="#ED495C"/>
<path d="M184.295 178.827L183.758 184.459C183.758 184.459 186.182 186.729 188.208 187.099C190.231 187.471 191.166 185.131 191.166 185.131L191.667 179.889L184.295 178.827Z" fill="#FB9A83"/>
<path d="M184.242 179.378L184.027 181.625C185.253 183.276 187.634 184.047 191.286 183.859L191.613 180.441L184.242 179.378Z" fill="#FF6D6B"/>
<path d="M197.336 172.541C197.219 173.079 197.089 173.625 196.938 174.166C195.942 177.767 193.247 181.501 190.259 181.886C183.807 182.716 181.657 177.505 180.997 173.749C180.924 173.331 181.178 172.886 181.135 172.396C181.036 171.235 180.698 169.896 180.716 168.609C180.728 167.716 180.76 166.838 180.799 166.045C180.909 163.81 182.393 161.888 184.484 161.281C187.498 160.404 191.994 159.91 195.936 162.758C197.392 163.81 198.201 165.577 198.06 167.414C197.952 168.817 197.742 170.645 197.336 172.541Z" fill="#FB9A83"/>
<path d="M189.356 174.639C189.238 174.628 189.142 174.534 189.133 174.412C189.124 174.277 189.226 174.158 189.362 174.149L190.218 174.087L189.352 170.885C189.316 170.753 189.394 170.618 189.525 170.583C189.657 170.548 189.792 170.624 189.827 170.756L190.85 174.535L189.397 174.639C189.383 174.64 189.37 174.64 189.356 174.639Z" fill="#FF6D6B"/>
<path d="M195.492 166.14C197.854 167.502 197.132 171.223 196.971 174.047C196.965 174.157 197.583 172.034 197.646 171.991C198.068 170.059 198.283 168.196 198.392 166.766C198.534 164.893 197.676 163.089 196.138 162.012C191.974 159.095 187.238 159.583 184.064 160.468C181.863 161.08 180.305 163.035 180.196 165.313C180.158 166.122 180.128 167.017 180.117 167.927C180.504 168.21 181.494 168.417 181.473 169.079C181.417 170.832 181.284 173.802 181.653 173.708C182.083 173.6 182.589 169.614 182.404 168.341C182.404 168.341 183.056 167.476 185.44 166.809C188.499 165.954 191.5 164.542 191.5 164.542C191.5 164.542 192.685 163.974 193.185 163.28C193.187 163.279 193.694 165.103 195.492 166.14Z" fill="#021147"/>
<path d="M193.046 170.953C192.995 171.494 193.232 171.958 193.575 171.992C193.918 172.025 194.239 171.613 194.291 171.073C194.342 170.532 194.105 170.067 193.762 170.034C193.418 170.001 193.097 170.413 193.046 170.953Z" fill="#021147"/>
<path d="M185.718 170.273C185.666 170.814 185.903 171.278 186.247 171.311C186.59 171.344 186.911 170.932 186.963 170.392C187.014 169.852 186.777 169.387 186.434 169.354C186.09 169.32 185.769 169.732 185.718 170.273Z" fill="#021147"/>
<path d="M195.109 168.257C194.618 168.112 193.621 167.854 192.541 167.79C192.256 167.773 192.009 167.964 192.026 168.193L192.027 168.199C192.041 168.382 192.223 168.521 192.451 168.526C193.191 168.541 195.11 168.737 195.978 169.088C196.015 168.961 195.942 168.815 195.828 168.683C195.653 168.483 195.395 168.343 195.109 168.257Z" fill="#021147"/>
<path d="M185.096 167.42C185.605 167.363 186.631 167.284 187.706 167.411C187.989 167.444 188.199 167.677 188.141 167.899L188.14 167.905C188.094 168.083 187.891 168.188 187.665 168.152C186.934 168.037 185.011 167.892 184.093 168.085C184.079 167.954 184.177 167.823 184.313 167.713C184.52 167.546 184.799 167.453 185.096 167.42Z" fill="#021147"/>
<path d="M191.939 176.36C191.676 177.203 190.921 178.727 188.884 178.533C186.843 178.338 186.408 176.837 186.307 175.822L191.939 176.36Z" fill="white"/>
<path d="M188.771 180.013C189.359 180.07 189.908 179.802 189.931 179.791C190.05 179.732 190.1 179.587 190.041 179.468C189.982 179.348 189.838 179.299 189.717 179.357C189.713 179.36 189.265 179.575 188.817 179.532C188.332 179.485 187.922 179.187 187.918 179.185C187.81 179.106 187.66 179.128 187.581 179.236C187.502 179.343 187.523 179.493 187.631 179.573C187.651 179.589 188.149 179.955 188.771 180.013Z" fill="#FF6D6B"/>
<path d="M181.436 168.847C181.436 168.847 179.911 166.589 178.749 168.002C177.587 169.414 178.601 174.009 181.197 173.159L181.436 168.847Z" fill="#FB9A83"/>
<path d="M179.619 173.11C179.594 173.382 179.794 173.624 180.066 173.65C180.338 173.676 180.58 173.476 180.607 173.204C180.633 172.931 180.433 172.69 180.16 172.663C179.888 172.637 179.645 172.837 179.619 173.11Z" fill="white"/>
<path d="M180.787 171.73C180.695 171.721 180.616 171.651 180.599 171.556C180.344 170.143 178.971 169.448 178.958 169.442C178.853 169.39 178.81 169.264 178.862 169.159C178.913 169.054 179.04 169.012 179.145 169.062C179.209 169.094 180.722 169.854 181.016 171.481C181.036 171.597 180.96 171.706 180.845 171.727C180.824 171.73 180.805 171.731 180.787 171.73Z" fill="#FF6D6B"/>
<path d="M179.414 170.899C179.374 170.895 179.336 170.88 179.303 170.854C179.211 170.782 179.196 170.649 179.268 170.557C179.28 170.542 179.569 170.181 180.119 169.995C180.229 169.957 180.349 170.017 180.387 170.128C180.424 170.238 180.366 170.359 180.254 170.396C179.829 170.54 179.602 170.816 179.6 170.82C179.554 170.878 179.483 170.905 179.414 170.899Z" fill="#FF6D6B"/>
<path d="M189.088 169.834C189.102 169.688 189.084 169.544 189.038 169.413C188.915 169.052 188.595 168.775 188.191 168.727L184.625 168.306C184.344 168.273 184.078 168.357 183.873 168.519C183.76 168.608 183.667 168.72 183.6 168.849C183.544 168.957 183.505 169.074 183.49 169.2L183.436 169.656C183.345 170.429 183.561 171.202 184.029 171.781C184.496 172.355 185.066 172.693 185.726 172.785L185.821 172.796C186.584 172.886 187.337 172.675 187.943 172.199C188.559 171.717 188.948 171.023 189.039 170.246L189.085 169.86C189.087 169.852 189.089 169.842 189.088 169.834ZM188.62 170.196C188.542 170.861 188.209 171.453 187.684 171.865C187.166 172.272 186.523 172.452 185.872 172.375L185.787 172.365C185.237 172.287 184.758 172.002 184.361 171.514C183.964 171.025 183.781 170.365 183.859 169.706L183.913 169.251C183.952 168.923 184.248 168.689 184.576 168.728L188.143 169.149C188.47 169.187 188.705 169.484 188.666 169.812L188.62 170.196Z" fill="white"/>
<path d="M196.641 170.475C196.621 170.332 196.567 170.196 196.49 170.076C196.33 169.831 196.066 169.655 195.753 169.619L192.185 169.198C191.772 169.149 191.385 169.355 191.186 169.694C191.119 169.807 191.073 169.935 191.055 170.072C191.053 170.08 191.052 170.085 191.051 170.092L190.997 170.547C190.906 171.32 191.123 172.094 191.591 172.672C192.057 173.246 192.628 173.584 193.287 173.675L193.382 173.687C194.145 173.777 194.898 173.566 195.504 173.089C196.119 172.607 196.51 171.914 196.601 171.137L196.646 170.751C196.659 170.658 196.658 170.566 196.641 170.475ZM196.182 171.088C196.104 171.753 195.771 172.345 195.245 172.757C194.727 173.164 194.085 173.343 193.434 173.267L193.347 173.256C192.797 173.179 192.317 172.893 191.921 172.406C191.525 171.917 191.341 171.256 191.418 170.598L191.472 170.142C191.511 169.814 191.809 169.58 192.136 169.619L195.704 170.039C196.031 170.078 196.266 170.375 196.227 170.703L196.182 171.088Z" fill="white"/>
<path d="M183.873 168.519C183.534 168.297 182.641 167.809 181.318 167.755L181.428 168.188C182.527 168.262 183.288 168.656 183.601 168.85C183.704 168.913 183.759 168.955 183.762 168.957L184.024 168.625C184.013 168.617 183.962 168.576 183.873 168.519Z" fill="white"/>
<path d="M188.943 169.86L188.852 169.446C188.877 169.44 189.492 169.307 190.141 169.383C190.832 169.465 191.252 169.729 191.269 169.74L191.041 170.097C191.038 170.096 190.68 169.873 190.091 169.804C189.516 169.735 188.948 169.858 188.943 169.86Z" fill="white"/>
<path d="M197.841 169.843C197.037 169.882 196.36 170.117 196.316 170.133L196.457 170.532C196.468 170.529 197.164 170.288 197.947 170.264L197.841 169.843Z" fill="white"/>
<path d="M211.706 272.343L209.884 277.744L205.113 277.294L206.731 271.545L211.706 272.343Z" fill="#FB9A83"/>
<path d="M209.548 277.559C209.548 277.559 210.762 275.918 211.731 275.986C212.699 276.052 220.185 281.969 222.744 282.452C225.304 282.935 224.812 284.82 224.346 285.784C223.88 286.748 203.935 285.48 203.935 285.48C203.935 285.48 203.371 279.546 204.017 277.728C204.663 275.911 207.548 277.994 209.548 277.559Z" fill="#007EFF"/>
<path d="M213.685 281.69C213.595 281.717 213.493 281.709 213.405 281.659C213.232 281.562 213.172 281.343 213.269 281.171C213.302 281.113 214.079 279.754 215.13 279.221C216.527 278.51 217.62 279.299 217.666 279.332C217.826 279.449 217.86 279.674 217.742 279.834C217.624 279.993 217.4 280.027 217.241 279.909C217.211 279.888 216.45 279.356 215.455 279.86C214.598 280.295 213.9 281.512 213.894 281.525C213.846 281.608 213.771 281.664 213.685 281.69Z" fill="white"/>
<path d="M212.615 280.684C212.525 280.712 212.423 280.703 212.334 280.653C212.162 280.555 212.101 280.337 212.199 280.164C212.231 280.106 213.009 278.747 214.059 278.214C215.458 277.503 216.55 278.291 216.596 278.325C216.756 278.442 216.789 278.667 216.672 278.826C216.555 278.986 216.33 279.02 216.17 278.901C216.141 278.88 215.379 278.348 214.384 278.853C213.525 279.289 212.83 280.504 212.824 280.516C212.776 280.601 212.7 280.658 212.615 280.684Z" fill="white"/>
<path d="M215.138 282.505C215.048 282.532 214.947 282.524 214.858 282.474C214.685 282.376 214.625 282.158 214.722 281.985C214.755 281.928 215.532 280.568 216.583 280.035C217.98 279.324 219.073 280.112 219.119 280.147C219.278 280.264 219.312 280.488 219.194 280.648C219.078 280.807 218.853 280.841 218.693 280.723C218.663 280.702 217.901 280.171 216.907 280.675C216.048 281.111 215.353 282.326 215.346 282.338C215.299 282.422 215.223 282.479 215.138 282.505Z" fill="white"/>
<path d="M173.225 235.225C172.964 237.433 173.336 239.685 174.377 241.649C175.913 244.544 179.219 247.575 186.342 247.201C201.511 246.404 212.209 247.201 212.209 247.201C212.209 247.201 210.629 252.317 208.928 259.747C207.929 264.112 204.803 274.708 204.803 274.708C206.859 275.918 209.046 275.607 211.241 275.205C211.241 275.205 226.994 248.184 225.619 239.397C224.246 230.609 173.506 232.832 173.506 232.832L173.225 235.225Z" fill="#3B3E7D"/>
<path d="M204.804 228.226C197.66 223.717 186.344 215.126 186.344 215.126C186.344 215.126 179.223 201.342 175.033 187.04C175.033 187.04 170.279 192.522 173.576 204.789C176.788 216.74 181.954 221.031 181.954 221.031C181.954 221.031 195.156 230.488 202.145 232.831C203.245 230.99 203.791 230.117 204.804 228.226Z" fill="#007EFF"/>
<path d="M237.658 233.753L192.889 234.344C192.088 234.354 191.43 233.713 191.42 232.913L191.41 232.209C191.4 231.408 192.041 230.75 192.841 230.74L237.61 230.149C238.411 230.138 239.069 230.779 239.079 231.58L239.089 232.284C239.1 233.085 238.459 233.742 237.658 233.753Z" fill="#0060E6"/>
<path d="M239.109 233.733L200.051 234.248L211.684 212.805L250.671 212.419L239.109 233.733Z" fill="#00A0FF"/>
<path d="M236.684 233.758L236.68 233.766L197.693 234.151L209.255 212.836L211.68 212.811L200.12 234.12L236.684 233.758Z" fill="#0060E6"/>
<path d="M228.372 223.23C228.391 224.602 227.293 225.728 225.921 225.746C224.549 225.764 223.422 224.667 223.405 223.295C223.387 221.923 224.484 220.796 225.856 220.778C227.228 220.761 228.355 221.858 228.372 223.23Z" fill="#007EFF"/>
<path d="M339.428 308.145C357.473 308.145 372.101 305.292 372.101 301.774C372.101 298.255 357.473 295.403 339.428 295.403C321.382 295.403 306.754 298.255 306.754 301.774C306.754 305.292 321.382 308.145 339.428 308.145Z" fill="#D9E4F5"/>
<path d="M317.668 234.439V300.47C317.668 301.922 318.844 303.098 320.296 303.098H358.565C359.297 303.098 359.958 302.799 360.434 302.317C360.904 301.844 361.194 301.193 361.194 300.47V234.439C361.194 232.988 360.018 231.812 358.566 231.812H320.297C319.777 231.812 319.295 231.962 318.888 232.221C318.155 232.687 317.668 233.506 317.668 234.439Z" fill="#007EFF"/>
<path d="M329.594 244.546H355.15C356.149 244.546 356.959 243.737 356.959 242.737C356.959 241.738 356.149 240.928 355.15 240.928H329.594C328.595 240.928 327.785 241.738 327.785 242.737C327.785 243.737 328.595 244.546 329.594 244.546Z" fill="#00A0FF"/>
<path d="M329.594 252.785H355.15C356.149 252.785 356.959 251.976 356.959 250.977C356.959 249.978 356.149 249.168 355.15 249.168H329.594C328.595 249.168 327.785 249.977 327.785 250.977C327.785 251.975 328.595 252.785 329.594 252.785Z" fill="#00A0FF"/>
<path d="M329.594 261.025H355.15C356.149 261.025 356.959 260.215 356.959 259.216C356.959 258.217 356.149 257.407 355.15 257.407H329.594C328.595 257.407 327.785 258.217 327.785 259.216C327.785 260.215 328.595 261.025 329.594 261.025Z" fill="#00A0FF"/>
<path d="M329.594 269.264H355.15C356.149 269.264 356.959 268.454 356.959 267.455C356.959 266.456 356.149 265.646 355.15 265.646H329.594C328.595 265.646 327.785 266.456 327.785 267.455C327.785 268.454 328.595 269.264 329.594 269.264Z" fill="#00A0FF"/>
<path d="M329.594 277.503H355.15C356.149 277.503 356.959 276.693 356.959 275.694C356.959 274.696 356.149 273.886 355.15 273.886H329.594C328.595 273.886 327.785 274.696 327.785 275.694C327.785 276.694 328.595 277.503 329.594 277.503Z" fill="#00A0FF"/>
<path d="M329.594 285.743H355.15C356.149 285.743 356.959 284.934 356.959 283.934C356.959 282.935 356.149 282.125 355.15 282.125H329.594C328.595 282.125 327.785 282.935 327.785 283.934C327.785 284.934 328.595 285.743 329.594 285.743Z" fill="#00A0FF"/>
<path d="M329.594 293.982H355.15C356.149 293.982 356.959 293.172 356.959 292.174C356.959 291.175 356.149 290.365 355.15 290.365H329.594C328.595 290.365 327.785 291.175 327.785 292.174C327.785 293.172 328.595 293.982 329.594 293.982Z" fill="#00A0FF"/>
<path d="M322.617 241.703C322.617 242.131 322.964 242.478 323.392 242.478C323.82 242.478 324.166 242.131 324.166 241.703C324.166 241.275 323.82 240.928 323.392 240.928C322.964 240.928 322.617 241.276 322.617 241.703Z" fill="#021147"/>
<path d="M322.617 243.771C322.617 244.199 322.964 244.546 323.392 244.546C323.82 244.546 324.166 244.199 324.166 243.771C324.166 243.343 323.82 242.997 323.392 242.997C322.964 242.997 322.617 243.344 322.617 243.771Z" fill="#00A0FF"/>
<path d="M322.617 249.942C322.617 250.37 322.964 250.717 323.392 250.717C323.82 250.717 324.166 250.37 324.166 249.942C324.166 249.514 323.82 249.168 323.392 249.168C322.964 249.168 322.617 249.514 322.617 249.942Z" fill="white"/>
<path d="M322.617 252.011C322.617 252.439 322.964 252.785 323.392 252.785C323.82 252.785 324.166 252.439 324.166 252.011C324.166 251.583 323.82 251.236 323.392 251.236C322.964 251.236 322.617 251.583 322.617 252.011Z" fill="#00A0FF"/>
<path d="M322.617 266.422C322.617 266.85 322.964 267.196 323.392 267.196C323.82 267.196 324.166 266.85 324.166 266.422C324.166 265.994 323.82 265.647 323.392 265.647C322.964 265.647 322.617 265.994 322.617 266.422Z" fill="white"/>
<path d="M322.617 268.49C322.617 268.918 322.964 269.265 323.392 269.265C323.82 269.265 324.166 268.918 324.166 268.49C324.166 268.062 323.82 267.715 323.392 267.715C322.964 267.715 322.617 268.062 322.617 268.49Z" fill="#00A0FF"/>
<path d="M322.617 258.182C322.617 258.61 322.964 258.957 323.392 258.957C323.82 258.957 324.166 258.61 324.166 258.182C324.166 257.754 323.82 257.407 323.392 257.407C322.964 257.407 322.617 257.754 322.617 258.182Z" fill="#021147"/>
<path d="M322.617 260.25C322.617 260.678 322.964 261.025 323.392 261.025C323.82 261.025 324.166 260.678 324.166 260.25C324.166 259.822 323.82 259.476 323.392 259.476C322.964 259.476 322.617 259.822 322.617 260.25Z" fill="#00A0FF"/>
<path d="M322.617 274.66C322.617 275.088 322.964 275.435 323.392 275.435C323.82 275.435 324.166 275.088 324.166 274.66C324.166 274.232 323.82 273.886 323.392 273.886C322.964 273.886 322.617 274.233 322.617 274.66Z" fill="#021147"/>
<path d="M322.617 276.729C322.617 277.157 322.964 277.504 323.392 277.504C323.82 277.504 324.166 277.157 324.166 276.729C324.166 276.301 323.82 275.955 323.392 275.955C322.964 275.955 322.617 276.301 322.617 276.729Z" fill="#00A0FF"/>
<path d="M322.617 282.9C322.617 283.328 322.964 283.674 323.392 283.674C323.82 283.674 324.166 283.328 324.166 282.9C324.166 282.472 323.82 282.125 323.392 282.125C322.964 282.125 322.617 282.473 322.617 282.9Z" fill="white"/>
<path d="M322.617 284.968C322.617 285.396 322.964 285.743 323.392 285.743C323.82 285.743 324.166 285.396 324.166 284.968C324.166 284.54 323.82 284.194 323.392 284.194C322.964 284.194 322.617 284.541 322.617 284.968Z" fill="#00A0FF"/>
<path d="M322.617 291.139C322.617 291.567 322.964 291.914 323.392 291.914C323.82 291.914 324.166 291.567 324.166 291.139C324.166 290.711 323.82 290.365 323.392 290.365C322.964 290.365 322.617 290.711 322.617 291.139Z" fill="#021147"/>
<path d="M322.617 293.208C322.617 293.636 322.964 293.982 323.392 293.982C323.82 293.982 324.166 293.636 324.166 293.208C324.166 292.78 323.82 292.433 323.392 292.433C322.964 292.433 322.617 292.78 322.617 293.208Z" fill="#00A0FF"/>
<path d="M325.969 231.812H352.891C352.891 230.167 351.557 228.833 349.912 228.833H328.949C327.303 228.833 325.969 230.167 325.969 231.812Z" fill="#0060E6"/>
<path d="M323.596 166.023V167.813H338.584V228.833H340.373V166.023H323.596Z" fill="#00A0FF"/>
<path d="M341.746 166.918C341.746 168.198 340.709 169.236 339.429 169.236C338.149 169.236 337.111 168.198 337.111 166.918C337.111 165.638 338.149 164.601 339.429 164.601C340.709 164.601 341.746 165.638 341.746 166.918Z" fill="#0060E6"/>
</svg>
