<svg width="16" height="16" viewBox="0 0 16 16" fill="none" xmlns="http://www.w3.org/2000/svg">
<path fill-rule="evenodd" clip-rule="evenodd" d="M3.42885 0C2.51969 -6.70391e-08 1.64775 0.361072 1.00475 1.00382C0.361756 1.64657 0.00034914 2.51838 0 3.42754V12.5711C0 13.4805 0.361253 14.3527 1.00429 14.9957C1.64732 15.6387 2.51947 16 3.42885 16H12.5725C13.4816 15.9997 14.3534 15.6382 14.9962 14.9952C15.6389 14.3522 16 13.4803 16 12.5711V3.42754C15.9997 2.5186 15.6384 1.647 14.9957 1.00429C14.353 0.361575 13.4814 0.000348985 12.5725 0H3.42885ZM13.5587 3.4328C13.5587 3.69472 13.4547 3.94592 13.2695 4.13112C13.0843 4.31633 12.8331 4.42038 12.5711 4.42038C12.3092 4.42038 12.058 4.31633 11.8728 4.13112C11.6876 3.94592 11.5836 3.69472 11.5836 3.4328C11.5836 3.17088 11.6876 2.91969 11.8728 2.73448C12.058 2.54928 12.3092 2.44523 12.5711 2.44523C12.8331 2.44523 13.0843 2.54928 13.2695 2.73448C13.4547 2.91969 13.5587 3.17088 13.5587 3.4328ZM8.00197 5.26047C7.27558 5.26047 6.57894 5.54903 6.0653 6.06267C5.55166 6.57631 5.26311 7.27295 5.26311 7.99934C5.26311 8.72573 5.55166 9.42238 6.0653 9.93601C6.57894 10.4497 7.27558 10.7382 8.00197 10.7382C8.72837 10.7382 9.42501 10.4497 9.93865 9.93601C10.4523 9.42238 10.7408 8.72573 10.7408 7.99934C10.7408 7.27295 10.4523 6.57631 9.93865 6.06267C9.42501 5.54903 8.72837 5.26047 8.00197 5.26047ZM3.94503 7.99934C3.94503 6.92372 4.37231 5.89215 5.13289 5.13158C5.89347 4.371 6.92504 3.94371 8.00066 3.94371C9.07628 3.94371 10.1078 4.371 10.8684 5.13158C11.629 5.89215 12.0563 6.92372 12.0563 7.99934C12.0563 9.07496 11.629 10.1065 10.8684 10.8671C10.1078 11.6277 9.07628 12.055 8.00066 12.055C6.92504 12.055 5.89347 11.6277 5.13289 10.8671C4.37231 10.1065 3.94503 9.07496 3.94503 7.99934Z" fill="white"/>
</svg>
