<svg width="16" height="16" viewBox="0 0 16 16" fill="none" xmlns="http://www.w3.org/2000/svg">
<path d="M1.68421 3.28205C2.61437 3.28205 3.36842 2.54734 3.36842 1.64103C3.36842 0.734712 2.61437 0 1.68421 0C0.754047 0 0 0.734712 0 1.64103C0 2.54734 0.754047 3.28205 1.68421 3.28205Z" fill="white"/>
<path d="M0 5.74365H3.36842V16.0001H0V5.74365ZM6.73684 9.64109V16.0001H9.68421V10.2565C9.68421 9.23083 10.3158 8.41032 11.3684 8.41032C12.4211 8.41032 13.0526 9.43596 13.0526 10.2565V16.0001H16V9.64109C16 8.41032 14.5263 5.74365 11.3684 5.74365C8.21053 5.74365 6.73684 8.41032 6.73684 9.64109Z" fill="white"/>
</svg>
