<svg width="950" height="634" viewBox="0 0 950 634" fill="none" xmlns="http://www.w3.org/2000/svg">
<path d="M234.633 180.007H36.7773V290.639H234.633V180.007Z" fill="#FAFAFA"/>
<path d="M234.633 290.639C234.633 290.639 234.615 289.955 234.607 288.649C234.6 287.333 234.591 285.398 234.579 282.867C234.565 277.789 234.543 270.331 234.515 260.748C234.484 241.598 234.438 213.97 234.381 180.007L234.633 180.259C181.852 180.28 112.507 180.307 36.7925 180.337H36.7773L37.1066 180.007C37.099 219.128 37.0914 256.547 37.0851 290.639L36.7773 290.331C94.6766 290.392 144.101 290.444 179.063 290.481C196.558 290.516 210.433 290.545 219.949 290.564C224.701 290.581 228.362 290.594 230.848 290.602C232.081 290.61 233.021 290.616 233.665 290.621C234.301 290.627 234.633 290.639 234.633 290.639C234.633 290.639 234.325 290.652 233.703 290.658C233.066 290.662 232.139 290.668 230.922 290.677C228.449 290.686 224.809 290.699 220.084 290.715C210.585 290.734 196.734 290.763 179.27 290.799C144.256 290.836 94.7627 290.887 36.7786 290.948H36.4708V290.64C36.4644 256.547 36.4568 219.13 36.4492 180.009V179.679H36.7786H36.7938C112.509 179.708 181.854 179.736 234.634 179.756H234.888V180.009C234.832 214.038 234.785 241.718 234.753 260.905C234.726 270.464 234.704 277.903 234.69 282.968C234.677 285.479 234.669 287.398 234.662 288.704C234.651 289.991 234.633 290.639 234.633 290.639Z" fill="url(#paint0_linear_574_69)" fill-opacity="0.25"/>
<path d="M88.9298 206.375H60.958V234.347H88.9298V206.375Z" fill="url(#paint1_linear_574_69)" fill-opacity="0.25"/>
<path d="M127.345 210.306C127.345 210.488 120.817 210.635 112.766 210.635C104.711 210.635 98.1855 210.487 98.1855 210.306C98.1855 210.124 104.713 209.977 112.766 209.977C120.817 209.977 127.345 210.124 127.345 210.306Z" fill="url(#paint2_linear_574_69)" fill-opacity="0.25"/>
<path d="M220.494 220.361C220.494 220.543 193.112 220.69 159.343 220.69C125.562 220.69 98.1855 220.542 98.1855 220.361C98.1855 220.178 125.562 220.031 159.343 220.031C193.111 220.031 220.494 220.18 220.494 220.361Z" fill="url(#paint3_linear_574_69)" fill-opacity="0.25"/>
<path d="M179.342 231.643C179.342 231.825 161.35 231.972 139.161 231.972C116.964 231.972 98.9756 231.824 98.9756 231.643C98.9756 231.461 116.964 231.314 139.161 231.314C161.35 231.312 179.342 231.461 179.342 231.643Z" fill="url(#paint4_linear_574_69)" fill-opacity="0.25"/>
<path d="M205.342 275.976H70.1889C63.0297 275.976 57.2246 270.172 57.2246 263.012C57.2246 255.853 63.0285 250.048 70.1889 250.048H205.342C212.501 250.048 218.307 255.851 218.307 263.012C218.307 270.172 212.501 275.976 205.342 275.976Z" fill="url(#paint5_linear_574_69)" fill-opacity="0.25"/>
<path d="M112.92 264.831H109.604L108.971 266.361H107.277L110.462 259.217H112.094L115.288 266.361H113.552L112.92 264.831ZM112.4 263.576L111.267 260.841L110.135 263.576H112.4Z" fill="white"/>
<path d="M122.229 261.811C122.229 263.403 121.035 264.393 119.127 264.393H117.688V266.362H116.035V259.218H119.127C121.035 259.218 122.229 260.209 122.229 261.811ZM120.556 261.811C120.556 261.026 120.045 260.566 119.035 260.566H117.688V263.046H119.035C120.045 263.045 120.556 262.586 120.556 261.811Z" fill="white"/>
<path d="M129.599 261.811C129.599 263.403 128.405 264.393 126.497 264.393H125.058V266.362H123.403V259.218H126.495C128.404 259.218 129.599 260.209 129.599 261.811ZM127.924 261.811C127.924 261.026 127.414 260.566 126.404 260.566H125.058V263.046H126.404C127.415 263.045 127.924 262.586 127.924 261.811Z" fill="white"/>
<path d="M130.774 259.218H132.429V265.015H136.011V266.361H130.776V259.218H130.774Z" fill="white"/>
<path d="M139.633 263.832V266.362H137.979V263.811L135.214 259.218H136.969L138.877 262.391L140.786 259.218H142.409L139.633 263.832Z" fill="white"/>
<path d="M152.545 259.218V266.362H151.187L147.625 262.025V266.362H145.992V259.218H147.36L150.912 263.555V259.218H152.545Z" fill="white"/>
<path d="M153.791 262.79C153.791 260.667 155.444 259.095 157.7 259.095C159.944 259.095 161.608 260.657 161.608 262.79C161.608 264.923 159.944 266.485 157.7 266.485C155.444 266.485 153.791 264.913 153.791 262.79ZM159.934 262.79C159.934 261.434 158.975 260.504 157.7 260.504C156.424 260.504 155.466 261.432 155.466 262.79C155.466 264.147 156.424 265.077 157.7 265.077C158.975 265.077 159.934 264.147 159.934 262.79Z" fill="white"/>
<path d="M173.416 259.218L171.079 266.362H169.303L167.732 261.525L166.109 266.362H164.343L161.996 259.218H163.711L165.324 264.239L167.008 259.218H168.538L170.171 264.28L171.836 259.218H173.416Z" fill="white"/>
<path d="M238.814 415.599H67.8027V511.222H238.814V415.599Z" fill="#FAFAFA"/>
<path d="M238.814 511.22C238.814 511.22 238.797 510.628 238.788 509.496C238.781 508.354 238.773 506.682 238.76 504.496C238.746 500.102 238.724 493.656 238.697 485.374C238.665 468.821 238.619 444.947 238.562 415.598L238.814 415.851C193.193 415.871 133.257 415.899 67.8156 415.928H67.803L68.1323 415.598C68.1247 449.412 68.1171 481.753 68.1108 511.22L67.803 510.913C117.84 510.973 160.551 511.025 190.771 511.062C205.892 511.098 217.885 511.127 226.114 511.146C230.22 511.162 233.384 511.175 235.539 511.184C236.603 511.191 237.415 511.198 237.976 511.203C238.526 511.209 238.814 511.22 238.814 511.22C238.814 511.22 238.55 511.233 238.013 511.239C237.459 511.243 236.66 511.25 235.611 511.258C233.47 511.267 230.328 511.28 226.248 511.296C218.035 511.317 206.066 511.345 190.975 511.38C160.705 511.417 117.922 511.469 67.803 511.529H67.4952V511.222C67.4888 481.754 67.4812 449.412 67.4736 415.6V415.27H67.803H67.8156C133.257 415.3 193.193 415.327 238.814 415.348H239.068V415.6C239.012 445.014 238.965 468.942 238.933 485.531C238.906 493.789 238.884 500.216 238.87 504.597C238.857 506.763 238.849 508.42 238.842 509.551C238.832 510.663 238.814 511.22 238.814 511.22Z" fill="url(#paint6_linear_574_69)" fill-opacity="0.25"/>
<path d="M112.879 438.39H88.7021V462.566H112.879V438.39Z" fill="url(#paint7_linear_574_69)" fill-opacity="0.25"/>
<path d="M146.083 441.787C146.083 441.969 140.44 442.116 133.481 442.116C126.52 442.116 120.878 441.968 120.878 441.787C120.878 441.604 126.52 441.458 133.481 441.458C140.44 441.456 146.083 441.604 146.083 441.787Z" fill="url(#paint8_linear_574_69)" fill-opacity="0.25"/>
<path d="M226.592 450.477C226.592 450.66 202.926 450.807 173.738 450.807C144.54 450.807 120.879 450.66 120.879 450.477C120.879 450.295 144.54 450.148 173.738 450.148C202.926 450.148 226.592 450.296 226.592 450.477Z" fill="url(#paint9_linear_574_69)" fill-opacity="0.25"/>
<path d="M191.024 460.228C191.024 460.411 175.473 460.558 156.295 460.558C137.11 460.558 121.562 460.409 121.562 460.228C121.562 460.047 137.109 459.899 156.295 459.899C175.473 459.899 191.024 460.046 191.024 460.228Z" fill="url(#paint10_linear_574_69)" fill-opacity="0.25"/>
<path d="M213.497 498.547H96.6815C90.4926 498.547 85.4766 493.53 85.4766 487.342C85.4766 481.154 90.4938 476.138 96.6815 476.138H213.499C219.686 476.138 224.703 481.155 224.703 487.342C224.703 493.53 219.686 498.547 213.497 498.547Z" fill="url(#paint11_linear_574_69)" fill-opacity="0.25"/>
<path d="M133.611 488.916H130.748L130.2 490.238H128.737L131.487 484.068H132.897L135.656 490.238H134.157L133.611 488.916ZM133.162 487.831L132.184 485.469L131.205 487.831H133.162Z" fill="white"/>
<path d="M141.655 486.306C141.655 487.682 140.624 488.537 138.976 488.537H137.733V490.238H136.306V484.068H138.976C140.624 484.068 141.655 484.923 141.655 486.306ZM140.211 486.306C140.211 485.627 139.77 485.231 138.897 485.231H137.733V487.373H138.897C139.77 487.373 140.211 486.976 140.211 486.306Z" fill="white"/>
<path d="M148.026 486.306C148.026 487.682 146.995 488.537 145.347 488.537H144.104V490.238H142.677V484.068H145.347C146.994 484.068 148.026 484.923 148.026 486.306ZM146.579 486.306C146.579 485.627 146.139 485.231 145.266 485.231H144.102V487.373H145.266C146.139 487.373 146.579 486.976 146.579 486.306Z" fill="white"/>
<path d="M149.046 484.068H150.473V489.074H153.567V490.237H149.046V484.068Z" fill="white"/>
<path d="M156.7 488.052V490.238H155.272V488.035L152.885 484.069H154.4L156.048 486.811L157.696 484.069H159.096L156.7 488.052Z" fill="white"/>
<path d="M167.857 484.068V490.238H166.685L163.61 486.493V490.238H162.2V484.068H163.381L166.447 487.814V484.068H167.857Z" fill="white"/>
<path d="M168.94 487.153C168.94 485.32 170.368 483.962 172.316 483.962C174.254 483.962 175.691 485.311 175.691 487.153C175.691 488.996 174.254 490.343 172.316 490.343C170.368 490.343 168.94 488.985 168.94 487.153ZM174.247 487.153C174.247 485.981 173.418 485.178 172.317 485.178C171.215 485.178 170.387 485.98 170.387 487.153C170.387 488.325 171.215 489.127 172.317 489.127C173.418 489.127 174.247 488.325 174.247 487.153Z" fill="white"/>
<path d="M185.896 484.068L183.878 490.238H182.345L180.987 486.061L179.585 490.238H178.06L176.032 484.068H177.513L178.906 488.404L180.36 484.068H181.683L183.093 488.439L184.529 484.068H185.896Z" fill="white"/>
<path d="M834.606 458.741H663.595V554.364H834.606V458.741Z" fill="#FAFAFA"/>
<path d="M834.606 554.363C834.606 554.363 834.589 553.77 834.58 552.639C834.573 551.497 834.565 549.825 834.552 547.638C834.538 543.244 834.516 536.798 834.489 528.517C834.457 511.963 834.411 488.09 834.354 458.74L834.606 458.992C788.985 459.012 729.049 459.04 663.608 459.069H663.595L663.924 458.74C663.917 492.554 663.909 524.894 663.903 554.362L663.595 554.054C713.632 554.115 756.343 554.167 786.563 554.203C801.684 554.239 813.677 554.268 821.906 554.287C826.012 554.304 829.176 554.316 831.331 554.325C832.395 554.333 833.207 554.339 833.768 554.344C834.318 554.35 834.606 554.363 834.606 554.363C834.606 554.363 834.342 554.376 833.805 554.382C833.251 554.386 832.452 554.392 831.403 554.401C829.262 554.41 826.12 554.423 822.04 554.439C813.827 554.458 801.859 554.487 786.767 554.523C756.497 554.559 713.714 554.611 663.595 554.672H663.287V554.364C663.281 524.897 663.273 492.556 663.266 458.742V458.413H663.595H663.608C729.049 458.442 788.985 458.47 834.606 458.49H834.86V458.742C834.804 488.157 834.757 512.083 834.725 528.674C834.698 536.931 834.676 543.358 834.662 547.738C834.649 549.904 834.641 551.561 834.634 552.692C834.624 553.806 834.606 554.363 834.606 554.363Z" fill="url(#paint12_linear_574_69)" fill-opacity="0.3"/>
<path d="M708.671 481.532H684.494V505.709H708.671V481.532Z" fill="url(#paint13_linear_574_69)" fill-opacity="0.3"/>
<path d="M741.875 484.929C741.875 485.112 736.232 485.259 729.273 485.259C722.312 485.259 716.67 485.111 716.67 484.929C716.67 484.748 722.312 484.6 729.273 484.6C736.232 484.599 741.875 484.747 741.875 484.929Z" fill="url(#paint14_linear_574_69)" fill-opacity="0.3"/>
<path d="M822.384 493.62C822.384 493.803 798.718 493.949 769.53 493.949C740.332 493.949 716.671 493.801 716.671 493.62C716.671 493.438 740.332 493.291 769.53 493.291C798.718 493.291 822.384 493.438 822.384 493.62Z" fill="url(#paint15_linear_574_69)" fill-opacity="0.3"/>
<path d="M786.817 503.371C786.817 503.553 771.266 503.7 752.088 503.7C732.903 503.7 717.354 503.553 717.354 503.371C717.354 503.188 732.902 503.042 752.088 503.042C771.265 503.042 786.817 503.188 786.817 503.371Z" fill="url(#paint16_linear_574_69)" fill-opacity="0.3"/>
<path d="M809.291 541.69H692.473C686.286 541.69 681.269 536.673 681.269 530.485C681.269 524.296 686.285 519.28 692.473 519.28H809.291C815.48 519.28 820.496 524.296 820.496 530.485C820.496 536.673 815.478 541.69 809.291 541.69Z" fill="url(#paint17_linear_574_69)" fill-opacity="0.3"/>
<path d="M729.403 532.057H726.538L725.991 533.38H724.529L727.279 527.21H728.689L731.448 533.38H729.949L729.403 532.057ZM728.954 530.974L727.977 528.612L726.998 530.974H728.954Z" fill="white"/>
<path d="M737.448 529.449C737.448 530.825 736.417 531.68 734.769 531.68H733.526V533.381H732.099V527.211H734.769C736.415 527.21 737.448 528.065 737.448 529.449ZM736.002 529.449C736.002 528.77 735.56 528.374 734.689 528.374H733.525V530.516H734.689C735.562 530.516 736.002 530.119 736.002 529.449Z" fill="white"/>
<path d="M743.818 529.449C743.818 530.825 742.787 531.68 741.139 531.68H739.896V533.381H738.469V527.211H741.139C742.787 527.21 743.818 528.065 743.818 529.449ZM742.373 529.449C742.373 528.77 741.932 528.374 741.059 528.374H739.896V530.516H741.059C741.932 530.516 742.373 530.119 742.373 529.449Z" fill="white"/>
<path d="M744.838 527.21H746.265V532.215H749.359V533.38H744.838V527.21Z" fill="white"/>
<path d="M752.493 531.195V533.381H751.064V531.178L748.677 527.211H750.192L751.84 529.952L753.489 527.211H754.89L752.493 531.195Z" fill="white"/>
<path d="M763.649 527.21V533.38H762.478L759.401 529.634V533.38H757.991V527.21H759.173L762.24 530.955V527.21H763.649Z" fill="white"/>
<path d="M764.733 530.295C764.733 528.462 766.161 527.106 768.109 527.106C770.047 527.106 771.483 528.453 771.483 530.295C771.483 532.137 770.047 533.486 768.109 533.486C766.161 533.485 764.733 532.128 764.733 530.295ZM770.038 530.295C770.038 529.122 769.21 528.32 768.109 528.32C767.007 528.32 766.179 529.122 766.179 530.295C766.179 531.468 767.007 532.27 768.109 532.27C769.21 532.269 770.038 531.467 770.038 530.295Z" fill="white"/>
<path d="M781.689 527.21L779.67 533.38H778.137L776.78 529.202L775.379 533.38H773.855L771.828 527.21H773.309L774.702 531.547L776.155 527.21H777.477L778.887 531.581L780.325 527.21H781.689Z" fill="white"/>
<path d="M896.204 225.255H698.35V335.887H896.204V225.255Z" fill="#FAFAFA"/>
<path d="M896.205 335.888C896.205 335.888 896.187 335.204 896.179 333.898C896.172 332.582 896.163 330.648 896.151 328.116C896.135 323.038 896.114 315.58 896.087 305.998C896.056 286.847 896.01 259.22 895.953 225.256L896.205 225.508C843.424 225.529 774.079 225.557 698.364 225.586H698.349L698.679 225.256C698.671 264.377 698.663 301.796 698.657 335.888L698.349 335.581C756.249 335.641 805.673 335.693 840.635 335.73C858.13 335.765 872.005 335.795 881.519 335.814C886.272 335.83 889.933 335.843 892.42 335.852C893.653 335.859 894.593 335.866 895.237 335.871C895.872 335.876 896.205 335.888 896.205 335.888C896.205 335.888 895.897 335.901 895.275 335.907C894.638 335.911 893.711 335.917 892.494 335.926C890.021 335.935 886.381 335.948 881.656 335.964C872.157 335.983 858.306 336.012 840.842 336.048C805.828 336.085 756.335 336.137 698.352 336.197H698.044V335.89C698.038 301.797 698.03 264.379 698.022 225.258V224.928H698.353H698.368C774.082 224.957 843.428 224.985 896.209 225.006H896.462V225.258C896.405 259.287 896.36 286.967 896.328 306.155C896.3 315.713 896.279 323.152 896.265 328.217C896.252 330.728 896.243 332.647 896.237 333.953C896.223 335.24 896.205 335.888 896.205 335.888Z" fill="url(#paint18_linear_574_69)" fill-opacity="0.25"/>
<path d="M750.5 251.625H722.528V279.596H750.5V251.625Z" fill="url(#paint19_linear_574_69)" fill-opacity="0.25"/>
<path d="M788.917 255.554C788.917 255.736 782.388 255.884 774.337 255.884C766.283 255.884 759.757 255.736 759.757 255.554C759.757 255.371 766.284 255.224 774.337 255.224C782.388 255.224 788.917 255.373 788.917 255.554Z" fill="url(#paint20_linear_574_69)" fill-opacity="0.25"/>
<path d="M882.064 265.61C882.064 265.792 854.682 265.939 820.913 265.939C787.132 265.939 759.756 265.791 759.756 265.61C759.756 265.427 787.132 265.281 820.913 265.281C854.682 265.281 882.064 265.427 882.064 265.61Z" fill="url(#paint21_linear_574_69)" fill-opacity="0.25"/>
<path d="M840.914 276.891C840.914 277.073 822.922 277.22 800.733 277.22C778.536 277.22 760.548 277.072 760.548 276.891C760.548 276.708 778.536 276.562 800.733 276.562C822.921 276.562 840.914 276.71 840.914 276.891Z" fill="url(#paint22_linear_574_69)" fill-opacity="0.25"/>
<path d="M866.914 321.224H731.76C724.601 321.224 718.796 315.42 718.796 308.26C718.796 301.101 724.6 295.296 731.76 295.296H866.914C874.074 295.296 879.878 301.099 879.878 308.26C879.878 315.42 874.074 321.224 866.914 321.224Z" fill="url(#paint23_linear_574_69)" fill-opacity="0.25"/>
<path d="M774.493 310.08H771.176L770.543 311.612H768.85L772.034 304.468H773.667L776.86 311.612H775.125L774.493 310.08ZM773.972 308.825L772.84 306.09L771.707 308.825H773.972Z" fill="white"/>
<path d="M783.801 307.059C783.801 308.651 782.608 309.641 780.699 309.641H779.26V311.61H777.607V304.466H780.698C782.607 304.467 783.801 305.458 783.801 307.059ZM782.127 307.059C782.127 306.274 781.618 305.814 780.607 305.814H779.26V308.294H780.607C781.618 308.294 782.127 307.836 782.127 307.059Z" fill="white"/>
<path d="M791.171 307.059C791.171 308.651 789.978 309.641 788.069 309.641H786.63V311.61H784.976V304.466H788.067C789.978 304.467 791.171 305.458 791.171 307.059ZM789.498 307.059C789.498 306.274 788.987 305.814 787.978 305.814H786.631V308.294H787.978C788.986 308.294 789.498 307.836 789.498 307.059Z" fill="white"/>
<path d="M792.347 304.468H794.001V310.264H797.582V311.612H792.347V304.468Z" fill="white"/>
<path d="M801.206 309.081V311.612H799.552V309.06L796.785 304.468H798.541L800.45 307.641L802.358 304.468H803.981L801.206 309.081Z" fill="white"/>
<path d="M814.117 304.468V311.612H812.759L809.198 307.274V311.612H807.565V304.468H808.933L812.485 308.805V304.468H814.117Z" fill="white"/>
<path d="M815.364 308.039C815.364 305.917 817.017 304.345 819.272 304.345C821.518 304.345 823.181 305.906 823.181 308.039C823.181 310.173 821.518 311.734 819.272 311.734C817.016 311.733 815.364 310.162 815.364 308.039ZM821.506 308.039C821.506 306.683 820.548 305.753 819.271 305.753C817.995 305.753 817.036 306.682 817.036 308.039C817.036 309.397 817.995 310.326 819.271 310.326C820.548 310.325 821.506 309.396 821.506 308.039Z" fill="white"/>
<path d="M834.99 304.468L832.651 311.612H830.877L829.305 306.774L827.683 311.612H825.916L823.569 304.468H825.284L826.896 309.489L828.58 304.468H830.11L831.743 309.529L833.407 304.468H834.99Z" fill="white"/>
<path d="M758.445 55.0507H172.262V591.061H758.445V55.0507Z" fill="white"/>
<path d="M758.445 55.0507H172.262V90.7111H758.445V55.0507Z" fill="#E0E0E0"/>
<path d="M679.546 556.653C679.546 556.836 581.446 556.983 460.459 556.983C339.431 556.983 241.351 556.834 241.351 556.653C241.351 556.471 339.431 556.324 460.459 556.324C581.446 556.323 679.546 556.471 679.546 556.653Z" fill="#263238"/>
<path d="M424.166 449.118H415.486V494.815H424.166V449.118Z" fill="#E0E0E0"/>
<path d="M424.165 494.815C424.151 494.801 424.136 494.478 424.122 493.872C424.111 493.216 424.097 492.342 424.078 491.243C424.055 488.912 424.023 485.634 423.984 481.574C423.947 473.364 423.897 462.003 423.84 449.118L424.165 449.444C421.377 449.445 418.46 449.446 415.488 449.448C416.142 448.788 415.67 449.273 415.815 449.13V449.144V449.171V449.227V449.34V449.565V450.015V450.911C415.815 451.507 415.815 452.1 415.815 452.692C415.814 453.873 415.814 455.046 415.813 456.207C415.81 458.527 415.808 460.801 415.805 463.02C415.794 467.455 415.784 471.666 415.775 475.583C415.73 483.369 415.692 489.972 415.665 494.813L415.487 494.636C418.18 494.678 420.318 494.712 421.847 494.736C422.553 494.754 423.118 494.768 423.555 494.779C423.945 494.792 424.154 494.803 424.165 494.815C424.177 494.826 423.992 494.837 423.619 494.85C423.191 494.861 422.64 494.875 421.951 494.893C420.397 494.917 418.224 494.95 415.487 494.992L415.31 494.994L415.309 494.813C415.281 489.972 415.243 483.369 415.198 475.583C415.188 471.666 415.178 467.455 415.168 463.02C415.165 460.801 415.163 458.526 415.16 456.207C415.16 455.046 415.159 453.875 415.158 452.692C415.158 452.1 415.158 451.507 415.158 450.911V450.015V449.565V449.34V449.227V449.171V449.144V449.13C415.306 448.979 414.826 449.446 415.49 448.789C418.461 448.79 421.377 448.791 424.166 448.793H424.493L424.492 449.118C424.435 462.095 424.384 473.536 424.347 481.806C424.308 485.834 424.275 489.087 424.254 491.398C424.236 492.467 424.221 493.317 424.209 493.956C424.193 494.535 424.179 494.83 424.165 494.815Z" fill="#263238"/>
<path d="M439.911 442.197H399.337C393.322 442.197 388.446 437.322 388.446 431.306H450.8C450.802 437.322 445.926 442.197 439.911 442.197Z" fill="#263238"/>
<path d="M475.701 433.443H404.96V418.313H475.701C479.88 418.313 483.267 421.7 483.267 425.878C483.267 430.056 479.88 433.443 475.701 433.443Z" fill="url(#paint24_linear_574_69)"/>
<path d="M349.991 309.665C345.948 310.211 343.079 313.881 343.525 317.937L353.731 410.732C355.182 423.666 366.119 433.443 379.134 433.443H406.116C410.3 433.443 413.691 430.052 413.691 425.869C413.691 421.685 410.3 418.294 406.116 418.294H383.21C376.694 418.294 371.185 413.471 370.324 407.012L358.454 316.141C357.913 312.01 354.118 309.106 349.991 309.665Z" fill="#FF725E"/>
<path d="M435.944 419.055L359.048 420.132L351.542 309.591L415.901 309.182C422.323 309.182 427.528 314.437 427.528 320.921L435.944 419.055Z" fill="url(#paint25_linear_574_69)"/>
<g opacity="0.9">
<path d="M349.991 309.665C345.948 310.211 343.079 313.881 343.525 317.937L353.731 410.732C355.182 423.666 366.119 433.443 379.134 433.443H406.116C410.3 433.443 413.691 430.052 413.691 425.869C413.691 421.685 410.3 418.294 406.116 418.294H381.564C375.049 418.294 370.475 413.679 369.613 407.221L358.454 316.141C357.913 312.01 354.118 309.106 349.991 309.665Z" fill="url(#paint26_linear_574_69)"/>
</g>
<path d="M428.231 442.197H411.42V450.94H428.231V442.197Z" fill="#263238"/>
<path d="M422.973 532.289H416.443C413.669 532.289 411.419 530.04 411.419 527.265V497.271C411.419 494.497 413.667 492.247 416.443 492.247H422.973C425.747 492.247 427.997 494.497 427.997 497.271V527.265C427.997 530.04 425.749 532.289 422.973 532.289Z" fill="#E0E0E0"/>
<path d="M422.973 532.289C422.972 532.252 423.343 532.265 424.015 532.11C424.671 531.943 425.665 531.567 426.544 530.605C426.977 530.129 427.365 529.51 427.602 528.765C427.859 528.019 427.826 527.168 427.813 526.219C427.799 524.329 427.783 522.19 427.764 519.833C427.744 515.08 427.72 509.452 427.693 503.208C427.689 501.643 427.685 500.04 427.682 498.403C427.673 497.57 427.727 496.766 427.504 496.023C427.308 495.264 426.887 494.568 426.338 493.992C425.78 493.425 425.072 492.992 424.296 492.765C423.527 492.524 422.686 492.58 421.79 492.575C420.032 492.575 418.249 492.576 416.444 492.576C414.746 492.57 413.125 493.544 412.336 494.994C411.941 495.716 411.737 496.526 411.744 497.345C411.743 498.212 411.743 499.071 411.742 499.922C411.736 503.325 411.729 506.61 411.723 509.741C411.696 515.986 411.672 521.613 411.652 526.367C411.592 527.571 411.701 528.622 412.202 529.545C412.687 530.447 413.416 531.139 414.217 531.561C415.023 531.99 415.867 532.144 416.66 532.132C417.46 532.142 418.194 532.152 418.863 532.161C420.139 532.188 421.155 532.208 421.911 532.223C422.609 532.245 422.973 532.266 422.973 532.289C422.973 532.312 422.607 532.333 421.911 532.355C421.155 532.37 420.14 532.39 418.863 532.417C418.196 532.426 417.461 532.435 416.66 532.446C415.846 532.478 414.916 532.333 414.047 531.887C413.178 531.449 412.374 530.717 411.832 529.744C411.567 529.256 411.375 528.709 411.273 528.132C411.163 527.544 411.195 526.95 411.185 526.367C411.164 521.615 411.14 515.986 411.114 509.741C411.107 506.61 411.101 503.327 411.095 499.922C411.093 499.071 411.092 498.212 411.092 497.345C411.082 496.435 411.311 495.495 411.762 494.675C412.658 493.022 414.51 491.908 416.444 491.916C418.249 491.916 420.032 491.918 421.79 491.918C422.644 491.925 423.579 491.862 424.48 492.138C425.364 492.398 426.168 492.893 426.8 493.54C427.423 494.195 427.897 494.991 428.119 495.853C428.369 496.726 428.302 497.606 428.31 498.403C428.306 500.04 428.302 501.643 428.299 503.208C428.272 509.451 428.248 515.079 428.228 519.833C428.21 522.19 428.193 524.329 428.179 526.219C428.174 527.142 428.192 528.073 427.898 528.861C427.627 529.648 427.199 530.293 426.729 530.78C425.774 531.762 424.723 532.11 424.04 532.239C423.345 532.356 422.973 532.289 422.973 532.289Z" fill="#263238"/>
<path d="M468.1 529.813H369.418C366.524 529.813 364.134 530.775 362.316 532.674C358.657 536.497 358.885 542.769 358.896 543.034L363.388 542.845C363.34 541.56 363.638 537.781 365.573 535.772C366.521 534.787 367.779 534.307 369.418 534.307H395.309V545.774H399.803V534.307H468.099C470.99 534.307 473.341 536.658 473.341 539.548V542.937H477.836V539.548C477.836 534.18 473.469 529.813 468.1 529.813Z" fill="#E0E0E0"/>
<path d="M468.101 529.813C468.101 529.813 468.519 529.781 469.329 529.856C470.137 529.932 471.352 530.184 472.776 530.915C474.168 531.671 475.778 532.973 476.871 535.064C477.414 536.1 477.811 537.325 477.935 538.672C478.03 540.027 477.972 541.429 477.997 542.937L478 543.096H477.836C476.439 543.101 474.927 543.108 473.342 543.113H473.175L473.165 542.934C473.041 540.738 473.671 538.054 471.837 536.175C471.013 535.259 469.809 534.635 468.507 534.537C467.186 534.499 465.767 534.533 464.346 534.527C458.631 534.539 452.353 534.552 445.592 534.566C432.061 534.582 416.592 534.601 399.804 534.62L400.12 534.304C400.122 537.913 400.125 541.812 400.126 545.771V546.093H399.803C398.4 546.094 396.858 546.094 395.309 546.096H394.985V545.771C394.983 542.144 394.982 538.247 394.981 534.304L395.309 534.632C390.62 534.632 385.644 534.634 380.608 534.634C376.697 534.637 372.821 534.642 368.991 534.646C368.077 534.691 367.188 534.939 366.461 535.443C365.727 535.941 365.189 536.689 364.792 537.504C364.016 539.144 363.699 541.037 363.713 542.83L363.716 543.154L363.402 543.167C361.893 543.23 360.397 543.292 358.91 543.355L358.577 543.368L358.573 543.044C358.544 540.893 358.848 538.786 359.537 536.788C360.217 534.801 361.364 532.934 363.005 531.61C364.638 530.274 366.723 529.6 368.756 529.514C370.779 529.478 372.727 529.506 374.686 529.5C382.492 529.509 389.974 529.516 397.066 529.524C411.244 529.552 423.861 529.576 434.392 529.596C444.897 529.638 453.317 529.671 459.139 529.694C462.017 529.718 464.251 529.737 465.793 529.749C466.534 529.762 467.104 529.772 467.514 529.778C467.903 529.792 468.101 529.813 468.101 529.813C468.101 529.813 467.903 529.833 467.515 529.842C467.104 529.848 466.534 529.858 465.794 529.871C464.252 529.884 462.018 529.903 459.14 529.927C453.32 529.949 444.899 529.982 434.393 530.024C423.862 530.044 411.244 530.068 397.067 530.096C389.975 530.104 382.493 530.113 374.688 530.12C372.743 530.131 370.748 530.105 368.79 530.143C366.856 530.229 364.926 530.863 363.404 532.108C361.877 533.345 360.796 535.095 360.144 537.002C359.485 538.906 359.19 540.983 359.22 543.02L358.884 542.711C360.371 542.648 361.867 542.584 363.375 542.52L363.064 542.857C363.052 540.93 363.368 539.01 364.205 537.219C364.632 536.338 365.236 535.486 366.088 534.905C366.933 534.317 367.959 534.039 368.955 533.991C372.797 533.986 376.685 533.981 380.609 533.976C385.646 533.976 390.621 533.977 395.31 533.977H395.638V534.305C395.637 538.249 395.636 542.145 395.635 545.773L395.31 545.448C396.861 545.45 398.402 545.45 399.804 545.451L399.483 545.773C399.485 541.813 399.488 537.915 399.489 534.305V533.99H399.804C416.592 534.009 432.061 534.028 445.592 534.043C452.353 534.057 458.631 534.07 464.346 534.083C465.783 534.096 467.152 534.067 468.541 534.115C469.952 534.228 471.252 534.913 472.135 535.907C473.024 536.897 473.516 538.18 473.524 539.43C473.522 540.638 473.521 541.805 473.518 542.934L473.341 542.757C474.925 542.763 476.438 542.768 477.835 542.773L477.674 542.934C477.661 541.438 477.73 539.999 477.649 538.694C477.541 537.385 477.166 536.19 476.648 535.174C475.606 533.124 474.048 531.827 472.693 531.06C471.306 530.319 470.115 530.041 469.317 529.938C468.519 529.839 468.099 529.838 468.101 529.813Z" fill="#263238"/>
<path d="M406.215 551.12C406.215 555.978 402.278 559.915 397.42 559.915C392.564 559.915 388.626 555.978 388.626 551.12C388.626 546.264 392.563 542.326 397.42 542.326C402.277 542.326 406.215 546.263 406.215 551.12Z" fill="#263238"/>
<path d="M369.941 548.968C369.941 553.826 366.004 557.763 361.146 557.763C356.29 557.763 352.352 553.826 352.352 548.968C352.352 544.112 356.288 540.174 361.146 540.174C366.002 540.175 369.941 544.112 369.941 548.968Z" fill="#263238"/>
<path d="M483.367 549.289C483.367 554.145 479.43 558.083 474.573 558.083C469.715 558.083 465.778 554.147 465.778 549.289C465.778 544.432 469.715 540.494 474.573 540.494C479.429 540.496 483.367 544.432 483.367 549.289Z" fill="#263238"/>
<path d="M477.598 418.313C477.599 418.495 455.916 418.723 429.176 418.822C402.425 418.921 380.747 418.854 380.746 418.671C380.745 418.489 402.423 418.261 429.173 418.162C455.915 418.063 477.598 418.131 477.598 418.313Z" fill="#263238"/>
<path d="M369.718 405.738C369.536 405.76 366.869 385.72 363.758 360.982C360.647 336.237 358.272 316.164 358.453 316.141C358.634 316.118 361.302 336.154 364.413 360.9C367.522 385.638 369.897 405.715 369.718 405.738Z" fill="#263238"/>
<path d="M357.649 309.453C357.643 309.433 357.875 309.364 358.327 309.271C358.781 309.196 359.455 309.091 360.33 309.068C362.067 309.026 364.653 309.115 367.632 310.192C369.1 310.737 370.67 311.668 371.887 313.088C373.139 314.473 374.176 316.171 375.154 317.985C377.054 321.64 379.159 325.617 381.49 329.746C386.147 338.001 390.519 345.396 393.484 350.864C394.981 353.59 396.136 355.826 396.919 357.377C397.271 358.106 397.56 358.701 397.792 359.18C397.984 359.595 398.077 359.818 398.055 359.828C398.035 359.839 397.904 359.636 397.673 359.241C397.412 358.778 397.087 358.201 396.691 357.496C395.792 355.902 394.567 353.733 393.075 351.09C390.009 345.687 385.577 338.336 380.912 330.068C378.581 325.939 376.476 321.922 374.616 318.272C373.663 316.467 372.664 314.798 371.477 313.452C370.318 312.07 368.884 311.193 367.461 310.626C364.595 309.525 362.044 309.359 360.331 309.324C358.604 309.305 357.66 309.51 357.649 309.453Z" fill="#263238"/>
<path d="M344.044 314.255C344.201 314.348 338.378 324.504 331.041 336.937C323.7 349.375 317.624 359.379 317.467 359.286C317.31 359.194 323.131 349.04 330.472 336.603C337.81 324.168 343.887 314.161 344.044 314.255Z" fill="#263238"/>
<path d="M412.746 359.282H307.321V390.369H412.746V359.282Z" fill="#FAFAFA"/>
<path d="M335.75 368.936L330.591 380.855H327.866L322.724 368.936H325.703L329.329 377.45L333.008 368.936H335.75Z" fill="url(#paint27_linear_574_69)"/>
<path d="M344.191 378.301H338.657L337.602 380.856H334.774L340.087 368.937H342.811L348.14 380.856H345.246L344.191 378.301ZM343.322 376.206L341.432 371.644L339.542 376.206H343.322Z" fill="url(#paint28_linear_574_69)"/>
<path d="M348.46 374.895C348.46 371.302 351.219 368.732 354.93 368.732C356.99 368.732 358.71 369.482 359.835 370.843L358.064 372.477C357.263 371.558 356.259 371.081 355.067 371.081C352.836 371.081 351.253 372.647 351.253 374.895C351.253 377.144 352.836 378.711 355.067 378.711C356.259 378.711 357.263 378.233 358.064 377.297L359.835 378.931C358.711 380.312 356.991 381.06 354.914 381.06C351.219 381.059 348.46 378.489 348.46 374.895Z" fill="url(#paint29_linear_574_69)"/>
<path d="M369.297 378.301H363.763L362.708 380.856H359.881L365.193 368.937H367.918L373.247 380.856H370.352L369.297 378.301ZM368.428 376.206L366.538 371.644L364.649 376.206H368.428Z" fill="url(#paint30_linear_574_69)"/>
<path d="M385.418 368.936V380.855H383.153L377.211 373.619V380.855H374.486V368.936H376.768L382.693 376.172V368.936H385.418Z" fill="url(#paint31_linear_574_69)"/>
<path d="M390.709 371.183H386.896V368.936H397.282V371.183H393.468V380.855H390.709V371.183Z" fill="url(#paint32_linear_574_69)"/>
<path d="M409.338 387.538C409.332 387.532 409.326 387.38 409.318 387.087C409.313 386.77 409.307 386.345 409.298 385.794C409.287 384.635 409.271 382.967 409.25 380.809C409.225 376.456 409.188 370.135 409.141 362.148L409.338 362.345C386.858 362.374 350.663 362.423 309.9 362.477C310.046 362.33 309.566 362.806 310.224 362.148V362.154V362.167V362.192V362.243V362.345V362.549V362.957V363.772V365.397C310.224 366.478 310.224 367.556 310.224 368.63C310.224 370.78 310.223 372.913 310.223 375.032C310.222 379.269 310.219 383.442 310.218 387.538L309.895 387.215C338.224 387.273 363.037 387.325 380.797 387.362C389.674 387.401 396.786 387.433 401.709 387.454C404.145 387.472 406.039 387.487 407.354 387.497C407.979 387.506 408.467 387.513 408.824 387.518C409.159 387.523 409.338 387.538 409.338 387.538C409.346 387.544 409.187 387.552 408.866 387.56C408.519 387.565 408.044 387.571 407.435 387.58C406.136 387.59 404.267 387.604 401.86 387.623C396.953 387.644 389.866 387.676 381.021 387.715C363.204 387.752 338.313 387.803 309.894 387.862H309.571V387.538C309.57 383.442 309.567 379.269 309.566 375.032C309.566 372.914 309.564 370.78 309.564 368.63C309.564 367.556 309.564 366.478 309.564 365.397V363.772V362.957V362.549V362.345V362.243V362.192V362.167V362.154V362.148C310.224 361.488 309.751 361.965 309.9 361.817C350.661 361.872 386.856 361.918 409.338 361.949H409.539L409.537 362.146C409.491 370.185 409.454 376.545 409.427 380.926C409.407 383.063 409.39 384.717 409.379 385.866C409.37 386.402 409.364 386.816 409.359 387.124C409.352 387.405 409.346 387.544 409.338 387.538Z" fill="#263238"/>
<path d="M419.642 205.047H427.666L419.726 211.465H413.983L419.642 205.047Z" fill="#263238"/>
<path d="M329.628 266.204V282.878H319.409V267.871C319.409 263.674 317.58 261.9 314.622 261.9C311.341 261.9 308.813 263.944 308.813 268.785V282.878H298.594V242.967H308.813V256.414C311.073 254.316 314.138 253.241 317.581 253.241C324.411 253.241 329.628 257.168 329.628 266.204Z" fill="#263238"/>
<path d="M334.905 245.065C334.905 241.999 337.379 239.632 341.145 239.632C344.911 239.632 347.384 241.837 347.384 244.904C347.384 248.131 344.909 250.497 341.145 250.497C337.379 250.497 334.905 248.13 334.905 245.065ZM336.035 253.725H346.255V282.878H336.035V253.725Z" fill="#263238"/>
<path d="M372.398 253.241V262.439C371.483 262.332 370.837 262.279 370.085 262.279C365.943 262.279 363.092 264.376 363.092 269.486V282.88H352.872V253.726H362.608V257.222C364.705 254.585 368.095 253.241 372.398 253.241Z" fill="#263238"/>
<path d="M375.467 245.065C375.467 241.999 377.941 239.632 381.706 239.632C385.472 239.632 387.946 241.837 387.946 244.904C387.946 248.131 385.472 250.497 381.706 250.497C377.941 250.497 375.467 248.13 375.467 245.065ZM376.597 253.725H386.816V282.878H376.597V253.725Z" fill="#263238"/>
<path d="M424.47 266.204V282.878H414.251V267.871C414.251 263.674 412.422 261.9 409.464 261.9C406.183 261.9 403.655 263.944 403.655 268.785V282.878H393.436V253.725H403.171V256.898C405.484 254.477 408.766 253.24 412.423 253.24C419.251 253.241 424.47 257.168 424.47 266.204Z" fill="#263238"/>
<path d="M462.664 253.725V277.553C462.664 288.581 456.424 293.798 445.558 293.798C439.964 293.798 434.639 292.506 431.089 289.979L434.801 282.825C437.221 284.762 441.201 285.945 444.644 285.945C450.131 285.945 452.444 283.471 452.444 278.899V277.931C450.454 280.244 447.495 281.374 443.784 281.374C436.038 281.374 429.476 275.886 429.476 267.281C429.476 258.728 436.038 253.242 443.784 253.242C447.818 253.242 450.938 254.533 452.928 257.277V253.726L462.664 253.725ZM452.552 267.279C452.552 263.729 449.861 261.363 446.204 261.363C442.548 261.363 439.804 263.73 439.804 267.279C439.804 270.83 442.548 273.25 446.204 273.25C449.861 273.25 452.552 270.83 452.552 267.279Z" fill="#263238"/>
<path d="M467.401 277.284C467.401 273.625 470.092 271.259 473.533 271.259C477.031 271.259 479.665 273.625 479.665 277.284C479.665 280.834 477.031 283.362 473.533 283.362C470.092 283.362 467.401 280.834 467.401 277.284Z" fill="url(#paint33_linear_574_69)"/>
<path d="M437.892 213.831V221.052C437.174 220.969 436.667 220.926 436.076 220.926C432.824 220.926 430.586 222.572 430.586 226.585V237.101H422.562V214.212H430.206V216.957C431.852 214.887 434.514 213.831 437.892 213.831Z" fill="#263238"/>
<path d="M464.244 227.683H447.605C448.281 230.006 450.266 231.358 453.223 231.358C455.461 231.358 456.939 230.725 458.502 229.373L462.725 233.765C460.529 236.214 457.319 237.481 452.969 237.481C444.818 237.481 439.54 232.455 439.54 225.614C439.54 218.731 444.903 213.831 452.124 213.831C458.881 213.831 464.372 218.139 464.372 225.698C464.371 226.29 464.287 227.05 464.244 227.683ZM447.478 223.46H456.854C456.431 221.054 454.658 219.534 452.166 219.534C449.675 219.532 447.943 221.052 447.478 223.46Z" fill="#263238"/>
<path d="M387.975 214.212L379.824 237.101H372.054L367.746 224.642L363.27 237.101H355.499L347.348 214.212H354.949L359.637 228.065L364.493 214.212H371.335L376.064 228.191L380.921 214.212H387.975Z" fill="#263238"/>
<path d="M413.06 227.683H396.421C397.098 230.006 399.083 231.358 402.039 231.358C404.277 231.358 405.755 230.725 407.318 229.373L411.542 233.765C409.345 236.214 406.137 237.481 401.786 237.481C393.635 237.481 388.356 232.455 388.356 225.614C388.356 218.731 393.72 213.831 400.941 213.831C407.698 213.831 413.188 218.139 413.188 225.698C413.187 226.29 413.102 227.05 413.06 227.683ZM396.295 223.46H405.671C405.247 221.054 403.474 219.534 400.983 219.534C398.491 219.532 396.76 221.052 396.295 223.46Z" fill="#263238"/>
<path d="M353.286 171.832L352.005 144.916C351.9 142.715 350.171 140.937 347.975 140.771C345.657 140.596 343.61 142.27 343.317 144.576L339.908 171.555C339.65 173.598 341.241 175.404 343.299 175.408L349.859 175.419C351.818 175.422 353.379 173.787 353.286 171.832Z" fill="url(#paint34_linear_574_69)"/>
<path d="M341.084 125.534C342.28 122.112 346.024 120.308 349.445 121.504C352.868 122.7 354.672 126.444 353.476 129.865C352.28 133.288 348.536 135.091 345.113 133.896C341.693 132.701 339.888 128.957 341.084 125.534Z" fill="url(#paint35_linear_574_69)"/>
<path d="M282.834 205.847L267.155 192.565C265.874 191.48 263.982 191.519 262.747 192.659C261.445 193.861 261.314 195.872 262.447 197.235L275.722 213.166C276.728 214.372 278.562 214.425 279.635 213.279L283.053 209.626C284.073 208.534 283.973 206.813 282.834 205.847Z" fill="url(#paint36_linear_574_69)"/>
<path d="M250.666 188.578C249.379 186.13 250.319 183.104 252.766 181.817C255.212 180.53 258.24 181.47 259.527 183.918C260.814 186.365 259.872 189.391 257.427 190.678C254.979 191.965 251.953 191.025 250.666 188.578Z" fill="url(#paint37_linear_574_69)"/>
<path d="M269.538 143.245L293.642 184.087C295.613 187.426 299.764 188.773 303.321 187.226C307.071 185.593 308.884 181.308 307.444 177.479L290.588 132.688C289.312 129.296 285.352 127.79 282.145 129.476L271.924 134.848C268.875 136.45 267.787 140.278 269.538 143.245Z" fill="url(#paint38_linear_574_69)"/>
<path d="M326.561 205.28C327.511 211.589 323.167 217.473 316.857 218.421C310.548 219.371 304.664 215.027 303.714 208.719C302.764 202.41 307.109 196.526 313.418 195.576C319.728 194.627 325.611 198.971 326.561 205.28Z" fill="url(#paint39_linear_574_69)"/>
<path d="M758.444 591.061C758.443 588.685 758.333 377.392 758.163 55.0506L758.444 55.3318C589.361 55.3457 387.934 55.3622 172.314 55.3812H172.261L172.591 55.0519C172.575 250.325 172.561 433.933 172.55 591.062L172.261 590.773C522.718 590.944 755.949 591.06 758.444 591.061C755.95 591.062 522.718 591.177 172.261 591.35H171.971V591.06C171.96 433.931 171.946 250.322 171.931 55.0493V54.7188H172.26H172.313C387.932 54.7365 589.359 54.7529 758.443 54.7681H758.724V55.0493C758.556 377.392 758.445 588.687 758.444 591.061Z" fill="#263238"/>
<path d="M188.552 77.4744C191.229 77.4744 193.399 75.3046 193.399 72.6281C193.399 69.9516 191.229 67.7819 188.552 67.7819C185.876 67.7819 183.706 69.9516 183.706 72.6281C183.706 75.3046 185.876 77.4744 188.552 77.4744Z" fill="url(#paint40_linear_574_69)"/>
<path d="M205.223 77.4744C207.9 77.4744 210.069 75.3046 210.069 72.6281C210.069 69.9516 207.9 67.7819 205.223 67.7819C202.547 67.7819 200.377 69.9516 200.377 72.6281C200.377 75.3046 202.547 77.4744 205.223 77.4744Z" fill="url(#paint41_linear_574_69)"/>
<path d="M221.894 77.4744C224.571 77.4744 226.74 75.3046 226.74 72.6281C226.74 69.9516 224.571 67.7819 221.894 67.7819C219.218 67.7819 217.048 69.9516 217.048 72.6281C217.048 75.3046 219.218 77.4744 221.894 77.4744Z" fill="url(#paint42_linear_574_69)"/>
<path d="M531.398 172.021C531.324 172.213 528.617 171.361 525.351 170.118C522.083 168.874 519.493 167.711 519.567 167.519C519.64 167.328 522.346 168.179 525.614 169.423C528.881 170.665 531.47 171.829 531.398 172.021Z" fill="#455A64"/>
<path d="M515.184 197.593C513.861 197.446 510.498 199.145 507.657 202.531C507.608 202.583 507.559 202.626 507.512 202.679C505.499 204.948 504.248 197.982 504.114 195.413C504.026 193.747 502.31 192.605 500.651 193.09L491.811 196.495L489.305 196.405C488.012 196.783 487.221 198.03 487.463 199.311L490.608 213.114L490.439 216.81L507.416 220.331L508.328 211.11C508.658 210.06 509.087 208.824 509.644 207.418C510.146 206.155 510.869 204.968 511.783 203.942C512.742 202.867 514.038 201.514 515.101 200.778C515.197 200.725 515.305 200.649 515.395 200.608C515.611 200.511 515.773 200.371 515.913 200.219C516.845 199.339 516.476 197.737 515.184 197.593Z" fill="#FFBE9D"/>
<path d="M511.464 158.699C511.464 158.699 501.332 157.439 486.099 145.323C470.866 133.207 462.623 115.99 460.922 116.238C459.22 116.486 451.429 113.724 440.141 145.946C428.853 178.169 435.121 184.814 437.942 184.49C440.761 184.165 459.441 177.011 471.553 177.244C483.663 177.477 499.654 182.27 499.654 182.27L511.464 158.699Z" fill="url(#paint43_linear_574_69)"/>
<path d="M534.136 173.547L531.357 180.303L530.112 183.331C528.404 187.483 523.746 189.572 519.51 188.083L497.537 182.676L507.261 153.223L529.584 162.547C533.868 164.338 535.902 169.252 534.136 173.547Z" fill="#263238"/>
<path d="M525.483 183.532L518.123 196.583L514.76 195.496L491.791 212.645L486.087 200.231C486.087 200.231 499.453 195.121 502.076 190.539C504.699 185.958 501.937 184.78 501.937 184.78L508.408 178.015L525.483 183.532Z" fill="#263238"/>
<path d="M441.34 146.401C435.36 163.843 433.62 179.048 437.453 180.363C441.285 181.676 449.239 168.602 455.219 151.16C461.198 133.718 462.939 118.513 459.107 117.199C455.274 115.884 447.32 128.959 441.34 146.401Z" fill="#263238"/>
<path d="M536.838 182.677L530.901 181.41L533.831 174.289L538.409 176.569L536.838 182.677Z" fill="#455A64"/>
<path d="M530.005 176.228C529.938 176.424 526.955 175.576 523.342 174.336C519.727 173.096 516.853 171.933 516.92 171.739C516.986 171.546 519.969 172.393 523.583 173.632C527.197 174.872 530.072 176.035 530.005 176.228Z" fill="#455A64"/>
<path d="M528.168 180.677C528.146 180.778 527.447 180.685 526.322 180.45C525.761 180.334 525.093 180.181 524.355 180.001C523.62 179.811 522.846 179.507 522.022 179.223C518.73 178.056 516.185 176.849 516.248 176.672C516.323 176.463 519.006 177.365 522.267 178.521C523.084 178.802 523.848 179.125 524.561 179.347C525.276 179.56 525.918 179.761 526.455 179.942C527.528 180.302 528.188 180.577 528.168 180.677Z" fill="#455A64"/>
<path d="M456.395 141.229C456.395 141.229 447.263 136.693 443.642 148.792C440.021 160.893 449.277 161.953 449.277 161.953C452.449 155.844 454.844 148.958 456.395 141.229Z" fill="#FAFAFA"/>
<path d="M464.261 126.474C464.311 126.478 464.264 127.281 464.133 128.732C463.995 130.183 463.803 132.287 463.489 134.877C463.242 136.161 462.972 137.564 462.682 139.068C462.535 139.822 462.382 140.601 462.226 141.403C462.148 141.804 462.067 142.211 461.986 142.624C461.894 143.034 461.763 143.441 461.651 143.858C461.181 145.519 460.687 147.264 460.177 149.07C460.048 149.522 459.918 149.977 459.788 150.437C459.663 150.898 459.465 151.34 459.304 151.797C458.965 152.707 458.62 153.629 458.271 154.562C457.921 155.496 457.574 156.418 457.233 157.326C457.053 157.777 456.911 158.239 456.705 158.67C456.501 159.102 456.3 159.531 456.101 159.957C455.3 161.656 454.526 163.295 453.789 164.858C453.599 165.245 453.432 165.638 453.232 166.008C453.021 166.373 452.815 166.734 452.61 167.088C452.201 167.798 451.803 168.485 451.419 169.153C450.649 170.478 449.929 171.715 449.272 172.847C447.81 175.001 446.577 176.707 445.729 177.892C444.876 179.071 444.384 179.711 444.341 179.681C444.298 179.652 444.71 178.959 445.49 177.73C446.301 176.476 447.438 174.715 448.836 172.553C449.465 171.415 450.152 170.173 450.888 168.84C451.258 168.174 451.642 167.485 452.036 166.777C452.234 166.423 452.434 166.064 452.638 165.699C452.831 165.33 452.995 164.936 453.178 164.55C453.898 162.992 454.653 161.358 455.436 159.663C455.632 159.24 455.83 158.813 456.03 158.382C456.234 157.954 456.373 157.495 456.55 157.046C456.887 156.143 457.231 155.227 457.576 154.3C457.923 153.374 458.267 152.458 458.606 151.556C458.767 151.103 458.965 150.665 459.091 150.207C459.223 149.751 459.353 149.3 459.484 148.852C460.006 147.062 460.51 145.333 460.99 143.687C461.107 143.274 461.241 142.872 461.337 142.466C461.423 142.056 461.508 141.654 461.592 141.256C461.76 140.462 461.924 139.689 462.082 138.943C462.401 137.453 462.7 136.064 462.974 134.792C463.338 132.249 463.636 130.179 463.848 128.703C464.064 127.264 464.21 126.47 464.261 126.474Z" fill="#263238"/>
<path d="M497.841 190.297C496.896 190.629 496.367 191.678 496.642 192.676C497.17 194.586 498.029 197.584 498.701 199.411C498.918 200 499.154 200.599 499.568 201.058C499.982 201.516 500.618 201.809 501.201 201.633C501.815 201.447 502.214 200.787 502.306 200.127C502.399 199.465 502.246 198.799 502.086 198.154C501.646 196.372 500.861 193.698 500.181 191.52C499.864 190.501 498.815 189.954 497.841 190.297Z" fill="#FFBE9D"/>
<path d="M494.999 193.551C494.054 193.883 493.524 194.932 493.799 195.93C494.327 197.84 495.186 200.839 495.859 202.665C496.075 203.254 496.311 203.855 496.725 204.312C497.139 204.77 497.775 205.063 498.358 204.887C498.972 204.702 499.371 204.041 499.464 203.381C499.556 202.72 499.403 202.053 499.243 201.407C498.804 199.625 498.018 196.951 497.338 194.773C497.021 193.755 495.973 193.209 494.999 193.551Z" fill="#FFBE9D"/>
<path d="M492.336 195.555C491.482 195.84 491.006 196.747 491.258 197.612C491.74 199.268 492.526 201.867 493.139 203.452C493.336 203.962 493.552 204.483 493.927 204.881C494.303 205.278 494.879 205.534 495.405 205.383C495.96 205.224 496.318 204.654 496.4 204.081C496.483 203.509 496.342 202.931 496.197 202.371C495.794 200.827 495.077 198.509 494.456 196.619C494.167 195.738 493.216 195.261 492.336 195.555Z" fill="#FFBE9D"/>
<path d="M488.984 196.058C488.125 196.344 487.647 197.256 487.901 198.125C488.386 199.788 489.174 202.4 489.791 203.992C489.99 204.505 490.205 205.029 490.582 205.428C490.96 205.828 491.539 206.084 492.068 205.932C492.627 205.772 492.986 205.198 493.069 204.623C493.151 204.048 493.009 203.468 492.864 202.906C492.46 201.354 491.739 199.025 491.114 197.127C490.824 196.242 489.869 195.763 488.984 196.058Z" fill="#FFBE9D"/>
<path d="M499.389 201.12C499.208 201.181 498.531 199.666 497.878 197.734C497.225 195.802 496.843 194.187 497.025 194.125C497.206 194.063 497.883 195.579 498.536 197.511C499.188 199.443 499.571 201.059 499.389 201.12Z" fill="#EB996E"/>
<path d="M496.348 203.775C496.164 203.83 495.447 202.086 494.747 199.878C494.047 197.671 493.625 195.83 493.807 195.768C493.988 195.706 494.705 197.45 495.408 199.664C496.11 201.877 496.532 203.718 496.348 203.775Z" fill="#EB996E"/>
<path d="M493.36 203.946C493.189 204.022 492.367 202.542 491.705 200.574C491.039 198.605 490.798 196.931 490.981 196.888C491.171 196.842 491.708 198.417 492.363 200.352C493.013 202.288 493.538 203.867 493.36 203.946Z" fill="#EB996E"/>
<path d="M601.554 159.334C596.725 151.175 588.005 145.882 578.865 143.364C575.02 142.304 572.412 142.599 568.447 143.046C564.483 143.493 560.735 145.012 557.973 147.89C554.691 151.307 551.771 155.25 550.551 159.828C549.299 164.531 548.04 169.266 547.668 174.12C547.297 178.972 547.865 184.004 550.095 188.328L561.981 192.31C568.688 193.568 575.49 194.831 582.293 194.295C589.096 193.758 596.017 191.198 600.413 185.978C606.519 178.724 606.382 167.494 601.554 159.334Z" fill="#263238"/>
<path d="M607.98 195.107C608.097 192.307 607.065 189.379 604.894 187.606C602.723 185.833 599.368 185.47 597.087 187.099L594.821 189.093C591.618 189.915 589.207 193.045 589.076 196.349C588.945 199.652 591.007 202.896 593.986 204.326C596.966 205.756 600.692 205.379 603.421 203.514C606.151 201.651 607.842 198.411 607.98 195.107Z" fill="#263238"/>
<path d="M604.305 202.971C604.221 202.915 605.187 202.264 605.332 200.641C605.467 199.063 604.645 196.843 603.374 194.727C602.073 192.598 600.398 191.023 599.08 190.06C597.766 189.074 596.826 188.643 596.872 188.548C596.893 188.491 597.908 188.785 599.324 189.709C600.743 190.607 602.536 192.196 603.889 194.411C604.568 195.51 605.073 196.644 605.405 197.714C605.746 198.778 605.897 199.826 605.756 200.693C605.627 201.563 605.243 202.195 604.914 202.545C604.579 202.898 604.324 203 604.305 202.971Z" fill="#455A64"/>
<path d="M597.849 205.675C597.651 205.633 599.044 202.069 598.534 197.53C598.091 192.983 595.987 189.787 596.172 189.704C596.227 189.666 596.828 190.398 597.508 191.762C598.191 193.12 598.889 195.143 599.137 197.467C599.376 199.791 599.114 201.914 598.729 203.385C598.347 204.859 597.911 205.7 597.849 205.675Z" fill="#455A64"/>
<path d="M557.959 217.779C558.693 213.508 560.329 204.354 560.325 204.373C560.325 204.373 550.537 201.758 549.732 188.581C549.331 182.028 550.679 171.476 552.061 162.879C553.305 155.14 561.512 145.596 571.084 147.021L575.411 147.175L590.7 156.126C593.033 156.603 594.612 158.786 594.336 161.152L585.96 216.482L562.26 262.857L556.907 229.958L557.959 217.779Z" fill="#FFBE9D"/>
<path d="M556.47 172.324C556.353 173.2 556.999 174.021 557.912 174.159C558.823 174.297 559.657 173.701 559.773 172.824C559.89 171.949 559.244 171.127 558.333 170.989C557.42 170.851 556.585 171.448 556.47 172.324Z" fill="#263238"/>
<path d="M554.502 168.14C554.686 168.377 556.038 167.566 557.829 167.743C559.62 167.895 560.845 168.944 561.062 168.744C561.167 168.657 560.993 168.244 560.462 167.773C559.939 167.304 559.017 166.807 557.901 166.703C556.785 166.602 555.806 166.921 555.226 167.29C554.633 167.659 554.409 168.033 554.502 168.14Z" fill="#263238"/>
<path d="M563.613 183.298C563.631 183.197 562.536 182.898 560.754 182.491C560.302 182.4 559.877 182.267 559.831 181.948C559.755 181.607 559.994 181.132 560.268 180.622C560.805 179.556 561.367 178.439 561.957 177.27C564.315 172.493 566.07 168.548 565.876 168.455C565.683 168.362 563.615 172.158 561.257 176.934C560.687 178.114 560.141 179.237 559.623 180.313C559.399 180.815 559.045 181.377 559.212 182.085C559.302 182.438 559.614 182.719 559.9 182.826C560.185 182.943 560.441 182.973 560.667 183.009C562.47 183.283 563.596 183.399 563.613 183.298Z" fill="#263238"/>
<path d="M560.325 204.373C560.325 204.373 569.001 205.78 578.154 201.419C578.154 201.419 572.653 209.967 559.781 207.495L560.325 204.373Z" fill="#EB996E"/>
<path d="M555.907 161.822C556.183 162.259 557.457 161.956 558.943 162.08C560.432 162.152 561.657 162.618 561.987 162.221C562.133 162.027 561.975 161.6 561.463 161.162C560.959 160.726 560.085 160.325 559.062 160.256C558.04 160.19 557.12 160.473 556.564 160.84C555.999 161.207 555.786 161.61 555.907 161.822Z" fill="#263238"/>
<path d="M576.952 173.633C576.864 174.512 576.049 175.164 575.129 175.09C574.211 175.017 573.536 174.245 573.622 173.366C573.709 172.487 574.525 171.835 575.443 171.908C576.364 171.982 577.039 172.754 576.952 173.633Z" fill="#263238"/>
<path d="M578.206 169.63C577.972 169.818 576.841 168.72 575.057 168.484C573.279 168.224 571.846 168.966 571.683 168.72C571.6 168.611 571.863 168.249 572.488 167.911C573.105 167.574 574.116 167.3 575.227 167.455C576.336 167.61 577.217 168.145 577.697 168.636C578.187 169.13 578.32 169.547 578.206 169.63Z" fill="#263238"/>
<path d="M577.936 163.523C577.569 163.885 576.396 163.3 574.922 163.081C573.455 162.811 572.157 162.986 571.926 162.524C571.827 162.301 572.079 161.922 572.677 161.612C573.268 161.302 574.21 161.111 575.222 161.278C576.233 161.448 577.062 161.933 577.521 162.417C577.986 162.904 578.101 163.344 577.936 163.523Z" fill="#263238"/>
<path d="M591.585 179.328L589.003 181.301C580.783 170.621 565.49 144.686 566.331 146.222C566.331 146.222 573.338 144.515 580.309 146.826C587.279 149.136 600.308 154.788 598.812 163.196C597.316 171.604 591.585 179.328 591.585 179.328Z" fill="#263238"/>
<path d="M596.909 187.607C596.857 187.597 596.984 186.871 597.133 185.557C597.288 184.243 597.392 182.324 597.236 179.969C596.965 175.269 595.236 168.791 591.383 162.682C587.524 156.569 582.684 152.034 579.077 148.988C577.264 147.462 575.746 146.282 574.692 145.475C573.638 144.667 573.057 144.216 573.082 144.18C573.093 144.163 573.255 144.252 573.552 144.439C573.847 144.628 574.284 144.904 574.83 145.285C575.929 146.037 577.491 147.165 579.348 148.659C583.042 151.635 587.982 156.162 591.894 162.361C595.806 168.56 597.499 175.174 597.663 179.947C597.765 182.338 597.594 184.276 597.366 185.591C597.28 186.253 597.133 186.754 597.064 187.097C596.983 187.435 596.929 187.612 596.909 187.607Z" fill="#455A64"/>
<path d="M578.684 144.506C578.696 144.489 578.863 144.574 579.171 144.752C579.481 144.928 579.928 145.203 580.497 145.569C581.633 146.303 583.253 147.406 585.166 148.892C587.077 150.376 589.285 152.238 591.578 154.476C593.849 156.72 596.329 159.275 598.299 162.453C599.282 164.036 600.045 165.714 600.542 167.41C601.03 169.11 601.234 170.816 601.248 172.431C601.265 175.673 600.613 178.53 599.942 180.853C599.254 183.18 598.539 185.006 598.033 186.258C597.779 186.885 597.57 187.367 597.422 187.69C597.275 188.014 597.188 188.18 597.169 188.172C597.127 188.156 597.371 187.449 597.812 186.175C598.251 184.899 598.9 183.057 599.529 180.738C600.142 178.423 600.738 175.597 600.69 172.44C600.662 170.867 600.452 169.217 599.973 167.576C599.487 165.94 598.745 164.316 597.784 162.771C595.865 159.67 593.426 157.128 591.189 154.874C588.934 152.63 586.771 150.746 584.902 149.227C583.034 147.707 581.46 146.555 580.368 145.764C579.272 144.974 578.659 144.546 578.684 144.506Z" fill="#455A64"/>
<path d="M591.725 179.574C591.689 179.596 591.342 179.137 590.747 178.29C590.096 177.337 589.265 176.123 588.27 174.667C586.202 171.594 583.38 167.327 580.295 162.594C577.21 157.86 574.445 153.556 572.467 150.423C571.538 148.926 570.761 147.676 570.153 146.695C569.617 145.807 569.339 145.306 569.373 145.282C569.407 145.259 569.753 145.716 570.35 146.564C571.001 147.516 571.83 148.731 572.825 150.185C574.893 153.258 577.716 157.527 580.803 162.263C583.89 166.997 586.655 171.303 588.633 174.437C589.562 175.932 590.339 177.184 590.947 178.163C591.48 179.05 591.759 179.551 591.725 179.574Z" fill="#455A64"/>
<path d="M589.119 182.753C589.215 181.787 590.552 179.617 591.521 179.56C594.109 179.409 598.683 180.059 598.099 186.536C597.301 195.39 588.576 192.763 588.584 192.507C588.589 192.308 588.788 186.09 589.119 182.753Z" fill="#FFBE9D"/>
<path d="M591.026 189.182C591.068 189.156 591.17 189.303 591.42 189.447C591.664 189.586 592.094 189.706 592.571 189.574C593.538 189.316 594.459 187.901 594.646 186.309C594.741 185.505 594.642 184.723 594.413 184.061C594.202 183.388 593.823 182.898 593.359 182.772C592.901 182.622 592.542 182.874 592.41 183.112C592.269 183.349 592.31 183.531 592.261 183.541C592.234 183.562 592.084 183.377 592.189 183.017C592.242 182.845 592.364 182.645 592.588 182.493C592.816 182.339 593.136 182.278 593.461 182.344C594.14 182.453 594.697 183.137 594.948 183.863C595.235 184.595 595.367 185.477 595.259 186.38C595.041 188.158 593.979 189.747 592.665 190.001C592.028 190.108 591.525 189.873 591.276 189.64C591.023 189.397 590.994 189.196 591.026 189.182Z" fill="#EB996E"/>
<path d="M609.913 510.567C609.733 511.961 606.298 550.918 606.298 550.918H588.451L585.322 510.73L609.913 510.567Z" fill="#FFBE9D"/>
<path d="M588.407 545.115C588.407 545.115 600.94 554.01 607.005 546.31L608.59 550.04L615.717 576.621C616.178 578.341 615.371 580.239 613.712 580.888C612.435 581.389 611.027 581.106 610.065 580.192C604.909 575.288 586.037 557.156 586.221 554.696L586.293 548.169C586.311 546.816 587.147 545.608 588.407 545.115Z" fill="url(#paint44_linear_574_69)"/>
<path d="M613.098 581.068L586.213 552.426L586.219 553.851C586.085 555.397 586.76 556.007 587.494 556.996C589.668 559.93 595.689 566.491 609.964 580.192C610.794 580.99 611.974 581.32 613.098 581.068Z" fill="#263238"/>
<path d="M590.151 548.179C590.996 548.758 591.277 550.032 590.732 550.901C590.188 551.77 588.894 552.067 588.039 551.502C587.184 550.938 586.8 549.418 587.438 548.616C588.076 547.814 589.612 547.548 590.308 548.302" fill="white"/>
<path d="M605.347 566.399C605.537 566.491 606.289 564.726 608.287 563.769C610.255 562.753 612.116 563.221 612.158 563.012C612.187 562.929 611.76 562.67 610.972 562.562C610.191 562.451 609.053 562.566 607.959 563.108C606.866 563.654 606.087 564.491 605.705 565.182C605.314 565.875 605.263 566.372 605.347 566.399Z" fill="#263238"/>
<path d="M607.762 570.896C607.922 571.04 608.998 569.942 610.736 569.436C612.462 568.893 613.966 569.21 614.02 568.999C614.116 568.827 612.494 568.12 610.522 568.73C608.544 569.316 607.587 570.804 607.762 570.896Z" fill="#263238"/>
<path d="M600.862 560.642C601.021 560.801 602.666 559.103 605.301 558.081C607.92 557.017 610.281 557.121 610.286 556.896C610.341 556.716 607.839 556.259 605.027 557.394C602.206 558.499 600.7 560.549 600.862 560.642Z" fill="#263238"/>
<path d="M600.265 552.55C600.356 552.752 602.211 551.968 604.63 551.87C607.047 551.74 608.969 552.347 609.039 552.138C609.132 551.973 607.194 550.999 604.596 551.132C601.997 551.243 600.158 552.395 600.265 552.55Z" fill="#263238"/>
<path d="M606.007 551.798C606.049 551.791 606.041 551.332 605.818 550.539C605.595 549.752 605.142 548.616 604.211 547.45C603.738 546.902 603.218 546.182 602.213 545.92C601.713 545.785 601.045 545.999 600.735 546.51C600.426 547.009 600.404 547.575 600.492 548.101C600.92 550.193 603.102 551.887 605.519 551.746C607.939 551.562 609.832 549.807 610.433 547.818C610.55 547.31 610.585 546.709 610.224 546.198C609.866 545.681 609.152 545.583 608.694 545.752C607.738 546.083 607.225 546.764 606.726 547.293C605.759 548.422 605.234 549.518 604.951 550.284C604.667 551.056 604.615 551.512 604.657 551.522C604.79 551.587 605.189 549.741 607.115 547.641C607.608 547.148 608.168 546.538 608.862 546.34C609.2 546.241 609.522 546.322 609.698 546.578C609.874 546.821 609.883 547.249 609.773 547.651C609.257 549.282 607.522 550.884 605.475 551.008C603.439 551.147 601.523 549.656 601.162 547.974C601.081 547.569 601.113 547.138 601.285 546.857C601.455 546.578 601.767 546.453 602.095 546.519C602.787 546.658 603.349 547.271 603.811 547.783C605.657 549.951 605.866 551.859 606.007 551.798Z" fill="#263238"/>
<path d="M511.908 497.89L514.984 547.613L536.597 547.462L540.249 495.801L511.908 497.89Z" fill="#FFBE9D"/>
<path d="M514.591 541.618L514.579 543.056C514.579 543.056 490.172 552.743 489.895 557.365L538.28 557.314L537.605 541.214C530.415 544.553 522.886 544.937 514.591 541.618Z" fill="url(#paint45_linear_574_69)"/>
<path d="M532.71 546.367C533.647 546.623 534.295 547.674 534.078 548.62C533.862 549.566 532.798 550.235 531.856 549.996C530.915 549.758 530.098 548.517 530.42 547.602C530.74 546.686 532.034 545.969 532.89 546.426" fill="white"/>
<path d="M538.28 557.314L538.118 553.442L491.803 554.909C491.803 554.909 489.65 555.849 489.894 557.365L538.28 557.314Z" fill="#263238"/>
<path d="M514.41 543.191C514.417 543.428 515.599 543.533 516.762 544.292C517.945 545.02 518.545 546.042 518.762 545.949C518.98 545.903 518.626 544.491 517.201 543.596C515.786 542.691 514.359 542.975 514.41 543.191Z" fill="#263238"/>
<path d="M509.336 545.295C509.283 545.524 510.306 545.925 511.109 546.924C511.942 547.898 512.145 548.978 512.381 548.968C512.603 549.005 512.765 547.621 511.743 546.398C510.732 545.168 509.341 545.07 509.336 545.295Z" fill="#263238"/>
<path d="M506.461 551.373C506.677 551.423 507.003 550.241 506.395 548.949C505.796 547.651 504.682 547.142 504.582 547.339C504.449 547.534 505.167 548.227 505.649 549.296C506.157 550.353 506.227 551.35 506.461 551.373Z" fill="#263238"/>
<path d="M540.244 343.991C539.601 345.853 513.972 432.676 513.972 432.676L509.562 535.695L541.465 537.535L552.882 434.676L582.023 370.343L569.217 318.009H543.152L540.244 343.991Z" fill="#263238"/>
<path d="M562.95 318.011C563.404 319.251 579.753 378.173 579.753 378.173L582.024 466.009V538.671H611.087L624.632 378.413C624.632 378.413 627.022 349.333 622.936 339.487C618.848 329.642 602.279 312.495 602.279 312.495L562.95 318.011Z" fill="#263238"/>
<path d="M565.286 324.036C565.33 324.025 565.562 324.757 565.945 326.088C566.364 327.524 566.917 329.422 567.588 331.717C569.045 336.561 571.004 343.063 573.166 350.248C575.312 357.501 577.07 364.129 578.084 368.986C578.609 371.411 578.957 373.389 579.157 374.762C579.356 376.135 579.445 376.897 579.399 376.904C579.355 376.91 579.18 376.163 578.904 374.808C578.627 373.452 578.21 371.494 577.628 369.09C576.5 364.273 574.676 357.683 572.531 350.436C570.384 343.193 568.42 336.634 567.137 331.845C566.487 329.454 566 327.507 565.695 326.154C565.39 324.8 565.242 324.047 565.286 324.036Z" fill="#455A64"/>
<path d="M575.318 324.036C575.363 324.145 574.302 324.172 573.496 325.345C573.115 325.906 572.891 326.754 573.242 327.566C573.562 328.367 574.41 329.105 575.398 329.156C576.387 329.196 577.299 328.539 577.691 327.773C578.117 326.996 577.971 326.131 577.643 325.537C576.95 324.296 575.895 324.169 575.951 324.065C575.955 324.028 576.201 323.999 576.617 324.139C577.028 324.275 577.607 324.624 578.045 325.3C578.483 325.946 578.74 327.042 578.235 328.046C577.77 329.018 576.681 329.86 575.367 329.817C574.055 329.739 573.048 328.8 572.676 327.789C572.265 326.743 572.621 325.676 573.118 325.073C573.617 324.44 574.225 324.148 574.646 324.049C575.075 323.947 575.316 323.999 575.318 324.036Z" fill="#455A64"/>
<path d="M601.126 366.344C601.138 366.344 601.148 366.493 601.158 366.786C601.164 367.113 601.173 367.542 601.184 368.084C601.193 369.266 601.206 370.941 601.222 373.076C601.25 377.412 601.203 383.685 601.079 391.435C600.85 406.937 600.156 428.342 599.248 451.974C598.339 475.614 597.572 497.013 597.224 512.507C597.041 520.254 596.922 526.524 596.871 530.857C596.835 532.993 596.806 534.666 596.785 535.847C596.769 536.389 596.756 536.818 596.746 537.145C596.733 537.438 596.722 537.587 596.711 537.587C596.699 537.587 596.689 537.438 596.679 537.145C596.673 536.818 596.664 536.39 596.652 535.847C596.643 534.665 596.631 532.992 596.614 530.856C596.586 526.522 596.633 520.249 596.756 512.498C596.985 496.997 597.68 475.589 598.588 451.949C599.496 428.317 600.264 406.92 600.612 391.427C600.794 383.68 600.913 377.41 600.964 373.075C601.001 370.939 601.03 369.266 601.05 368.084C601.067 367.542 601.079 367.113 601.089 366.786C601.103 366.493 601.115 366.344 601.126 366.344Z" fill="#455A64"/>
<path d="M556.272 355.764C556.282 355.767 556.232 355.921 556.125 356.217C556.002 356.541 555.84 356.973 555.632 357.522C555.17 358.698 554.512 360.373 553.674 362.512C551.932 366.87 549.435 373.116 546.357 380.817C543.321 388.563 539.739 397.805 536.366 408.271C533.018 418.723 529.71 430.423 528.324 443.023C527.661 449.321 527.369 455.527 526.983 461.499C526.658 467.477 526.347 473.244 526.049 478.74C525.483 489.725 524.972 499.619 524.544 507.943C524.089 516.255 523.657 522.979 523.308 527.62C523.123 529.91 522.977 531.704 522.876 532.963C522.82 533.547 522.776 534.005 522.743 534.351C522.709 534.664 522.686 534.823 522.675 534.822C522.663 534.821 522.663 534.66 522.675 534.346C522.691 533.999 522.714 533.539 522.743 532.954C522.815 531.692 522.919 529.897 523.052 527.603C523.322 522.957 523.683 516.232 524.078 507.919C524.467 499.594 524.929 489.697 525.442 478.71C525.727 473.213 526.027 467.443 526.338 461.462C526.715 455.481 527.003 449.29 527.669 442.953C529.064 430.276 532.403 418.547 535.79 408.083C539.202 397.607 542.834 388.373 545.925 380.645C549.035 372.922 551.648 366.713 553.437 362.415C554.326 360.296 555.021 358.638 555.51 357.471C555.743 356.933 555.926 356.51 556.064 356.19C556.189 355.904 556.26 355.76 556.272 355.764Z" fill="#455A64"/>
<path d="M600.119 214.325C600.119 214.325 617.414 217.55 621.215 220.718C624.93 223.814 659.644 269.05 660.365 278.171C661.085 287.293 656.87 290.638 654.47 292.798C652.07 294.957 610.681 323.056 610.681 323.056L597.959 301.934L633.722 280.572L616.461 251.044L600.119 214.325Z" fill="url(#paint46_linear_574_69)"/>
<path d="M645.278 272.484C645.314 272.693 641.853 272.663 638.412 274.86C634.93 276.993 633.442 280.118 633.269 279.994C633.202 279.965 633.461 279.149 634.216 278C634.964 276.854 636.275 275.423 638.061 274.3C639.851 273.186 641.713 272.634 643.069 272.463C644.435 272.288 645.281 272.411 645.278 272.484Z" fill="url(#paint47_linear_574_69)"/>
<path d="M558.217 216.513L562.8 258.111L586.197 211.205L601.281 226.529C601.281 226.529 610.55 281.316 610.679 281.705C610.808 282.094 604.333 313.049 604.333 313.049L561.462 321.338L548.382 318.011L546.309 269.286L545.402 231.97L558.217 216.513Z" fill="white"/>
<path d="M552.66 218.282L541.525 220.87C540.041 221.214 538.66 221.911 537.502 222.903C527.995 231.037 507.458 248.245 507.458 248.245L511.235 217.712L491.509 215.826C491.509 215.826 485.573 254.306 486.189 264.434C486.906 276.188 497.444 279.074 512.791 272.755C529.788 265.754 540.228 259.22 540.228 259.22L552.66 218.282Z" fill="url(#paint48_linear_574_69)"/>
<path d="M614.75 251.156L612.719 287.637L614.76 294.733C614.76 294.733 633.962 330.976 637.083 354.978L613.32 358.819C613.32 358.819 606.84 327.856 602.279 312.494C597.719 297.132 584.277 290.652 579.717 274.811C575.157 258.97 576.836 247.928 576.836 246.968C576.836 246.008 586.197 211.205 586.197 211.205L587.875 203.928L596.278 211.925L617.88 219.126L614.75 251.156Z" fill="url(#paint49_linear_574_69)"/>
<g opacity="0.3">
<path d="M626.08 318.991C626.08 318.991 617.906 325.237 613.772 327.369C613.526 327.495 613.193 327.635 612.822 327.774C611.059 328.437 609.076 327.68 608.173 326.027C607.669 325.104 607.151 324.122 606.808 323.389C605.929 321.51 604.985 319.242 604.143 317.277L606.808 316.625L610.681 323.056L621.853 315.4L623.982 313.941L626.08 318.991Z" fill="black"/>
</g>
<path d="M558.425 212.406L553.229 217.839L540.781 222.207C540.781 222.207 537.731 258.965 539.388 266.771C540.984 274.293 544.019 283.437 544.276 294.242C544.533 305.046 532.186 362.155 532.186 362.155L547.106 367.815C547.106 367.815 554.721 301.701 553.229 287.295C551.737 272.889 555.595 243.819 555.595 243.819L558.425 212.406Z" fill="url(#paint50_linear_574_69)"/>
<path d="M586.673 282.491C586.655 282.506 586.468 282.301 586.123 281.893C585.785 281.481 585.335 280.831 584.853 279.937C583.907 278.142 583.053 275.253 582.925 271.625C582.779 267.998 583.19 263.711 583.803 258.985C584.454 254.262 585.457 249.1 586.964 243.804C589.722 233.868 593.7 225.293 597.127 219.213L597.335 219.575C595.371 219.512 593.613 219.456 592.051 219.406L591.675 219.394L591.897 219.095C593.348 217.143 594.512 215.578 595.365 214.431C595.745 213.939 596.055 213.537 596.306 213.212C596.524 212.938 596.644 212.803 596.659 212.813C596.675 212.823 596.583 212.981 596.393 213.274C596.164 213.614 595.882 214.036 595.536 214.553C594.72 215.725 593.605 217.327 592.216 219.323L592.061 219.013C593.624 219.035 595.383 219.059 597.347 219.085L597.75 219.09L597.556 219.447C594.236 225.554 590.343 234.103 587.6 243.98C586.102 249.247 585.086 254.373 584.406 259.068C583.763 263.763 583.307 268.034 583.392 271.608C583.459 275.187 584.226 278.023 585.083 279.822C585.957 281.621 586.735 282.445 586.673 282.491Z" fill="#263238"/>
<path d="M601.283 248.782C601.316 248.956 598.595 249.603 595.17 249.947C591.745 250.298 588.951 250.208 588.948 250.032C588.943 249.845 591.708 249.638 595.104 249.291C598.499 248.951 601.25 248.598 601.283 248.782Z" fill="#263238"/>
<path d="M616.439 240.33C616.487 240.342 616.372 240.998 616.173 242.176C616.008 243.365 615.792 245.083 615.589 247.22C615.181 251.491 614.77 257.409 614.368 263.949C613.975 270.433 613.62 276.298 613.352 280.706C613.21 282.85 613.077 284.584 612.967 285.781C612.851 286.978 612.762 287.638 612.718 287.636C612.672 287.632 612.675 286.967 612.711 285.766C612.757 284.443 612.815 282.734 612.886 280.682C613.053 276.389 613.313 270.457 613.709 263.909C614.112 257.364 614.597 251.441 615.126 247.168C615.388 245.033 615.677 243.311 615.92 242.131C616.198 240.954 616.4 240.318 616.439 240.33Z" fill="#263238"/>
<path d="M644.093 281.737C644.028 281.925 641.691 281.172 638.709 280.961C635.729 280.724 633.306 281.12 633.27 280.924C633.222 280.764 635.668 280.06 638.759 280.302C641.849 280.525 644.164 281.586 644.093 281.737Z" fill="#263238"/>
<path d="M507.578 247.488C507.744 247.562 506.962 249.678 505.833 252.212C504.701 254.748 503.65 256.743 503.484 256.668C503.318 256.594 504.1 254.48 505.23 251.944C506.361 249.408 507.412 247.413 507.578 247.488Z" fill="#263238"/>
<path d="M538.637 235.312C538.819 235.309 539.105 242.482 539.275 251.332C539.446 260.185 539.436 267.363 539.254 267.365C539.071 267.369 538.786 260.197 538.615 251.345C538.444 242.494 538.454 235.316 538.637 235.312Z" fill="#263238"/>
<path d="M553.404 265.432C553.358 265.434 553.305 264.776 553.247 263.584C553.199 262.268 553.137 260.572 553.062 258.534C552.935 254.269 552.805 248.374 552.702 241.864C552.599 235.35 552.544 229.454 552.536 225.188C552.546 223.15 552.555 221.451 552.561 220.135C552.582 218.942 552.615 218.283 552.66 218.283C552.706 218.283 552.759 218.943 552.817 220.136C552.865 221.453 552.928 223.15 553.002 225.188C553.129 229.453 553.259 235.345 553.362 241.855C553.465 248.362 553.52 254.255 553.528 258.522C553.518 260.561 553.509 262.259 553.503 263.577C553.482 264.77 553.449 265.431 553.404 265.432Z" fill="#263238"/>
<path d="M647.177 298.045C647.188 298.062 646.954 298.245 646.495 298.582C645.989 298.946 645.315 299.431 644.466 300.039C642.633 301.323 640.054 303.13 636.856 305.372C630.303 309.896 621.22 316.169 610.865 323.32L610.583 323.515L610.405 323.22C608.565 320.169 606.659 317.009 604.707 313.772C602.27 309.72 599.905 305.786 597.685 302.097L597.52 301.821L597.796 301.658C608.084 295.568 617.026 290.272 623.458 286.464C626.622 284.62 629.165 283.138 630.975 282.084C631.821 281.605 632.493 281.223 633.003 280.935C633.468 280.679 633.713 280.554 633.723 280.57C633.734 280.587 633.506 280.745 633.06 281.033C632.564 281.344 631.91 281.756 631.086 282.273C629.3 283.366 626.79 284.902 623.667 286.814C617.266 290.672 608.363 296.036 598.124 302.206L598.234 301.767C600.458 305.453 602.829 309.382 605.273 313.432C607.221 316.67 609.123 319.832 610.96 322.887L610.5 322.787C620.907 315.71 630.035 309.502 636.619 305.025C639.864 302.85 642.48 301.097 644.338 299.852C645.212 299.28 645.907 298.827 646.429 298.485C646.909 298.181 647.165 298.03 647.177 298.045Z" fill="#263238"/>
<g opacity="0.3">
<path d="M584.931 279.755C584.316 274.343 585.222 268.877 586.399 263.558C589.669 248.773 595.073 234.462 602.389 221.205C600.783 220.12 598.502 220.601 596.996 221.824C595.49 223.045 594.589 224.845 593.772 226.603C588.235 238.525 584.59 251.381 583.325 264.465C583.029 267.512 582.881 269.472 583.133 272.122C583.385 274.772 583.388 277.561 585.036 279.652" fill="black"/>
</g>
<g opacity="0.3">
<path d="M538.594 237.966C534.657 244.815 535.18 253.046 538.945 259.99C538.945 252.352 538.945 245.732 538.488 238.071" fill="black"/>
</g>
<path d="M569.227 187.226C569.126 186.781 568.91 186.322 568.5 186.124C568.246 186.002 567.954 185.997 567.673 186.001C566.027 186.025 564.384 186.26 562.797 186.698L562.706 186.949C562.807 187.653 562.911 188.363 563.143 189.036C563.376 189.709 563.749 190.351 564.306 190.793C565.343 191.616 566.941 191.577 567.996 190.777C569.051 189.976 569.522 188.517 569.227 187.226Z" fill="#EB996E"/>
<path d="M564.341 191.096C564.365 190.984 565.178 191.327 566.393 190.975C566.983 190.794 567.65 190.419 568.098 189.758C568.545 189.108 568.78 188.184 568.551 187.306C568.446 186.87 568.219 186.482 567.919 186.327C567.624 186.166 567.201 186.22 566.784 186.305C566.001 186.452 565.241 186.595 564.496 186.736C563.189 186.962 562.371 187.057 562.352 186.969C562.332 186.88 563.114 186.623 564.396 186.281C565.132 186.096 565.882 185.907 566.656 185.712C567.078 185.621 567.633 185.475 568.214 185.753C568.776 186.047 569.056 186.613 569.191 187.144C569.473 188.241 569.16 189.35 568.592 190.114C568.015 190.897 567.187 191.288 566.507 191.429C565.089 191.695 564.29 191.142 564.341 191.096Z" fill="#263238"/>
<path d="M591.973 192.369C591.633 191.471 590.526 190.711 589.594 190.934L589.618 190.937C589.067 190.988 588.524 191.325 588.22 191.802C587.705 192.612 587.799 193.765 588.452 194.469C589.104 195.173 590.259 195.352 591.085 194.864C591.911 194.378 592.312 193.265 591.973 192.369Z" fill="#FAFAFA"/>
<path d="M598.507 303.192L583.861 290.205L571.487 291.271C571.487 291.271 571.914 293.298 573.62 293.618C575.326 293.939 581.514 294.045 581.514 294.045L584.413 296.926L577.034 296.182L567.646 301.726C567.646 301.726 567.433 303.433 569.886 303.007C572.339 302.58 577.032 300.66 577.032 300.66L582.49 300.98L576.533 301.834L568.819 307.274C568.819 307.274 570.419 309.088 572.873 308.341C575.326 307.595 578.313 306.421 578.313 306.421L585.034 305.781L578.313 307.488L573.299 313.675C573.299 313.675 574.86 314.848 576.533 313.675C578.206 312.502 579.379 311.434 579.379 311.434L586.846 311.114C586.846 311.114 595.095 317.087 597.958 317.727C600.82 318.367 606.808 316.626 606.808 316.626L598.507 303.192Z" fill="#FFBE9D"/>
<path d="M888.988 364.278H661.881V491.267H888.988V364.278Z" fill="#FAFAFA"/>
<path d="M888.986 491.267C888.986 491.267 888.968 490.484 888.96 488.985C888.953 487.479 888.944 485.258 888.932 482.352C888.917 476.528 888.895 467.966 888.868 456.967C888.837 434.985 888.791 403.269 888.734 364.277L888.986 364.529C828.405 364.549 748.805 364.577 661.897 364.606H661.88L662.21 364.277C662.202 409.183 662.195 452.132 662.188 491.265L661.88 490.958C728.347 491.018 785.084 491.07 825.217 491.107C845.299 491.143 861.225 491.172 872.141 491.191C877.596 491.207 881.798 491.22 884.648 491.229C886.064 491.236 887.142 491.243 887.879 491.248C888.606 491.254 888.986 491.267 888.986 491.267C888.986 491.267 888.632 491.279 887.916 491.286C887.188 491.289 886.121 491.296 884.72 491.305C881.884 491.314 877.704 491.326 872.275 491.343C861.374 491.362 845.472 491.391 825.421 491.426C785.239 491.463 728.431 491.515 661.879 491.576H661.571V491.268C661.565 452.134 661.557 409.185 661.55 364.28V363.95H661.879H661.896C748.804 363.979 828.404 364.007 888.985 364.027H889.238V364.28C889.183 403.336 889.136 435.106 889.104 457.125C889.076 468.099 889.055 476.642 889.041 482.453C889.028 485.339 889.019 487.544 889.013 489.04C889.004 490.521 888.986 491.267 888.986 491.267Z" fill="url(#paint51_linear_574_69)"/>
<path d="M721.741 394.545H689.635V426.651H721.741V394.545Z" fill="#455A64"/>
<path d="M765.837 399.057C765.837 399.24 758.343 399.386 749.102 399.386C739.856 399.386 732.365 399.238 732.365 399.057C732.365 398.875 739.858 398.728 749.102 398.728C758.343 398.727 765.837 398.875 765.837 399.057Z" fill="url(#paint52_linear_574_69)"/>
<path d="M872.755 410.599C872.755 410.781 841.325 410.928 802.564 410.928C763.789 410.928 732.365 410.781 732.365 410.599C732.365 410.417 763.789 410.27 802.564 410.27C841.325 410.27 872.755 410.417 872.755 410.599Z" fill="#263238"/>
<path d="M825.521 423.548C825.521 423.73 804.869 423.877 779.399 423.877C753.92 423.877 733.273 423.729 733.273 423.548C733.273 423.366 753.921 423.219 779.399 423.219C804.869 423.219 825.521 423.366 825.521 423.548Z" fill="#263238"/>
<path d="M855.366 474.436H700.231C692.013 474.436 685.351 467.774 685.351 459.556C685.351 451.337 692.013 444.675 700.231 444.675H855.366C863.585 444.675 870.247 451.337 870.247 459.556C870.246 467.774 863.585 474.436 855.366 474.436Z" fill="url(#paint53_linear_574_69)"/>
<path d="M749.28 461.642H745.474L744.748 463.399H742.804L746.458 455.2H748.331L751.998 463.399H750.007L749.28 461.642ZM748.682 460.202L747.383 457.062L746.083 460.202H748.682Z" fill="white"/>
<path d="M759.963 458.175C759.963 460.002 758.594 461.139 756.403 461.139H754.751V463.399H752.854V455.2H756.403C758.594 455.2 759.963 456.336 759.963 458.175ZM758.044 458.175C758.044 457.273 757.458 456.746 756.299 456.746H754.752V459.592H756.299C757.458 459.592 758.044 459.065 758.044 458.175Z" fill="white"/>
<path d="M768.423 458.175C768.423 460.002 767.054 461.139 764.863 461.139H763.211V463.399H761.313V455.2H764.863C767.054 455.2 768.423 456.336 768.423 458.175ZM766.503 458.175C766.503 457.273 765.917 456.746 764.758 456.746H763.211V459.592H764.758C765.918 459.592 766.503 459.065 766.503 458.175Z" fill="white"/>
<path d="M769.773 455.2H771.671V461.852H775.781V463.399H769.773V455.2Z" fill="white"/>
<path d="M779.941 460.494V463.399H778.043V460.471L774.869 455.201H776.884L779.074 458.844L781.263 455.201H783.127L779.941 460.494Z" fill="white"/>
<path d="M794.763 455.2V463.399H793.206L789.119 458.421V463.399H787.245V455.2H788.815L792.891 460.178V455.2H794.763Z" fill="white"/>
<path d="M796.193 459.3C796.193 456.863 798.091 455.059 800.68 455.059C803.256 455.059 805.165 456.851 805.165 459.3C805.165 461.748 803.256 463.541 800.68 463.541C798.091 463.541 796.193 461.736 796.193 459.3ZM803.244 459.3C803.244 457.743 802.143 456.677 800.68 456.677C799.216 456.677 798.115 457.743 798.115 459.3C798.115 460.857 799.216 461.923 800.68 461.923C802.143 461.923 803.244 460.857 803.244 459.3Z" fill="white"/>
<path d="M818.72 455.2L816.037 463.399H814L812.196 457.847L810.333 463.399H808.307L805.612 455.2H807.581L809.431 460.962L811.363 455.2H813.121L814.994 461.009L816.903 455.2H818.72Z" fill="white"/>
<path d="M237.056 276.05H68.959V370.043H237.056V276.05Z" fill="#FAFAFA"/>
<path d="M237.055 370.043C237.055 370.043 237.038 369.459 237.029 368.348C237.022 367.224 237.014 365.582 237.001 363.432C236.986 359.113 236.964 352.776 236.938 344.636C236.906 328.364 236.86 304.898 236.803 276.05L237.055 276.302C192.212 276.322 133.296 276.35 68.9712 276.379H68.9585L69.2879 276.05C69.2803 309.287 69.2727 341.077 69.2663 370.043L68.9585 369.735C118.142 369.796 160.124 369.848 189.829 369.884C204.692 369.92 216.481 369.949 224.57 369.968C228.607 369.984 231.716 369.997 233.835 370.006C234.882 370.014 235.678 370.02 236.231 370.025C236.772 370.03 237.055 370.043 237.055 370.043C237.055 370.043 236.796 370.055 236.267 370.062C235.723 370.066 234.937 370.072 233.906 370.081C231.802 370.09 228.713 370.102 224.703 370.119C216.63 370.138 204.866 370.167 190.032 370.202C160.276 370.239 118.223 370.291 68.9573 370.352H68.6495V370.044C68.6431 341.078 68.6355 309.288 68.6279 276.051V275.722H68.9585H68.9712C133.296 275.751 192.212 275.779 237.055 275.799H237.309V276.051C237.252 304.964 237.206 328.483 237.174 344.792C237.147 352.907 237.125 359.225 237.111 363.532C237.098 365.66 237.09 367.289 237.083 368.401C237.073 369.494 237.055 370.043 237.055 370.043Z" fill="url(#paint54_linear_574_69)"/>
<path d="M113.265 298.453H89.501V322.217H113.265V298.453Z" fill="url(#paint55_linear_574_69)"/>
<path d="M145.905 301.792C145.905 301.975 140.358 302.122 133.518 302.122C126.675 302.122 121.13 301.973 121.13 301.792C121.13 301.611 126.675 301.463 133.518 301.463C140.358 301.462 145.905 301.61 145.905 301.792Z" fill="url(#paint56_linear_574_69)"/>
<path d="M225.042 310.335C225.042 310.517 201.779 310.664 173.089 310.664C144.388 310.664 121.13 310.516 121.13 310.335C121.13 310.152 144.388 310.005 173.089 310.005C201.779 310.005 225.042 310.152 225.042 310.335Z" fill="url(#paint57_linear_574_69)"/>
<path d="M190.081 319.919C190.081 320.102 174.795 320.25 155.943 320.25C137.085 320.25 121.803 320.102 121.803 319.919C121.803 319.737 137.085 319.59 155.943 319.59C174.795 319.59 190.081 319.737 190.081 319.919Z" fill="url(#paint58_linear_574_69)"/>
<path d="M212.171 357.585H97.3447C91.2622 357.585 86.3311 352.654 86.3311 346.571C86.3311 340.489 91.2622 335.558 97.3447 335.558H212.171C218.253 335.558 223.184 340.489 223.184 346.571C223.184 352.654 218.253 357.585 212.171 357.585Z" fill="url(#paint59_linear_574_69)"/>
<path d="M133.654 348.115H130.833L130.295 349.416H128.854L131.561 343.341H132.95L135.667 349.416H134.192L133.654 348.115ZM133.212 347.048L132.249 344.722L131.285 347.048H133.212Z" fill="white"/>
<path d="M141.564 345.545C141.564 346.898 140.548 347.74 138.926 347.74H137.702V349.415H136.296V343.34H138.926C140.548 343.341 141.564 344.184 141.564 345.545ZM140.14 345.545C140.14 344.878 139.707 344.486 138.847 344.486H137.702V346.595H138.847C139.707 346.597 140.14 346.205 140.14 345.545Z" fill="white"/>
<path d="M147.826 345.545C147.826 346.898 146.81 347.74 145.187 347.74H143.964V349.415H142.558V343.34H145.187C146.811 343.341 147.826 344.184 147.826 345.545ZM146.402 345.545C146.402 344.878 145.969 344.486 145.109 344.486H143.964V346.595H145.109C145.969 346.597 146.402 346.205 146.402 345.545Z" fill="white"/>
<path d="M148.819 343.341H150.225V348.271H153.272V349.416H148.819V343.341Z" fill="white"/>
<path d="M156.348 347.264V349.416H154.942V347.246L152.591 343.341H154.083L155.706 346.041L157.328 343.341H158.708L156.348 347.264Z" fill="white"/>
<path d="M167.319 343.341V349.416H166.164L163.135 345.728V349.416H161.747V343.341H162.91L165.93 347.03V343.341H167.319Z" fill="white"/>
<path d="M168.373 346.38C168.373 344.574 169.779 343.239 171.697 343.239C173.606 343.239 175.021 344.566 175.021 346.38C175.021 348.194 173.606 349.52 171.697 349.52C169.779 349.52 168.373 348.184 168.373 346.38ZM173.598 346.38C173.598 345.225 172.782 344.436 171.698 344.436C170.614 344.436 169.798 345.225 169.798 346.38C169.798 347.534 170.614 348.323 171.698 348.323C172.782 348.323 173.598 347.534 173.598 346.38Z" fill="white"/>
<path d="M185.057 343.341L183.07 349.416H181.56L180.223 345.303L178.844 349.416H177.343L175.347 343.341H176.805L178.176 347.611L179.608 343.341H180.91L182.298 347.645L183.713 343.341H185.057Z" fill="white"/>
<path d="M848.814 111.845H664.394V214.966H848.814V111.845Z" fill="#FAFAFA"/>
<path d="M848.814 214.966C848.814 214.966 848.797 214.328 848.788 213.109C848.782 211.88 848.773 210.077 848.76 207.718C848.745 202.983 848.724 196.031 848.697 187.099C848.665 169.248 848.619 143.499 848.562 111.845L848.814 112.098C799.617 112.118 734.98 112.146 664.408 112.175H664.394L664.723 111.845C664.716 148.31 664.708 183.188 664.702 214.966L664.394 214.658C718.359 214.719 764.423 214.771 797.012 214.808C813.319 214.843 826.251 214.872 835.123 214.891C839.553 214.908 842.965 214.92 845.285 214.929C846.433 214.937 847.31 214.943 847.913 214.948C848.504 214.953 848.814 214.966 848.814 214.966C848.814 214.966 848.528 214.979 847.948 214.985C847.353 214.989 846.489 214.995 845.356 215.004C843.05 215.013 839.659 215.026 835.256 215.042C826.401 215.061 813.492 215.09 797.215 215.126C764.576 215.162 718.441 215.214 664.393 215.275H664.085V214.967C664.079 183.189 664.071 148.312 664.063 111.847V111.516H664.393H664.407C734.98 111.547 799.616 111.573 848.813 111.593H849.066V111.845C849.009 143.565 848.964 169.366 848.932 187.254C848.904 196.161 848.883 203.095 848.869 207.817C848.856 210.155 848.847 211.943 848.841 213.161C848.832 214.363 848.814 214.966 848.814 214.966Z" fill="#263238"/>
<path d="M713.003 136.424H686.932V162.496H713.003V136.424Z" fill="#455A64"/>
<path d="M748.811 140.087C748.811 140.269 742.726 140.416 735.221 140.416C727.714 140.416 721.63 140.268 721.63 140.087C721.63 139.905 727.714 139.758 735.221 139.758C742.726 139.758 748.811 139.905 748.811 140.087Z" fill="url(#paint60_linear_574_69)"/>
<path d="M835.635 149.46C835.635 149.643 810.113 149.79 778.636 149.79C747.149 149.79 721.631 149.643 721.631 149.46C721.631 149.278 747.148 149.131 778.636 149.131C810.111 149.13 835.635 149.278 835.635 149.46Z" fill="#263238"/>
<path d="M797.278 159.975C797.278 160.157 780.507 160.304 759.825 160.304C739.135 160.304 722.368 160.156 722.368 159.975C722.368 159.793 739.135 159.646 759.825 159.646C780.507 159.646 797.278 159.793 797.278 159.975Z" fill="#263238"/>
<path d="M821.512 201.299H695.536C688.862 201.299 683.452 195.889 683.452 189.215C683.452 182.541 688.862 177.131 695.536 177.131H821.512C828.187 177.131 833.597 182.541 833.597 189.215C833.597 195.889 828.187 201.299 821.512 201.299Z" fill="url(#paint61_linear_574_69)"/>
<path d="M735.364 190.91H732.275L731.685 192.336H730.106L733.073 185.679H734.594L737.572 192.336H735.956L735.364 190.91ZM734.88 189.739L733.825 187.191L732.769 189.739H734.88Z" fill="white"/>
<path d="M744.041 188.094C744.041 189.577 742.929 190.499 741.15 190.499H739.809V192.335H738.269V185.678H741.149C742.929 185.679 744.041 186.602 744.041 188.094ZM742.481 188.094C742.481 187.362 742.005 186.933 741.064 186.933H739.809V189.244H741.064C742.007 189.245 742.481 188.817 742.481 188.094Z" fill="white"/>
<path d="M750.91 188.094C750.91 189.577 749.798 190.499 748.019 190.499H746.678V192.335H745.138V185.678H748.018C749.798 185.679 750.91 186.602 750.91 188.094ZM749.351 188.094C749.351 187.362 748.874 186.933 747.933 186.933H746.678V189.244H747.933C748.874 189.245 749.351 188.817 749.351 188.094Z" fill="white"/>
<path d="M752.007 185.679H753.547V191.081H756.886V192.336H752.007V185.679Z" fill="white"/>
<path d="M760.264 189.977V192.336H758.724V189.958L756.146 185.679H757.783L759.56 188.637L761.339 185.679H762.85L760.264 189.977Z" fill="white"/>
<path d="M772.297 185.679V192.336H771.033L767.715 188.295V192.336H766.193V185.679H767.468L770.776 189.72V185.679H772.297Z" fill="white"/>
<path d="M773.463 189.007C773.463 187.03 775.003 185.564 777.105 185.564C779.196 185.564 780.746 187.018 780.746 189.007C780.746 190.994 779.196 192.449 777.105 192.449C775.002 192.449 773.463 190.986 773.463 189.007ZM779.187 189.007C779.187 187.743 778.293 186.876 777.105 186.876C775.915 186.876 775.022 187.742 775.022 189.007C775.022 190.272 775.915 191.138 777.105 191.138C778.293 191.138 779.187 190.272 779.187 189.007Z" fill="white"/>
<path d="M791.752 185.679L789.574 192.336H787.919L786.454 187.828L784.943 192.336H783.298L781.11 185.679H782.709L784.21 190.357L785.779 185.679H787.206L788.727 190.397L790.277 185.679H791.752Z" fill="white"/>
<defs>
<linearGradient id="paint0_linear_574_69" x1="135.668" y1="179.679" x2="135.668" y2="290.948" gradientUnits="userSpaceOnUse">
<stop stop-color="#0160E7"/>
<stop offset="1" stop-color="#013681"/>
</linearGradient>
<linearGradient id="paint1_linear_574_69" x1="74.9439" y1="206.375" x2="74.9439" y2="234.347" gradientUnits="userSpaceOnUse">
<stop stop-color="#0160E7"/>
<stop offset="1" stop-color="#013681"/>
</linearGradient>
<linearGradient id="paint2_linear_574_69" x1="112.766" y1="209.977" x2="112.766" y2="210.635" gradientUnits="userSpaceOnUse">
<stop stop-color="#0160E7"/>
<stop offset="1" stop-color="#013681"/>
</linearGradient>
<linearGradient id="paint3_linear_574_69" x1="159.34" y1="220.031" x2="159.34" y2="220.69" gradientUnits="userSpaceOnUse">
<stop stop-color="#0160E7"/>
<stop offset="1" stop-color="#013681"/>
</linearGradient>
<linearGradient id="paint4_linear_574_69" x1="139.159" y1="231.314" x2="139.159" y2="231.972" gradientUnits="userSpaceOnUse">
<stop stop-color="#0160E7"/>
<stop offset="1" stop-color="#013681"/>
</linearGradient>
<linearGradient id="paint5_linear_574_69" x1="137.766" y1="250.048" x2="137.766" y2="275.976" gradientUnits="userSpaceOnUse">
<stop stop-color="#0160E7"/>
<stop offset="1" stop-color="#013681"/>
</linearGradient>
<linearGradient id="paint6_linear_574_69" x1="153.271" y1="415.27" x2="153.271" y2="511.529" gradientUnits="userSpaceOnUse">
<stop stop-color="#0160E7"/>
<stop offset="1" stop-color="#013681"/>
</linearGradient>
<linearGradient id="paint7_linear_574_69" x1="100.791" y1="438.39" x2="100.791" y2="462.566" gradientUnits="userSpaceOnUse">
<stop stop-color="#0160E7"/>
<stop offset="1" stop-color="#013681"/>
</linearGradient>
<linearGradient id="paint8_linear_574_69" x1="133.481" y1="441.458" x2="133.481" y2="442.116" gradientUnits="userSpaceOnUse">
<stop stop-color="#0160E7"/>
<stop offset="1" stop-color="#013681"/>
</linearGradient>
<linearGradient id="paint9_linear_574_69" x1="173.736" y1="450.148" x2="173.736" y2="450.807" gradientUnits="userSpaceOnUse">
<stop stop-color="#0160E7"/>
<stop offset="1" stop-color="#013681"/>
</linearGradient>
<linearGradient id="paint10_linear_574_69" x1="156.293" y1="459.899" x2="156.293" y2="460.558" gradientUnits="userSpaceOnUse">
<stop stop-color="#0160E7"/>
<stop offset="1" stop-color="#013681"/>
</linearGradient>
<linearGradient id="paint11_linear_574_69" x1="155.09" y1="476.138" x2="155.09" y2="498.547" gradientUnits="userSpaceOnUse">
<stop stop-color="#0160E7"/>
<stop offset="1" stop-color="#013681"/>
</linearGradient>
<linearGradient id="paint12_linear_574_69" x1="749.063" y1="458.413" x2="749.063" y2="554.672" gradientUnits="userSpaceOnUse">
<stop stop-color="#0160E7"/>
<stop offset="1" stop-color="#013681"/>
</linearGradient>
<linearGradient id="paint13_linear_574_69" x1="696.583" y1="481.532" x2="696.583" y2="505.709" gradientUnits="userSpaceOnUse">
<stop stop-color="#0160E7"/>
<stop offset="1" stop-color="#013681"/>
</linearGradient>
<linearGradient id="paint14_linear_574_69" x1="729.273" y1="484.6" x2="729.273" y2="485.259" gradientUnits="userSpaceOnUse">
<stop stop-color="#0160E7"/>
<stop offset="1" stop-color="#013681"/>
</linearGradient>
<linearGradient id="paint15_linear_574_69" x1="769.528" y1="493.291" x2="769.528" y2="493.949" gradientUnits="userSpaceOnUse">
<stop stop-color="#0160E7"/>
<stop offset="1" stop-color="#013681"/>
</linearGradient>
<linearGradient id="paint16_linear_574_69" x1="752.086" y1="503.042" x2="752.086" y2="503.7" gradientUnits="userSpaceOnUse">
<stop stop-color="#0160E7"/>
<stop offset="1" stop-color="#013681"/>
</linearGradient>
<linearGradient id="paint17_linear_574_69" x1="750.882" y1="519.28" x2="750.882" y2="541.69" gradientUnits="userSpaceOnUse">
<stop stop-color="#0160E7"/>
<stop offset="1" stop-color="#013681"/>
</linearGradient>
<linearGradient id="paint18_linear_574_69" x1="797.242" y1="224.928" x2="797.242" y2="336.197" gradientUnits="userSpaceOnUse">
<stop stop-color="#0160E7"/>
<stop offset="1" stop-color="#013681"/>
</linearGradient>
<linearGradient id="paint19_linear_574_69" x1="736.514" y1="251.625" x2="736.514" y2="279.596" gradientUnits="userSpaceOnUse">
<stop stop-color="#0160E7"/>
<stop offset="1" stop-color="#013681"/>
</linearGradient>
<linearGradient id="paint20_linear_574_69" x1="774.337" y1="255.224" x2="774.337" y2="255.884" gradientUnits="userSpaceOnUse">
<stop stop-color="#0160E7"/>
<stop offset="1" stop-color="#013681"/>
</linearGradient>
<linearGradient id="paint21_linear_574_69" x1="820.91" y1="265.281" x2="820.91" y2="265.939" gradientUnits="userSpaceOnUse">
<stop stop-color="#0160E7"/>
<stop offset="1" stop-color="#013681"/>
</linearGradient>
<linearGradient id="paint22_linear_574_69" x1="800.731" y1="276.562" x2="800.731" y2="277.22" gradientUnits="userSpaceOnUse">
<stop stop-color="#0160E7"/>
<stop offset="1" stop-color="#013681"/>
</linearGradient>
<linearGradient id="paint23_linear_574_69" x1="799.337" y1="295.296" x2="799.337" y2="321.224" gradientUnits="userSpaceOnUse">
<stop stop-color="#0160E7"/>
<stop offset="1" stop-color="#013681"/>
</linearGradient>
<linearGradient id="paint24_linear_574_69" x1="404.96" y1="425.878" x2="483.267" y2="425.878" gradientUnits="userSpaceOnUse">
<stop stop-color="#0160E7"/>
<stop offset="1" stop-color="#013681"/>
</linearGradient>
<linearGradient id="paint25_linear_574_69" x1="393.743" y1="309.182" x2="393.743" y2="420.132" gradientUnits="userSpaceOnUse">
<stop stop-color="#0160E7"/>
<stop offset="1" stop-color="#013681"/>
</linearGradient>
<linearGradient id="paint26_linear_574_69" x1="378.585" y1="309.596" x2="378.585" y2="433.443" gradientUnits="userSpaceOnUse">
<stop stop-color="#0160E7"/>
<stop offset="1" stop-color="#013681"/>
</linearGradient>
<linearGradient id="paint27_linear_574_69" x1="322.724" y1="374.895" x2="335.75" y2="374.895" gradientUnits="userSpaceOnUse">
<stop stop-color="#0160E7"/>
<stop offset="1" stop-color="#013681"/>
</linearGradient>
<linearGradient id="paint28_linear_574_69" x1="334.774" y1="374.897" x2="348.14" y2="374.897" gradientUnits="userSpaceOnUse">
<stop stop-color="#0160E7"/>
<stop offset="1" stop-color="#013681"/>
</linearGradient>
<linearGradient id="paint29_linear_574_69" x1="348.46" y1="374.896" x2="359.835" y2="374.896" gradientUnits="userSpaceOnUse">
<stop stop-color="#0160E7"/>
<stop offset="1" stop-color="#013681"/>
</linearGradient>
<linearGradient id="paint30_linear_574_69" x1="359.881" y1="374.897" x2="373.247" y2="374.897" gradientUnits="userSpaceOnUse">
<stop stop-color="#0160E7"/>
<stop offset="1" stop-color="#013681"/>
</linearGradient>
<linearGradient id="paint31_linear_574_69" x1="374.486" y1="374.895" x2="385.418" y2="374.895" gradientUnits="userSpaceOnUse">
<stop stop-color="#0160E7"/>
<stop offset="1" stop-color="#013681"/>
</linearGradient>
<linearGradient id="paint32_linear_574_69" x1="386.896" y1="374.895" x2="397.282" y2="374.895" gradientUnits="userSpaceOnUse">
<stop stop-color="#0160E7"/>
<stop offset="1" stop-color="#013681"/>
</linearGradient>
<linearGradient id="paint33_linear_574_69" x1="473.533" y1="271.259" x2="473.533" y2="283.362" gradientUnits="userSpaceOnUse">
<stop stop-color="#0160E7"/>
<stop offset="1" stop-color="#013681"/>
</linearGradient>
<linearGradient id="paint34_linear_574_69" x1="346.585" y1="140.759" x2="346.585" y2="175.419" gradientUnits="userSpaceOnUse">
<stop stop-color="#0160E7"/>
<stop offset="1" stop-color="#013681"/>
</linearGradient>
<linearGradient id="paint35_linear_574_69" x1="347.28" y1="121.135" x2="347.28" y2="134.265" gradientUnits="userSpaceOnUse">
<stop stop-color="#0160E7"/>
<stop offset="1" stop-color="#013681"/>
</linearGradient>
<linearGradient id="paint36_linear_574_69" x1="272.717" y1="191.777" x2="272.717" y2="214.106" gradientUnits="userSpaceOnUse">
<stop stop-color="#0160E7"/>
<stop offset="1" stop-color="#013681"/>
</linearGradient>
<linearGradient id="paint37_linear_574_69" x1="255.096" y1="181.241" x2="255.096" y2="191.254" gradientUnits="userSpaceOnUse">
<stop stop-color="#0160E7"/>
<stop offset="1" stop-color="#013681"/>
</linearGradient>
<linearGradient id="paint38_linear_574_69" x1="288.319" y1="128.782" x2="288.319" y2="187.865" gradientUnits="userSpaceOnUse">
<stop stop-color="#0160E7"/>
<stop offset="1" stop-color="#013681"/>
</linearGradient>
<linearGradient id="paint39_linear_574_69" x1="315.138" y1="195.446" x2="315.138" y2="218.552" gradientUnits="userSpaceOnUse">
<stop stop-color="#0160E7"/>
<stop offset="1" stop-color="#013681"/>
</linearGradient>
<linearGradient id="paint40_linear_574_69" x1="188.552" y1="67.7819" x2="188.552" y2="77.4744" gradientUnits="userSpaceOnUse">
<stop stop-color="#0160E7"/>
<stop offset="1" stop-color="#013681"/>
</linearGradient>
<linearGradient id="paint41_linear_574_69" x1="205.223" y1="67.7819" x2="205.223" y2="77.4744" gradientUnits="userSpaceOnUse">
<stop stop-color="#0160E7"/>
<stop offset="1" stop-color="#013681"/>
</linearGradient>
<linearGradient id="paint42_linear_574_69" x1="221.894" y1="67.7819" x2="221.894" y2="77.4744" gradientUnits="userSpaceOnUse">
<stop stop-color="#0160E7"/>
<stop offset="1" stop-color="#013681"/>
</linearGradient>
<linearGradient id="paint43_linear_574_69" x1="472.556" y1="116.235" x2="472.556" y2="184.501" gradientUnits="userSpaceOnUse">
<stop stop-color="#0160E7"/>
<stop offset="1" stop-color="#013681"/>
</linearGradient>
<linearGradient id="paint44_linear_574_69" x1="601.032" y1="545.115" x2="601.032" y2="581.133" gradientUnits="userSpaceOnUse">
<stop stop-color="#0160E7"/>
<stop offset="1" stop-color="#013681"/>
</linearGradient>
<linearGradient id="paint45_linear_574_69" x1="514.087" y1="541.214" x2="514.087" y2="557.365" gradientUnits="userSpaceOnUse">
<stop stop-color="#0160E7"/>
<stop offset="1" stop-color="#013681"/>
</linearGradient>
<linearGradient id="paint46_linear_574_69" x1="629.203" y1="214.325" x2="629.203" y2="323.056" gradientUnits="userSpaceOnUse">
<stop stop-color="#0160E7"/>
<stop offset="1" stop-color="#013681"/>
</linearGradient>
<linearGradient id="paint47_linear_574_69" x1="639.269" y1="272.373" x2="639.269" y2="279.998" gradientUnits="userSpaceOnUse">
<stop stop-color="#0160E7"/>
<stop offset="1" stop-color="#013681"/>
</linearGradient>
<linearGradient id="paint48_linear_574_69" x1="519.402" y1="215.826" x2="519.402" y2="276.022" gradientUnits="userSpaceOnUse">
<stop stop-color="#0160E7"/>
<stop offset="1" stop-color="#013681"/>
</linearGradient>
<linearGradient id="paint49_linear_574_69" x1="606.809" y1="203.928" x2="606.809" y2="358.819" gradientUnits="userSpaceOnUse">
<stop stop-color="#0160E7"/>
<stop offset="1" stop-color="#013681"/>
</linearGradient>
<linearGradient id="paint50_linear_574_69" x1="545.305" y1="212.406" x2="545.305" y2="367.815" gradientUnits="userSpaceOnUse">
<stop stop-color="#0160E7"/>
<stop offset="1" stop-color="#013681"/>
</linearGradient>
<linearGradient id="paint51_linear_574_69" x1="775.394" y1="363.95" x2="775.394" y2="491.576" gradientUnits="userSpaceOnUse">
<stop stop-color="#0160E7"/>
<stop offset="1" stop-color="#013681"/>
</linearGradient>
<linearGradient id="paint52_linear_574_69" x1="749.101" y1="398.728" x2="749.101" y2="399.386" gradientUnits="userSpaceOnUse">
<stop stop-color="#0160E7"/>
<stop offset="1" stop-color="#013681"/>
</linearGradient>
<linearGradient id="paint53_linear_574_69" x1="777.799" y1="444.675" x2="777.799" y2="474.436" gradientUnits="userSpaceOnUse">
<stop stop-color="#0160E7"/>
<stop offset="1" stop-color="#013681"/>
</linearGradient>
<linearGradient id="paint54_linear_574_69" x1="152.968" y1="275.722" x2="152.968" y2="370.352" gradientUnits="userSpaceOnUse">
<stop stop-color="#0160E7"/>
<stop offset="1" stop-color="#013681"/>
</linearGradient>
<linearGradient id="paint55_linear_574_69" x1="101.383" y1="298.453" x2="101.383" y2="322.217" gradientUnits="userSpaceOnUse">
<stop stop-color="#0160E7"/>
<stop offset="1" stop-color="#013681"/>
</linearGradient>
<linearGradient id="paint56_linear_574_69" x1="133.517" y1="301.463" x2="133.517" y2="302.122" gradientUnits="userSpaceOnUse">
<stop stop-color="#0160E7"/>
<stop offset="1" stop-color="#013681"/>
</linearGradient>
<linearGradient id="paint57_linear_574_69" x1="173.086" y1="310.005" x2="173.086" y2="310.664" gradientUnits="userSpaceOnUse">
<stop stop-color="#0160E7"/>
<stop offset="1" stop-color="#013681"/>
</linearGradient>
<linearGradient id="paint58_linear_574_69" x1="155.942" y1="319.59" x2="155.942" y2="320.25" gradientUnits="userSpaceOnUse">
<stop stop-color="#0160E7"/>
<stop offset="1" stop-color="#013681"/>
</linearGradient>
<linearGradient id="paint59_linear_574_69" x1="154.758" y1="335.558" x2="154.758" y2="357.585" gradientUnits="userSpaceOnUse">
<stop stop-color="#0160E7"/>
<stop offset="1" stop-color="#013681"/>
</linearGradient>
<linearGradient id="paint60_linear_574_69" x1="735.221" y1="139.758" x2="735.221" y2="140.416" gradientUnits="userSpaceOnUse">
<stop stop-color="#0160E7"/>
<stop offset="1" stop-color="#013681"/>
</linearGradient>
<linearGradient id="paint61_linear_574_69" x1="758.524" y1="177.131" x2="758.524" y2="201.299" gradientUnits="userSpaceOnUse">
<stop stop-color="#0160E7"/>
<stop offset="1" stop-color="#013681"/>
</linearGradient>
</defs>
</svg>
