<svg width="95" height="15" viewBox="0 0 95 15" fill="none" xmlns="http://www.w3.org/2000/svg">
<path d="M7.5 0L9.18386 5.18237H14.6329L10.2245 8.38525L11.9084 13.5676L7.5 10.3647L3.09161 13.5676L4.77547 8.38525L0.367076 5.18237H5.81614L7.5 0Z" fill="#FFC000"/>
<path d="M27.5 0L29.1839 5.18237H34.6329L30.2245 8.38525L31.9084 13.5676L27.5 10.3647L23.0916 13.5676L24.7755 8.38525L20.3671 5.18237H25.8161L27.5 0Z" fill="#FFC000"/>
<path d="M47.5 0L49.1839 5.18237H54.6329L50.2245 8.38525L51.9084 13.5676L47.5 10.3647L43.0916 13.5676L44.7755 8.38525L40.3671 5.18237H45.8161L47.5 0Z" fill="#FFC000"/>
<path d="M67.5 0L69.1839 5.18237H74.6329L70.2245 8.38525L71.9084 13.5676L67.5 10.3647L63.0916 13.5676L64.7755 8.38525L60.3671 5.18237H65.8161L67.5 0Z" fill="#FFC000"/>
<path d="M87.5 0L89.1839 5.18237H94.6329L90.2245 8.38525L91.9084 13.5676L87.5 10.3647L83.0916 13.5676L84.7755 8.38525L80.3671 5.18237H85.8161L87.5 0Z" fill="#FFC000"/>
</svg>
