<svg width="60" height="50" viewBox="0 0 60 50" fill="none" xmlns="http://www.w3.org/2000/svg">
<path d="M33.0483 21.6041C32.7233 21.0099 31.975 20.791 31.3814 21.1172L27.4083 23.2926C27.0186 23.5054 26.7751 23.9126 26.7703 24.3569C26.7655 24.8006 27.0018 25.2126 27.3867 25.4344L31.3598 27.7183C31.5529 27.8287 31.7627 27.8814 31.9702 27.8814C32.3959 27.8814 32.8084 27.6608 33.0363 27.2656C33.3745 26.6774 33.1718 25.9267 32.583 25.5885L30.5071 24.3953L32.5614 23.271C33.1562 22.9454 33.3745 22.1995 33.0483 21.6041Z" fill="#22A3DD"/>
<path d="M45.1808 23.2926L41.2065 21.1172C40.6117 20.791 39.8646 21.0099 39.5396 21.6047C39.2134 22.1995 39.4317 22.9455 40.0265 23.271L42.0808 24.3953L40.0049 25.5886C39.4161 25.9268 39.2134 26.6774 39.5516 27.2651C39.7795 27.6608 40.192 27.8815 40.6177 27.8815C40.8252 27.8815 41.0351 27.8287 41.2281 27.7184L45.2024 25.4344C45.5873 25.2132 45.8236 24.8007 45.8188 24.3569C45.814 23.9126 45.5705 23.5055 45.1808 23.2926Z" fill="#22A3DD"/>
<path d="M37.9039 17.5615C37.2431 17.4062 36.5824 17.8157 36.4277 18.4765L33.769 29.8098C33.6143 30.4699 34.0244 31.1313 34.684 31.286C34.7787 31.3082 34.8723 31.3184 34.9658 31.3184C35.5234 31.3184 36.0271 30.937 36.1602 30.371L38.8189 19.0377C38.9736 18.3775 38.5635 17.7162 37.9039 17.5615Z" fill="#22A3DD"/>
<path d="M33.54 11.5731H44.2971C44.9759 11.5731 45.5251 11.0233 45.5251 10.3451C45.5251 9.66697 44.9759 9.11713 44.2971 9.11713H33.54C32.8613 9.11713 32.312 9.66697 32.312 10.3451C32.312 11.0233 32.8613 11.5731 33.54 11.5731Z" fill="#22A3DD"/>
<path d="M14.7132 11.6343C15.392 11.6343 16.0036 11.0233 16.0036 10.3451C16.0036 9.66697 15.392 9.05536 14.7132 9.05536C14.0345 9.05536 13.4241 9.66697 13.4241 10.3451C13.4241 11.0233 14.0345 11.6343 14.7132 11.6343Z" fill="#22A3DD"/>
<path d="M19.3099 11.6343C19.9887 11.6343 20.5991 11.0233 20.5991 10.3451C20.5991 9.66697 19.9887 9.05536 19.3099 9.05536C18.6312 9.05536 18.0208 9.66697 18.0208 10.3451C18.0208 11.0233 18.6312 11.6343 19.3099 11.6343Z" fill="#22A3DD"/>
<path d="M23.9066 11.6343C24.5854 11.6343 25.1958 11.0233 25.1958 10.3451C25.1958 9.66697 24.5854 9.05536 23.9066 9.05536C23.2278 9.05536 22.6174 9.66697 22.6174 10.3451C22.6174 11.0233 23.2278 11.6343 23.9066 11.6343Z" fill="#22A3DD"/>
<path d="M50.6194 34.1642V6.14665C50.6194 5.46849 50.0702 4.91864 49.3914 4.91864H9.6262C8.94744 4.91864 8.39819 5.46849 8.39819 6.14665V34.1642C8.39819 34.8424 8.94744 35.3922 9.6262 35.3922H49.3914C50.0702 35.3922 50.6194 34.8424 50.6194 34.1642ZM48.1634 7.37466V13.354H10.8542V7.37466H48.1634ZM10.8542 32.9362V15.81H48.1634V32.9362H10.8542Z" fill="#22A3DD"/>
<path d="M59.0176 42.8454V40.312C59.0176 38.9569 57.9155 37.8548 56.5604 37.8548H55.5374V6.02312C55.5374 2.70186 52.8356 0 49.5149 0H9.49069C6.17602 0 3.48016 2.69646 3.48016 6.01113V37.8548H2.45722C1.10209 37.8548 0 38.9569 0 40.312V42.8454C0 46.7903 3.20913 50 7.15459 50H51.863C55.8085 50 59.0176 46.7903 59.0176 42.8454ZM5.93618 6.01113C5.93618 4.05099 7.53115 2.45602 9.49069 2.45602H49.5149C51.4816 2.45602 53.0814 4.05639 53.0814 6.02312V37.8548H36.7959C35.3257 37.8548 33.9501 38.6439 33.2078 39.9139C32.9044 40.4338 32.3408 40.7564 31.7388 40.7564H26.0484C25.4464 40.7564 24.884 40.4338 24.5806 39.9133C23.8382 38.6439 22.4627 37.8548 20.9913 37.8548H5.93618V6.01113ZM2.45602 42.8454L2.45722 40.3108C7.04833 40.3108 16.1058 40.3108 20.9913 40.3108C21.5933 40.3108 22.1569 40.6334 22.4603 41.1527C23.2027 42.4233 24.577 43.2124 26.0484 43.2124H31.7388C33.2102 43.2124 34.5857 42.4233 35.328 41.1533C35.6315 40.6334 36.1939 40.3108 36.7959 40.3108C37.0069 40.3108 36.8757 40.3108 56.5616 40.3102V42.8454C56.5616 45.4363 54.4533 47.544 51.863 47.544H7.15459C4.56426 47.544 2.45602 45.4363 2.45602 42.8454Z" fill="#22A3DD"/>
<path d="M45.9329 42.7225C45.3388 42.8231 44.9375 43.3967 44.9375 43.9259C44.9375 44.5859 45.4892 45.1539 46.1655 45.1539C46.7863 45.1539 47.3935 44.6806 47.3935 43.9259C47.3935 43.095 46.6266 42.5759 45.9329 42.7225Z" fill="#22A3DD"/>
<path d="M52.748 43.9259C52.748 43.086 51.8721 42.4452 51.0415 42.7963C50.5515 42.9994 50.292 43.4506 50.292 43.9259C50.292 44.6508 50.8698 45.1539 51.52 45.1539C52.2036 45.1539 52.748 44.5848 52.748 43.9259Z" fill="#22A3DD"/>
<path d="M9.77736 42.8484H7.50242C6.82366 42.8484 6.27441 43.3982 6.27441 44.0764C6.27441 44.7546 6.82366 45.3044 7.50242 45.3044H9.77736C10.4561 45.3044 11.0054 44.7546 11.0054 44.0764C11.0054 43.3982 10.4561 42.8484 9.77736 42.8484Z" fill="#22A3DD"/>
<path d="M18.124 42.8484H15.8491C15.1703 42.8484 14.6211 43.3982 14.6211 44.0764C14.6211 44.7546 15.1703 45.3044 15.8491 45.3044H18.124C18.8028 45.3044 19.352 44.7546 19.352 44.0764C19.352 43.3982 18.8028 42.8484 18.124 42.8484Z" fill="#22A3DD"/>
<path d="M23.506 17.9542H14.6521C13.9733 17.9542 13.4241 18.5041 13.4241 19.1822C13.4241 19.8604 13.9733 20.4102 14.6521 20.4102H23.506C24.1847 20.4102 24.734 19.8604 24.734 19.1822C24.734 18.5041 24.1847 17.9542 23.506 17.9542Z" fill="#22A3DD"/>
<path d="M23.506 23.196H14.6521C13.9733 23.196 13.4241 23.7459 13.4241 24.4241C13.4241 25.1022 13.9733 25.6521 14.6521 25.6521H23.506C24.1847 25.6521 24.734 25.1022 24.734 24.4241C24.734 23.7459 24.1847 23.196 23.506 23.196Z" fill="#22A3DD"/>
<path d="M23.506 28.4379H14.6521C13.9733 28.4379 13.4241 28.9877 13.4241 29.6659C13.4241 30.344 13.9733 30.8939 14.6521 30.8939H23.506C24.1847 30.8939 24.734 30.344 24.734 29.6659C24.734 28.9877 24.1847 28.4379 23.506 28.4379Z" fill="#22A3DD"/>
</svg>
