<svg width="55" height="50" viewBox="0 0 55 50" fill="none" xmlns="http://www.w3.org/2000/svg">
<path fill-rule="evenodd" clip-rule="evenodd" d="M1.716 9.08323C1.71632 8.74561 1.85058 8.42191 2.08932 8.18317C2.32805 7.94444 2.65175 7.81018 2.98937 7.80986H22.5819C22.4238 7.8724 22.288 7.98101 22.1923 8.12161C22.0966 8.26221 22.0454 8.42831 22.0452 8.59839V8.97636C21.6584 9.12247 21.3253 9.38294 21.0901 9.72307C20.855 10.0632 20.7291 10.4669 20.7291 10.8804C20.7291 11.2939 20.855 11.6975 21.0901 12.0377C21.3253 12.3778 21.6584 12.6383 22.0452 12.7844V13.1617C22.0455 13.337 22.1 13.5079 22.2011 13.651C22.3023 13.7941 22.4452 13.9024 22.6103 13.9611C22.2036 15.6461 21.2229 17.1368 19.8366 18.1773C19.6686 18.303 19.5531 18.4864 19.5122 18.6921C19.4713 18.8979 19.5079 19.1115 19.615 19.2919L26.457 30.8023C26.5324 30.9288 26.6394 31.0335 26.7675 31.1062C26.8955 31.1789 27.0403 31.2171 27.1876 31.2171C27.3348 31.2171 27.4796 31.1789 27.6076 31.1062C27.7357 31.0335 27.8427 30.9288 27.9181 30.8023L34.7601 19.2925C34.8672 19.1121 34.9038 18.8985 34.8629 18.6927C34.822 18.487 34.7065 18.3036 34.5385 18.1779C33.1622 17.1438 32.1862 15.6652 31.7763 13.9931C31.9671 13.953 32.1384 13.8485 32.2614 13.6971C32.3844 13.5458 32.4516 13.3568 32.4519 13.1617V12.7844C32.8387 12.6383 33.1718 12.3778 33.4069 12.0377C33.642 11.6975 33.768 11.2939 33.768 10.8804C33.768 10.4669 33.642 10.0632 33.4069 9.72307C33.1718 9.38294 32.8387 9.12247 32.4519 8.97636V8.59839C32.4517 8.4284 32.4005 8.26238 32.3049 8.12181C32.2093 7.98123 32.0737 7.87256 31.9157 7.80986H51.3857C51.7235 7.81002 52.0473 7.94421 52.2862 8.18296C52.5251 8.42171 52.6594 8.7455 52.6597 9.08323V42.2125C52.6594 42.5503 52.5251 42.8741 52.2862 43.113C52.0474 43.3518 51.7235 43.4861 51.3857 43.4864H2.98937C2.65165 43.4861 2.32785 43.3518 2.0891 43.1129C1.85035 42.8741 1.71616 42.5502 1.716 42.2125V9.08323ZM24.5949 1.69843H29.8991C29.9265 1.69858 29.9527 1.70949 29.9722 1.7288C29.9916 1.74811 30.0027 1.77428 30.003 1.80167V7.74948H24.4905V1.80167C24.4911 1.77428 24.5024 1.7482 24.5218 1.72893C24.5413 1.70967 24.5675 1.69873 24.5949 1.69843ZM31.5988 11.2164H31.728C31.8173 11.2164 31.903 11.1809 31.9662 11.1177C32.0294 11.0545 32.0649 10.9688 32.0649 10.8795C32.0649 10.7901 32.0294 10.7044 31.9662 10.6412C31.903 10.5781 31.8173 10.5426 31.728 10.5426H31.5988C31.3736 10.5426 31.1577 10.4531 30.9985 10.2939C30.8393 10.1347 30.7498 9.91879 30.7498 9.69364V9.4473H23.746V9.69364C23.7461 9.80515 23.7242 9.91557 23.6816 10.0186C23.6389 10.1216 23.5764 10.2152 23.4976 10.2941C23.4187 10.3729 23.3251 10.4355 23.2221 10.4781C23.119 10.5207 23.0086 10.5426 22.8971 10.5426H22.7661C22.6767 10.5426 22.591 10.5781 22.5279 10.6412C22.4647 10.7044 22.4292 10.7901 22.4292 10.8795C22.4292 10.9688 22.4647 11.0545 22.5279 11.1177C22.591 11.1809 22.6767 11.2164 22.7661 11.2164H22.8971C23.1223 11.2165 23.3382 11.3061 23.4974 11.4654C23.6566 11.6247 23.746 11.8407 23.746 12.0659V12.3128H30.7498V12.0659C30.7498 11.8406 30.8393 11.6245 30.9987 11.4652C31.158 11.3059 31.3734 11.2164 31.5988 11.2164ZM28.0365 23.5431V27.2774L32.9271 19.0528C31.4429 17.7299 30.4287 15.9605 30.0374 14.0113H24.3377C23.946 15.9604 22.9319 17.7296 21.448 19.0528L26.3386 27.2774V23.5431C25.826 23.3449 25.3988 22.9737 25.1311 22.4937C24.8634 22.0137 24.772 21.4552 24.8727 20.9149C24.9735 20.3746 25.2601 19.8866 25.6829 19.5354C26.1057 19.1842 26.6379 18.992 27.1876 18.992C27.7372 18.992 28.2695 19.1842 28.6922 19.5354C29.115 19.8866 29.4016 20.3746 29.5024 20.9149C29.6031 21.4552 29.5118 22.0137 29.244 22.4937C28.9763 22.9737 28.5491 23.3449 28.0365 23.5431ZM26.5337 21.3502C26.5339 21.4794 26.5725 21.6057 26.6445 21.7131C26.7164 21.8205 26.8187 21.9041 26.9382 21.9534C27.0577 22.0027 27.1891 22.0155 27.3159 21.9901C27.4426 21.9648 27.559 21.9024 27.6504 21.8109C27.7417 21.7194 27.8038 21.6029 27.829 21.4761C27.8541 21.3493 27.8411 21.2179 27.7916 21.0984C27.742 20.979 27.6582 20.877 27.5507 20.8052C27.4432 20.7334 27.3168 20.6951 27.1876 20.6951C27.1016 20.6951 27.0165 20.7122 26.9371 20.7451C26.8578 20.7781 26.7857 20.8264 26.7249 20.8872C26.6642 20.948 26.6161 21.0202 26.5833 21.0997C26.5504 21.1791 26.5336 21.2642 26.5337 21.3502ZM29.5193 48.3016H24.8564V45.1849H29.5193V48.3016ZM2.98937 45.1849H23.1555V48.3016H20.6553C20.434 48.3075 20.2237 48.3995 20.0693 48.5582C19.9148 48.7168 19.8284 48.9294 19.8284 49.1508C19.8284 49.3722 19.9148 49.5848 20.0693 49.7434C20.2237 49.902 20.434 49.9941 20.6553 50H33.7204C33.9417 49.9941 34.152 49.902 34.3064 49.7434C34.4609 49.5848 34.5473 49.3722 34.5473 49.1508C34.5473 48.9294 34.4609 48.7168 34.3064 48.5582C34.152 48.3995 33.9417 48.3075 33.7204 48.3016H31.2178V45.1849H51.3839C52.1722 45.1844 52.9281 44.8711 53.4856 44.3138C54.0431 43.7565 54.3567 43.0008 54.3575 42.2125V9.08323C54.3566 8.29535 54.0432 7.54002 53.4861 6.98291C52.9289 6.4258 52.1736 6.11239 51.3857 6.11143H31.7026V1.80167C31.702 1.32393 31.5119 0.865948 31.174 0.52819C30.8361 0.190432 30.3781 0.000479233 29.9003 0H24.5949C24.1173 0.00063898 23.6594 0.190663 23.3217 0.528403C22.9839 0.866144 22.7939 1.32403 22.7933 1.80167V6.11143H2.98937C2.2015 6.11239 1.44617 6.4258 0.889055 6.98291C0.331943 7.54002 0.0185368 8.29535 0.0175781 9.08323V42.2125C0.018377 43.0005 0.331713 43.7559 0.888842 44.3132C1.44597 44.8704 2.20139 45.1839 2.98937 45.1849ZM25.6274 33.0441V36.1656H28.7483V33.0441H25.6274ZM8.7488 18.5758V21.6973H11.8703V18.5758H8.7488ZM42.5048 18.5758V21.6973H45.6263V18.5758H42.5048ZM44.0595 33.0302C43.7489 33.0296 43.4451 33.1212 43.1865 33.2933C42.928 33.4655 42.7263 33.7104 42.607 33.9972C42.4878 34.284 42.4562 34.5997 42.5165 34.9045C42.5767 35.2092 42.726 35.4892 42.9454 35.709C43.1648 35.9289 43.4445 36.0787 43.7491 36.1395C44.0537 36.2003 44.3695 36.1694 44.6565 36.0507C44.9436 35.9319 45.1889 35.7307 45.3615 35.4725C45.5342 35.2143 45.6263 34.9107 45.6263 34.6001C45.6263 34.1842 45.4613 33.7854 45.1676 33.4911C44.8738 33.1968 44.4753 33.031 44.0595 33.0302ZM10.3156 36.1656C10.6261 36.1656 10.9296 36.0736 11.1877 35.9011C11.4459 35.7286 11.6471 35.4834 11.7659 35.1966C11.8847 34.9097 11.9158 34.5941 11.8553 34.2896C11.7947 33.9851 11.6452 33.7053 11.4256 33.4858C11.2061 33.2663 10.9264 33.1167 10.6219 33.0562C10.3173 32.9956 10.0017 33.0267 9.71486 33.1455C9.42801 33.2643 9.18284 33.4655 9.01034 33.7237C8.83785 33.9818 8.74578 34.2854 8.74578 34.5958C8.74578 34.802 8.78639 35.0061 8.86528 35.1966C8.94417 35.387 9.0598 35.5601 9.20557 35.7059C9.35134 35.8516 9.5244 35.9673 9.71486 36.0462C9.90532 36.125 10.1095 36.1656 10.3156 36.1656ZM10.3156 31.3354C9.70612 31.3353 9.10877 31.5058 8.59115 31.8276C8.07354 32.1494 7.65631 32.6096 7.38669 33.1562C7.11707 33.7028 7.00582 34.314 7.06553 34.9205C7.12524 35.5271 7.35352 36.1048 7.72454 36.5884C8.09556 37.0719 8.59451 37.4419 9.16494 37.6566C9.73536 37.8713 10.3545 37.9221 10.9523 37.8031C11.55 37.6842 12.1026 37.4003 12.5474 36.9836C12.9922 36.5669 13.3115 36.0341 13.4691 35.4453H23.9272V37.0152C23.9276 37.1266 23.9499 37.2368 23.9929 37.3396C24.0359 37.4423 24.0987 37.5356 24.1778 37.6141C24.2568 37.6926 24.3505 37.7548 24.4536 37.797C24.5567 37.8393 24.6671 37.8609 24.7785 37.8605H29.5978C29.8225 37.8606 30.0381 37.7718 30.1974 37.6133C30.3568 37.4549 30.4468 37.2398 30.448 37.0152V35.4453H40.9078C41.1137 36.2101 41.5904 36.874 42.2493 37.3134C42.9082 37.7529 43.7044 37.9379 44.4895 37.8341C45.2747 37.7302 45.9953 37.3446 46.5174 36.749C47.0394 36.1534 47.3272 35.3884 47.3272 34.5964C47.3272 33.8044 47.0394 33.0394 46.5174 32.4438C45.9953 31.8482 45.2747 31.4626 44.4895 31.3588C43.7044 31.255 42.9082 31.44 42.2493 31.8794C41.5904 32.3189 41.1137 32.9828 40.9078 33.7475H34.7698C36.9212 32.7272 38.8458 31.2852 40.4294 29.507C42.0129 27.7288 43.2231 25.6506 43.9883 23.3958H46.4752C46.5868 23.3958 46.6972 23.3738 46.8002 23.3311C46.9033 23.2884 46.9969 23.2258 47.0757 23.1469C47.1545 23.068 47.2171 22.9744 47.2597 22.8713C47.3023 22.7682 47.3242 22.6578 47.3241 22.5463V17.7269C47.3242 17.6154 47.3023 17.505 47.2597 17.4019C47.217 17.2989 47.1545 17.2053 47.0757 17.1265C46.9968 17.0476 46.9032 16.9851 46.8002 16.9424C46.6971 16.8998 46.5867 16.8779 46.4752 16.878H41.6553C41.5438 16.8779 41.4333 16.8998 41.3303 16.9424C41.2273 16.9851 41.1337 17.0476 41.0548 17.1265C40.976 17.2053 40.9134 17.2989 40.8708 17.4019C40.8282 17.505 40.8063 17.6154 40.8064 17.7269V22.5463C40.8063 22.6578 40.8282 22.7682 40.8708 22.8713C40.9134 22.9744 40.9759 23.068 41.0548 23.1469C41.1336 23.2258 41.2272 23.2884 41.3303 23.3311C41.4333 23.3738 41.5437 23.3958 41.6553 23.3958H42.1854C41.2285 25.9182 39.6515 28.159 37.6001 29.9112C35.5488 31.6635 33.089 32.8707 30.448 33.4215V32.1946C30.4476 31.9696 30.3581 31.7538 30.199 31.5947C30.0398 31.4356 29.8241 31.346 29.599 31.3457H24.7785C24.6668 31.3455 24.5562 31.3672 24.453 31.4098C24.3497 31.4523 24.2559 31.5148 24.1768 31.5937C24.0978 31.6725 24.035 31.7662 23.9922 31.8693C23.9493 31.9724 23.9272 32.0829 23.9272 32.1946V33.4215C21.2861 32.871 18.8263 31.6642 16.7745 29.9126C14.7228 28.1609 13.1452 25.9208 12.1873 23.3988H12.7168C12.8284 23.3989 12.9389 23.3769 13.042 23.3343C13.1451 23.2916 13.2388 23.229 13.3177 23.1501C13.3966 23.0712 13.4592 22.9776 13.5018 22.8745C13.5445 22.7714 13.5664 22.6609 13.5663 22.5493V17.7269C13.5663 17.6154 13.5444 17.5049 13.5017 17.4019C13.459 17.2989 13.3964 17.2053 13.3175 17.1264C13.2386 17.0476 13.1449 16.9851 13.0419 16.9424C12.9388 16.8998 12.8284 16.8779 12.7168 16.878H7.89989C7.78858 16.878 7.67837 16.9 7.57557 16.9427C7.47278 16.9854 7.37944 17.048 7.3009 17.1268C7.22236 17.2057 7.16017 17.2993 7.1179 17.4023C7.07564 17.5053 7.05413 17.6156 7.0546 17.7269V22.5463C7.05405 22.6576 7.0755 22.768 7.11773 22.871C7.15996 22.9741 7.22213 23.0678 7.30068 23.1467C7.37923 23.2256 7.4726 23.2883 7.57543 23.331C7.67827 23.3738 7.78853 23.3958 7.89989 23.3958H10.3868C11.1515 25.6511 12.3616 27.7298 13.9452 29.5085C15.5287 31.2872 17.4536 32.7295 19.6053 33.7499H13.4691C13.2815 33.0569 12.8711 32.4448 12.3012 32.008C11.7314 31.5712 11.0336 31.334 10.3156 31.333V31.3354Z" fill="#F6883C"/>
</svg>
