<svg width="58" height="50" viewBox="0 0 58 50" fill="none" xmlns="http://www.w3.org/2000/svg">
<path fill-rule="evenodd" clip-rule="evenodd" d="M48.2681 32.9534H9.29491C8.91826 32.9534 8.59741 32.6493 8.59741 32.2559V17.2598C8.59741 16.8831 8.90152 16.5623 9.29491 16.5623C9.6883 16.5623 9.99241 16.8664 9.99241 17.2598V31.5588H47.5849V19.6567C47.5849 19.2801 47.889 18.9592 48.2824 18.9592C48.6758 18.9592 48.9799 19.2634 48.9799 19.6567V32.2395C48.966 32.6329 48.6591 32.9509 48.2685 32.9509L48.2681 32.9534Z" fill="#85C252"/>
<path fill-rule="evenodd" clip-rule="evenodd" d="M37.8645 10.2842H19.3086C18.9319 10.2842 18.6111 9.98005 18.6111 9.58666C18.6111 9.19327 18.9152 8.88916 19.3086 8.88916H37.8645C38.2411 8.88916 38.562 9.19327 38.562 9.58666C38.562 9.98005 38.2411 10.2842 37.8645 10.2842Z" fill="#85C252"/>
<path fill-rule="evenodd" clip-rule="evenodd" d="M49.7808 37.9359H8.08997C6.21509 37.9359 4.67505 36.4098 4.67505 34.521V19.0306C4.67505 18.654 4.97916 18.3331 5.37255 18.3331C5.76593 18.3331 6.07004 18.6372 6.07004 19.0306V34.521C6.07004 35.6398 6.98513 36.5549 8.10398 36.5549H49.7948C50.9136 36.5549 51.8287 35.6399 51.8287 34.521V16.6343C51.8287 16.2577 52.1328 15.9368 52.5262 15.9368C52.9196 15.9368 53.2237 16.2409 53.2237 16.6343V34.521C53.1958 36.3959 51.6696 37.9359 49.7808 37.9359Z" fill="#85C252"/>
<path fill-rule="evenodd" clip-rule="evenodd" d="M38.5339 6.79728H18.6831C18.3064 6.79728 17.9856 6.49317 17.9856 6.09978C17.9856 5.70639 18.2897 5.40228 18.6831 5.40228H38.5339C38.9106 5.40228 39.2314 5.70639 39.2314 6.09978C39.2314 6.49317 38.9106 6.79728 38.5339 6.79728Z" fill="#85C252"/>
<path fill-rule="evenodd" clip-rule="evenodd" d="M53.4135 49.9973H4.28463C2.88965 49.9973 1.62573 49.2858 0.914279 48.0945C0.202833 46.9031 0.172114 45.4635 0.827792 44.2303L3.84938 38.6057C4.54687 37.3278 5.86932 36.5411 7.30901 36.5411H50.5397C52.0073 36.5411 53.3437 37.3557 54.0272 38.6782L56.9037 44.3029C57.5286 45.5221 57.484 46.9477 56.7725 48.1112C56.0472 49.3025 54.7972 50 53.4162 50L53.4135 49.9973ZM7.29229 37.9359C6.3632 37.9359 5.5039 38.4437 5.05472 39.2723L2.03313 44.897C1.61185 45.6949 1.6258 46.6268 2.09172 47.3968C2.55765 48.1668 3.36957 48.6328 4.27072 48.6328H53.3996C54.3008 48.6328 55.1154 48.1836 55.5646 47.4136C56.0305 46.6575 56.0585 45.7424 55.6511 44.9445L52.7747 39.3198C52.3394 38.4633 51.4662 37.9388 50.5232 37.9388H7.29244L7.29229 37.9359Z" fill="#85C252"/>
<path fill-rule="evenodd" clip-rule="evenodd" d="M34.2769 35.5089H24.1047C23.7281 35.5089 23.4072 35.2048 23.4072 34.8114C23.4072 34.4181 23.7113 34.114 24.1047 34.114H34.2769C34.6536 34.114 34.9744 34.4181 34.9744 34.8114C34.9744 35.2048 34.6536 35.5089 34.2769 35.5089Z" fill="#85C252"/>
<path fill-rule="evenodd" clip-rule="evenodd" d="M37.6917 47.0482H20.5749C20.1983 47.0482 19.8774 46.7441 19.8774 46.3507C19.8774 45.9573 20.1815 45.6532 20.5749 45.6532H37.6917C38.0683 45.6532 38.3892 45.9573 38.3892 46.3507C38.3892 46.7441 38.0683 47.0482 37.6917 47.0482Z" fill="#85C252"/>
<path fill-rule="evenodd" clip-rule="evenodd" d="M6.85646 17.0252C6.63884 17.0252 6.42122 16.9805 6.21755 16.908C5.46146 16.6178 5.01227 15.8757 5.09877 15.0777L5.18526 14.2491C3.57265 13.9003 2.35059 12.4607 2.35059 10.7337V7.39125C2.35059 5.39917 3.96319 3.78656 5.95528 3.78656H12.654C14.6461 3.78656 16.2587 5.39917 16.2587 7.39125V10.7337C16.2587 12.7258 14.6461 14.3384 12.654 14.3384H9.66039L8.29326 16.2858C7.94452 16.7657 7.41997 17.028 6.85365 17.028L6.85646 17.0252ZM5.95531 5.16737C4.7361 5.16737 3.73167 6.15502 3.73167 7.39101V10.7334C3.73167 11.9526 4.71932 12.9571 5.95531 12.9571C6.14502 12.9571 6.33195 13.0436 6.46309 13.1886C6.59422 13.3337 6.6528 13.5234 6.63607 13.7271L6.47703 15.2393C6.44913 15.5016 6.63607 15.602 6.70861 15.6327C6.79509 15.6606 6.99876 15.7192 7.1578 15.4876L8.72855 13.25C8.85968 13.0603 9.06335 12.9599 9.29492 12.9599H12.6373C13.8565 12.9599 14.861 11.9722 14.861 10.7362V7.39382C14.861 6.17462 13.8733 5.17018 12.6373 5.17018H5.9525L5.95531 5.16737Z" fill="#85C252"/>
<path fill-rule="evenodd" clip-rule="evenodd" d="M49.3873 15.906H47.1776C46.8874 15.906 46.6252 15.7162 46.5247 15.44L46.0755 14.1622C46.0309 14.0311 45.9305 13.9446 45.8133 13.886C45.7407 13.8581 45.5956 13.8134 45.4506 13.8999L44.2146 14.497C43.9523 14.6281 43.6343 14.5695 43.4306 14.3659L41.8765 12.8118C41.6729 12.6082 41.6143 12.2873 41.7454 12.0278L42.3425 10.7918C42.415 10.6328 42.3704 10.4877 42.3425 10.4152C42.3146 10.3426 42.242 10.2115 42.0802 10.1529L40.8023 9.70372C40.5261 9.60329 40.3364 9.34103 40.3364 9.05087V6.84116C40.3364 6.551 40.5261 6.28873 40.8023 6.1883L42.0802 5.73911C42.2113 5.69447 42.2978 5.59403 42.3564 5.47685C42.3843 5.40431 42.4289 5.25922 42.3425 5.11415L41.7454 3.87816C41.6143 3.6159 41.6729 3.29784 41.8765 3.09414L43.4306 1.5401C43.6342 1.33643 43.9551 1.27784 44.2146 1.40897L45.4506 2.00603C45.6096 2.07857 45.7547 2.03393 45.8272 2.00603C45.8998 1.97813 46.0309 1.9056 46.0895 1.74377L46.5387 0.465926C46.6391 0.189716 46.9014 0 47.1915 0H49.3845C49.6746 0 49.9369 0.189716 50.0373 0.449192L50.5032 1.72704C50.5479 1.85816 50.6483 1.95861 50.7655 2.00325C50.838 2.03115 50.9831 2.07578 51.1282 1.9893L52.3642 1.39224C52.6264 1.26111 52.9445 1.3197 53.1482 1.52336L54.7022 3.0774C54.9059 3.28107 54.9645 3.60192 54.8334 3.86142L54.2363 5.09741C54.1638 5.25644 54.2084 5.40152 54.2363 5.47406C54.2642 5.5466 54.3367 5.67773 54.4986 5.73632L55.7764 6.18551C56.0526 6.28595 56.2423 6.54821 56.2423 6.83837V9.04808C56.2423 9.33824 56.0526 9.6005 55.7764 9.70094L54.4986 10.1501C54.3674 10.1948 54.281 10.2952 54.2224 10.4124C54.1945 10.4849 54.1498 10.63 54.2363 10.7751L54.8334 12.0111C54.9645 12.2733 54.9059 12.5914 54.7022 12.7951L53.1482 14.3491C52.9445 14.5528 52.6237 14.6114 52.3642 14.4803L51.1282 13.8832C50.9692 13.8107 50.8241 13.8553 50.7516 13.8832C50.679 13.9111 50.5479 13.9836 50.4893 14.1455L50.0401 15.4233C49.9397 15.7274 49.6774 15.9032 49.3872 15.9032L49.3873 15.906ZM47.6715 14.5249H48.8907L49.1808 13.6963C49.3538 13.2164 49.7333 12.809 50.1992 12.6221C50.6791 12.4184 51.2315 12.4324 51.7114 12.65L52.5093 13.0267L53.3826 12.1534L53.006 11.3554C52.7744 10.8895 52.7577 10.3538 52.9613 9.85994C53.165 9.36611 53.5584 8.98664 54.0522 8.81373L54.8809 8.52357V7.30436L54.0522 7.0142C53.5723 6.84122 53.165 6.46178 52.9781 5.99584C52.7744 5.51596 52.7883 4.96355 53.006 4.48365L53.3826 3.68571L52.5093 2.81241L51.7114 3.18905C51.2454 3.42063 50.7098 3.43737 50.2159 3.23369C49.7221 3.03002 49.3426 2.63663 49.1697 2.14284L48.8656 1.31418H47.6436L47.3534 2.14284C47.1804 2.62272 46.8149 3.03006 46.335 3.21698C45.8552 3.42065 45.3028 3.4067 44.8229 3.18908L44.0249 2.81244L43.1516 3.68573L43.5283 4.48368C43.7598 4.94961 43.7766 5.48526 43.5729 5.97915C43.3692 6.47299 42.9758 6.85245 42.482 7.02537L41.6534 7.31553V8.53474L42.482 8.82489C42.9619 8.99788 43.3693 9.36337 43.5562 9.84326C43.7599 10.3231 43.7459 10.8755 43.5283 11.3554L43.1516 12.1534L44.0249 13.0267L44.8229 12.65C45.2888 12.4185 45.8245 12.4017 46.3184 12.6054C46.8122 12.8091 47.1917 13.2025 47.3646 13.6963L47.6687 14.5249H47.6715Z" fill="#85C252"/>
<path fill-rule="evenodd" clip-rule="evenodd" d="M48.2545 12.4326C45.7854 12.4326 43.7654 10.4127 43.7654 7.94348C43.7654 5.47428 45.7853 3.45435 48.2545 3.45435C50.7237 3.45435 52.7436 5.47428 52.7436 7.94348C52.7436 10.4127 50.7237 12.4326 48.2545 12.4326ZM48.2545 4.8324C46.5387 4.8324 45.1436 6.22738 45.1436 7.94326C45.1436 9.65915 46.5386 11.0541 48.2545 11.0541C49.9704 11.0541 51.3654 9.65915 51.3654 7.94326C51.3654 6.22738 49.9704 4.8324 48.2545 4.8324Z" fill="#85C252"/>
<path fill-rule="evenodd" clip-rule="evenodd" d="M21.5179 28.9272H21.024C19.8606 28.9133 19.1045 28.1432 19.0766 26.9798V26.0786V24.466C17.9439 23.8132 17.3468 22.7669 17.3329 21.4444V20.9785C17.3329 20.3815 17.3189 19.7593 17.4054 19.1344C17.637 17.5357 19.0766 16.3304 20.7339 16.3165H21.649C22.0563 16.3165 22.433 16.3165 22.8263 16.3025H22.8542C22.9854 16.3025 23.1444 16.2746 23.2755 16.216C25.1058 15.5185 26.9527 14.7931 28.7383 14.0789C29.553 13.758 30.3509 13.44 31.1656 13.1331C31.8184 12.8708 32.502 12.9294 33.0097 13.2782C33.5175 13.6269 33.8244 14.238 33.8244 14.9493V17.9876C34.6977 18.6126 35.2054 19.5584 35.2194 20.5879C35.2333 21.6341 34.7395 22.6078 33.8383 23.2774C33.8244 24.2958 33.8244 25.2834 33.8244 26.3297C33.8244 27.0272 33.5342 27.6242 33.0264 27.973C32.5019 28.3217 31.8351 28.3803 31.1655 28.1181C29.9463 27.6382 28.7242 27.1583 27.4883 26.6784C26.4867 26.2851 25.4962 25.9084 24.4946 25.515V26.91C24.4946 28.1738 23.7106 28.9579 22.4607 28.9579H21.9948C21.8357 28.93 21.6739 28.93 21.5149 28.93L21.5179 28.9272ZM21.2138 17.6665H20.7478C19.7741 17.6805 18.9176 18.3919 18.7725 19.3099C18.7 19.8344 18.714 20.4007 18.714 20.9532V21.4331C18.7279 22.3203 19.0906 22.9145 19.8913 23.3359C19.9053 23.3359 19.9053 23.3498 19.9192 23.3498C20.2819 23.5535 20.4577 23.8743 20.4577 24.2789C20.4437 24.876 20.4577 25.4842 20.4577 26.0673V26.9684C20.4577 27.3758 20.6307 27.5488 21.0547 27.5488C21.3588 27.5627 21.6797 27.5488 21.9838 27.5488H22.4637C22.9715 27.5488 23.1166 27.3897 23.1166 26.8792V24.4965C23.1166 24.2789 23.217 24.0752 23.3928 23.9441C23.5658 23.813 23.7862 23.7711 23.9898 23.8269C24.1628 23.8716 24.28 23.9134 24.3972 23.9581C25.6024 24.424 26.7938 24.8871 28.0019 25.367C29.2211 25.8469 30.4571 26.3268 31.679 26.8067C31.9106 26.8931 32.1282 26.8931 32.2594 26.8067C32.3905 26.7202 32.463 26.5444 32.463 26.3128C32.463 25.222 32.463 24.1924 32.477 23.1155C32.477 22.7807 32.6667 22.4319 32.9429 22.2143C32.9429 22.2143 32.9569 22.2004 32.9708 22.2004C33.5372 21.807 33.872 21.2127 33.858 20.5878C33.8441 19.9767 33.5232 19.4104 32.943 19.0337L32.929 19.0198C32.6082 18.8021 32.4631 18.4953 32.4631 18.1186V14.9352C32.4631 14.6869 32.3905 14.5 32.2594 14.4107C32.1283 14.3242 31.9246 14.3242 31.693 14.4107C30.8784 14.7316 30.0804 15.0496 29.2658 15.3565C27.4774 16.054 25.6192 16.7794 23.7862 17.4937C23.496 17.6108 23.1752 17.6667 22.885 17.6667C22.4777 17.6806 22.0564 17.6806 21.6658 17.6806C21.4901 17.6667 21.3617 17.6667 21.2167 17.6667L21.2138 17.6665Z" fill="#85C252"/>
<path fill-rule="evenodd" clip-rule="evenodd" d="M36.0624 18.5958C35.8448 18.5958 35.6272 18.4954 35.4961 18.3056C35.2784 18.0015 35.351 17.5635 35.6551 17.3458L37.4574 16.082C37.7615 15.8644 38.1996 15.9369 38.4172 16.241C38.6348 16.5451 38.5623 16.9832 38.2582 17.2008L36.4558 18.4647C36.3387 18.5511 36.2075 18.5958 36.0624 18.5958Z" fill="#85C252"/>
<path fill-rule="evenodd" clip-rule="evenodd" d="M38.5339 21.327L36.3242 21.3131C35.9475 21.3131 35.6406 20.9922 35.6406 20.6156C35.6406 20.2389 35.9447 19.932 36.3242 19.932L38.5339 19.946C38.9105 19.946 39.2174 20.2668 39.2174 20.6435C39.2174 21.0201 38.9133 21.327 38.5339 21.327Z" fill="#85C252"/>
<path fill-rule="evenodd" clip-rule="evenodd" d="M38.0823 24.9875C37.9819 24.9875 37.8926 24.9736 37.8061 24.9289L35.6857 23.9691C35.337 23.8101 35.1779 23.4028 35.337 23.0541C35.496 22.7053 35.9033 22.5463 36.252 22.7053L38.3725 23.6651C38.7212 23.8241 38.8803 24.2315 38.7212 24.5802C38.5901 24.8424 38.3446 24.9875 38.0823 24.9875Z" fill="#85C252"/>
</svg>
