<svg width="40" height="50" viewBox="0 0 40 50" fill="none" xmlns="http://www.w3.org/2000/svg">
<path fill-rule="evenodd" clip-rule="evenodd" d="M11.2146 22.4628C11.3264 22.59 11.3856 22.755 11.3802 22.9242C11.3747 23.0935 11.3051 23.2543 11.1854 23.3741C11.0657 23.4939 10.9049 23.5636 10.7356 23.5692C10.5664 23.5747 10.4014 23.5156 10.2741 23.4039L6.32131 19.4511C6.1968 19.3262 6.12689 19.157 6.12689 18.9806C6.12689 18.8042 6.1968 18.635 6.32131 18.51L10.2741 14.5556C10.4004 14.4361 10.5683 14.3706 10.7422 14.3732C10.916 14.3758 11.082 14.4462 11.2047 14.5694C11.3274 14.6925 11.3971 14.8588 11.3989 15.0327C11.4008 15.2065 11.3347 15.3742 11.2146 15.5L7.73242 18.9806L11.2146 22.4628ZM19.8185 23.4039C19.6914 23.5166 19.5261 23.5765 19.3562 23.5714C19.1864 23.5663 19.025 23.4966 18.9049 23.3765C18.7847 23.2563 18.715 23.0949 18.7099 22.9251C18.7048 22.7552 18.7647 22.5899 18.8774 22.4628L22.3596 18.9806L18.8774 15.5C18.8146 15.4384 18.7646 15.3649 18.7303 15.2839C18.696 15.2029 18.6781 15.1159 18.6776 15.0279C18.6771 14.9399 18.694 14.8527 18.7273 14.7712C18.7607 14.6898 18.8099 14.6158 18.872 14.5535C18.9341 14.4911 19.0079 14.4417 19.0892 14.4081C19.1705 14.3744 19.2577 14.3572 19.3457 14.3574C19.4337 14.3576 19.5208 14.3752 19.6019 14.4092C19.6831 14.4432 19.7567 14.493 19.8185 14.5556L23.7713 18.5078C23.8958 18.6327 23.9657 18.8019 23.9657 18.9783C23.9657 19.1547 23.8958 19.3239 23.7713 19.4489L19.8185 23.4017V23.4039ZM29.6219 26.2717H28.5352L27.9241 26.8828V27.8528C27.9236 28.003 27.8724 28.1486 27.7789 28.2661C27.6853 28.3835 27.5548 28.466 27.4085 28.5C26.6128 28.6827 25.8525 28.9948 25.158 29.4239C25.0297 29.518 24.872 29.5631 24.7134 29.551C24.5547 29.539 24.4056 29.4707 24.293 29.3583L23.6041 28.6694H22.7452L21.9746 29.4406V30.3033L22.6608 30.99C22.7666 31.0967 22.8333 31.236 22.8501 31.3853C22.8668 31.5347 22.8326 31.6853 22.753 31.8128C22.3186 32.5058 22.0013 33.2656 21.8135 34.0617C21.7881 34.2177 21.7081 34.3596 21.5877 34.4621C21.4673 34.5646 21.3144 34.6209 21.1563 34.6211H20.1852L19.5741 35.2322V36.3194L20.1852 36.9306H21.1552C21.3054 36.931 21.451 36.9822 21.5685 37.0758C21.6859 37.1693 21.7684 37.2998 21.8024 37.4461C21.9851 38.2418 22.2973 39.0021 22.7263 39.6967C22.8204 39.825 22.8655 39.9827 22.8535 40.1413C22.8414 40.2999 22.7731 40.449 22.6608 40.5617L21.9719 41.2506V42.1083L22.7452 42.8822H23.6035L24.2924 42.1928C24.3988 42.0864 24.5382 42.0193 24.6877 42.0025C24.8372 41.9858 24.9879 42.0203 25.1152 42.1006C25.8084 42.535 26.5684 42.8524 27.3646 43.04C27.5207 43.0654 27.6626 43.1455 27.7651 43.2659C27.8675 43.3862 27.9239 43.5391 27.9241 43.6972V44.6667L28.5352 45.2778H29.6219L30.233 44.6667V43.6983C30.2329 43.548 30.2838 43.4021 30.3775 43.2845C30.4711 43.1669 30.602 43.0846 30.7485 43.0511C31.5444 42.8685 32.3047 42.5562 32.9991 42.1267C33.1274 42.0326 33.2851 41.9875 33.4437 41.9995C33.6023 42.0115 33.7514 42.0799 33.8641 42.1922L34.5508 42.8789H35.4135L36.1824 42.1111V41.2472L35.4963 40.5611C35.39 40.4548 35.3229 40.3156 35.3061 40.1662C35.2894 40.0168 35.3239 39.8661 35.4041 39.7389C35.6252 39.3863 35.8163 39.0157 35.9752 38.6311C36.1289 38.2612 36.2521 37.8794 36.3435 37.4894C36.369 37.3334 36.449 37.1915 36.5694 37.089C36.6898 36.9865 36.8427 36.9302 37.0008 36.93H37.9708L38.5819 36.3189V35.2311L37.9708 34.62H37.0019C36.8516 34.6195 36.7059 34.5683 36.5884 34.4746C36.471 34.3809 36.3886 34.2503 36.3546 34.1039C36.1719 33.3082 35.8598 32.5479 35.4308 31.8533C35.3368 31.7251 35.2918 31.5675 35.3038 31.409C35.3159 31.2505 35.3841 31.1015 35.4963 30.9889L36.1824 30.3022V29.4394L35.4141 28.6711H34.5508L33.8646 29.3572C33.758 29.4631 33.6187 29.5298 33.4693 29.5465C33.32 29.5633 33.1693 29.5291 33.0419 29.4494C32.3493 29.0142 31.5896 28.6962 30.7935 28.5083C30.6376 28.4829 30.4957 28.403 30.3933 28.2827C30.2908 28.1624 30.2344 28.0097 30.2341 27.8517V26.8817L29.623 26.2706L29.6219 26.2717ZM31.7885 33.065C32.4158 33.692 32.8062 34.5171 32.8933 35.3997C32.9804 36.2823 32.7587 37.1678 32.2661 37.9053C31.7735 38.6428 31.0404 39.1867 30.1917 39.4443C29.343 39.7018 28.4313 39.6571 27.6119 39.3178C26.7925 38.9785 26.116 38.3655 25.6979 37.5834C25.2798 36.8012 25.1458 35.8983 25.3188 35.0284C25.4918 34.1586 25.961 33.3756 26.6466 32.8129C27.3322 32.2503 28.1916 31.9428 29.0785 31.9428C29.5819 31.9421 30.0804 32.0409 30.5455 32.2335C31.0106 32.4261 31.433 32.7086 31.7885 33.065ZM29.0785 30.6111C30.274 30.6107 31.4326 31.0249 32.3569 31.783C33.2813 32.5412 33.9141 33.5964 34.1475 34.7689C34.3809 35.9413 34.2006 37.1585 33.6372 38.2128C33.0737 39.2672 32.1621 40.0936 31.0576 40.5511C29.9532 41.0086 28.7242 41.069 27.5802 40.7219C26.4363 40.3748 25.448 39.6417 24.784 38.6477C24.12 37.6536 23.8212 36.46 23.9386 35.2703C24.056 34.0806 24.5824 32.9684 25.428 32.1233C25.9069 31.6433 26.4759 31.2625 27.1024 31.003C27.7289 30.7435 28.4004 30.6103 29.0785 30.6111ZM16.633 11.7667C16.6949 11.6097 16.8141 11.482 16.9664 11.4095C17.1188 11.3369 17.293 11.3248 17.4539 11.3756C17.6148 11.4264 17.7505 11.5364 17.8335 11.6833C17.9165 11.8302 17.9408 12.0031 17.9013 12.1672L13.4602 26.1944C13.439 26.2835 13.3996 26.3673 13.3446 26.4405C13.2896 26.5137 13.2201 26.5748 13.1405 26.6199C13.0608 26.6651 12.9727 26.6933 12.8816 26.7029C12.7906 26.7125 12.6985 26.7033 12.6112 26.6758C12.5238 26.6482 12.4431 26.603 12.374 26.5429C12.305 26.4828 12.249 26.4091 12.2097 26.3264C12.1703 26.2437 12.1485 26.1538 12.1454 26.0623C12.1423 25.9707 12.1581 25.8796 12.1919 25.7944L16.6363 11.7667H16.633ZM29.7513 46.6111H29.8974C29.9848 46.6112 30.0714 46.5941 30.1522 46.5606C30.2329 46.5272 30.3063 46.478 30.368 46.4161L31.3641 45.42C31.4272 45.3582 31.4773 45.2844 31.5115 45.2029C31.5456 45.1214 31.5631 45.0339 31.563 44.9456V44.2106C32.1609 44.0344 32.7383 43.7947 33.2852 43.4956L33.8008 44.0106C33.8626 44.0737 33.9364 44.1238 34.0179 44.158C34.0994 44.1921 34.1868 44.2096 34.2752 44.2094H35.6891C35.8655 44.2094 36.0347 44.1395 36.1596 44.015L37.3141 42.8606C37.3773 42.7993 37.4277 42.726 37.4624 42.645C37.497 42.564 37.5151 42.477 37.5158 42.3889V40.9717C37.5159 40.8844 37.4987 40.7979 37.4654 40.7173C37.432 40.6366 37.383 40.5634 37.3213 40.5017L36.8019 39.9822C36.9515 39.7085 37.0865 39.4269 37.2063 39.1389C37.3254 38.8515 37.4291 38.5579 37.5169 38.2594H38.2502C38.3375 38.2597 38.424 38.2426 38.5046 38.2092C38.5853 38.1759 38.6586 38.1268 38.7202 38.065L39.7163 37.0689C39.7794 37.007 39.8295 36.9332 39.8636 36.8517C39.8978 36.7703 39.9153 36.6828 39.9152 36.5944V34.9556C39.9153 34.8682 39.8982 34.7817 39.8647 34.7011C39.8312 34.6204 39.7821 34.5471 39.7202 34.4856L38.7213 33.4894C38.6596 33.4264 38.5858 33.3763 38.5044 33.3422C38.4231 33.308 38.3357 33.2905 38.2474 33.2906H37.5158C37.3399 32.6925 37.1002 32.1151 36.8008 31.5683L37.3163 31.0528C37.3794 30.991 37.4296 30.9171 37.4637 30.8357C37.4979 30.7542 37.5154 30.6667 37.5152 30.5783V29.1667C37.5152 28.9903 37.4453 28.8211 37.3208 28.6961L36.1641 27.5389C36.1022 27.4758 36.0284 27.4257 35.9469 27.3916C35.8655 27.3574 35.778 27.3399 35.6896 27.34H34.2758C34.1883 27.3399 34.1018 27.357 34.021 27.3905C33.9402 27.424 33.8669 27.4731 33.8052 27.535L33.2858 28.0544C33.0123 27.9046 32.731 27.7696 32.443 27.65C32.1554 27.531 31.8616 27.4273 31.563 27.3394V26.6061C31.5628 26.4296 31.4927 26.2604 31.368 26.1356L30.3719 25.14C30.31 25.0769 30.2362 25.0268 30.1547 24.9926C30.0733 24.9584 29.9858 24.9409 29.8974 24.9411H29.7513V2.68667C29.7495 1.97456 29.4658 1.29214 28.9623 0.788655C28.4587 0.285173 27.7762 0.00161357 27.0641 0H3.02798C2.31597 0.00176022 1.63363 0.285384 1.13016 0.788851C0.626693 1.29232 0.343069 1.97466 0.341309 2.68667V47.3133C0.343069 48.0253 0.626693 48.7077 1.13016 49.2112C1.63363 49.7146 2.31597 49.9982 3.02798 50H27.0641C27.7762 49.9984 28.4587 49.7148 28.9623 49.2113C29.4658 48.7079 29.7495 48.0254 29.7513 47.3133V46.6111ZM20.8546 42.8728L21.9969 44.015C22.0584 44.0767 22.1314 44.1256 22.2119 44.159C22.2924 44.1924 22.3786 44.2095 22.4658 44.2094H23.8224C23.9191 44.2177 24.0164 44.2048 24.1075 44.1716C24.1987 44.1384 24.2815 44.0857 24.3502 44.0172L24.8696 43.4978C25.4165 43.7969 25.9939 44.0366 26.5919 44.2128V44.9444C26.5917 45.0319 26.6089 45.1184 26.6424 45.1992C26.6758 45.28 26.7249 45.3533 26.7869 45.415L27.783 46.4111C27.8448 46.4742 27.9186 46.5244 28.0001 46.5585C28.0816 46.5927 28.1691 46.6102 28.2574 46.61H28.418V47.3144C28.4165 47.6737 28.2732 48.0177 28.0192 48.2717C27.7652 48.5257 27.4211 48.6691 27.0619 48.6706H3.02798C2.66876 48.6691 2.32468 48.5257 2.07068 48.2717C1.81667 48.0177 1.67333 47.6737 1.67186 47.3144V42.8728H20.8546ZM12.8252 46.3333C12.6484 46.3333 12.4788 46.2631 12.3538 46.1381C12.2288 46.0131 12.1585 45.8435 12.1585 45.6667C12.1585 45.4899 12.2288 45.3203 12.3538 45.1953C12.4788 45.0702 12.6484 45 12.8252 45H17.2669C17.4437 45 17.6132 45.0702 17.7383 45.1953C17.8633 45.3203 17.9335 45.4899 17.9335 45.6667C17.9335 45.8435 17.8633 46.0131 17.7383 46.1381C17.6132 46.2631 17.4437 46.3333 17.2669 46.3333H12.8252ZM6.53353 1.33333H23.5585C23.4135 2.03494 23.0317 2.66537 22.4771 3.11892C21.9225 3.57246 21.2289 3.82156 20.5124 3.82444H9.5802C8.86375 3.82138 8.17012 3.57223 7.61547 3.11872C7.06083 2.66521 6.67885 2.03489 6.53353 1.33333ZM24.9085 1.33333C24.7567 2.39204 24.229 3.36076 23.4218 4.06245C22.6147 4.76415 21.5819 5.15196 20.5124 5.155H9.5802C8.51038 5.15236 7.47726 4.76473 6.66975 4.063C5.86223 3.36126 5.33428 2.39232 5.18242 1.33333H3.02686C2.66765 1.3348 2.32357 1.47814 2.06956 1.73214C1.81556 1.98615 1.67222 2.33023 1.67075 2.68944V41.5417H20.6463V40.9722C20.6462 40.8852 20.6633 40.7989 20.6966 40.7185C20.7299 40.638 20.7787 40.5649 20.8402 40.5033L21.3596 39.9839C21.0605 39.437 20.8208 38.8596 20.6446 38.2617H19.9113C19.823 38.2616 19.7356 38.244 19.6541 38.2098C19.5727 38.1757 19.4988 38.1257 19.4369 38.0628L18.4413 37.0667C18.3794 37.005 18.3303 36.9316 18.2968 36.8509C18.2633 36.7701 18.2462 36.6835 18.2463 36.5961V34.9556C18.2462 34.8673 18.2638 34.7799 18.2979 34.6985C18.3321 34.6171 18.3821 34.5434 18.4452 34.4817L19.4413 33.4856C19.5029 33.4236 19.5761 33.3745 19.6568 33.3411C19.7375 33.3076 19.824 33.2904 19.9113 33.2906H20.6446C20.7324 32.9919 20.8361 32.6981 20.9552 32.4106C21.0747 32.1225 21.2097 31.8412 21.3596 31.5678L20.8402 31.0483C20.7783 30.9866 20.7292 30.9133 20.6957 30.8325C20.6622 30.7518 20.6451 30.6652 20.6452 30.5778V29.1667C20.645 29.0783 20.6625 28.9908 20.6967 28.9093C20.7308 28.8279 20.781 28.754 20.8441 28.6922L21.9985 27.5378C22.067 27.469 22.1498 27.4162 22.241 27.3829C22.3322 27.3497 22.4296 27.337 22.5263 27.3456H23.883C23.9701 27.3454 24.0563 27.3624 24.1368 27.3957C24.2173 27.429 24.2903 27.4778 24.3519 27.5394L24.8713 28.0589C25.1447 27.9089 25.4261 27.7739 25.7141 27.6544C26.0017 27.5353 26.2954 27.4316 26.5941 27.3439V26.6106C26.5936 26.5215 26.6111 26.4332 26.6453 26.3509C26.6796 26.2687 26.73 26.1941 26.7935 26.1317L27.7896 25.1356C27.9146 25.011 28.0838 24.9411 28.2602 24.9411H28.4208V2.68667C28.4186 2.32784 28.2748 1.98438 28.0208 1.73096C27.7667 1.47754 27.4229 1.33464 27.0641 1.33333H24.9085Z" fill="#E64431"/>
</svg>
