<svg width="67" height="50" viewBox="0 0 67 50" fill="none" xmlns="http://www.w3.org/2000/svg">
<path d="M62.7836 0H16.2002C14.3863 0 12.91 1.47564 12.91 3.29024V6.24218C12.9047 6.24284 12.9001 6.24416 12.8948 6.24482C12.471 6.32182 12.1636 6.69106 12.1636 7.12151V9.15266C11.3323 9.39553 10.532 9.72791 9.77044 10.1452L8.33495 8.7097C8.03021 8.40496 7.55106 8.36218 7.19696 8.60768C5.75225 9.60943 4.51092 10.8501 3.50917 12.2955C3.26367 12.6496 3.30645 13.1287 3.61119 13.4335L5.04668 14.869C4.62874 15.6305 4.29636 16.4315 4.05415 17.2621H2.023C1.59255 17.2621 1.22331 17.5701 1.1463 17.994C0.992949 18.8365 0.915283 19.7145 0.915283 20.603C0.915283 21.4896 0.992949 22.3656 1.1463 23.2081C1.22331 23.632 1.59255 23.94 2.023 23.94H4.05415C4.29701 24.7733 4.6294 25.5749 5.04668 26.3345L3.61053 27.7732C3.30579 28.078 3.26367 28.5571 3.50983 28.9112C4.51356 30.3546 5.75423 31.594 7.19696 32.5944C7.55106 32.8399 8.03021 32.7971 8.33495 32.4924L9.77044 31.0569C10.532 31.4748 11.333 31.8072 12.1636 32.0494V34.0806C12.1636 34.511 12.4716 34.8803 12.8955 34.9573C12.9007 34.9579 12.9054 34.9593 12.9106 34.9599V37.4176C12.9106 39.2315 14.3863 40.7078 16.2009 40.7078H33.8776V42.6304H30.0246C27.9915 42.6304 26.3375 44.2844 26.3375 46.3168V49.1088C26.3375 49.6011 26.7364 50 27.2287 50H51.7558C52.2481 50 52.647 49.6011 52.647 49.1088V46.3168C52.647 44.2837 50.9929 42.6304 48.9605 42.6304H45.1042V40.7078H62.7836C64.5975 40.7078 66.0738 39.2322 66.0738 37.4176V3.2909C66.0738 1.47564 64.5975 0 62.7836 0ZM10.1015 29.1837C9.74938 28.9626 9.29129 29.0139 8.99708 29.3081L7.61556 30.6896C6.79349 30.0473 6.05633 29.3107 5.41263 28.4887L6.79415 27.1045C7.0877 26.8103 7.13904 26.3516 6.91723 25.9994C6.30578 25.0306 5.86678 23.9709 5.61074 22.8494C5.5186 22.444 5.15791 22.1563 4.74194 22.1563H2.78978C2.72857 21.6469 2.69764 21.1269 2.69764 20.6017C2.69764 20.0745 2.72857 19.5532 2.78978 19.0431H4.74326C5.15923 19.0431 5.51926 18.7555 5.61206 18.3501C5.86678 17.2345 6.30644 16.1741 6.91921 15.1994C7.14035 14.8472 7.08902 14.3891 6.79481 14.0949L5.41329 12.7134C6.05633 11.8907 6.79349 11.1535 7.61622 10.5105L8.99774 11.892C9.29129 12.1856 9.75004 12.2375 10.1022 12.0164C11.0769 11.4036 12.1373 10.964 13.2535 10.7093C13.659 10.6171 13.9466 10.2564 13.9466 9.84046V7.88698C14.976 7.76126 16.0284 7.76126 17.0598 7.88698V9.84111C17.0598 10.2571 17.3474 10.6171 17.7529 10.7099C18.8724 10.9653 19.9341 11.405 20.9075 12.0171C21.2596 12.2382 21.7177 12.1869 22.0119 11.8927L23.3928 10.5118C24.2142 11.1555 24.9507 11.8927 25.5931 12.7141L24.2116 14.0956C23.9167 14.3905 23.866 14.8499 24.0885 15.202C24.6986 16.1675 25.1383 17.2272 25.3943 18.3514C25.4865 18.7568 25.8472 19.0445 26.2631 19.0445H28.2173C28.2805 19.5605 28.312 20.0817 28.312 20.603C28.312 21.1223 28.2805 21.643 28.2173 22.1576H26.2631C25.8465 22.1576 25.4852 22.4466 25.3937 22.8527C25.1416 23.9722 24.7026 25.0306 24.0892 25.9981C23.866 26.3503 23.9167 26.8097 24.2109 27.1045L25.5924 28.4887C24.9494 29.3094 24.2136 30.0459 23.3928 30.689L22.0119 29.3081C21.7184 29.0146 21.2596 28.9626 20.9075 29.1837C19.9341 29.7958 18.8724 30.2355 17.7529 30.4909C17.3474 30.583 17.0598 30.9437 17.0598 31.3597V33.3138C16.0278 33.4395 14.976 33.4395 13.9466 33.3138V31.3597C13.9466 30.9437 13.659 30.5837 13.2535 30.4909C12.1366 30.2362 11.0769 29.7965 10.1015 29.1837ZM18.0977 34.9586C18.1017 34.9579 18.1056 34.9573 18.1089 34.9566C18.5328 34.8796 18.8408 34.5104 18.8408 34.0799V32.0488C19.6741 31.8059 20.4757 31.4735 21.2373 31.0556L22.6728 32.4911C22.9775 32.7958 23.4573 32.8386 23.8114 32.5924C25.2528 31.5907 26.4915 30.3513 27.4939 28.9099C27.7401 28.5558 27.6973 28.0767 27.3932 27.7719L25.9584 26.3345C26.3777 25.5749 26.71 24.7733 26.9516 23.9393H28.9814C29.4119 23.9393 29.7811 23.6313 29.8581 23.2074C30.0134 22.3518 30.0924 21.4751 30.0924 20.6024C30.0924 19.727 30.0134 18.849 29.8581 17.9933C29.7811 17.5695 29.4119 17.2614 28.9814 17.2614H26.9503C26.7067 16.4262 26.375 15.6259 25.9584 14.8676L27.3932 13.4328C27.698 13.1281 27.7407 12.6489 27.4952 12.2948C26.4948 10.8514 25.2555 9.61141 23.8121 8.60768C23.458 8.36152 22.9781 8.40431 22.6734 8.70904L21.2379 10.1445C20.4764 9.72725 19.6741 9.39487 18.8415 9.15134V7.1202C18.8415 6.68975 18.5335 6.32051 18.1102 6.2435C18.1063 6.24284 18.1024 6.24218 18.0984 6.24153V5.18646H60.8867V35.5181H18.0984L18.0977 34.9586ZM48.9598 44.4114C50.0103 44.4114 50.8646 45.2657 50.8646 46.3162V48.217H28.1192V46.3162C28.1192 45.2657 28.9735 44.4114 30.024 44.4114H33.877H35.6593H43.3212H45.1035H48.9598ZM43.3212 42.629H35.6587V40.7065H43.3212V42.629ZM64.2915 37.4162C64.2915 38.2475 63.6149 38.9241 62.7836 38.9241H45.1035H43.3212H35.6587H33.8763H16.2002C15.3689 38.9241 14.6923 38.2475 14.6923 37.4162V35.1672C14.9628 35.1824 15.2333 35.1909 15.5039 35.1909C15.7744 35.1909 16.0449 35.1824 16.3154 35.1672V36.4099C16.3154 36.9022 16.7142 37.3011 17.2066 37.3011H61.7766C62.2689 37.3011 62.6677 36.9022 62.6677 36.4099V4.2966C62.6677 3.80428 62.2689 3.40543 61.7766 3.40543H17.2066C16.7142 3.40543 16.3154 3.80428 16.3154 4.2966V6.03486C15.775 6.00524 15.232 6.00524 14.6917 6.03486V3.29024C14.6917 2.45896 15.3683 1.78235 16.1996 1.78235H62.7836C63.6149 1.78235 64.2915 2.45896 64.2915 3.29024V37.4162ZM23.9634 20.6024C23.9634 15.9359 20.1684 12.1388 15.5039 12.1388C10.8374 12.1388 7.04097 15.9352 7.04097 20.6024C7.04097 25.2669 10.8374 29.062 15.5039 29.062C20.169 29.062 23.9634 25.2669 23.9634 20.6024ZM8.82332 20.6024C8.82332 16.9185 11.8207 13.9212 15.5045 13.9212C19.1864 13.9212 22.1818 16.9185 22.1818 20.6024C22.1818 24.2842 19.1864 27.2796 15.5045 27.2796C11.82 27.2796 8.82332 24.2842 8.82332 20.6024ZM13.5826 22.7224L12.3235 23.9834L9.57167 21.2362C9.40449 21.069 9.31037 20.8426 9.31037 20.6057C9.31037 20.3694 9.40384 20.1423 9.57101 19.9751L12.3222 17.2239L13.5826 18.4837L11.462 20.6043L13.5826 22.7224ZM17.4257 18.4778L18.6862 17.218L21.4341 19.9659C21.7816 20.3141 21.7822 20.8775 21.4347 21.2257L18.6875 23.9775L17.4264 22.7184L19.5444 20.5971L17.4257 18.4778ZM17.4718 16.6888L15.2544 24.976L13.5333 24.5152L15.7507 16.2281L17.4718 16.6888ZM46.6944 7.23669H36.5281C36.0358 7.23669 35.6369 7.63555 35.6369 8.12787V18.2974C35.6369 18.7897 36.0358 19.1886 36.5281 19.1886H46.6937C47.186 19.1886 47.5849 18.7897 47.5849 18.2974V8.12787C47.5855 7.63555 47.186 7.23669 46.6944 7.23669ZM45.8032 17.4062H37.4193V9.01839H45.8032V17.4062ZM46.6944 21.5218H36.5281C36.0358 21.5218 35.6369 21.9207 35.6369 22.413V32.5786C35.6369 33.0709 36.0358 33.4698 36.5281 33.4698H46.6937C47.186 33.4698 47.5849 33.0709 47.5849 32.5786V22.413C47.5855 21.9207 47.186 21.5218 46.6944 21.5218ZM45.8032 31.6881H37.4193V23.3042H45.8032V31.6881ZM39.7578 15.7838L37.9024 13.3387L39.3221 12.2612L40.5213 13.8415L43.9958 9.92141L45.3293 11.1035L41.1347 15.8358C40.9656 16.0267 40.722 16.136 40.468 16.136C40.4568 16.136 40.4456 16.136 40.4338 16.1353C40.1672 16.1254 39.9191 15.9964 39.7578 15.7838ZM38.6271 29.2206L40.3515 27.4961L38.6271 25.7717L39.8875 24.512L41.6119 26.2364L43.3363 24.512L44.5967 25.7717L42.8723 27.4961L44.5967 29.2206L43.3363 30.4803L41.6119 28.7559L39.8875 30.4803L38.6271 29.2206ZM49.5443 11.1976H59.342V12.98H49.5443V11.1976ZM49.5443 7.23669H59.342V9.01905H49.5443V7.23669ZM49.5443 25.4828H59.342V27.2651H49.5443V25.4828ZM49.5443 21.5218H59.342V23.3042H49.5443V21.5218Z" fill="#888888"/>
</svg>
