<svg width="230" height="60" viewBox="0 0 230 60" fill="none" xmlns="http://www.w3.org/2000/svg">
<path d="M31.4701 46.21H27.8501L30.8801 59.46H34.7201L36.6701 50.51L38.3401 59.46H42.0001L45.3501 46.21H41.9601L40.3301 56.16L38.5201 46.21H35.0401L33.0901 56.07L31.4701 46.21Z" fill="#0160E7"/>
<path d="M27.0001 46.6199L26.4601 49.0599C26.4601 49.0599 22.3401 47.6599 21.8901 49.4199C21.4401 51.1799 24.8901 51.9599 24.8901 51.9599C24.8901 51.9599 28.3301 53.2199 27.5601 56.3899C26.7901 59.5599 23.4001 59.9999 23.4001 59.9999C21.6057 60.1704 19.7961 59.9275 18.1101 59.2899L18.6501 56.7099C18.6501 56.7099 22.7601 58.7699 23.8501 56.8899C24.9401 55.0099 21.7301 53.9999 21.7301 53.9999C21.7301 53.9999 16.7301 52.1899 18.8801 48.0699C20.6401 44.5799 27.0001 46.6199 27.0001 46.6199Z" fill="#0160E7"/>
<path d="M55.12 46.6201L54.58 49.0601C54.58 49.0601 50.46 47.6601 50.01 49.4201C49.56 51.1801 53 52.0001 53 52.0001C53 52.0001 56.44 53.2601 55.67 56.4301C54.9 59.6001 51.55 60.0001 51.55 60.0001C49.7523 60.1703 47.9395 59.9275 46.25 59.2901L46.8 56.7101C46.8 56.7101 50.91 58.7701 52 56.8901C53.09 55.0101 49.87 54.0001 49.87 54.0001C49.87 54.0001 44.91 52.1401 47 48.0001C48.79 44.5801 55.12 46.6201 55.12 46.6201Z" fill="#0160E7"/>
<path d="M38.1599 40.0701C38.9152 37.1381 40.6164 34.5371 42.9999 32.6701C47.9999 29.1701 50.7599 30.4601 56.6999 28.5101C60.353 27.3013 63.6812 25.2729 66.4299 22.5801C66.2408 26.2796 64.9357 29.8352 62.6866 32.7787C60.4375 35.7221 57.3498 37.9155 53.8299 39.0701C49.1499 40.7501 44.9299 40.1401 38.1599 40.0701Z" fill="#0160E7"/>
<path d="M34.3801 40.0701C33.631 37.1379 31.9327 34.5361 29.5501 32.6701C24.6001 29.1701 21.7901 30.4601 15.8501 28.5101C12.197 27.3013 8.86881 25.2729 6.12012 22.5801C6.30927 26.2796 7.6143 29.8352 9.86341 32.7787C12.1125 35.7221 15.2002 37.9155 18.7201 39.0701C23.4001 40.7501 27.6201 40.1401 34.3801 40.0701Z" fill="#0160E7"/>
<path opacity="0.3" d="M48.6899 41.2599C51.6504 41.1456 54.5578 40.4383 57.2399 39.1799C57.2399 39.1799 67.8199 39.9499 71.6499 38.6599C71.6499 38.6599 66.5699 44.9999 62.3799 45.6599C62.3799 45.6799 51.6799 43.3499 48.6899 41.2599Z" fill="#0160E7"/>
<path opacity="0.3" d="M23 41.2599C20.0364 41.1451 17.1258 40.4378 14.44 39.1799C14.44 39.1799 3.82 39.9999 0 38.6599C0 38.6599 5.08 44.9999 9.27 45.6599C9.27 45.6799 20 43.3499 23 41.2599Z" fill="#0160E7"/>
<path d="M9.87012 48.1699C9.87012 48.1699 36.2001 33.2999 61.0001 48.1699C61.0001 48.1699 40.5001 36.7999 9.87012 48.1699Z" fill="#0160E7"/>
<path d="M54.1701 16.86C54.1701 20.96 53.9001 25.86 51.0401 28.5C48.3316 27.8828 45.4892 28.3494 43.1201 29.8C41.6801 30.6 39.4701 31.8 37.5701 36.74C36.4301 36.86 37.5701 36.74 36.3001 36.74C35.6606 36.7751 35.0196 36.7751 34.3801 36.74C33.9301 32.94 30.7301 30.74 29.1401 29.74C25.9501 27.56 22.4301 28.63 20.2501 28.24C18.1394 24.8929 17.2035 20.9381 17.5901 17C18.0501 12.3579 20.2141 8.05102 23.6642 4.91128C27.1142 1.77155 31.6054 0.0217852 36.2701 0C45.8701 0 54.1701 9 54.1701 16.86Z" fill="#0160E7"/>
<path d="M36.05 28C34.8486 28.0089 33.6514 27.8576 32.49 27.55C31.5242 27.3155 30.5858 26.9804 29.69 26.55L28.69 27.55H27.43L27.24 20.49H28.5C28.8197 21.2215 29.1837 21.9328 29.59 22.62C30.0178 23.3457 30.5315 24.0172 31.12 24.62C31.7026 25.2232 32.3778 25.7296 33.12 26.12C33.9242 26.5184 34.8126 26.7174 35.71 26.7C36.8075 26.7715 37.8939 26.4448 38.77 25.78C39.1112 25.5007 39.3847 25.1478 39.57 24.7477C39.7553 24.3476 39.8476 23.9108 39.84 23.47C39.8441 23.1028 39.7653 22.7395 39.6095 22.4071C39.4536 22.0746 39.2248 21.7817 38.94 21.55C38.1031 20.9248 37.1519 20.4695 36.14 20.21L33.87 19.52C33.18 19.31 32.53 19.09 31.92 18.87C30.6721 18.4612 29.5819 17.675 28.8 16.62C28.1328 15.6652 27.783 14.5246 27.8 13.36C27.8033 12.5954 27.9848 11.8422 28.33 11.16C28.7086 10.4312 29.2327 9.78793 29.87 9.26996C30.6168 8.6979 31.4602 8.26438 32.36 7.98996C33.4197 7.64952 34.527 7.48072 35.64 7.48996C36.7402 7.47989 37.8358 7.63495 38.89 7.94996C39.709 8.1771 40.5056 8.47834 41.27 8.84996L42.14 7.99996H43.42L43.54 14.66H42.28C41.98 13.94 41.64 13.21 41.28 12.46C40.9292 11.7787 40.4995 11.141 40 10.56C39.5281 10.037 38.9658 9.60339 38.34 9.27996C37.6496 8.95432 36.8931 8.79343 36.13 8.80996C35.1939 8.77061 34.2748 9.0687 33.54 9.64996C33.2244 9.89628 32.97 10.2121 32.7966 10.5729C32.6231 10.9337 32.5353 11.3297 32.54 11.73C32.5301 12.0935 32.6033 12.4546 32.7541 12.7856C32.9049 13.1166 33.1292 13.4088 33.41 13.64C34.2122 14.2717 35.1341 14.7343 36.12 15L38.34 15.69C39.09 15.92 39.77 16.14 40.34 16.35C41.5912 16.7572 42.7101 17.4928 43.58 18.48C44.2084 19.3025 44.5876 20.288 44.6727 21.3196C44.7578 22.3512 44.5451 23.3856 44.06 24.3C43.6538 25.0909 43.0682 25.7758 42.35 26.3C41.5319 26.9015 40.6147 27.3551 39.64 27.64C38.467 27.9327 37.2578 28.0539 36.05 28Z" fill="white"/>
<path d="M81.24 53.26L83.64 58.34L86 53.26H87.3V59.49H86.3V57.07L86.39 54.45L83.98 59.45H83.24L80.83 54.45L80.93 57.06V59.48H80V53.26H81.24Z" fill="#0160E7"/>
<path d="M95.4301 56.5801C95.4454 57.1331 95.318 57.6807 95.0601 58.1701C94.8318 58.5941 94.4841 58.9418 94.0601 59.1701C93.578 59.4175 93.0419 59.5412 92.5001 59.5301C91.964 59.5369 91.4346 59.4097 90.9601 59.1601C90.5381 58.9291 90.1911 58.5821 89.9601 58.1601C89.7046 57.6838 89.5738 57.1506 89.5801 56.6101V56.1601C89.5683 55.6107 89.6956 55.0672 89.9501 54.5801C90.1723 54.1364 90.52 53.7677 90.9501 53.5201C91.4254 53.2736 91.9548 53.1498 92.4901 53.1601C93.0319 53.149 93.568 53.2727 94.0501 53.5201C94.4825 53.7602 94.8314 54.1265 95.0501 54.5701C95.3067 55.06 95.434 55.6073 95.4201 56.1601L95.4301 56.5801ZM94.4301 56.1801C94.4738 55.5685 94.2884 54.9626 93.9101 54.4801C93.725 54.2773 93.497 54.1182 93.2427 54.0144C92.9885 53.9106 92.7143 53.8647 92.4401 53.8801C92.1705 53.8664 91.9013 53.9132 91.6521 54.017C91.403 54.1208 91.1802 54.2791 91.0001 54.4801C90.6176 54.9384 90.4213 55.5238 90.4501 56.1201V56.5801C90.417 57.1892 90.6132 57.7885 91.0001 58.2601C91.3863 58.6454 91.9096 58.8618 92.4551 58.8618C93.0006 58.8618 93.5239 58.6454 93.9101 58.2601C94.2842 57.7904 94.4728 57.1997 94.4401 56.6001L94.4301 56.1801Z" fill="#0160E7"/>
<path d="M100 58.4L102.1 53.26H103.16L100.43 59.49H99.5701L96.8501 53.26H97.9101L100 58.4Z" fill="#0160E7"/>
<path d="M109 56.61H105.81V58.82H109.51V59.49H104.84V53.26H109.46V53.93H105.81V55.93H109V56.61Z" fill="#0160E7"/>
<path d="M120.33 53.93H118V59.49H117V53.93H114.64V53.26H120.33V53.93Z" fill="#0160E7"/>
<path d="M127.69 56.5801C127.703 57.1318 127.58 57.6781 127.33 58.1701C127.098 58.5914 126.751 58.9382 126.33 59.1701C125.849 59.4104 125.318 59.5355 124.78 59.5355C124.242 59.5355 123.711 59.4104 123.23 59.1701C122.81 58.9364 122.464 58.5901 122.23 58.1701C121.974 57.6938 121.844 57.1606 121.85 56.6201V56.1701C121.838 55.6207 121.965 55.0772 122.22 54.5901C122.442 54.1464 122.79 53.7777 123.22 53.5301C123.695 53.2836 124.225 53.1598 124.76 53.1701C125.302 53.159 125.838 53.2827 126.32 53.5301C126.749 53.7741 127.097 54.1394 127.32 54.5801C127.569 55.0725 127.692 55.6186 127.68 56.1701L127.69 56.5801ZM126.69 56.1801C126.731 55.5673 126.542 54.9612 126.16 54.4801C125.975 54.2773 125.747 54.1182 125.493 54.0144C125.238 53.9106 124.964 53.8648 124.69 53.8801C124.42 53.8664 124.151 53.9132 123.902 54.017C123.653 54.1208 123.43 54.2791 123.25 54.4801C122.875 54.9423 122.683 55.5258 122.71 56.1201V56.5801C122.671 57.1866 122.86 57.7857 123.24 58.2601C123.421 58.4669 123.646 58.6302 123.899 58.7375C124.152 58.8449 124.426 58.8937 124.7 58.8801C124.971 58.8965 125.242 58.853 125.494 58.7528C125.747 58.6526 125.974 58.498 126.16 58.3001C126.53 57.8283 126.718 57.2391 126.69 56.6401V56.1801Z" fill="#0160E7"/>
<path d="M138.73 53.93H136.36V59.49H135.36V53.93H133V53.26H138.69L138.73 53.93Z" fill="#0160E7"/>
<path d="M146.23 59.49H145.23V56.61H141.53V59.49H140.53V53.26H141.53V55.94H145.23V53.26H146.23V59.49Z" fill="#0160E7"/>
<path d="M152.87 56.61H149.68V58.82H153.38V59.49H148.71V53.26H153.33V53.93H149.68V55.93H152.87V56.61Z" fill="#0160E7"/>
<path d="M164.94 59.49H163.94L160.24 54.69V59.49H159.24V53.26H160.24L164 58.08V53.26H165L164.94 59.49Z" fill="#0160E7"/>
<path d="M171.58 56.61H168.39V58.82H172.09V59.49H167.43V53.26H172V53.93H168.35V55.93H171.54L171.58 56.61Z" fill="#0160E7"/>
<path d="M176.46 55.65L178.22 53.26H179.36L177 56.35L179.38 59.49H178.23L176.42 57.06L174.6 59.49H173.5L175.88 56.35L173.55 53.26H174.69L176.46 55.65Z" fill="#0160E7"/>
<path d="M186.38 53.93H184V59.49H183V53.93H180.7V53.26H186.38V53.93Z" fill="#0160E7"/>
<path d="M193.56 57.53L193.7 58.35L193.91 57.61L195.36 53.26H196.18L197.6 57.61L197.8 58.36L197.96 57.52L199.1 53.26H200.1L198.32 59.49H197.44L195.89 55L195.78 54.53L195.66 55L194.09 59.54H193.21L191.43 53.31H192.43L193.56 57.53Z" fill="#0160E7"/>
<path d="M207.56 56.5799C207.573 57.1316 207.45 57.678 207.2 58.1699C206.973 58.595 206.625 58.9431 206.2 59.1699C205.72 59.4102 205.191 59.5352 204.655 59.5352C204.118 59.5352 203.589 59.4102 203.11 59.1699C202.686 58.9417 202.338 58.594 202.11 58.1699C201.85 57.6953 201.719 57.1609 201.73 56.6199V56.1699C201.694 55.6326 201.786 55.0943 202 54.5999C202.226 54.1588 202.573 53.7912 203 53.5399C203.475 53.2922 204.004 53.1683 204.54 53.1799C205.079 53.1684 205.611 53.2922 206.09 53.5399C206.522 53.781 206.87 54.1471 207.09 54.5899C207.339 55.0824 207.462 55.6284 207.45 56.1799L207.56 56.5799ZM206.56 56.1799C206.604 55.5684 206.418 54.9624 206.04 54.4799C205.651 54.0964 205.126 53.8814 204.58 53.8814C204.034 53.8814 203.509 54.0964 203.12 54.4799C202.745 54.9421 202.553 55.5256 202.58 56.1199V56.5799C202.546 57.1858 202.734 57.7832 203.11 58.2599C203.294 58.4659 203.521 58.6283 203.775 58.7356C204.029 58.8428 204.304 58.8921 204.58 58.8799C204.849 58.8962 205.119 58.8527 205.37 58.7524C205.621 58.6521 205.846 58.4976 206.03 58.2999C206.4 57.8281 206.588 57.2389 206.56 56.6399V56.1799Z" fill="#0160E7"/>
<path d="M212.48 57.0001H210.75V59.5201H209.75V53.2601H212.18C212.851 53.2187 213.518 53.3864 214.09 53.7401C214.309 53.8993 214.485 54.1108 214.602 54.3552C214.719 54.5997 214.773 54.8694 214.76 55.1401C214.759 55.5067 214.628 55.861 214.39 56.1401C214.121 56.442 213.775 56.6664 213.39 56.7901L215.12 59.4301V59.4801H214.12L212.48 57.0001ZM210.75 56.3301H212.24C212.648 56.349 213.051 56.2369 213.39 56.0101C213.525 55.9142 213.634 55.7864 213.707 55.638C213.78 55.4897 213.816 55.3254 213.81 55.1601C213.823 54.9915 213.793 54.8224 213.723 54.6685C213.653 54.5146 213.546 54.381 213.41 54.2801C213.06 54.0529 212.647 53.941 212.23 53.9601H210.75V56.3301Z" fill="#0160E7"/>
<path d="M217.88 58.82H221.37V59.49H216.91V53.26H217.91L217.88 58.82Z" fill="#0160E7"/>
<path d="M223.23 59.49V53.26H225.31C225.894 53.2483 226.472 53.3715 227 53.62C227.47 53.8347 227.866 54.1824 228.14 54.62C228.411 55.0841 228.553 55.6125 228.55 56.15V56.54C228.56 57.0834 228.421 57.6191 228.15 58.09C227.872 58.5284 227.473 58.876 227 59.09C226.455 59.3314 225.866 59.4541 225.27 59.45L223.23 59.49ZM224.23 53.93V58.82H225.23C225.868 58.8571 226.495 58.6456 226.98 58.23C227.193 58.0077 227.358 57.7438 227.465 57.4547C227.572 57.1656 227.618 56.8577 227.6 56.55V56.18C227.618 55.8794 227.575 55.5782 227.474 55.2947C227.372 55.0111 227.215 54.751 227.01 54.53C226.785 54.3249 226.521 54.1663 226.235 54.0633C225.948 53.9603 225.644 53.915 225.34 53.93H224.23Z" fill="#0160E7"/>
<path d="M88.0901 42.0001C88.1237 41.3537 87.9131 40.7184 87.5001 40.2201C86.9292 39.6571 86.2484 39.218 85.5001 38.9301C83.8579 38.4262 82.3248 37.619 80.9801 36.5501C80.47 36.0752 80.0703 35.4942 79.8094 34.8479C79.5485 34.2017 79.4327 33.506 79.4701 32.8101C79.4541 32.0878 79.5992 31.3711 79.895 30.712C80.1908 30.053 80.6298 29.4681 81.1801 29.0001C82.4383 27.9745 84.0282 27.4445 85.6501 27.5101C86.4704 27.4769 87.289 27.6075 88.0582 27.8943C88.8274 28.181 89.5317 28.6181 90.1301 29.1801C90.6954 29.7179 91.1374 30.3719 91.4257 31.0969C91.714 31.822 91.8417 32.6009 91.8001 33.3801V33.4501H88.1101C88.1463 32.6816 87.9128 31.9247 87.4501 31.3101C87.2223 31.0603 86.9471 30.8584 86.6406 30.7159C86.334 30.5735 86.0022 30.4935 85.6644 30.4804C85.3266 30.4674 84.9896 30.5217 84.673 30.6401C84.3564 30.7584 84.0665 30.9386 83.8201 31.1701C83.3944 31.6356 83.1682 32.2496 83.1901 32.8801C83.1812 33.179 83.2395 33.4761 83.3607 33.7496C83.4818 34.023 83.6627 34.2658 83.8901 34.4601C84.6377 35.0306 85.4626 35.4918 86.3401 35.8301C87.8808 36.2815 89.295 37.0861 90.4701 38.1801C91.4163 39.2214 91.9123 40.5945 91.8501 42.0001C91.8995 42.7505 91.7744 43.5021 91.4847 44.1961C91.1949 44.8901 90.7484 45.5075 90.1801 46.0001C88.919 46.9909 87.3418 47.4917 85.7401 47.4101C84.0151 47.4254 82.3387 46.8383 81.0001 45.7501C80.3166 45.2003 79.7773 44.4924 79.4288 43.6874C79.0803 42.8824 78.9332 42.0047 79.0001 41.1301V41.0501H82.7001C82.6122 41.9727 82.8845 42.8936 83.4601 43.6201C83.7648 43.9024 84.1247 44.1184 84.5172 44.2544C84.9097 44.3904 85.3261 44.4434 85.7401 44.4101C86.0637 44.4355 86.389 44.3916 86.6942 44.2812C86.9995 44.1709 87.2776 43.9966 87.5101 43.7701C87.9233 43.2763 88.131 42.6426 88.0901 42.0001Z" fill="#0160E7"/>
<path d="M113 40.1501C113.056 41.1119 112.922 42.0752 112.604 42.9848C112.287 43.8943 111.792 44.7322 111.15 45.4501C109.814 46.6785 108.065 47.3602 106.25 47.3602C104.435 47.3602 102.686 46.6785 101.35 45.4501C100.063 43.9952 99.4047 42.0893 99.5201 40.1501V34.7401C99.4081 32.7953 100.065 30.8845 101.35 29.4201C101.981 28.7718 102.742 28.2646 103.583 27.9319C104.424 27.5993 105.326 27.4487 106.23 27.4901C107.138 27.4495 108.044 27.6003 108.89 27.9328C109.736 28.2653 110.503 28.7721 111.14 29.4201C111.785 30.1409 112.281 30.9819 112.6 31.8948C112.919 32.8077 113.055 33.7746 113 34.7401V40.1501ZM109.24 34.6901C109.317 33.5919 109.048 32.4972 108.47 31.5601C108.214 31.2116 107.875 30.9323 107.484 30.7473C107.093 30.5623 106.662 30.4773 106.23 30.5001C105.8 30.4733 105.37 30.5555 104.98 30.7391C104.591 30.9226 104.253 31.2016 104 31.5501C103.444 32.4991 103.187 33.593 103.26 34.6901V40.1501C103.175 41.2514 103.434 42.3519 104 43.3001C104.27 43.6289 104.61 43.8936 104.995 44.0754C105.379 44.2572 105.8 44.3515 106.225 44.3515C106.651 44.3515 107.071 44.2572 107.456 44.0754C107.84 43.8936 108.18 43.6289 108.45 43.3001C109.032 42.3574 109.302 41.255 109.22 40.1501L109.24 34.6901Z" fill="#0160E7"/>
<path d="M125 44.07H132.06V47.07H121.26V27.77H125V44.07Z" fill="#0160E7"/>
<path d="M152.5 27.77V40.92C152.556 41.7982 152.423 42.6782 152.111 43.5009C151.799 44.3236 151.314 45.07 150.69 45.69C149.346 46.7736 147.671 47.3646 145.945 47.3646C144.219 47.3646 142.544 46.7736 141.2 45.69C140.578 45.07 140.096 44.325 139.784 43.5044C139.472 42.6838 139.338 41.8064 139.39 40.93V27.77H143.16V40.92C143.084 41.8461 143.343 42.7687 143.89 43.52C144.151 43.8013 144.471 44.0216 144.827 44.1651C145.183 44.3085 145.567 44.3717 145.95 44.35C146.333 44.3763 146.718 44.3193 147.077 44.1829C147.436 44.0466 147.761 43.8341 148.03 43.56C148.581 42.7959 148.837 41.8581 148.75 40.92V27.77H152.5Z" fill="#0160E7"/>
<path d="M172.91 30.78H168.56V47.09H164.79V30.78H160.46V27.78H172.91V30.78Z" fill="#0160E7"/>
<path d="M183.92 47.09H180.17V27.77H183.92V47.09Z" fill="#0160E7"/>
<path d="M206.4 40.1501C206.456 41.1119 206.321 42.0752 206.004 42.9848C205.686 43.8943 205.192 44.7322 204.55 45.4501C203.214 46.6785 201.465 47.3602 199.65 47.3602C197.835 47.3602 196.086 46.6785 194.75 45.4501C193.463 43.9952 192.805 42.0893 192.92 40.1501V34.7401C192.808 32.7953 193.465 30.8845 194.75 29.4201C195.381 28.7718 196.142 28.2646 196.983 27.9319C197.824 27.5993 198.726 27.4487 199.63 27.4901C200.538 27.4495 201.444 27.6003 202.29 27.9328C203.136 28.2653 203.903 28.7721 204.54 29.4201C205.185 30.1409 205.681 30.9819 206 31.8948C206.319 32.8077 206.455 33.7746 206.4 34.7401V40.1501ZM202.64 34.6901C202.717 33.5919 202.448 32.4972 201.87 31.5601C201.614 31.2116 201.275 30.9323 200.884 30.7473C200.493 30.5623 200.062 30.4773 199.63 30.5001C199.2 30.4733 198.77 30.5555 198.38 30.7391C197.99 30.9226 197.653 31.2016 197.4 31.5501C196.844 32.4991 196.587 33.593 196.66 34.6901V40.1501C196.581 41.2535 196.846 42.3542 197.42 43.3001C197.69 43.6289 198.03 43.8936 198.415 44.0754C198.799 44.2572 199.219 44.3515 199.645 44.3515C200.07 44.3515 200.491 44.2572 200.875 44.0754C201.26 43.8936 201.6 43.6289 201.87 43.3001C202.452 42.3574 202.721 41.255 202.64 40.1501V34.6901Z" fill="#0160E7"/>
<path d="M228.7 47.09H225L219 34.74H218.92V47.09H215.14V27.77H219L224.91 40.11H224.99V27.77H228.74L228.7 47.09Z" fill="#0160E7"/>
<path d="M87.9999 15C88.0358 14.352 87.829 13.7138 87.4199 13.21C86.8295 12.6426 86.1281 12.2034 85.3599 11.92C83.7198 11.4184 82.1896 10.6108 80.8499 9.54001C80.337 9.06732 79.9354 8.48661 79.6743 7.83982C79.4132 7.19304 79.2989 6.49633 79.3399 5.80001C79.3204 5.06612 79.4678 4.33739 79.7709 3.66875C80.0741 3.0001 80.5251 2.40901 81.0899 1.94001C82.3381 0.907479 83.9208 0.366885 85.5399 0.420014C86.3567 0.390666 87.1712 0.523103 87.9366 0.809706C88.702 1.09631 89.4032 1.53142 89.9999 2.09001C90.563 2.62948 91.0036 3.28371 91.2917 4.00837C91.5799 4.73302 91.7088 5.51115 91.6699 6.29001V6.37001H87.9999C88.0367 5.59839 87.8033 4.83807 87.3399 4.22001C86.8755 3.72277 86.2336 3.42908 85.5537 3.40286C84.8739 3.37664 84.2112 3.62001 83.7099 4.08001C83.2854 4.55033 83.0596 5.16679 83.0799 5.80001C83.0725 6.09729 83.1315 6.39246 83.2526 6.66406C83.3737 6.93565 83.5538 7.17682 83.7799 7.37001C84.5236 7.94093 85.3453 8.40229 86.2199 8.74001C87.7642 9.19497 89.1816 10.0029 90.3599 11.1C90.8419 11.6232 91.2134 12.2383 91.4523 12.9084C91.6911 13.5785 91.7923 14.2899 91.7499 15C91.7884 15.7389 91.6579 16.4768 91.3686 17.1578C91.0792 17.8388 90.6385 18.4448 90.0799 18.93C88.8223 19.9285 87.2435 20.4334 85.6399 20.35C83.9049 20.3844 82.2118 19.8154 80.8499 18.74C80.1753 18.1829 79.6456 17.4709 79.306 16.6646C78.9665 15.8583 78.8271 14.9818 78.8999 14.11V14.03H82.5999C82.5127 14.9541 82.7809 15.8767 83.3499 16.61C83.6589 16.8883 84.0212 17.101 84.4148 17.2351C84.8085 17.3692 85.2252 17.4219 85.6399 17.39C85.9635 17.4161 86.289 17.3725 86.5943 17.2621C86.8997 17.1517 87.1778 16.9771 87.4099 16.75C87.8245 16.2644 88.0358 15.6376 87.9999 15Z" fill="#0160E7"/>
<path d="M109.17 13.0799C109.226 14.0432 109.092 15.0082 108.775 15.9194C108.457 16.8306 107.963 17.6702 107.32 18.3899C105.984 19.6183 104.235 20.3001 102.42 20.3001C100.605 20.3001 98.8563 19.6183 97.5201 18.3899C96.2331 16.9309 95.5753 15.0221 95.6901 13.0799V7.66993C95.5764 5.72792 96.2341 3.81956 97.5201 2.35993C98.1504 1.71035 98.9112 1.20162 99.7523 0.867246C100.593 0.532868 101.496 0.380418 102.4 0.419929C103.309 0.382459 104.215 0.535729 105.061 0.869865C105.906 1.204 106.673 1.71159 107.31 2.35993C107.955 3.07828 108.452 3.9174 108.771 4.82881C109.091 5.74022 109.226 6.70585 109.17 7.66993V13.0799ZM105.41 7.62993C105.483 6.5289 105.214 5.43214 104.64 4.48993C104.383 4.14263 104.044 3.86476 103.653 3.68144C103.262 3.49812 102.831 3.41512 102.4 3.43993C101.97 3.41314 101.54 3.49533 101.15 3.67888C100.761 3.86242 100.423 4.14139 100.17 4.48993C99.6134 5.4384 99.3555 6.53267 99.4301 7.62993V13.0799C99.3538 14.185 99.6154 15.2871 100.18 16.2399C100.451 16.5688 100.792 16.8337 101.177 17.0155C101.563 17.1974 101.984 17.2917 102.41 17.2917C102.836 17.2917 103.257 17.1974 103.643 17.0155C104.028 16.8337 104.369 16.5688 104.64 16.2399C105.217 15.2915 105.486 14.1875 105.41 13.0799V7.62993Z" fill="#0160E7"/>
<path d="M127.2 20H123.44V12H117.44V20H113.66V0.699951H117.44V8.99995H123.44V0.699951H127.2V20Z" fill="#0160E7"/>
<path d="M141.09 15.89H136L135 20H131.19L136.59 0.699951H140.52L145.94 20H142.14L141.09 15.89ZM136.76 12.89H140.32L138.58 6.05995H138.5L136.76 12.89Z" fill="#0160E7"/>
<path d="M154.31 0.699951L157.77 14.89H157.85L161.35 0.699951H166.28V20H162.52V14.41L162.84 6.89995H162.76L159.07 20H156.56L152.92 6.99995H152.84L153.17 14.4V20H149.41V0.699951H154.31Z" fill="#0160E7"/>
<path d="M191.58 13H191.66L193.74 0.699951H197.4L193.67 20H190.16L187.44 8.18995H187.36L184.67 20H181.16L177.44 0.699951H181.1L183.18 13H183.26L186.05 0.699951H188.75L191.58 13Z" fill="#0160E7"/>
<path d="M211.46 11.54H205V17H212.63V20H201.19V0.699951H212.57V3.69995H205V8.52995H211.49L211.46 11.54Z" fill="#0160E7"/>
<path d="M216.6 20V0.700004H222.29C223.962 0.586764 225.623 1.04517 227 2C227.576 2.48589 228.029 3.10226 228.319 3.79793C228.61 4.4936 228.73 5.24851 228.67 6C228.666 6.85509 228.435 7.69377 228 8.43C227.588 9.15421 226.943 9.71799 226.17 10.03C226.632 10.1208 227.071 10.3052 227.46 10.5717C227.849 10.8383 228.179 11.1814 228.43 11.58C228.927 12.4282 229.18 13.3972 229.16 14.38C229.214 15.1549 229.1 15.9322 228.825 16.6589C228.551 17.3855 228.123 18.0443 227.57 18.59C226.292 19.6063 224.68 20.1091 223.05 20H216.6ZM220.38 8.84H222.47C222.795 8.85183 223.119 8.79866 223.423 8.6836C223.727 8.56855 224.005 8.39393 224.24 8.17C224.677 7.65674 224.896 6.99269 224.85 6.32C224.883 5.9615 224.845 5.6 224.736 5.2566C224.628 4.91321 224.453 4.59481 224.22 4.32C223.956 4.09329 223.649 3.92095 223.318 3.81285C222.987 3.70475 222.637 3.663 222.29 3.69H220.38V8.84ZM220.38 11.48V17H223.05C223.378 17.0258 223.707 16.9791 224.015 16.8633C224.322 16.7475 224.601 16.5654 224.83 16.33C225.272 15.7618 225.483 15.0473 225.42 14.33C225.469 13.5892 225.295 12.8507 224.92 12.21C224.737 11.9564 224.492 11.7541 224.208 11.6227C223.925 11.4914 223.612 11.4353 223.3 11.46L220.38 11.48Z" fill="#0160E7"/>
</svg>
