<svg width="16" height="16" viewBox="0 0 16 16" fill="none" xmlns="http://www.w3.org/2000/svg">
<path d="M0.341436 7.93046C0.341061 9.27923 0.695061 10.5962 1.36819 11.757L0.277061 15.7231L4.35406 14.6589C5.4817 15.27 6.74515 15.5903 8.02906 15.5903H8.03244C12.2709 15.5903 15.7211 12.1568 15.7229 7.9365C15.7237 5.89147 14.9244 3.96846 13.4723 2.5217C12.0204 1.07505 10.0895 0.277936 8.03212 0.277003C3.79319 0.277003 0.343249 3.71037 0.341499 7.93046" fill="url(#paint0_linear_42_30)"/>
<path d="M0.066875 7.92798C0.0664375 9.32528 0.433125 10.6894 1.13025 11.8917L0 16L4.22319 14.8976C5.38681 15.5292 6.69694 15.8622 8.03006 15.8627H8.0335C12.424 15.8627 15.9981 12.3057 16 7.93433C16.0008 5.81582 15.1727 3.82368 13.6687 2.32508C12.1646 0.826671 10.1646 0.000871097 8.0335 0C3.64225 0 0.068625 3.55657 0.066875 7.92798ZM2.58194 11.6846L2.42425 11.4355C1.76137 10.3862 1.4115 9.17359 1.412 7.92848C1.41337 4.29507 4.38363 1.339 8.036 1.339C9.80475 1.33975 11.467 2.02617 12.7172 3.27159C13.9674 4.51714 14.6554 6.17284 14.6549 7.93383C14.6533 11.5672 11.683 14.5237 8.0335 14.5237H8.03088C6.84256 14.5231 5.67712 14.2054 4.66075 13.605L4.41888 13.4622L1.91275 14.1163L2.58194 11.6846Z" fill="url(#paint1_linear_42_30)"/>
<path d="M6.04237 4.61357C5.89325 4.28361 5.73631 4.27696 5.5945 4.27117C5.47837 4.26619 5.34562 4.26656 5.213 4.26656C5.08025 4.26656 4.86456 4.31628 4.68225 4.51445C4.49975 4.71282 3.9855 5.19217 3.9855 6.16711C3.9855 7.14212 4.69881 8.08433 4.79825 8.21668C4.89781 8.34878 6.17531 10.4135 8.19856 11.2078C9.88006 11.8679 10.2222 11.7367 10.5872 11.7036C10.9522 11.6706 11.7649 11.2243 11.9307 10.7616C12.0967 10.2989 12.0967 9.90231 12.0469 9.81944C11.9972 9.73687 11.8644 9.68728 11.6654 9.58822C11.4662 9.4891 10.4876 9.00969 10.3052 8.94355C10.1227 8.87747 9.99 8.84449 9.85725 9.04291C9.7245 9.24103 9.34331 9.68728 9.22712 9.81944C9.11106 9.9519 8.99487 9.96839 8.79587 9.86927C8.59668 9.76985 7.95562 9.56084 7.19506 8.88581C6.60331 8.36053 6.20381 7.71188 6.08768 7.51346C5.97156 7.31534 6.07525 7.20795 6.17506 7.1092C6.2645 7.02041 6.37418 6.8778 6.47381 6.76213C6.57306 6.6464 6.60618 6.56383 6.67256 6.43168C6.739 6.29939 6.70575 6.18366 6.65606 6.08455C6.60618 5.98543 6.21937 5.00538 6.04237 4.61357Z" fill="white"/>
<defs>
<linearGradient id="paint0_linear_42_30" x1="800" y1="1600" x2="800" y2="0" gradientUnits="userSpaceOnUse">
<stop stop-color="#1FAF38"/>
<stop offset="1" stop-color="#60D669"/>
</linearGradient>
<linearGradient id="paint1_linear_42_30" x1="800" y1="1600" x2="800" y2="0" gradientUnits="userSpaceOnUse">
<stop stop-color="#F9F9F9"/>
<stop offset="1" stop-color="white"/>
</linearGradient>
</defs>
</svg>
