<svg width="16" height="16" viewBox="0 0 16 16" fill="none" xmlns="http://www.w3.org/2000/svg">
<path d="M15.0667 16C13.2148 16 11.3816 15.6 9.56711 14.8C7.75259 14 6.1043 12.8593 4.62222 11.3778C3.14074 9.8963 2 8.25185 1.2 6.44444C0.4 4.63704 0 2.8 0 0.933334V0H5.24444L6.06667 4.46667L3.53333 7.02222C3.85926 7.6 4.22222 8.14815 4.62222 8.66667C5.02222 9.18519 5.45185 9.66667 5.91111 10.1111C6.34074 10.5407 6.81126 10.952 7.32267 11.3449C7.83407 11.7378 8.38578 12.1043 8.97778 12.4444L11.5556 9.86667L16 10.7778V16H15.0667Z" fill="white"/>
</svg>
