<svg width="36" height="36" viewBox="0 0 36 36" fill="none" xmlns="http://www.w3.org/2000/svg">
<path d="M36 18C36 27.9411 27.9411 36 18 36C8.05887 36 0 27.9411 0 18C0 8.05887 8.05887 0 18 0C27.9411 0 36 8.05887 36 18Z" fill="white"/>
<path d="M22.8521 19.2225L23.4308 15.449H19.8103V13.0003C19.8103 11.9678 20.3161 10.9616 21.9378 10.9616H23.5838V7.7491C23.5838 7.7491 22.0899 7.49414 20.6616 7.49414C17.6799 7.49414 15.7309 9.30132 15.7309 12.573V15.449H12.4164V19.2225H15.7309V28.3446C16.4057 28.4503 17.0876 28.5033 17.7706 28.5032C18.4536 28.5034 19.1356 28.4503 19.8103 28.3446V19.2225H22.8521Z" fill="#0160E7"/>
</svg>
