<svg width="36" height="36" viewBox="0 0 36 36" fill="none" xmlns="http://www.w3.org/2000/svg">
<path d="M36 18C36 27.9411 27.9411 36 18 36C8.05887 36 0 27.9411 0 18C0 8.05887 8.05887 0 18 0C27.9411 0 36 8.05887 36 18Z" fill="white"/>
<path d="M18 12.4159C19.808 12.4159 20.032 12.4159 20.752 12.4479C21.408 12.4799 21.776 12.5919 22.016 12.6879C22.336 12.8159 22.56 12.9599 22.8 13.1999C23.04 13.4399 23.184 13.6639 23.312 13.9839C23.408 14.2239 23.52 14.5759 23.552 15.2479C23.584 15.9679 23.584 16.1759 23.584 17.9999C23.584 19.8239 23.584 20.0319 23.552 20.7519C23.52 21.4079 23.408 21.7759 23.312 22.0159C23.184 22.3359 23.04 22.5599 22.8 22.7999C22.56 23.0399 22.336 23.1839 22.016 23.3119C21.776 23.4079 21.424 23.5199 20.752 23.5519C20.032 23.5839 19.824 23.5839 18 23.5839C16.192 23.5839 15.968 23.5839 15.248 23.5519C14.592 23.5199 14.224 23.4079 13.984 23.3119C13.664 23.1839 13.44 23.0399 13.2 22.7999C12.96 22.5599 12.816 22.3359 12.688 22.0159C12.592 21.7759 12.48 21.4239 12.448 20.7519C12.416 20.0319 12.416 19.8239 12.416 17.9999C12.416 16.1759 12.416 15.9679 12.448 15.2479C12.48 14.5919 12.592 14.2239 12.688 13.9839C12.816 13.6639 12.96 13.4399 13.2 13.1999C13.44 12.9599 13.664 12.8159 13.984 12.6879C14.224 12.5919 14.576 12.4799 15.248 12.4479C15.968 12.4319 16.176 12.4159 18 12.4159ZM18 11.1999C16.16 11.1999 15.92 11.1999 15.2 11.2479C14.48 11.2799 13.984 11.3919 13.552 11.5679C13.104 11.7439 12.72 11.9679 12.352 12.3519C11.968 12.7359 11.744 13.1039 11.568 13.5519C11.392 13.9839 11.28 14.4799 11.248 15.1999C11.216 15.9199 11.2 16.1599 11.2 17.9999C11.2 19.8399 11.2 20.0799 11.248 20.7999C11.28 21.5199 11.392 22.0159 11.568 22.4479C11.744 22.8959 11.968 23.2799 12.352 23.6479C12.736 24.0319 13.104 24.2559 13.552 24.4319C13.984 24.6079 14.48 24.7199 15.2 24.7519C15.92 24.7839 16.16 24.7999 18 24.7999C19.84 24.7999 20.08 24.7999 20.8 24.7519C21.52 24.7199 22.016 24.6079 22.448 24.4319C22.896 24.2559 23.28 24.0319 23.648 23.6479C24.032 23.2639 24.256 22.8959 24.432 22.4479C24.608 22.0159 24.72 21.5199 24.752 20.7999C24.784 20.0799 24.8 19.8399 24.8 17.9999C24.8 16.1599 24.8 15.9199 24.752 15.1999C24.72 14.4799 24.608 13.9839 24.432 13.5519C24.256 13.1039 24.032 12.7199 23.648 12.3519C23.264 11.9679 22.896 11.7439 22.448 11.5679C22.016 11.3919 21.52 11.2799 20.8 11.2479C20.064 11.1999 19.84 11.1999 18 11.1999Z" fill="#0160E7"/>
<path d="M18 14.5119C16.064 14.5119 14.512 16.0799 14.512 17.9999C14.512 19.9199 16.064 21.4879 18 21.4879C19.936 21.4879 21.488 19.9199 21.488 17.9999C21.488 16.0799 19.92 14.5119 18 14.5119ZM18 20.2719C16.752 20.2719 15.728 19.2639 15.728 17.9999C15.728 16.7359 16.736 15.7279 18 15.7279C19.264 15.7279 20.272 16.7359 20.272 17.9999C20.272 19.2639 19.248 20.2719 18 20.2719Z" fill="#0160E7"/>
<path d="M21.616 15.1838C22.0667 15.1838 22.432 14.8184 22.432 14.3678C22.432 13.9171 22.0667 13.5518 21.616 13.5518C21.1654 13.5518 20.8 13.9171 20.8 14.3678C20.8 14.8184 21.1654 15.1838 21.616 15.1838Z" fill="#0160E7"/>
</svg>
