<svg width="17" height="24" viewBox="0 0 17 24" fill="none" xmlns="http://www.w3.org/2000/svg">
<path d="M8.5 0C3.80747 0 0 3.45589 0 7.71429C0 14.5714 8.5 24 8.5 24C8.5 24 17 14.5714 17 7.71429C17 3.45589 13.1925 0 8.5 0ZM8.5 12C7.82754 12 7.17019 11.7989 6.61106 11.4222C6.05193 11.0454 5.61615 10.51 5.35881 9.88349C5.10147 9.257 5.03414 8.56763 5.16533 7.90255C5.29652 7.23747 5.62034 6.62656 6.09584 6.14706C6.57134 5.66757 7.17716 5.34103 7.83669 5.20874C8.49623 5.07644 9.17985 5.14434 9.80112 5.40384C10.4224 5.66334 10.9534 6.10279 11.327 6.66662C11.7006 7.23044 11.9 7.89332 11.9 8.57143C11.899 9.48044 11.5405 10.3519 10.9031 10.9947C10.2657 11.6375 9.40143 11.999 8.5 12Z" fill="white"/>
</svg>
