<svg width="10" height="14" viewBox="0 0 10 14" fill="none" xmlns="http://www.w3.org/2000/svg">
<path d="M8.15136 13.6246H1.84869C1.43043 13.5996 1.03895 13.4105 0.75941 13.0984C0.479871 12.7863 0.334897 12.3764 0.356028 11.9579V2.04191C0.334897 1.62344 0.479871 1.21356 0.75941 0.90143C1.03895 0.589305 1.43043 0.400196 1.84869 0.375244H8.15136C8.56962 0.400196 8.96111 0.589305 9.24065 0.90143C9.52019 1.21356 9.66516 1.62344 9.64403 2.04191V11.9579C9.66516 12.3764 9.52019 12.7863 9.24065 13.0984C8.96111 13.4105 8.56962 13.5996 8.15136 13.6246ZM1.84869 1.04191C1.60755 1.06738 1.386 1.18636 1.23158 1.37331C1.07716 1.56026 1.00216 1.8003 1.02269 2.04191V11.9579C1.00216 12.1995 1.07716 12.4396 1.23158 12.6265C1.386 12.8135 1.60755 12.9324 1.84869 12.9579H8.15136C8.3925 12.9324 8.61405 12.8135 8.76848 12.6265C8.9229 12.4396 8.99789 12.1995 8.97736 11.9579V2.04191C8.99789 1.8003 8.9229 1.56026 8.76848 1.37331C8.61405 1.18636 8.3925 1.06738 8.15136 1.04191H1.84869Z" fill="white"/>
</svg>
