<svg width="192" height="48" viewBox="0 0 192 48" fill="none" xmlns="http://www.w3.org/2000/svg">
<path d="M26.3668 36.751H23.334L25.8725 47.2887H29.0897L30.7234 40.1708L32.1225 47.2887H35.1888L37.9955 36.751H35.1553L33.7897 44.6642L32.2733 36.751H29.3578L27.724 44.5926L26.3668 36.751Z" fill="white"/>
<path d="M22.6219 37.0768L22.1694 39.0173C22.1694 39.0173 18.7177 37.9039 18.3407 39.3036C17.9637 40.7033 20.8541 41.3237 20.8541 41.3237C20.8541 41.3237 23.7361 42.3257 23.091 44.8468C22.4459 47.3679 19.6058 47.7179 19.6058 47.7179C18.1024 47.8534 16.5863 47.6603 15.1738 47.1532L15.6262 45.1013C15.6262 45.1013 19.0696 46.7397 19.9828 45.2445C20.896 43.7493 18.2067 42.9461 18.2067 42.9461C18.2067 42.9461 14.0177 41.5066 15.8189 38.2299C17.2935 35.4543 22.6219 37.0768 22.6219 37.0768Z" fill="white"/>
<path d="M46.1774 37.0768L45.725 39.0173C45.725 39.0173 42.2732 37.9039 41.8962 39.3036C41.5192 40.7034 44.4012 41.3555 44.4012 41.3555C44.4012 41.3555 47.2833 42.3576 46.6382 44.8787C45.993 47.3998 43.1864 47.7179 43.1864 47.7179C41.6803 47.8533 40.1616 47.6602 38.7461 47.1533L39.2069 45.1014C39.2069 45.1014 42.6502 46.7397 43.5634 45.2445C44.4766 43.7494 41.7789 42.9461 41.7789 42.9461C41.7789 42.9461 37.6234 41.4669 39.3744 38.1743C40.8741 35.4544 46.1774 37.0768 46.1774 37.0768Z" fill="white"/>
<path d="M31.9707 31.8678C32.6035 29.536 34.0287 27.4674 36.0256 25.9826C40.2146 23.199 42.527 24.225 47.5035 22.6741C50.564 21.7128 53.3524 20.0996 55.6553 17.958C55.4968 20.9003 54.4034 23.728 52.5191 26.0689C50.6348 28.4099 48.0479 30.1543 45.099 31.0725C41.1781 32.4086 37.6426 31.9235 31.9707 31.8678Z" fill="white"/>
<path d="M28.8051 31.8678C28.1775 29.5359 26.7547 27.4666 24.7585 25.9826C20.6114 23.199 18.2572 24.225 13.2807 22.6741C10.2201 21.7128 7.43176 20.0996 5.12891 17.958C5.28738 20.9003 6.38073 23.728 8.26503 26.0689C10.1493 28.4099 12.7362 30.1543 15.6852 31.0725C19.6061 32.4086 23.1416 31.9235 28.8051 31.8678Z" fill="white"/>
<path d="M40.791 32.8139C43.2713 32.723 45.7071 32.1605 47.9542 31.1596C47.9542 31.1596 56.8181 31.772 60.0269 30.7461C60.0269 30.7461 55.7709 35.7883 52.2605 36.3132C52.2605 36.3291 43.296 34.476 40.791 32.8139Z" fill="#A8D1ED"/>
<path d="M19.2694 32.8139C16.7865 32.7225 14.348 32.1601 12.0978 31.1596C12.0978 31.1596 3.20039 31.8118 0 30.7461C0 30.7461 4.25602 35.7883 7.76639 36.3132C7.76639 36.3291 16.756 34.476 19.2694 32.8139Z" fill="#A8D1ED"/>
<path d="M8.26953 38.3098C8.26953 38.3098 30.3288 26.4837 51.1062 38.3098C51.1062 38.3098 33.9313 29.2672 8.26953 38.3098Z" fill="white"/>
<path d="M45.3841 13.4087C45.3841 16.6695 45.1579 20.5664 42.7618 22.666C40.4926 22.1752 38.1112 22.5463 36.1264 23.6999C34.92 24.3362 33.0685 25.2905 31.4766 29.2193C30.5215 29.3147 31.4766 29.2193 30.4126 29.2193C29.8768 29.2472 29.3398 29.2472 28.8041 29.2193C28.4271 26.1972 25.7461 24.4475 24.414 23.6522C21.7414 21.9185 18.7924 22.7694 16.966 22.4593C15.1976 19.7973 14.4135 16.6521 14.7374 13.5201C15.1228 9.82825 16.9358 6.40297 19.8262 3.90594C22.7167 1.40891 26.4794 0.0173258 30.3875 0C38.4304 0 45.3841 7.1577 45.3841 13.4087Z" fill="white"/>
<path d="M30.2033 22.268C29.1967 22.2751 28.1937 22.1548 27.2207 21.9101C26.4116 21.7237 25.6253 21.4571 24.8749 21.1148L24.0371 21.9101H22.9814L22.8223 16.2953H23.8779C24.1457 16.8771 24.4507 17.4428 24.7911 17.9893C25.1495 18.5665 25.5799 19.1005 26.0729 19.5799C26.561 20.0597 27.1267 20.4624 27.7485 20.7729C28.4223 21.0897 29.1666 21.248 29.9184 21.2341C30.8379 21.291 31.7481 21.0312 32.4821 20.5025C32.7679 20.2803 32.9971 19.9997 33.1523 19.6815C33.3076 19.3633 33.3849 19.0159 33.3785 18.6653C33.382 18.3733 33.3159 18.0844 33.1854 17.82C33.0548 17.5556 32.8631 17.3226 32.6245 17.1383C31.9234 16.6411 31.1264 16.2791 30.2787 16.0726L28.3769 15.5239C27.7988 15.3569 27.2542 15.1819 26.7432 15.0069C25.6977 14.6818 24.7843 14.0566 24.1292 13.2175C23.5703 12.4582 23.2772 11.5511 23.2914 10.6248C23.2942 10.0168 23.4463 9.41772 23.7355 8.87517C24.0526 8.29559 24.4918 7.784 25.0257 7.37205C25.6514 6.9171 26.3579 6.57231 27.1118 6.35407C27.9996 6.08331 28.9273 5.94907 29.8598 5.95642C30.7816 5.94841 31.6994 6.07173 32.5826 6.32226C33.2688 6.5029 33.9362 6.74248 34.5766 7.03803L35.3055 6.36202H36.3778L36.4784 11.6587H35.4228C35.1714 11.0861 34.8866 10.5055 34.585 9.90906C34.291 9.36727 33.9311 8.86011 33.5126 8.39799C33.1172 7.98207 32.6461 7.63723 32.1218 7.38001C31.5435 7.12103 30.9096 6.99307 30.2703 7.00622C29.486 6.97492 28.716 7.21199 28.1004 7.67427C27.836 7.87017 27.6229 8.12137 27.4775 8.4083C27.3322 8.69523 27.2587 9.01014 27.2626 9.32849C27.2543 9.61765 27.3157 9.90478 27.442 10.168C27.5683 10.4313 27.7562 10.6637 27.9915 10.8475C28.6636 11.3499 29.4359 11.7178 30.2619 11.9291L32.1218 12.4779C32.7502 12.6608 33.3199 12.8358 33.7974 13.0028C34.8457 13.3266 35.7831 13.9116 36.5119 14.6968C37.0384 15.3509 37.3561 16.1347 37.4274 16.9552C37.4987 17.7756 37.3205 18.5982 36.914 19.3254C36.5737 19.9544 36.0831 20.4991 35.4814 20.916C34.796 21.3944 34.0276 21.7551 33.211 21.9817C32.2282 22.2145 31.2151 22.3109 30.2033 22.268Z" fill="#0160E7"/>
<path d="M68.0604 42.3574L70.0711 46.3975L72.0483 42.3574H73.1374V47.3121H72.2996V45.3875L72.375 43.3038L70.3559 47.2803H69.7359L67.7169 43.3038L67.8006 45.3796V47.3042H67.0215V42.3574H68.0604Z" fill="#F9F8F7"/>
<path d="M79.9506 44.9978C79.9634 45.4376 79.8566 45.8731 79.6406 46.2623C79.4493 46.5996 79.158 46.8761 78.8028 47.0576C78.3989 47.2544 77.9497 47.3528 77.4958 47.3439C77.0467 47.3494 76.6032 47.2482 76.2056 47.0497C75.8521 46.8659 75.5614 46.59 75.3678 46.2544C75.1537 45.8756 75.0442 45.4515 75.0495 45.0217V44.6638C75.0396 44.2268 75.1462 43.7946 75.3594 43.4072C75.5456 43.0543 75.8369 42.7611 76.1972 42.5642C76.5954 42.3681 77.039 42.2697 77.4874 42.2779C77.9414 42.269 78.3905 42.3674 78.7944 42.5642C79.1567 42.7551 79.449 43.0465 79.6322 43.3993C79.8472 43.7889 79.9539 44.2241 79.9422 44.6638L79.9506 44.9978ZM79.1128 44.6797C79.1494 44.1933 78.9941 43.7114 78.6771 43.3277C78.522 43.1664 78.331 43.0398 78.118 42.9573C77.905 42.8748 77.6753 42.8383 77.4456 42.8505C77.2197 42.8396 76.9942 42.8768 76.7854 42.9594C76.5767 43.042 76.39 43.1678 76.2391 43.3277C75.9186 43.6922 75.7542 44.1577 75.7783 44.632V44.9978C75.7506 45.4822 75.915 45.9589 76.2391 46.3339C76.5627 46.6404 77.0011 46.8125 77.4581 46.8125C77.9152 46.8125 78.3536 46.6404 78.6771 46.3339C78.9906 45.9604 79.1486 45.4906 79.1212 45.0137L79.1128 44.6797Z" fill="#F9F8F7"/>
<path d="M83.7816 46.4453L85.541 42.3574H86.4291L84.1419 47.3121H83.4214L81.1426 42.3574H82.0306L83.7816 46.4453Z" fill="#F9F8F7"/>
<path d="M91.3192 45.0217H88.6466V46.7793H91.7465V47.3121H87.834V42.3574H91.7046V42.8903H88.6466V44.4809H91.3192V45.0217Z" fill="#F9F8F7"/>
<path d="M100.812 42.8903H98.8599V47.3121H98.0221V42.8903H96.0449V42.3574H100.812V42.8903Z" fill="#F9F8F7"/>
<path d="M106.979 44.9977C106.991 45.4364 106.887 45.8709 106.678 46.2622C106.483 46.5972 106.193 46.873 105.84 47.0575C105.437 47.2486 104.992 47.3481 104.541 47.3481C104.091 47.3481 103.646 47.2486 103.243 47.0575C102.891 46.8717 102.601 46.5962 102.405 46.2622C102.191 45.8834 102.081 45.4593 102.087 45.0295V44.6716C102.077 44.2346 102.183 43.8024 102.397 43.415C102.583 43.0621 102.874 42.7689 103.234 42.572C103.633 42.3759 104.076 42.2775 104.525 42.2857C104.978 42.2769 105.428 42.3752 105.832 42.572C106.191 42.7661 106.483 43.0565 106.669 43.4071C106.878 43.7987 106.981 44.233 106.971 44.6716L106.979 44.9977ZM106.142 44.6796C106.176 44.1922 106.017 43.7101 105.697 43.3275C105.542 43.1662 105.351 43.0397 105.138 42.9572C104.925 42.8746 104.696 42.8381 104.466 42.8504C104.24 42.8395 104.015 42.8767 103.806 42.9592C103.597 43.0418 103.41 43.1676 103.259 43.3275C102.946 43.6951 102.785 44.1592 102.807 44.6318V44.9977C102.775 45.48 102.933 45.9564 103.251 46.3338C103.403 46.4983 103.591 46.6281 103.803 46.7135C104.015 46.7989 104.244 46.8376 104.474 46.8269C104.701 46.8399 104.929 46.8053 105.14 46.7256C105.351 46.6459 105.542 46.523 105.697 46.3656C106.007 45.9903 106.165 45.5218 106.142 45.0454V44.6796Z" fill="#F9F8F7"/>
<path d="M116.226 42.8903H114.241V47.3121H113.403V42.8903H111.426V42.3574H116.193L116.226 42.8903Z" fill="#F9F8F7"/>
<path d="M122.51 47.3121H121.672V45.0217H118.572V47.3121H117.734V42.3574H118.572V44.4888H121.672V42.3574H122.51V47.3121Z" fill="#F9F8F7"/>
<path d="M128.075 45.0217H125.402V46.7793H128.502V47.3121H124.59V42.3574H128.46V42.8903H125.402V44.4809H128.075V45.0217Z" fill="#F9F8F7"/>
<path d="M138.186 47.3121H137.348L134.248 43.4947V47.3121H133.41V42.3574H134.248L137.398 46.1908V42.3574H138.236L138.186 47.3121Z" fill="#F9F8F7"/>
<path d="M143.748 45.0217H141.076V46.7793H144.176V47.3121H140.271V42.3574H144.1V42.8903H141.042V44.4809H143.715L143.748 45.0217Z" fill="#F9F8F7"/>
<path d="M147.837 44.2582L149.312 42.3574H150.267L148.29 44.8149L150.284 47.3121H149.32L147.804 45.3796L146.279 47.3121H145.357L147.351 44.8149L145.399 42.3574H146.354L147.837 44.2582Z" fill="#F9F8F7"/>
<path d="M156.145 42.8903H154.151V47.3121H153.314V42.8903H151.387V42.3574H156.145V42.8903Z" fill="#F9F8F7"/>
<path d="M162.163 45.7534L162.281 46.4055L162.457 45.817L163.671 42.3574H164.358L165.548 45.817L165.716 46.4135L165.85 45.7454L166.805 42.3574H167.643L166.151 47.3121H165.414L164.115 43.7412L164.023 43.3675L163.923 43.7412L162.607 47.3519H161.87L160.379 42.3972H161.217L162.163 45.7534Z" fill="#F9F8F7"/>
<path d="M173.895 44.9976C173.906 45.4363 173.802 45.8708 173.593 46.2621C173.403 46.6002 173.111 46.877 172.755 47.0574C172.354 47.2484 171.91 47.3479 171.461 47.3479C171.012 47.3479 170.568 47.2484 170.167 47.0574C169.811 46.8759 169.52 46.5993 169.329 46.2621C169.111 45.8846 169.001 45.4596 169.01 45.0294V44.6715C168.98 44.2441 169.057 43.816 169.237 43.4229C169.426 43.0721 169.716 42.7797 170.074 42.5799C170.472 42.3828 170.916 42.2843 171.365 42.2936C171.816 42.2844 172.262 42.3828 172.663 42.5799C173.025 42.7716 173.317 43.0627 173.501 43.4149C173.709 43.8065 173.813 44.2408 173.803 44.6795L173.895 44.9976ZM173.057 44.6795C173.094 44.1931 172.938 43.7112 172.621 43.3275C172.295 43.0224 171.856 42.8515 171.398 42.8515C170.94 42.8515 170.501 43.0224 170.175 43.3275C169.861 43.695 169.7 44.1591 169.723 44.6317V44.9976C169.694 45.4794 169.852 45.9546 170.167 46.3337C170.32 46.4974 170.511 46.6267 170.724 46.7119C170.937 46.7972 171.167 46.8364 171.398 46.8268C171.624 46.8397 171.85 46.8051 172.06 46.7253C172.27 46.6456 172.459 46.5227 172.613 46.3655C172.923 45.9902 173.081 45.5217 173.057 45.0453V44.6795Z" fill="#F9F8F7"/>
<path d="M178.016 45.3319H176.566V47.336H175.729V42.3574H177.764C178.327 42.3245 178.886 42.4579 179.365 42.7392C179.548 42.8659 179.696 43.034 179.794 43.2284C179.892 43.4228 179.937 43.6374 179.926 43.8526C179.925 44.1442 179.815 44.4259 179.616 44.6479C179.39 44.888 179.101 45.0665 178.778 45.1649L180.227 47.2644V47.3042H179.39L178.016 45.3319ZM176.566 44.799H177.815C178.156 44.8141 178.494 44.7249 178.778 44.5445C178.891 44.4683 178.982 44.3666 179.044 44.2486C179.105 44.1306 179.135 44 179.13 43.8685C179.141 43.7345 179.116 43.6 179.057 43.4776C178.999 43.3552 178.908 43.2489 178.795 43.1687C178.501 42.9879 178.156 42.8989 177.806 42.9142H176.566V44.799Z" fill="#F9F8F7"/>
<path d="M182.539 46.7793H185.463V47.3121H181.727V42.3574H182.564L182.539 46.7793Z" fill="#F9F8F7"/>
<path d="M187.02 47.3127V42.358H188.762C189.251 42.3487 189.736 42.4467 190.178 42.6443C190.571 42.8151 190.904 43.0916 191.133 43.4396C191.36 43.8087 191.479 44.229 191.477 44.6564V44.9666C191.485 45.3987 191.369 45.8248 191.141 46.1993C190.909 46.548 190.574 46.8244 190.178 46.9946C189.722 47.1866 189.228 47.2842 188.729 47.2809L187.02 47.3127ZM187.857 42.8909V46.7799H188.695C189.229 46.8093 189.755 46.6412 190.161 46.3107C190.34 46.1339 190.478 45.9239 190.568 45.694C190.657 45.4641 190.696 45.2192 190.681 44.9746V44.6803C190.696 44.4412 190.66 44.2017 190.575 43.9762C190.49 43.7506 190.358 43.5438 190.186 43.3681C189.998 43.2049 189.777 43.0787 189.537 42.9969C189.297 42.915 189.042 42.8789 188.787 42.8909H187.857Z" fill="#F9F8F7"/>
<path d="M73.8026 33.4022C73.8307 32.8882 73.6543 32.3829 73.3083 31.9866C72.83 31.5389 72.2596 31.1896 71.6327 30.9607C70.2569 30.56 68.9724 29.9179 67.8459 29.0678C67.4185 28.6902 67.0836 28.2281 66.865 27.7141C66.6464 27.2002 66.5494 26.6469 66.5808 26.0934C66.5673 25.519 66.6889 24.949 66.9368 24.4249C67.1846 23.9007 67.5524 23.4356 68.0134 23.0633C69.0675 22.2477 70.3995 21.8262 71.7584 21.8783C72.4456 21.852 73.1314 21.9559 73.7758 22.1839C74.4203 22.4119 75.0104 22.7596 75.5117 23.2065C75.9853 23.6342 76.3556 24.1543 76.5971 24.731C76.8387 25.3076 76.9457 25.9271 76.9108 26.5467V26.6024H73.8194C73.8497 25.9913 73.6541 25.3893 73.2664 24.9005C73.0756 24.7019 72.845 24.5412 72.5882 24.428C72.3313 24.3147 72.0533 24.251 71.7704 24.2407C71.4874 24.2303 71.205 24.2735 70.9398 24.3676C70.6745 24.4618 70.4316 24.6051 70.2252 24.7891C69.8685 25.1594 69.679 25.6477 69.6974 26.1491C69.69 26.3868 69.7388 26.6232 69.8403 26.8406C69.9418 27.0581 70.0933 27.2512 70.2839 27.4057C70.9102 27.8594 71.6013 28.2262 72.3365 28.4952C73.6273 28.8542 74.812 29.4942 75.7966 30.3642C76.5892 31.1923 77.0048 32.2844 76.9527 33.4022C76.9941 33.999 76.8893 34.5968 76.6466 35.1487C76.4038 35.7007 76.0297 36.1917 75.5536 36.5834C74.497 37.3714 73.1757 37.7697 71.8338 37.7048C70.3885 37.717 68.9841 37.2501 67.8626 36.3846C67.29 35.9474 66.8381 35.3844 66.5462 34.7442C66.2542 34.104 66.1309 33.4059 66.187 32.7103V32.6467H69.2869C69.2132 33.3805 69.4414 34.1129 69.9236 34.6906C70.1788 34.9152 70.4804 35.087 70.8092 35.1951C71.138 35.3033 71.4869 35.3454 71.8338 35.3189C72.1049 35.3392 72.3774 35.3042 72.6331 35.2164C72.8889 35.1287 73.1219 34.9901 73.3167 34.8099C73.6629 34.4172 73.8368 33.9132 73.8026 33.4022Z" fill="#F9F8F7"/>
<path d="M94.6716 31.9313C94.7186 32.6961 94.6058 33.4623 94.3398 34.1857C94.0739 34.909 93.6599 35.5754 93.1217 36.1463C92.0022 37.1233 90.5371 37.6655 89.0164 37.6655C87.4958 37.6655 86.0307 37.1233 84.9112 36.1463C83.8327 34.9893 83.2814 33.4735 83.3781 31.9313V27.6287C83.2842 26.082 83.8349 24.5623 84.9112 23.3977C85.4397 22.8821 86.0774 22.4787 86.7821 22.2141C87.4868 21.9496 88.2426 21.8298 88.9997 21.8628C89.7604 21.8304 90.5198 21.9504 91.2285 22.2148C91.9372 22.4793 92.5794 22.8823 93.1133 23.3977C93.6535 23.9709 94.0692 24.6397 94.3366 25.3658C94.604 26.0918 94.7178 26.8608 94.6716 27.6287V31.9313ZM91.5215 27.5889C91.5861 26.7155 91.3605 25.8449 90.8764 25.0996C90.6616 24.8225 90.3777 24.6004 90.0501 24.4532C89.7226 24.3061 89.3616 24.2385 88.9997 24.2566C88.6394 24.2353 88.2793 24.3007 87.9527 24.4467C87.6261 24.5926 87.3436 24.8145 87.1314 25.0917C86.6659 25.8464 86.45 26.7164 86.5114 27.5889V31.9313C86.4402 32.8071 86.6568 33.6823 87.1314 34.4365C87.3577 34.6979 87.6423 34.9085 87.9646 35.0531C88.2869 35.1976 88.639 35.2726 88.9955 35.2726C89.352 35.2726 89.7041 35.1976 90.0264 35.0531C90.3487 34.9085 90.6332 34.6979 90.8596 34.4365C91.3472 33.6867 91.573 32.81 91.5047 31.9313L91.5215 27.5889Z" fill="#F9F8F7"/>
<path d="M104.723 35.0483H110.638V37.4342H101.59V22.085H104.723V35.0483Z" fill="#F9F8F7"/>
<path d="M127.768 22.085V32.5431C127.815 33.2416 127.704 33.9414 127.442 34.5957C127.181 35.25 126.775 35.8436 126.252 36.3367C125.126 37.1985 123.723 37.6685 122.276 37.6685C120.83 37.6685 119.427 37.1985 118.301 36.3367C117.78 35.8436 117.376 35.2511 117.115 34.5985C116.853 33.9459 116.741 33.2481 116.785 32.5511V22.085H119.943V32.5431C119.88 33.2797 120.097 34.0134 120.555 34.6109C120.774 34.8347 121.042 35.0098 121.34 35.1239C121.638 35.238 121.96 35.2883 122.281 35.271C122.602 35.2919 122.924 35.2466 123.224 35.1381C123.525 35.0297 123.798 34.8607 124.023 34.6427C124.485 34.035 124.699 33.2892 124.626 32.5431V22.085H127.768Z" fill="#F9F8F7"/>
<path d="M144.866 24.4796H141.222V37.451H138.063V24.4796H134.436V22.0938H144.866V24.4796Z" fill="#F9F8F7"/>
<path d="M154.085 37.4501H150.943V22.085H154.085V37.4501Z" fill="#F9F8F7"/>
<path d="M172.922 31.9313C172.969 32.6961 172.856 33.4623 172.59 34.1857C172.324 34.909 171.91 35.5754 171.372 36.1463C170.252 37.1233 168.787 37.6655 167.266 37.6655C165.746 37.6655 164.281 37.1233 163.161 36.1463C162.083 34.9893 161.531 33.4735 161.628 31.9313V27.6287C161.534 26.082 162.085 24.5623 163.161 23.3977C163.69 22.8821 164.327 22.4787 165.032 22.2141C165.737 21.9496 166.493 21.8298 167.25 21.8628C168.01 21.8304 168.77 21.9504 169.478 22.2148C170.187 22.4793 170.829 22.8823 171.363 23.3977C171.903 23.9709 172.319 24.6397 172.587 25.3658C172.854 26.0918 172.968 26.8608 172.922 27.6287V31.9313ZM169.771 27.5889C169.836 26.7155 169.611 25.8449 169.126 25.0996C168.912 24.8225 168.628 24.6004 168.3 24.4532C167.973 24.3061 167.612 24.2385 167.25 24.2566C166.889 24.2353 166.529 24.3007 166.203 24.4467C165.876 24.5926 165.594 24.8145 165.381 25.0917C164.916 25.8464 164.7 26.7164 164.761 27.5889V31.9313C164.695 32.8088 164.918 33.6841 165.398 34.4365C165.624 34.6979 165.909 34.9085 166.231 35.0531C166.554 35.1976 166.906 35.2726 167.262 35.2726C167.619 35.2726 167.971 35.1976 168.293 35.0531C168.615 34.9085 168.9 34.6979 169.126 34.4365C169.614 33.6867 169.84 32.81 169.771 31.9313V27.5889Z" fill="#F9F8F7"/>
<path d="M191.605 37.4501H188.505L183.478 27.6282H183.411V37.4501H180.244V22.085H183.478L188.429 31.899H188.496V22.085H191.638L191.605 37.4501Z" fill="#F9F8F7"/>
<path d="M73.7276 11.9297C73.7577 11.4143 73.5845 10.9068 73.2417 10.5061C72.747 10.0549 72.1594 9.70558 71.5158 9.48018C70.1418 9.08122 68.8597 8.43898 67.7373 7.58737C67.3076 7.21144 66.9712 6.7496 66.7524 6.23521C66.5337 5.72082 66.438 5.16672 66.4723 4.61295C66.4559 4.02928 66.5794 3.44972 66.8334 2.91795C67.0874 2.38618 67.4652 1.91608 67.9384 1.54309C68.9842 0.721915 70.3101 0.291981 71.6666 0.334235C72.3509 0.310894 73.0333 0.416221 73.6746 0.644156C74.3159 0.872091 74.9033 1.21814 75.4032 1.66239C75.875 2.09142 76.2441 2.61173 76.4855 3.18805C76.7269 3.76437 76.8349 4.38321 76.8023 5.00264V5.06627H73.7276C73.7584 4.45259 73.5629 3.84791 73.1746 3.35637C72.7856 2.96092 72.2478 2.72734 71.6782 2.70649C71.1086 2.68564 70.5534 2.87919 70.1334 3.24503C69.7778 3.61907 69.5886 4.10934 69.6056 4.61295C69.5994 4.84937 69.6489 5.08412 69.7503 5.30012C69.8518 5.51612 70.0027 5.70792 70.1921 5.86157C70.8151 6.31562 71.5036 6.68254 72.2363 6.95113C73.5302 7.31296 74.7176 7.95552 75.7048 8.82804C76.1086 9.24414 76.4199 9.73329 76.62 10.2662C76.8201 10.7992 76.9049 11.3649 76.8693 11.9297C76.9016 12.5173 76.7923 13.1042 76.5499 13.6458C76.3075 14.1874 75.9382 14.6694 75.4702 15.0552C74.4166 15.8493 73.0939 16.2509 71.7504 16.1846C70.2968 16.2119 68.8784 15.7593 67.7373 14.9041C67.1722 14.4611 66.7284 13.8948 66.4439 13.2535C66.1594 12.6123 66.0427 11.9153 66.1036 11.2219V11.1583H69.2035C69.1305 11.8932 69.3552 12.6269 69.8318 13.2101C70.0907 13.4315 70.3942 13.6006 70.724 13.7073C71.0538 13.8139 71.403 13.8558 71.7504 13.8305C72.0215 13.8512 72.2942 13.8166 72.55 13.7287C72.8058 13.6409 73.0388 13.5021 73.2333 13.3215C73.5807 12.9353 73.7577 12.4367 73.7276 11.9297Z" fill="#F9F8F7"/>
<path d="M91.4605 10.4025C91.5077 11.1686 91.3951 11.936 91.1291 12.6607C90.8632 13.3854 90.4491 14.0531 89.9106 14.6255C88.7912 15.6024 87.326 16.1446 85.8054 16.1446C84.2848 16.1446 82.8196 15.6024 81.7002 14.6255C80.622 13.4651 80.0708 11.9471 80.167 10.4025V6.09988C80.0718 4.5554 80.6228 3.03769 81.7002 1.87684C82.2283 1.36023 82.8656 0.955642 83.5703 0.689712C84.275 0.423782 85.031 0.302538 85.7886 0.333961C86.5498 0.304161 87.3091 0.426057 88.0176 0.691795C88.7261 0.957533 89.3681 1.36122 89.9022 1.87684C90.443 2.44815 90.8591 3.1155 91.1265 3.84034C91.394 4.56519 91.5075 5.33315 91.4605 6.09988V10.4025ZM88.3104 6.06807C88.3718 5.19242 88.1465 4.32017 87.6653 3.57083C87.4502 3.29462 87.166 3.07364 86.8383 2.92784C86.5107 2.78205 86.1499 2.71603 85.7886 2.73577C85.4284 2.71446 85.0682 2.77983 84.7417 2.9258C84.4151 3.07177 84.1326 3.29364 83.9203 3.57083C83.4539 4.32515 83.2379 5.19542 83.3004 6.06807V10.4025C83.2364 11.2813 83.4556 12.1578 83.9287 12.9156C84.1559 13.1772 84.4412 13.3878 84.7642 13.5324C85.0872 13.6771 85.4399 13.752 85.797 13.752C86.1541 13.752 86.5068 13.6771 86.8298 13.5324C87.1528 13.3878 87.4382 13.1772 87.6653 12.9156C88.1488 12.1613 88.3742 11.2833 88.3104 10.4025V6.06807Z" fill="#F9F8F7"/>
<path d="M106.568 15.9059H103.418V9.54352H98.3915V15.9059H95.2246V0.556641H98.3915V7.15763H103.418V0.556641H106.568V15.9059Z" fill="#F9F8F7"/>
<path d="M118.206 12.6372H113.942L113.104 15.9059H109.912L114.436 0.556641H117.729L122.27 15.9059H119.086L118.206 12.6372ZM114.579 10.2513H117.561L116.103 4.81945H116.036L114.579 10.2513Z" fill="#F9F8F7"/>
<path d="M129.279 0.556641L132.178 11.8419H132.245L135.177 0.556641H139.307V15.9059H136.157V11.4602L136.425 5.4875H136.358L133.267 15.9059H131.164L128.114 5.56703H128.047L128.324 11.4522V15.9059H125.174V0.556641H129.279Z" fill="#F9F8F7"/>
<path d="M160.505 10.3388H160.572L162.314 0.556641H165.381L162.256 15.9059H159.315L157.036 6.51343H156.969L154.715 15.9059H151.775L148.658 0.556641H151.725L153.467 10.3388H153.534L155.872 0.556641H158.134L160.505 10.3388Z" fill="#F9F8F7"/>
<path d="M177.163 9.17769H171.751V13.52H178.143V15.9059H168.559V0.556641H178.093V2.94254H171.751V6.78384H177.188L177.163 9.17769Z" fill="#F9F8F7"/>
<path d="M181.465 15.9057V0.556408H186.232C187.633 0.466348 189.024 0.830915 190.178 1.5903C190.661 1.97672 191.04 2.46692 191.283 3.02018C191.526 3.57345 191.627 4.17383 191.577 4.77149C191.574 5.45155 191.38 6.11855 191.016 6.70407C190.67 7.28004 190.13 7.72841 189.483 7.97655C189.87 8.0488 190.238 8.1954 190.563 8.40738C190.889 8.61935 191.165 8.89222 191.376 9.20927C191.792 9.88381 192.004 10.6545 191.988 11.4361C192.033 12.0524 191.937 12.6706 191.707 13.2485C191.477 13.8264 191.119 14.3503 190.655 14.7843C189.584 15.5926 188.234 15.9924 186.869 15.9057H181.465ZM184.632 7.03015H186.383C186.655 7.03955 186.926 6.99726 187.181 6.90576C187.435 6.81426 187.668 6.67538 187.866 6.49729C188.232 6.0891 188.415 5.56098 188.377 5.02599C188.404 4.74087 188.372 4.45337 188.281 4.18027C188.191 3.90717 188.044 3.65394 187.849 3.43539C187.627 3.25509 187.37 3.11803 187.093 3.03205C186.815 2.94608 186.523 2.91288 186.232 2.93435H184.632V7.03015ZM184.632 9.12974V13.5198H186.869C187.143 13.5403 187.419 13.5032 187.677 13.4111C187.935 13.319 188.168 13.1742 188.36 12.9869C188.73 12.535 188.907 11.9668 188.854 11.3963C188.895 10.8072 188.75 10.2199 188.435 9.71031C188.282 9.50858 188.077 9.34773 187.839 9.24325C187.601 9.13878 187.339 9.0942 187.078 9.11383L184.632 9.12974Z" fill="#F9F8F7"/>
</svg>
