<svg width="36" height="36" viewBox="0 0 36 36" fill="none" xmlns="http://www.w3.org/2000/svg">
<path d="M36 18C36 27.9411 27.9411 36 18 36C8.05887 36 0 27.9411 0 18C0 8.05887 8.05887 0 18 0C27.9411 0 36 8.05887 36 18Z" fill="white"/>
<path d="M15.824 24.224C21.104 24.224 23.984 19.856 23.984 16.064C23.984 15.936 23.984 15.824 23.968 15.696C24.528 15.296 25.008 14.784 25.392 14.208C24.88 14.432 24.32 14.592 23.744 14.656C24.336 14.304 24.784 13.744 25.008 13.072C24.448 13.408 23.84 13.632 23.184 13.776C22.656 13.216 21.92 12.864 21.088 12.864C19.504 12.864 18.224 14.144 18.224 15.728C18.224 15.952 18.256 16.176 18.304 16.384C15.92 16.272 13.808 15.12 12.4 13.392C12.16 13.808 12.016 14.304 12.016 14.832C12.016 15.824 12.528 16.704 13.296 17.216C12.832 17.2 12.384 17.072 12 16.864C12 16.88 12 16.88 12 16.896C12 18.288 12.992 19.44 14.304 19.712C14.064 19.776 13.808 19.808 13.552 19.808C13.36 19.808 13.184 19.792 13.008 19.76C13.376 20.896 14.432 21.728 15.68 21.744C14.704 22.512 13.456 22.976 12.112 22.976C11.888 22.976 11.648 22.96 11.424 22.944C12.688 23.744 14.192 24.224 15.824 24.224Z" fill="#0160E7"/>
</svg>
