<svg width="36" height="37" viewBox="0 0 36 37" fill="none" xmlns="http://www.w3.org/2000/svg">
<path d="M36 18.2402C36 28.1814 27.9411 36.2402 18 36.2402C8.05887 36.2402 0 28.1814 0 18.2402C0 8.29911 8.05887 0.240234 18 0.240234C27.9411 0.240234 36 8.29911 36 18.2402Z" fill="white"/>
<path d="M9.4125 18.2402C9.4125 21.6465 11.3688 24.5809 14.225 25.9577L10.1737 14.7621C9.70312 15.849 9.4125 17.009 9.4125 18.2402ZM23.7969 17.8052C23.7969 16.7552 23.3981 15.9927 23.0719 15.4502C22.6369 14.7252 22.2388 14.1459 22.2388 13.4215C22.2388 12.6246 22.855 11.8996 23.6887 11.8996H23.7975C22.275 10.4865 20.2463 9.65273 18 9.65273C16.5788 9.66532 15.1823 10.0251 13.932 10.7008C12.6816 11.3765 11.6155 12.3476 10.8263 13.5296H11.37C12.2762 13.5296 13.6525 13.4209 13.6525 13.4209C14.1238 13.3846 14.16 14.0727 13.725 14.1459C13.725 14.1459 13.2537 14.2184 12.7469 14.2184L15.8631 23.4934L17.7469 17.8771L16.4062 14.2177L15.5 14.1465C15.0287 14.1102 15.1012 13.4215 15.5362 13.4215C15.5362 13.4215 16.9488 13.5302 17.7825 13.5302C18.6888 13.5302 20.065 13.4215 20.065 13.4215C20.5363 13.3852 20.5725 14.0734 20.1375 14.1465C20.1375 14.1465 19.6662 14.219 19.1594 14.219L22.275 23.459L23.15 20.5965C23.5125 19.4009 23.8019 18.5677 23.8019 17.8065L23.7969 17.8052ZM18.145 19.0009L15.5725 26.4652C16.3331 26.6827 17.1663 26.8277 18 26.8277C19.0144 26.8277 19.9562 26.6402 20.8625 26.3565C20.8262 26.3202 20.8263 26.284 20.79 26.2477L18.145 19.0009ZM25.5363 14.1465L25.6087 15.0215C25.6087 15.8965 25.4638 16.8696 24.9569 18.1015L22.3481 25.674C24.8844 24.1884 26.6231 21.4346 26.6231 18.2465C26.5869 16.7609 26.1881 15.384 25.5356 14.1527L25.5363 14.1465ZM18 8.24023C12.4925 8.24023 8 12.7327 8 18.2402C8 23.7477 12.4925 28.2402 18 28.2402C23.5075 28.2402 28 23.7477 28 18.2402C28 12.7327 23.5075 8.24023 18 8.24023ZM18 27.8052C12.7463 27.8052 8.47125 23.5302 8.47125 18.2402C8.47522 15.7143 9.48041 13.2929 11.2665 11.5068C13.0527 9.72064 15.474 8.71545 18 8.71148C20.526 8.71545 22.9473 9.72064 24.7335 11.5068C26.5196 13.2929 27.5248 15.7143 27.5287 18.2402C27.5287 23.5302 23.2537 27.8052 18 27.8052Z" fill="#0160E7"/>
</svg>
