<svg width="36" height="36" viewBox="0 0 36 36" fill="none" xmlns="http://www.w3.org/2000/svg">
<path d="M36 18C36 27.9411 27.9411 36 18 36C8.05887 36 0 27.9411 0 18C0 8.05887 8.05887 0 18 0C27.9411 0 36 8.05887 36 18Z" fill="white"/>
<path d="M24.8952 14.5282C24.7352 13.9042 24.2392 13.4242 23.6152 13.2482C22.4952 12.9602 17.9992 12.9602 17.9992 12.9602C17.9992 12.9602 13.5032 12.9602 12.3672 13.2642C11.7432 13.4242 11.2632 13.9202 11.0872 14.5442C10.7832 15.6642 10.7832 18.0162 10.7832 18.0162C10.7832 18.0162 10.7832 20.3522 11.0872 21.4882C11.2472 22.1122 11.7432 22.5922 12.3672 22.7682C13.4872 23.0722 17.9992 23.0722 17.9992 23.0722C17.9992 23.0722 22.4952 23.0722 23.6312 22.7682C24.2552 22.6082 24.7352 22.1122 24.9112 21.4882C25.2152 20.3682 25.2152 18.0162 25.2152 18.0162C25.2152 18.0162 25.1992 15.6642 24.8952 14.5282ZM16.5592 20.1602V15.8402L20.3032 18.0002L16.5592 20.1602Z" fill="#0160E7"/>
</svg>
