<svg width="36" height="36" viewBox="0 0 36 36" fill="none" xmlns="http://www.w3.org/2000/svg">
<g clip-path="url(#clip0_544_22)">
<path d="M18 36C27.9411 36 36 27.9411 36 18C36 8.05888 27.9411 0 18 0C8.05888 0 0 8.05888 0 18C0 27.9411 8.05888 36 18 36Z" fill="#121F37"/>
<path d="M23.4132 29.4667H19.5999C16.1865 29.4667 13.6265 27.7067 13.6265 23.4933V16.7733H10.5332V13.1467C13.9465 12.2667 15.3865 9.30666 15.5465 6.77333H19.0932V12.5333H23.2265V16.7733H19.0932V22.64C19.0932 24.4 19.9732 25.0133 21.3865 25.0133H23.3865V29.4667H23.4132Z" fill="white"/>
</g>
<defs>
<clipPath id="clip0_544_22">
<rect width="36" height="36" fill="white"/>
</clipPath>
</defs>
</svg>
