<svg width="36" height="36" viewBox="0 0 36 36" fill="none" xmlns="http://www.w3.org/2000/svg">
<path d="M18 36C27.9411 36 36 27.9411 36 18C36 8.05887 27.9411 0 18 0C8.05887 0 0 8.05887 0 18C0 27.9411 8.05887 36 18 36Z" fill="#1E4FAD"/>
<path fill-rule="evenodd" clip-rule="evenodd" d="M20.3226 11.3227C20.9033 11.3227 21.6291 11.3227 22.2097 11.3227C22.3549 11.3227 22.3549 11.3227 22.5 11.3227V7.83878C22.2097 7.83878 21.7742 7.69362 21.4839 7.69362C20.7581 7.69362 20.1775 7.69362 19.4516 7.69362C18.4355 7.69362 17.4194 7.98394 16.5484 8.56459C15.5323 9.29039 15.0968 10.3065 14.8065 11.4678C14.6613 11.9033 14.6613 12.4839 14.6613 12.9194C14.6613 13.6452 14.6613 14.371 14.6613 15.242V15.5323H11.4678V19.3065H14.6613V28.8872H18.5807V19.3065H21.7742C21.9194 18.0001 22.0645 16.8388 22.2097 15.5323C21.9194 15.5323 21.7742 15.5323 21.4839 15.5323C20.6129 15.5323 18.4355 15.5323 18.4355 15.5323C18.4355 15.5323 18.4355 13.6452 18.4355 12.7743C18.7258 11.613 19.3065 11.3227 20.3226 11.3227Z" fill="white"/>
</svg>
