<svg width="36" height="36" viewBox="0 0 36 36" fill="none" xmlns="http://www.w3.org/2000/svg">
<path d="M18 36C27.9411 36 36 27.9411 36 18C36 8.05887 27.9411 0 18 0C8.05886 0 0 8.05887 0 18C0 27.9411 8.05886 36 18 36Z" fill="#007AB5"/>
<path d="M10.306 14.2259H13.935V25.9839H10.306V14.2259ZM12.193 8.41942C13.3543 8.41942 14.3705 9.43555 14.3705 10.5968C14.3705 11.7581 13.3543 12.7743 12.193 12.7743C11.0318 12.7743 10.0156 11.7581 10.0156 10.5968C10.0156 9.43555 11.0318 8.41942 12.193 8.41942Z" fill="white"/>
<path d="M16.2578 14.2258H19.7417V15.8226C20.1772 14.9516 21.4836 13.9355 23.2256 13.9355C26.8546 13.9355 27.5804 16.4032 27.5804 19.4516V25.8387H23.9514V20.1774C23.9514 18.8709 23.9514 17.129 22.0643 17.129C20.1772 17.129 19.8868 18.5806 19.8868 20.1774V25.9838H16.2578V14.2258Z" fill="white"/>
</svg>
