<svg width="28" height="28" viewBox="0 0 28 28" fill="none" xmlns="http://www.w3.org/2000/svg">
<path d="M18.6667 0H21.7778V2.8H28V28H0V2.8H6.22222V0H9.33333V2.8H18.6667V0ZM9.33333 5.6H3.11111V8.4H24.8889V5.6H9.33333ZM3.11111 11.2V25.2H24.8889V11.2H3.11111ZM6.22222 14H9.33333V16.8H6.22222V14ZM15.5556 14H12.4444V16.8H15.5556V14ZM18.6667 14H21.7778V16.8H18.6667V14ZM9.33333 19.6H6.22222V22.4H9.33333V19.6ZM12.4444 19.6H15.5556V22.4H12.4444V19.6ZM21.7778 19.6H18.6667V22.4H21.7778V19.6Z" fill="url(#paint0_linear_539_280)"/>
<defs>
<linearGradient id="paint0_linear_539_280" x1="14" y1="0" x2="14" y2="28" gradientUnits="userSpaceOnUse">
<stop stop-color="#0160E7"/>
<stop offset="1" stop-color="#013681"/>
</linearGradient>
</defs>
</svg>
