<svg width="36" height="36" viewBox="0 0 36 36" fill="none" xmlns="http://www.w3.org/2000/svg">
<path d="M18 36C27.9411 36 36 27.9411 36 18C36 8.05888 27.9411 0 18 0C8.05887 0 0 8.05888 0 18C0 27.9411 8.05887 36 18 36Z" fill="#E02A2F"/>
<path fill-rule="evenodd" clip-rule="evenodd" d="M16.6935 22.0646V22.2098C15.9677 25.113 15.8225 25.8388 15.0967 27.1452C14.6612 27.871 14.3709 28.4517 13.7903 29.0323L13.6451 29.1775C13.4999 29.1775 13.4999 29.0323 13.4999 29.0323C13.3548 28.1614 13.3548 27.2904 13.3548 26.2743C13.3548 25.113 13.4999 24.6775 15.0967 18.2904C15.0967 18.1452 15.0967 18.1452 15.0967 18.0001C14.6612 16.9839 14.6612 15.9678 14.9515 14.9517C15.6774 12.7743 18.1451 12.6291 18.5806 14.371C18.8709 15.5323 18.1451 16.9839 17.5645 19.1614C17.129 20.9033 19.1612 22.2098 21.0483 20.9033C22.6451 19.742 23.3709 16.8388 23.2257 14.8065C22.9354 10.742 18.4354 9.87105 15.5322 11.1775C12.3386 12.6291 11.6128 16.6936 13.0645 18.5807C13.2096 18.871 13.3548 19.0162 13.3548 19.1614C13.2096 19.5969 13.2096 19.8872 13.0645 20.3227C12.9193 20.613 12.7741 20.7581 12.4838 20.613C11.9032 20.3227 11.4677 20.0323 11.1774 19.5969C9.8709 18.0001 9.58058 14.9517 11.1774 12.4839C13.0645 9.58072 16.4032 8.41943 19.4515 8.85492C23.0806 9.2904 25.5483 11.7581 25.9838 14.6614C26.129 15.9678 25.9838 19.1614 24.2419 21.4839C22.2096 24.0969 18.7257 24.242 17.129 22.6452C16.9838 22.3549 16.8387 22.2098 16.6935 22.0646Z" fill="white"/>
</svg>
