<svg width="36" height="36" viewBox="0 0 36 36" fill="none" xmlns="http://www.w3.org/2000/svg">
<path d="M18 36C27.9411 36 36 27.9411 36 18C36 8.05887 27.9411 0 18 0C8.05888 0 0 8.05887 0 18C0 27.9411 8.05888 36 18 36Z" fill="#1BA5D4"/>
<path fill-rule="evenodd" clip-rule="evenodd" d="M14.6615 23.2258C12.4841 23.0806 11.0325 21.629 10.7422 20.3226C11.3228 20.4677 11.9034 20.4677 12.4841 20.3226C11.3228 20.0322 10.4518 19.4516 9.72603 18.4355C9.29054 17.7097 9.14538 16.9838 9.14538 16.258C9.72602 16.5484 10.3067 16.6935 11.0325 16.8387C10.1615 16.258 9.58087 15.3871 9.29054 14.2258C9.00022 13.2097 9.14538 12.1935 9.72603 11.1774C12.0486 13.9355 14.9518 15.3871 18.4357 15.5322C18.4357 15.3871 18.4357 15.2419 18.4357 15.0968C18.2905 14.0806 18.5809 13.2097 19.0164 12.3387C19.7422 11.3226 20.6131 10.5968 21.9196 10.4516C23.3712 10.1613 24.5325 10.5968 25.5486 11.6129C25.5486 11.6129 25.6938 11.758 25.8389 11.6129C26.7099 11.4677 27.5809 11.1774 28.3067 10.7419C28.0163 11.758 27.4357 12.4838 26.5647 13.0645C27.4357 12.9193 28.1615 12.7742 28.8873 12.4838C28.7422 12.629 28.597 12.9193 28.4518 13.0645C28.0164 13.6451 27.4357 14.0806 26.8551 14.5161C26.8551 14.5161 26.8551 14.5161 26.8551 14.6613C26.8551 15.2419 26.8551 15.9677 26.7099 16.5484C26.5647 17.8548 26.1293 19.1613 25.6938 20.3226C25.1131 21.4838 24.3873 22.6451 23.3712 23.6613C21.7744 25.258 19.8873 26.4193 17.5647 26.8548C16.8389 27 15.968 27.1451 15.2422 27.1451C12.7744 27.1451 10.597 26.5645 8.41957 25.4032C8.41957 25.4032 8.41958 25.4032 8.27441 25.4032C9.72603 25.5484 11.1776 25.4032 12.4841 24.8226C13.3551 24.0968 14.0809 23.8064 14.6615 23.2258Z" fill="white"/>
</svg>
