<svg width="36" height="36" viewBox="0 0 36 36" fill="none" xmlns="http://www.w3.org/2000/svg">
<circle cx="18" cy="18" r="18" fill="#007AB5"/>
<path d="M9.4125 18C9.4125 21.4062 11.3687 24.3406 14.225 25.7175L10.1737 14.5219C9.70312 15.6088 9.4125 16.7688 9.4125 18ZM23.7969 17.565C23.7969 16.515 23.3981 15.7525 23.0719 15.21C22.6369 14.485 22.2387 13.9056 22.2387 13.1813C22.2387 12.3844 22.855 11.6594 23.6887 11.6594H23.7975C22.275 10.2463 20.2463 9.4125 18 9.4125C16.5788 9.42508 15.1823 9.78489 13.932 10.4606C12.6816 11.1363 11.6155 12.1074 10.8262 13.2894H11.37C12.2762 13.2894 13.6525 13.1806 13.6525 13.1806C14.1237 13.1444 14.16 13.8325 13.725 13.9056C13.725 13.9056 13.2537 13.9781 12.7469 13.9781L15.8631 23.2531L17.7469 17.6369L16.4062 13.9775L15.5 13.9062C15.0287 13.87 15.1012 13.1813 15.5362 13.1813C15.5362 13.1813 16.9488 13.29 17.7825 13.29C18.6888 13.29 20.065 13.1813 20.065 13.1813C20.5363 13.145 20.5725 13.8331 20.1375 13.9062C20.1375 13.9062 19.6662 13.9788 19.1594 13.9788L22.275 23.2188L23.15 20.3563C23.5125 19.1606 23.8019 18.3275 23.8019 17.5662L23.7969 17.565ZM18.145 18.7606L15.5725 26.225C16.3331 26.4425 17.1663 26.5875 18 26.5875C19.0144 26.5875 19.9563 26.4 20.8625 26.1162C20.8263 26.08 20.8263 26.0437 20.79 26.0075L18.145 18.7606ZM25.5363 13.9062L25.6087 14.7812C25.6087 15.6562 25.4637 16.6294 24.9569 17.8612L22.3481 25.4338C24.8844 23.9481 26.6231 21.1944 26.6231 18.0063C26.5869 16.5206 26.1881 15.1438 25.5356 13.9125L25.5363 13.9062ZM18 8C12.4925 8 8 12.4925 8 18C8 23.5075 12.4925 28 18 28C23.5075 28 28 23.5075 28 18C28 12.4925 23.5075 8 18 8ZM18 27.565C12.7463 27.565 8.47125 23.29 8.47125 18C8.47522 15.474 9.48041 13.0527 11.2665 11.2665C13.0527 9.48041 15.474 8.47522 18 8.47125C20.526 8.47522 22.9473 9.48041 24.7335 11.2665C26.5196 13.0527 27.5248 15.474 27.5287 18C27.5287 23.29 23.2537 27.565 18 27.565Z" fill="white"/>
</svg>
