<svg width="36" height="36" viewBox="0 0 36 36" fill="none" xmlns="http://www.w3.org/2000/svg">
<circle cx="18" cy="18" r="18" fill="#E02A2F"/>
<g clip-path="url(#clip0_544_4)">
<path d="M28.5118 12.6988C28.2679 11.7475 27.5117 11.0157 26.5604 10.7474C24.853 10.3083 17.9988 10.3083 17.9988 10.3083C17.9988 10.3083 11.1447 10.3083 9.41286 10.7718C8.46157 11.0157 7.72981 11.7719 7.4615 12.7231C6.99805 14.4306 6.99805 18.0162 6.99805 18.0162C6.99805 18.0162 6.99805 21.5774 7.4615 23.3093C7.70542 24.2606 8.46157 24.9923 9.41286 25.2606C11.1203 25.7241 17.9988 25.7241 17.9988 25.7241C17.9988 25.7241 24.853 25.7241 26.5848 25.2606C27.5361 25.0167 28.2679 24.2606 28.5362 23.3093C28.9996 21.6018 28.9996 18.0162 28.9996 18.0162C28.9996 18.0162 28.9753 14.4306 28.5118 12.6988ZM15.8036 21.2847V14.6989L21.5113 17.9918L15.8036 21.2847Z" fill="white"/>
</g>
<defs>
<clipPath id="clip0_544_4">
<rect width="21.6" height="21.6" fill="white" transform="translate(7.19922 7.2002)"/>
</clipPath>
</defs>
</svg>
